<?xml version="1.0" encoding="utf-8"?>
<!-- Generator: Adobe Illustrator 27.5.0, SVG Export Plug-In . SVG Version: 6.00 Build 0)  -->
<svg version="1.1" xmlns="http://www.w3.org/2000/svg" xmlns:xlink="http://www.w3.org/1999/xlink" x="0px" y="0px"
	 viewBox="0 0 3710 3710" style="enable-background:new 0 0 3710 3710;" xml:space="preserve">
<g id="Background">
	<g>
		<g>
			<rect style="fill:#FFFFFF;" width="3710" height="3710"/>
		</g>
	</g>
</g>
<g id="Illustration">
	<g>
		<linearGradient id="SVGID_1_" gradientUnits="userSpaceOnUse" x1="3574.262" y1="4024.8467" x2="1121.6494" y2="978.8559">
			<stop  offset="0" style="stop-color:#DAE3FE"/>
			<stop  offset="1" style="stop-color:#E9EFFD"/>
		</linearGradient>
		<path style="fill:url(#SVGID_1_);" d="M2899.533,2823.618c-56.336,59.308-109.64,97.554-151.754,127.772
			c-495.049,355.203-1080.822,251.663-1205.316,226.377c-183.838-37.338-539.192-109.513-796.107-411.639
			C357.664,2309.036,418.189,1588.9,719.684,1113.527c55.148-86.954,346.457-569.566,938.54-646.962
			c358.322-46.839,776.011,47.63,1078.49,301.047C3371.643,1299.557,3326.443,2374.18,2899.533,2823.618z"/>
		<g>
			<path style="fill:#BDD0FB;" d="M1253.887,1375.058c12.353-81.38-17.224-174.808-31.986-260.866
				c-7.805-45.501-11.415-90.657-4.107-136.498c7.266-45.577,28.681-94.871,8.935-140.28
				c-39.787-91.482-134.371-49.849-188.551,19.02c-62.872,79.918-80.059,210.511-103.939,311.072
				c-14.396,60.623-36.082,122.804-43.675,184.58c-12.58,102.338,10.559,173.387,59.514,221.37
				c46.954,46.023,118.466,55.565,175.907,23.576C1177.874,1568.134,1233.959,1506.341,1253.887,1375.058z"/>
			<path style="fill:#91B3FA;" d="M1037.502,1755.094c-2.673,0-5.034-1.928-5.492-4.651c-0.208-1.236-20.806-125.526-21.343-296.985
				c-0.499-158.33,16.483-390.519,100.21-597.544c1.157-2.856,4.403-4.237,7.262-3.079c2.855,1.155,4.233,4.406,3.079,7.262
				c-83.021,205.279-99.878,435.839-99.398,593.109c0.519,170.595,20.983,294.158,21.189,295.385
				c0.512,3.037-1.536,5.915-4.573,6.425C1038.121,1755.068,1037.811,1755.094,1037.502,1755.094z"/>
		</g>
		<g>
			
				<linearGradient id="SVGID_00000163055285705159589000000010254889035621322632_" gradientUnits="userSpaceOnUse" x1="2622.8816" y1="844.0769" x2="4391.4795" y2="-351.7383">
				<stop  offset="0" style="stop-color:#FEBBBA"/>
				<stop  offset="1" style="stop-color:#FF928E"/>
			</linearGradient>
			<circle style="fill:url(#SVGID_00000163055285705159589000000010254889035621322632_);" cx="2851.354" cy="689.598" r="196.82"/>
			<g>
				<path style="fill:#FFFFFF;" d="M2850.217,904.134c-0.939,0-1.881-0.007-2.816-0.018c-2.774-0.034-4.995-2.313-4.963-5.087
					c0.036-2.776,2.143-4.995,5.087-4.963c7.586,0.098,15.313-0.226,22.86-0.96c2.768-0.263,5.218,1.752,5.489,4.514
					c0.268,2.763-1.753,5.219-4.514,5.489C2864.382,903.789,2857.27,904.134,2850.217,904.134z M2824.099,902.529
					c-0.206,0-0.412-0.011-0.622-0.038c-7.923-0.978-15.865-2.414-23.609-4.266c-2.699-0.646-4.364-3.356-3.719-6.057
					c0.645-2.695,3.343-4.365,6.055-3.718c7.383,1.767,14.953,3.134,22.503,4.066c2.754,0.34,4.711,2.849,4.37,5.604
					C2828.764,900.666,2826.598,902.529,2824.099,902.529z M2894.016,899.573c-2.323,0-4.41-1.622-4.91-3.988
					c-0.573-2.715,1.161-5.381,3.877-5.955c7.445-1.573,14.874-3.585,22.081-5.98c2.63-0.883,5.476,0.55,6.353,3.183
					c0.873,2.633-0.553,5.478-3.186,6.353c-7.56,2.514-15.355,4.626-23.167,6.278
					C2894.713,899.538,2894.363,899.573,2894.016,899.573z M2778.592,891.646c-0.566,0-1.145-0.097-1.708-0.301
					c-7.491-2.707-14.917-5.872-22.071-9.408c-2.489-1.23-3.51-4.243-2.28-6.731c1.23-2.489,4.25-3.508,6.729-2.278
					c6.821,3.369,13.9,6.387,21.038,8.966c2.611,0.942,3.961,3.822,3.019,6.433C2782.58,890.373,2780.65,891.646,2778.592,891.646z
					 M2938.45,884.823c-1.901,0-3.716-1.083-4.563-2.92c-1.165-2.519-0.065-5.504,2.454-6.668
					c6.899-3.186,13.697-6.799,20.203-10.736c2.365-1.436,5.46-0.679,6.899,1.696c1.436,2.375,0.677,5.465-1.698,6.901
					c-6.824,4.13-13.952,7.92-21.191,11.263C2939.873,884.674,2939.156,884.823,2938.45,884.823z M2736.645,870.929
					c-0.929,0-1.868-0.257-2.708-0.795c-6.703-4.299-13.242-9.024-19.441-14.045c-2.156-1.747-2.486-4.912-0.739-7.068
					c1.74-2.159,4.913-2.486,7.066-0.741c5.911,4.789,12.146,9.295,18.539,13.394c2.336,1.498,3.016,4.606,1.518,6.942
					C2739.919,870.112,2738.297,870.929,2736.645,870.929z M2978.49,860.595c-1.508,0-2.997-0.675-3.988-1.963
					c-1.691-2.2-1.279-5.355,0.923-7.046c6.012-4.621,11.849-9.642,17.344-14.925c1.999-1.92,5.178-1.86,7.102,0.141
					c1.924,2.002,1.861,5.182-0.141,7.105c-5.761,5.537-11.878,10.802-18.182,15.648
					C2980.636,860.256,2979.56,860.595,2978.49,860.595z M2700.304,841.469c-1.295,0-2.591-0.499-3.575-1.493
					c-5.6-5.671-10.946-11.719-15.885-17.976c-1.721-2.177-1.351-5.337,0.828-7.058c2.179-1.719,5.339-1.349,7.056,0.829
					c4.714,5.967,9.811,11.734,15.153,17.141c1.95,1.974,1.93,5.156-0.046,7.107C2702.856,840.987,2701.58,841.469,2700.304,841.469
					z M3012.204,828.155c-1.132,0-2.274-0.381-3.212-1.163c-2.133-1.776-2.421-4.945-0.645-7.076
					c4.858-5.838,9.448-12.015,13.635-18.36c1.528-2.323,4.652-2.956,6.961-1.426c2.316,1.529,2.954,4.647,1.426,6.961
					c-4.393,6.656-9.205,13.133-14.302,19.255C3015.076,827.538,3013.646,828.155,3012.204,828.155z M2671.311,804.742
					c-1.675,0-3.314-0.837-4.266-2.365c-4.22-6.768-8.106-13.847-11.544-21.043c-1.197-2.504-0.137-5.504,2.368-6.701
					c2.493-1.196,5.499-0.137,6.7,2.367c3.278,6.86,6.981,13.608,11.001,20.058c1.469,2.355,0.752,5.455-1.603,6.924
					C2673.139,804.497,2672.22,804.742,2671.311,804.742z M3037.969,789.112c-0.769,0-1.547-0.177-2.28-0.551
					c-2.473-1.261-3.455-4.287-2.192-6.758c3.464-6.791,6.572-13.829,9.238-20.92c0.978-2.597,3.886-3.908,6.474-2.933
					c2.597,0.977,3.909,3.875,2.934,6.472c-2.8,7.439-6.062,14.822-9.696,21.947C3041.56,788.11,3039.797,789.112,3037.969,789.112z
					 M2651.127,762.515c-2.081,0-4.027-1.304-4.747-3.381c-2.61-7.53-4.825-15.298-6.578-23.085
					c-0.612-2.707,1.089-5.396,3.795-6.006c2.722-0.612,5.397,1.093,6.006,3.798c1.675,7.421,3.781,14.824,6.271,22.003
					c0.909,2.622-0.478,5.484-3.101,6.392C2652.229,762.425,2651.673,762.515,2651.127,762.515z M3054.456,745.323
					c-0.409,0-0.821-0.051-1.237-0.155c-2.689-0.68-4.318-3.412-3.638-6.103c1.862-7.355,3.33-14.909,4.364-22.451
					c0.379-2.751,2.911-4.691,5.663-4.294c2.748,0.378,4.671,2.911,4.295,5.661c-1.086,7.91-2.627,15.831-4.58,23.547
					C3058.748,743.805,3056.703,745.323,3054.456,745.323z M2640.829,716.861c-2.529,0-4.704-1.902-4.989-4.473
					c-0.87-7.895-1.312-15.951-1.312-23.943c0-3.741,0.098-7.532,0.288-11.27c0.14-2.769,2.574-4.928,5.273-4.761
					c2.774,0.142,4.904,2.502,4.763,5.275c-0.183,3.566-0.275,7.185-0.275,10.756c0,7.625,0.422,15.31,1.253,22.84
					c0.304,2.758-1.685,5.241-4.446,5.545C2641.198,716.851,2641.012,716.861,2640.829,716.861z M3060.812,698.977
					c-0.043,0-0.085,0-0.128-0.002c-2.774-0.069-4.969-2.375-4.9-5.149c0.046-1.791,0.069-3.587,0.072-5.389
					c0-5.808-0.249-11.692-0.736-17.48c-0.232-2.766,1.822-5.196,4.586-5.429c2.774-0.255,5.195,1.82,5.43,4.585
					c0.51,6.068,0.769,12.236,0.769,18.332c-0.003,1.889-0.026,3.764-0.072,5.633
					C3065.765,696.81,3063.527,698.977,3060.812,698.977z M2642.344,659.162c-0.271,0-0.543-0.021-0.818-0.065
					c-2.738-0.448-4.596-3.032-4.148-5.771c1.289-7.877,3.036-15.758,5.191-23.422c0.756-2.671,3.549-4.217,6.199-3.476
					c2.673,0.751,4.227,3.526,3.477,6.197c-2.058,7.305-3.723,14.816-4.949,22.323
					C2646.894,657.412,2644.761,659.162,2642.344,659.162z M3056.864,652.36c-2.349,0-4.449-1.659-4.923-4.052
					c-1.472-7.449-3.386-14.904-5.689-22.16c-0.841-2.645,0.625-5.47,3.268-6.309c2.659-0.842,5.469,0.625,6.31,3.27
					c2.418,7.611,4.426,15.434,5.97,23.249c0.536,2.723-1.233,5.367-3.955,5.905C3057.514,652.327,3057.187,652.36,3056.864,652.36z
					 M2655,614.13c-0.628,0-1.269-0.119-1.891-0.373c-2.571-1.045-3.805-3.976-2.761-6.547c3.003-7.377,6.454-14.668,10.265-21.672
					c1.325-2.442,4.38-3.337,6.814-2.015c2.437,1.325,3.34,4.377,2.012,6.814c-3.628,6.678-6.922,13.63-9.781,20.661
					C2658.863,612.947,2656.986,614.13,2655,614.13z M3042.712,607.748c-1.924,0-3.759-1.111-4.593-2.98
					c-3.091-6.929-6.611-13.772-10.468-20.339c-1.406-2.393-0.605-5.473,1.786-6.878c2.385-1.398,5.473-0.609,6.876,1.788
					c4.047,6.889,7.743,14.066,10.985,21.337c1.128,2.534-0.01,5.504-2.542,6.636
					C3044.089,607.607,3043.396,607.748,3042.712,607.748z M2677.346,573.038c-0.994,0-1.999-0.293-2.875-0.905
					c-2.273-1.59-2.83-4.722-1.24-6.997c4.567-6.538,9.542-12.889,14.793-18.875c1.832-2.084,5.002-2.295,7.092-0.464
					c2.087,1.83,2.293,5.005,0.465,7.092c-5.008,5.708-9.755,11.767-14.112,18.002
					C2680.493,572.289,2678.929,573.038,2677.346,573.038z M3019.008,567.393c-1.528,0-3.039-0.695-4.027-2.013
					c-4.547-6.08-9.493-11.979-14.698-17.534c-1.897-2.025-1.793-5.205,0.232-7.102c2.019-1.896,5.208-1.796,7.102,0.232
					c5.457,5.823,10.641,12.009,15.411,18.381c1.662,2.223,1.207,5.371-1.014,7.035
					C3021.112,567.068,3020.055,567.393,3019.008,567.393z M2708.204,537.865c-1.361,0-2.722-0.551-3.713-1.637
					c-1.868-2.049-1.724-5.227,0.327-7.099c5.898-5.384,12.15-10.488,18.581-15.17c2.241-1.631,5.381-1.142,7.02,1.106
					c1.632,2.244,1.138,5.386-1.106,7.02c-6.134,4.464-12.094,9.331-17.724,14.467
					C2710.628,537.432,2709.415,537.865,2708.204,537.865z M2987.002,533.253c-1.155,0-2.313-0.396-3.262-1.204
					c-5.783-4.943-11.901-9.609-18.185-13.873c-2.293-1.559-2.892-4.683-1.335-6.979c1.56-2.293,4.681-2.895,6.981-1.336
					c6.588,4.472,13.003,9.366,19.068,14.547c2.11,1.804,2.359,4.976,0.556,7.086
					C2989.832,532.656,2988.422,533.253,2987.002,533.253z M2746.043,510.328c-1.744,0-3.441-0.913-4.367-2.539
					c-1.377-2.409-0.536-5.478,1.875-6.853c6.935-3.953,14.161-7.555,21.479-10.704c2.555-1.098,5.506,0.082,6.601,2.63
					c1.096,2.548-0.082,5.504-2.63,6.601c-6.974,3.001-13.86,6.435-20.471,10.203
					C2747.744,510.113,2746.887,510.328,2746.043,510.328z M2948.296,506.986c-0.792,0-1.593-0.188-2.339-0.581
					c-6.726-3.544-13.723-6.745-20.799-9.516c-2.584-1.012-3.86-3.927-2.846-6.511c1.011-2.588,3.929-3.858,6.51-2.848
					c7.426,2.908,14.766,6.266,21.819,9.984c2.457,1.294,3.396,4.334,2.103,6.788
					C2951.846,506.009,2950.099,506.986,2948.296,506.986z M2789.031,491.832c-2.156,0-4.148-1.398-4.806-3.569
					c-0.805-2.656,0.697-5.461,3.353-6.266c7.622-2.31,15.467-4.215,23.314-5.661c2.692-0.504,5.345,1.299,5.852,4.03
					c0.5,2.73-1.302,5.35-4.033,5.852c-7.478,1.379-14.953,3.194-22.222,5.396C2790.006,491.761,2789.515,491.832,2789.031,491.832z
					 M2904.736,489.928c-0.429,0-0.867-0.056-1.299-0.172c-7.331-1.958-14.865-3.525-22.392-4.657
					c-2.741-0.414-4.632-2.972-4.22-5.717c0.416-2.745,2.938-4.635,5.718-4.222c7.894,1.189,15.794,2.833,23.484,4.886
					c2.683,0.716,4.276,3.469,3.559,6.152C2908.989,488.444,2906.957,489.928,2904.736,489.928z M2835.035,483.344
					c-2.611,0-4.819-2.022-5.005-4.668c-0.196-2.768,1.887-5.172,4.655-5.368c7.946-0.568,16.046-0.689,23.975-0.389
					c2.771,0.106,4.933,2.44,4.828,5.213c-0.104,2.774-2.368,4.894-5.214,4.83c-7.57-0.293-15.3-0.17-22.876,0.37
					C2835.277,483.341,2835.156,483.344,2835.035,483.344z"/>
			</g>
		</g>
		<path style="fill:#7D97F4;" d="M623.976,1901.105c81.145,613.011,605.185,1084.629,1239.583,1084.629
			s1158.438-471.618,1239.583-1084.629H623.976z"/>
		<path style="fill:#91B3FA;" d="M662.615,1920.098l160.719-463.59c19.401-46.416,43.144-58.093,63.374-31.169l83.343,110.916
			c21.415,28.5,33.671,2.411,77.04-45.292l288.297-311.719c10.2-10.852,28.09-8.229,34.746,5.094
			c0,0,207.605,290.195,277.989,418.624c8.949,16.33,32.258,16.695,41.745,0.671l124.389-210.112
			c19.4-46.414,43.144-58.094,63.373-31.172l95.527,127.132c21.415,28.499,30.429,21.292,66.52-39.108l229.808-335.579
			c18.586-27.141,58.276-28.163,78.234-2.014l273.758,358.662c4.117,8.028,94.47-54.71,139.663-88.82
			c13.978-10.55,33.947-7.166,43.72,7.366l236.761,352.027l36.262,166.712c6.82,7.02,1.861,18.896-7.857,18.815l-440.401-3.644
			l-885.016,3.862L662.615,1920.098z"/>
		
			<linearGradient id="SVGID_00000071537224484976997400000017272504259090730941_" gradientUnits="userSpaceOnUse" x1="-2162.3323" y1="-284.7047" x2="-2042.2972" y2="-284.7047" gradientTransform="matrix(-0.8808 -0.4735 -0.4735 0.8808 539.343 351.4845)">
			<stop  offset="0" style="stop-color:#09005D"/>
			<stop  offset="1" style="stop-color:#1A0F91"/>
		</linearGradient>
		<path style="fill:url(#SVGID_00000071537224484976997400000017272504259090730941_);" d="M2488.868,1125.98
			c-35.922-4.641,2.016-58.719-5.772-77.005c0.398,28.428-58.738,69.432-0.693,82.536c-1.911,2.133-7.706,5.545-7.047,8.424
			c28.676-5.779,37.032,30.039,113.639-34.443c-26.447,2.775-48.591,15.327-65.52,22.125c44.696-21.909,15.919-46.07,55.59-73.784
			C2531.467,1070.224,2537.406,1132.251,2488.868,1125.98z"/>
		
			<linearGradient id="SVGID_00000000188276705843211540000000059554870560752008_" gradientUnits="userSpaceOnUse" x1="-2545.3386" y1="1035.2657" x2="-2258.3914" y2="1035.2657" gradientTransform="matrix(-1 0 0 1 406.6072 0)">
			<stop  offset="0" style="stop-color:#09005D"/>
			<stop  offset="1" style="stop-color:#1A0F91"/>
		</linearGradient>
		<path style="fill:url(#SVGID_00000000188276705843211540000000059554870560752008_);" d="M2804.064,1067.199
			c-17.291,6.723-122.806,10.004-139.065-3.009c14.47,26.038,108.882,20.36,135.843,11.32c-0.706,2.917-4.361,8.941-2.324,11.27
			c16.729-11.711,86.682,39.12,87.934-16.526c-11.518,2.339-25.507,7.138-36.386,0.152c35.84-31.35,79.019-51.471,101.882-96.727
			C2916.15,1012.419,2851.857,1048.616,2804.064,1067.199z"/>
		
			<linearGradient id="SVGID_00000010311366772668703030000011104324153851719580_" gradientUnits="userSpaceOnUse" x1="1270.5442" y1="-1969.5358" x2="1396.0065" y2="-1969.5358" gradientTransform="matrix(0.352 0.936 -0.936 0.352 310.8546 379.5337)">
			<stop  offset="0" style="stop-color:#09005D"/>
			<stop  offset="1" style="stop-color:#1A0F91"/>
		</linearGradient>
		<path style="fill:url(#SVGID_00000010311366772668703030000011104324153851719580_);" d="M2568.772,915.586
			c-5.806-0.568-9.938,0.009-12.131,1.912c7.4,4.289,7.992,6.456,12.385,9.747c-0.012,0.121-0.024,0.242-0.036,0.362
			c-1.913,19.335,3.747,38.757,16.101,53.752c21.837,26.504,47.254,12.139,61.349,11.294c-22.277-9.343-53.201-20.55-46.305-38.572
			c61.779,43.736,44.386,1.688,90.969-2.004c-52.867-12.246-51.707,11.239-90.91-18.404c-13.095-49.102,14.87-20.066,49.037-55.124
			C2606.57,901.989,2558.215,857.35,2568.772,915.586z"/>
		<polygon style="fill:#BDD0FB;" points="2232.856,2176.328 2116.156,2200.527 2121.34,2326.744 2421.308,2466.787 
			2664.999,2436.224 2827.292,2480.618 2914.916,2443.419 2997.904,2259.316 2920.103,2199.202 2586.16,2199.202 		"/>
		<g>
			
				<linearGradient id="SVGID_00000083090416106531651180000015509250268880036774_" gradientUnits="userSpaceOnUse" x1="3306.2014" y1="2961.5544" x2="2426.926" y2="2745.5039">
				<stop  offset="0" style="stop-color:#FEBBBA"/>
				<stop  offset="1" style="stop-color:#FF928E"/>
			</linearGradient>
			<path style="fill:url(#SVGID_00000083090416106531651180000015509250268880036774_);" d="M2712.965,2430.614l-574.016,467.709
				c-37.209,32.382-100.446,61.867-148.401,62.708l-232.318,27.094c-45.174,0.792-90.372-10.199-129.167-34.833
				c-242.253-153.824-382.843-172.738-476.413-218.237c-62.88,9.08-85.411,28.794-63.977,113.187
				c144.553,116.103,329.4,230.461,528.657,298.74h543.757c14.573,0,28.931-3.773,41.828-11.036
				c225.031-126.727,449.583-297.699,673.883-491.946c85.84-14.866,173.677-22.207,267.512-6.956
				c22.829,3.71,45.429-7.959,55.443-28.807c8.368-17.42,16.047-35.004,23.054-52.749c55.427-140.365-73.339-284.213-218.935-244.51
				C2889.017,2342.298,2787.802,2380.145,2712.965,2430.614z"/>
			
				<linearGradient id="SVGID_00000039855194744236056200000001704635249098348733_" gradientUnits="userSpaceOnUse" x1="3310.0107" y1="2946.0535" x2="2430.7356" y2="2730.0032">
				<stop  offset="0" style="stop-color:#FEBBBA"/>
				<stop  offset="1" style="stop-color:#FF928E"/>
			</linearGradient>
			<path style="fill:url(#SVGID_00000039855194744236056200000001704635249098348733_);" d="M2848.541,2377.256
				c-285.059-112.171-569.07,342.953-1111.137,516.52c-64.601,68.424-8.452,161.135,116.928,130.542l465.37-162.161
				L2848.541,2377.256z"/>
			<path style="fill:#FFFFFF;" d="M1717.668,2985.228c9.552,13.829,23.593,23.638,39.069,28.308
				c7.724,2.417,15.758,3.762,23.848,4.333c8.083,0.605,16.232,0.525,24.358-0.182c16.258-1.122,32.412-4.279,48.336-8.24
				c15.925-4.019,31.722-8.734,47.303-14.189c31.126-10.993,61.847-23.424,92.057-37.15c30.279-13.55,60.329-27.759,90.071-42.672
				c59.639-29.507,118.832-60.224,178.406-90.392c59.573-30.128,119.523-59.936,181.301-85.675
				c-58.045,33.228-115.685,66.762-173.908,99.508c-58.206,32.737-116.804,64.966-176.911,94.573
				c-60.201,29.278-121.472,57.311-186.25,76.689c-32.327,9.532-65.772,17.045-100.052,17.359
				c-8.545,0.033-17.135-0.585-25.624-1.933c-8.473-1.326-16.919-3.377-24.839-6.825c-7.926-3.363-15.388-7.866-21.751-13.559
				C1726.752,2999.451,1721.518,2992.656,1717.668,2985.228z"/>
		</g>
		<g>
			
				<linearGradient id="SVGID_00000005985171402750163960000001432996203962284202_" gradientUnits="userSpaceOnUse" x1="852.0087" y1="3622.9001" x2="2294.801" y2="1749.3219" gradientTransform="matrix(0.9338 -0.3579 0.3579 0.9338 -212.5795 -78.0037)">
				<stop  offset="0" style="stop-color:#09005D"/>
				<stop  offset="1" style="stop-color:#1A0F91"/>
			</linearGradient>
			<path style="fill:url(#SVGID_00000005985171402750163960000001432996203962284202_);" d="M1594.9,2161.316
				c0,0,25.186-49.469,62.119-70.548c36.932-21.078,12.374,36.806-4.709,55.471s-24.242,36.123-24.242,36.123
				s15.403,220.88,154.794,266.137c139.391,45.257,213.31,102.621,340.106,54.029c126.795-48.593,174.452-12.325,186.031,58.543
				c11.579,70.868-16.052,174.941,47.644,192.078c63.696,17.137,93.47,13.517,136.558,85.294s67.393,143.889,91.675,146.268
				c24.281,2.379,22.777,59.432,22.777,59.432s-73.241-3.091-87.557-40.448c-14.317-37.358-91.056-171.535-91.056-171.535
				s-247.542-0.559-274.254-44.851c-26.712-44.292-57.328-98.773-57.328-98.773s-311.225,82.271-355.314,48.533
				c-44.089-33.738-247.705-82.29-240.577-38.282c7.128,44.007,44.514,92.34,43.419,97.953c-1.095,5.613,80.932,16.375,90.26,40.715
				c9.328,24.34,17.504,66.001,17.504,66.001s-95.985-57.347-121.993-72.698c-26.008-15.351-36.739-67.069-40.21-76.125
				c-3.471-9.057-140.218-81.294-80.01-95.28c60.208-13.985,105.235-33.706,187.829-24.851
				c-21.247-65.606-3.391-147.754-5.086-186.056c-1.695-38.302-65.364-150.231-65.364-150.231s-110.048,19.453-126.047,4.81
				c-15.999-14.643-79.949-37.525-15.514-55.727c64.435-18.202,145.248-47.874,144.306-60.497
				C1529.717,2174.179,1554.195,2154.35,1594.9,2161.316z"/>
			
				<linearGradient id="SVGID_00000171717166567857469080000009226406017477195921_" gradientUnits="userSpaceOnUse" x1="344.8258" y1="3232.3315" x2="1787.4838" y2="1358.9275" gradientTransform="matrix(0.9338 -0.3579 0.3579 0.9338 -212.5795 -78.0037)">
				<stop  offset="0" style="stop-color:#09005D"/>
				<stop  offset="1" style="stop-color:#1A0F91"/>
			</linearGradient>
			<path style="fill:url(#SVGID_00000171717166567857469080000009226406017477195921_);" d="M1554.66,2182.797
				c0,0,40.973-51.191,27.957-85.154c-13.016-33.963-79.907-48.145-108.271-58.914c-28.364-10.77-77.195,13.138-80.612-40.95
				c-3.417-54.088-1.781-63.371-1.781-63.371s12.27,74.931,30.434,74.895c18.163-0.036,73.86,9.78,73.86,9.78
				s-54.31-53.627-32.734-92.191c0,0,45.212,90.871,64.645,96.407c19.433,5.536,24.576,23.474,24.576,23.474
				s-14.295-80.214,11.267-103.86c0,0,0.018,81.358,22.52,92.643c22.502,11.285,28.422,58.354,12.998,97.158
				c-15.424,38.803-10.873,66.489-10.873,66.489L1554.66,2182.797z"/>
			
				<linearGradient id="SVGID_00000008847726702332783240000000440172832199680162_" gradientUnits="userSpaceOnUse" x1="1047.8477" y1="3773.7292" x2="2490.4861" y2="1900.3508" gradientTransform="matrix(0.9338 -0.3579 0.3579 0.9338 -212.5795 -78.0037)">
				<stop  offset="0" style="stop-color:#09005D"/>
				<stop  offset="1" style="stop-color:#1A0F91"/>
			</linearGradient>
			<path style="fill:url(#SVGID_00000008847726702332783240000000440172832199680162_);" d="M2256.627,2500.643
				c6.274-5.65,46.928-45.25,42.515-66.93c-4.413-21.679-16.938-66.218-14.579-73.614c26.357,14.568,33.78,30.55,36.251,38.691
				s9.633-12.131,9.633-12.131s34.367,13.446,19.307,50.379c-15.06,36.932-10.731,56.697-72.288,70.55
				C2215.908,2521.442,2256.627,2500.643,2256.627,2500.643z"/>
		</g>
		<g>
			<g>
				<path style="fill:#BDD0FB;" d="M992.621,1426.839c11.644-104.876-31.039-223.031-54.369-332.508
					c-12.334-57.883-19.277-115.539-12.27-174.632c6.967-58.755,31.867-122.995,4.242-180.147
					c-55.662-115.138-174.68-56.954-240.543,34.045c-76.43,105.598-91.739,273.762-117.164,403.799
					c-15.327,78.393-39.913,159.156-46.467,238.677c-10.858,131.734,22.429,221.555,87.601,280.503
					c62.509,56.54,154.601,65.091,226.536,21.165C905.17,1678.059,973.837,1596.026,992.621,1426.839z"/>
				<path style="fill:#7D97F4;" d="M733.481,1920.253c-0.813-0.371-1.445-1.109-1.642-2.05
					c-11.383-54.248-34.918-203.196-42.503-378.633c-5.568-128.778-2.162-253.268,10.126-370.012
					c15.365-145.982,44.74-280.201,87.308-398.93c0.542-1.512,2.208-2.299,3.72-1.757c1.526,0.533,2.3,2.208,1.757,3.72
					c-42.404,118.274-71.672,252.015-86.99,397.509c-12.26,116.443-15.662,240.628-10.112,369.105
					c7.562,175.077,31.034,323.684,42.389,377.803c0.33,1.572-0.677,3.115-2.25,3.444
					C734.653,1920.584,734.026,1920.502,733.481,1920.253z"/>
			</g>
		</g>
		
			<linearGradient id="SVGID_00000059288374246265744250000001506478721132150446_" gradientUnits="userSpaceOnUse" x1="620.4176" y1="1755.9005" x2="3101.3435" y2="1755.9005">
			<stop  offset="0" style="stop-color:#4F52FF"/>
			<stop  offset="1" style="stop-color:#4042E2"/>
		</linearGradient>
		<path style="fill:url(#SVGID_00000059288374246265744250000001506478721132150446_);" d="M632.874,1897.217l148.779-110.141
			c28.019-20.743,64.506-26.228,97.386-14.641l94.053,33.145c34.805,12.266,73.494,5.361,101.908-18.186l193.098-160.025
			c26.821-22.227,64.297-26.36,95.317-10.511l474.264,242.314c29.481,15.064,64.951,12.132,91.56-7.567l134.028-99.22
			c28.018-20.742,64.504-26.227,97.382-14.64l110.497,38.941c34.805,12.266,73.494,5.362,101.908-18.186l216.06-179.054
			c26.25-21.754,62.707-26.176,93.329-11.495c1.323,0.634,2.534,1.443,3.659,2.385c21.192,17.757,239.628,200.367,407.951,324.427
			c13.772,10.151,6.75,31.98-10.358,32.159l-2432.292,25.493C621.735,1952.726,609.027,1914.87,632.874,1897.217z"/>
		<path style="fill:#FFFFFF;" d="M2456.871,2049.767l-274.154,28.858l-70.021,120.577l323.927,123.976l198.264-74.236
			l179.598,74.236l177.106-47.31c0,0,82.881-142.41,87.493-245.678c-91.12-34.102-196.152-33.909-196.152-33.909L2456.871,2049.767z
			"/>
		<g>
			
				<linearGradient id="SVGID_00000168815300456123848800000007084941904621124997_" gradientUnits="userSpaceOnUse" x1="2509.8557" y1="2498.2102" x2="2437.865" y2="2633.9644" gradientTransform="matrix(0.9635 -0.2677 0.2677 0.9635 -215.4075 -7.5333)">
				<stop  offset="0" style="stop-color:#09005D"/>
				<stop  offset="1" style="stop-color:#1A0F91"/>
			</linearGradient>
			<path style="fill:url(#SVGID_00000168815300456123848800000007084941904621124997_);" d="M2814.484,1910.867
				c0,0,14.58-3.716,22.082,15.061c7.501,18.777,1.909,34.523-6.061,37.622C2822.534,1966.649,2814.484,1910.867,2814.484,1910.867z
				"/>
			
				<linearGradient id="SVGID_00000141433261631915715570000007539991909245229966_" gradientUnits="userSpaceOnUse" x1="2304.7327" y1="2281.4575" x2="2194.6897" y2="2793.6187" gradientTransform="matrix(0.9635 -0.2677 0.2677 0.9635 -215.4075 -7.5333)">
				<stop  offset="0" style="stop-color:#09005D"/>
				<stop  offset="1" style="stop-color:#1A0F91"/>
			</linearGradient>
			<path style="fill:url(#SVGID_00000141433261631915715570000007539991909245229966_);" d="M2584.661,2099.507
				c2.314-27.092-4.539-82.989-4.539-82.989l-55.748-32.261c0,0,21.481,112.729,16.293,116.332
				c-5.186,3.602-32.907,29.33-11.438,28.053c15.125-0.899,36.591,0.364,48.121-11.538c17.112-17.671,16.846-51.464,21.498-74.371
				c33.943-4.046,67.886-8.092,101.83-12.138c0.953,13.645,2.931,27.217,5.913,40.566c1.143,5.117,2.428,10.5,0.9,15.515
				c-3.694,12.124-38.086,13.714-34.383,31.18c3.944,18.605,61.932-6.612,70.937-10.452c6.758-21.159,13.51-42.321,20.275-63.478
				c2.772-8.669,6.567-16.706,5.54-25.502c-1.213-10.398-8.029-21.63-10.455-32.068c-1.307-5.624-3.944-11.513-9.149-14.013
				c-3.341-1.605-7.207-1.549-10.912-1.461c-71.993,1.722-143.703,0.111-215.628,5.539c0.882,2.41,1.764,4.819,2.646,7.229
				L2584.661,2099.507z"/>
			
				<linearGradient id="SVGID_00000048502010668154977930000013933148941364103304_" gradientUnits="userSpaceOnUse" x1="2020.2808" y1="2378.5391" x2="2005.8826" y2="2514.2932" gradientTransform="matrix(0.9635 -0.2677 0.2677 0.9635 -215.4075 -7.5333)">
				<stop  offset="0" style="stop-color:#09005D"/>
				<stop  offset="1" style="stop-color:#1A0F91"/>
			</linearGradient>
			<path style="fill:url(#SVGID_00000048502010668154977930000013933148941364103304_);" d="M2385.821,1927.378
				c0,0-4.132-25.17,5.864-23.547c9.995,1.624,16.993,7.676,16.993,7.676L2385.821,1927.378z"/>
			
				<linearGradient id="SVGID_00000170958148072625712240000011280268344076702359_" gradientUnits="userSpaceOnUse" x1="2653.8562" y1="1845.3256" x2="2065.5737" y2="3034.2295" gradientTransform="matrix(0.9811 -0.1934 0.1934 0.9811 -170.2357 -4.7685)">
				<stop  offset="0" style="stop-color:#09005D"/>
				<stop  offset="1" style="stop-color:#1A0F91"/>
			</linearGradient>
			<path style="fill:url(#SVGID_00000170958148072625712240000011280268344076702359_);" d="M2833.191,2052.891
				c-0.566,11.824-1.218,23.51-1.702,34.865c-0.234,5.488-0.525,11.087-2.527,16.202c-7.366,18.821-48.343,21.446-65.373,21.719
				c-0.029-21.304,2.454-28.514,14.358-46.223c1.054-1.568,2.146-3.255,2.171-5.144c0.02-1.446-0.595-2.816-1.2-4.13
				c-11.302-24.531-16.432-53.397-47.687-50.329c-21.553,2.114-43.814,0.767-65.146-2.709c-19.358-3.146-19.782,26.135-22.877,38.73
				c-5.212,21.214-12.22,45.379-12.025,67.425c0.052,5.596-8.634,10.912-20.193,14.683c-11.532,3.909-28.082,6.242-39.008,4.725
				c-20.85-2.901,2.152-25.126,4.362-55.04c2.218-29.927-62.254-112.312-70.181-117.019c-7.935-4.695-68.581,34.802-86.828,41.35
				c-18.248,6.549-19.786,2.882-32.713,10.229c-12.928,7.336-23.481,4.252-42.317-3.458c-18.846-7.708,9.833-43.591,9.833-43.591
				s5.563-9.202,3.187-21.261c-2.379-12.07,121.739-103.241,161.505-134.299c39.767-31.058,42.277-15.52,49.405-15.819
				c7.128-0.299,88.018,23.012,190.56,63.616c41.15,16.295,66.724,50.075,72.657,93.619
				C2835.567,1990.35,2834.667,2022.092,2833.191,2052.891z"/>
			
				<linearGradient id="SVGID_00000095328979186365030480000002531443804203761037_" gradientUnits="userSpaceOnUse" x1="1953.6993" y1="2442.3716" x2="1931.0735" y2="2633.6616" gradientTransform="matrix(0.9635 -0.2677 0.2677 0.9635 -215.4075 -7.5333)">
				<stop  offset="0" style="stop-color:#09005D"/>
				<stop  offset="1" style="stop-color:#1A0F91"/>
			</linearGradient>
			<path style="fill:url(#SVGID_00000095328979186365030480000002531443804203761037_);" d="M2344.471,2001.595
				c0.631-0.368,17.202,1.724,15.515,5.788c-1.687,4.064-12.789,14.574-17.679,10.34
				C2337.417,2013.49,2338.025,2005.353,2344.471,2001.595z"/>
			
				<linearGradient id="SVGID_00000083773212014223528650000006275565327682651063_" gradientUnits="userSpaceOnUse" x1="2012.5022" y1="2447.1299" x2="1991.9332" y2="2606.5383" gradientTransform="matrix(0.9635 -0.2677 0.2677 0.9635 -215.4075 -7.5333)">
				<stop  offset="0" style="stop-color:#09005D"/>
				<stop  offset="1" style="stop-color:#1A0F91"/>
			</linearGradient>
			<path style="fill:url(#SVGID_00000083773212014223528650000006275565327682651063_);" d="M2394.018,1969.899
				c0,0,0.765-7.338,4.703-7.93s10.71-0.824,9.002,1.726C2406.013,1966.245,2393.492,1972.524,2394.018,1969.899z"/>
			
				<linearGradient id="SVGID_00000121997913532102840040000014160342346120568450_" gradientUnits="userSpaceOnUse" x1="2506.0244" y1="1772.1716" x2="1917.7412" y2="2961.0769" gradientTransform="matrix(0.9811 -0.1934 0.1934 0.9811 -170.2357 -4.7685)">
				<stop  offset="0" style="stop-color:#09005D"/>
				<stop  offset="1" style="stop-color:#1A0F91"/>
			</linearGradient>
			<path style="opacity:0.34;fill:url(#SVGID_00000121997913532102840040000014160342346120568450_);" d="M2436.622,1925.658
				c0,0,0.087-0.176,0.28-0.486c0.198-0.303,0.475-0.771,0.9-1.302c0.839-1.078,2.108-2.592,4.229-3.946
				c1.077-0.644,2.374-1.308,4.094-1.483c0.846-0.113,1.811-0.008,2.757,0.27c0.968,0.264,1.84,0.839,2.595,1.473
				c1.479,1.326,2.362,2.981,2.952,4.581c0.167,0.407,0.278,0.807,0.401,1.211l0.182,0.608l0.139,0.674
				c0.143,0.733,0.286,1.469,0.43,2.206c0.074,0.852,0.149,1.703,0.223,2.552c0.052,0.836-0.014,1.631-0.023,2.438
				c-0.085,1.6-0.312,3.166-0.673,4.635c-0.154,0.741-0.375,1.45-0.605,2.137c-0.212,0.692-0.469,1.35-0.742,1.98
				c-0.258,0.635-0.54,1.236-0.843,1.803c-0.289,0.572-0.585,1.113-0.905,1.613c-0.607,1.014-1.247,1.889-1.846,2.631
				c-0.59,0.748-1.177,1.344-1.657,1.826c-0.971,0.96-1.628,1.393-1.628,1.393s0.285-0.73,0.719-1.974
				c0.219-0.621,0.459-1.38,0.722-2.24c0.137-0.427,0.271-0.883,0.4-1.366c0.142-0.477,0.28-0.979,0.401-1.508
				c0.14-0.521,0.278-1.063,0.384-1.632c0.127-0.562,0.262-1.137,0.347-1.739c0.103-0.597,0.235-1.199,0.292-1.829
				c0.068-0.626,0.197-1.251,0.219-1.9c0.133-1.286,0.156-2.611,0.156-3.945c-0.028-0.662-0.057-1.329-0.085-1.998l-0.19-1.902
				c-0.126-0.732-0.253-1.464-0.378-2.193l-0.429-0.199l-0.405-0.062l-0.013-0.068l-0.003-0.017
				c-0.023-0.116,0.027,0.139,0.021,0.107l-0.006-0.029l0.273-0.54c-0.073-0.309,0.056-0.665-0.043-0.944
				c-0.341-1.175-0.704-2.19-1.22-2.845c-0.522-0.629-1.025-0.999-1.903-1.13c-0.859-0.143-1.882,0.02-2.846,0.263
				c-0.975,0.25-1.88,0.606-2.694,0.946c-0.812,0.349-1.531,0.674-2.118,0.97
				C2437.306,1925.286,2436.622,1925.658,2436.622,1925.658z"/>
			
				<linearGradient id="SVGID_00000085224113266465077110000008318595852746051224_" gradientUnits="userSpaceOnUse" x1="2701.7263" y1="1869.0244" x2="2113.4495" y2="3057.9167" gradientTransform="matrix(0.9811 -0.1934 0.1934 0.9811 -170.2357 -4.7685)">
				<stop  offset="0" style="stop-color:#09005D"/>
				<stop  offset="1" style="stop-color:#1A0F91"/>
			</linearGradient>
			<path style="opacity:0.34;fill:url(#SVGID_00000085224113266465077110000008318595852746051224_);" d="M2658.38,2017.127
				c-10.966,3.267-27.104,94.353-26.994,106.129c0.052,5.596-8.63,10.912-19.993,14.633
				C2611.584,2136.337,2628.927,1995.997,2658.38,2017.127z"/>
		</g>
	</g>
</g>
</svg>
