<?xml version="1.0" encoding="utf-8"?>
<!-- Generator: Adobe Illustrator 27.5.0, SVG Export Plug-In . SVG Version: 6.00 Build 0)  -->
<svg version="1.1" xmlns="http://www.w3.org/2000/svg" xmlns:xlink="http://www.w3.org/1999/xlink" x="0px" y="0px"
	 viewBox="0 0 3710 3710" style="enable-background:new 0 0 3710 3710;" xml:space="preserve">
<g id="Background">
	<g>
		<g>
			<rect style="fill:#FFFFFF;" width="3710" height="3710"/>
		</g>
	</g>
</g>
<g id="Illustration">
	<g>
		<g>
			<defs>
				<path id="SVGID_1_" d="M1891.176,455.625C1163.353,434.43,532.905,955.236,437.655,1638.599
					c-104.142,747.165,469.042,1419.433,1174.321,1527.107c877.249,133.929,1728.129-640.862,1651.729-1481.394
					C3206.144,1051.043,2631.022,477.169,1891.176,455.625z"/>
			</defs>
			<use xlink:href="#SVGID_1_"  style="overflow:visible;fill:#F4F7FA;"/>
			<clipPath id="SVGID_00000122713453445916695300000009152534699220771508_">
				<use xlink:href="#SVGID_1_"  style="overflow:visible;"/>
			</clipPath>
			
				<linearGradient id="SVGID_00000013169807370455952390000013195540737168180390_" gradientUnits="userSpaceOnUse" x1="1961.5193" y1="2580.864" x2="3089.8091" y2="3608.9805">
				<stop  offset="0" style="stop-color:#FFC444"/>
				<stop  offset="0.9964" style="stop-color:#F36F56"/>
			</linearGradient>
			
				<path style="clip-path:url(#SVGID_00000122713453445916695300000009152534699220771508_);fill:url(#SVGID_00000013169807370455952390000013195540737168180390_);" d="
				M490.31,2760.563c-0.943-16.31,1240.888-684.384,1532.568-896.675c291.68-212.292,676.565-284.703,845.282-151.212
				c168.717,133.491,606.325,522.358,606.325,522.358s-564.146,955.147-1159.927,1028.999
				C1718.778,3337.884,532.49,3489.652,490.31,2760.563z"/>
		</g>
		
			<linearGradient id="SVGID_00000080912452335524121870000009022574771489199532_" gradientUnits="userSpaceOnUse" x1="531.162" y1="1049.3768" x2="2529.2656" y2="1049.3768">
			<stop  offset="0" style="stop-color:#FFC444"/>
			<stop  offset="0.9964" style="stop-color:#F36F56"/>
		</linearGradient>
		<path style="opacity:0.3;fill:url(#SVGID_00000080912452335524121870000009022574771489199532_);" d="M913.648,794.234
			c-165.15,138.447-297.471,312.668-382.486,510.286l1998.104-445.476C2529.266,859.044,1357.284,807.992,913.648,794.234z"/>
		
			<linearGradient id="SVGID_00000041977704346609991000000010460421571672597155_" gradientUnits="userSpaceOnUse" x1="1487.9159" y1="657.0229" x2="2529.2656" y2="657.0229">
			<stop  offset="0" style="stop-color:#FFC444"/>
			<stop  offset="0.9964" style="stop-color:#F36F56"/>
		</linearGradient>
		<path style="opacity:0.3;fill:url(#SVGID_00000041977704346609991000000010460421571672597155_);" d="M2001.556,463.033
			c-36.349-3.817-73.151-6.325-110.381-7.408c-138.994-4.049-274.415,11.729-403.259,44.574l1041.35,358.844L2001.556,463.033z"/>
		
			<linearGradient id="SVGID_00000096743309193823791220000014248898667522513040_" gradientUnits="userSpaceOnUse" x1="578.7023" y1="2573.3784" x2="3126.0847" y2="2573.3784">
			<stop  offset="0" style="stop-color:#FFC444"/>
			<stop  offset="0.9964" style="stop-color:#F36F56"/>
		</linearGradient>
		<path style="fill:url(#SVGID_00000096743309193823791220000014248898667522513040_);" d="M630.8,3188.135
			c64.358,63.837,179.536,105.484,682.935,13.111c215.104-39.471,359.921-66.775,554.399-138.21
			c124.244-45.636,458.726-167.246,440.047-269.856c-7.581-41.648-48.975-78.402-128.84-102.27
			c-146.503-43.779-260.746-149.795-241.198-240.711c15.341-71.347,174.557-102.989,371.319-150.425
			c79.304-19.118,821.443-198.041,816.599-294.775c-1.66-33.152-92.042-76.457-520.081-113.244
			c-5.478,17.117-10.956,34.236-16.434,51.354c146.23,16.238,309.636,39.138,309.159,62.944
			c-0.293,14.616-62.333,28.006-255.381,46.455c-590.517,56.434-871.863,13.502-1038.403,180.458
			c-24.786,24.848-58.871,64.878-73.163,123.439c-33.115,135.687,138.457,239.873,104.269,300.957
			c-18.25,32.606-76.453,25.996-176.396,26.253c0,0-144.26,0.371-351.083,28.256c-269.554,36.344-547.448,241.605-528.973,388.785
			C584.833,3142.54,612.921,3170.4,630.8,3188.135z"/>
		
			<linearGradient id="SVGID_00000007421358464017863450000009119870181823378840_" gradientUnits="userSpaceOnUse" x1="425.4038" y1="1711.653" x2="2529.2656" y2="1711.653">
			<stop  offset="0" style="stop-color:#FFC444"/>
			<stop  offset="0.9964" style="stop-color:#F36F56"/>
		</linearGradient>
		<path style="opacity:0.3;fill:url(#SVGID_00000007421358464017863450000009119870181823378840_);" d="M431.133,1694.396
			c-30.326,318.9,61.564,621.753,232.606,869.867L2529.266,859.044C2529.266,859.044,989.484,1462.512,431.133,1694.396z"/>
		<g>
			
				<linearGradient id="SVGID_00000029014012609543303950000013280705509588545979_" gradientUnits="userSpaceOnUse" x1="-1140.8287" y1="661.7411" x2="-837.472" y2="661.7411" gradientTransform="matrix(-1 0 0 1 1925.6185 0)">
				<stop  offset="0" style="stop-color:#FF9085"/>
				<stop  offset="1" style="stop-color:#FB6FBB"/>
			</linearGradient>
			<path style="fill:url(#SVGID_00000029014012609543303950000013280705509588545979_);" d="M2840.255,826.037
				c31.21-23.741,77.001-62.3,123.456-117.855c49.477-59.169,122.264-146.213,97.874-186.443
				c-24.112-39.771-141.333-30.72-215.474,27.218c-9.722,7.597-102.309,82.293-79.385,179.183
				C2780.156,784.9,2825.492,816.589,2840.255,826.037z"/>
			
				<linearGradient id="SVGID_00000103237754461841650440000015745061511333952424_" gradientUnits="userSpaceOnUse" x1="-1127.017" y1="779.3537" x2="-997.74" y2="1442.7504" gradientTransform="matrix(-1 0 0 1 1925.6185 0)">
				<stop  offset="0" style="stop-color:#FF9085"/>
				<stop  offset="1" style="stop-color:#FB6FBB"/>
			</linearGradient>
			<path style="fill:url(#SVGID_00000103237754461841650440000015745061511333952424_);" d="M2915.911,1113.989
				c-4.199-11.173-50.478-140.476,25.778-237.738c47.491-60.573,138.961-104.192,178.867-75.53
				c45.672,32.804,27,162.583-42.757,238.291C3020.314,1101.401,2942.32,1111.676,2915.911,1113.989z"/>
			
				<linearGradient id="SVGID_00000177461529426369521190000008309435354002334611_" gradientUnits="userSpaceOnUse" x1="-990.2925" y1="990.6761" x2="-728.8486" y2="990.6761" gradientTransform="matrix(-1 0 0 1 1925.6185 0)">
				<stop  offset="0" style="stop-color:#FF9085"/>
				<stop  offset="1" style="stop-color:#FB6FBB"/>
			</linearGradient>
			<path style="fill:url(#SVGID_00000177461529426369521190000008309435354002334611_);" d="M2658.382,866.842
				c-4.986,27.028-9.013,74.149,13.083,122.134c37.474,81.384,134.42,131.231,244.446,125.013
				c-6.586-29.469-24.884-92.328-78.99-150.184C2768.806,890.968,2686.982,872.088,2658.382,866.842z"/>
			
				<linearGradient id="SVGID_00000168796785556458380700000016687396792254729647_" gradientUnits="userSpaceOnUse" x1="-1255.1886" y1="1009.81" x2="-1122.5095" y2="1557.5372" gradientTransform="matrix(-1 0 0 1 1925.6185 0)">
				<stop  offset="0" style="stop-color:#FF9085"/>
				<stop  offset="1" style="stop-color:#FB6FBB"/>
			</linearGradient>
			<path style="fill:url(#SVGID_00000168796785556458380700000016687396792254729647_);" d="M2991.719,1304.304
				c10.696-41.734,31.309-98.177,73.497-153.847c34.652-45.727,77.065-101.696,125.653-93.436
				c36.977,6.285,66.475,47.889,70.313,86.189c7.036,70.222-73.217,119.081-94.372,131.96
				C3095.316,1318.696,3019.843,1309.339,2991.719,1304.304z"/>
			
				<linearGradient id="SVGID_00000141445636882833857530000012772104990603220901_" gradientUnits="userSpaceOnUse" x1="-1038.4362" y1="1215.1808" x2="-729.3972" y2="1215.1808" gradientTransform="matrix(-1 0 0 1 1925.6185 0)">
				<stop  offset="0" style="stop-color:#FF9085"/>
				<stop  offset="1" style="stop-color:#FB6FBB"/>
			</linearGradient>
			<path style="fill:url(#SVGID_00000141445636882833857530000012772104990603220901_);" d="M2964.055,1313.32
				c-18.365-43.907-57.571-116.502-136.088-161.038c-27.108-15.375-94.204-53.433-138.357-24.95
				c-22.584,14.569-37.785,45.656-34.022,70.313C2669.048,1285.834,2927.94,1310.172,2964.055,1313.32z"/>
			
				<linearGradient id="SVGID_00000124156237012360369470000007801754505345643928_" gradientUnits="userSpaceOnUse" x1="-1317.2604" y1="1242.2312" x2="-1106.3337" y2="1779.7538" gradientTransform="matrix(-1 0 0 1 1925.6185 0)">
				<stop  offset="0" style="stop-color:#FF9085"/>
				<stop  offset="1" style="stop-color:#FB6FBB"/>
			</linearGradient>
			<path style="fill:url(#SVGID_00000124156237012360369470000007801754505345643928_);" d="M3000.345,1590.033
				c10.475-41.041,35.499-113.125,99.572-173.008c48.102-44.955,137.201-100.783,170.336-74.219
				c29.885,23.958,10.304,111.777-32.706,166.626C3161.114,1606.902,3017.141,1592.022,3000.345,1590.033z"/>
			
				<linearGradient id="SVGID_00000043431069140968581550000001121842320728327355_" gradientUnits="userSpaceOnUse" x1="-1029.6526" y1="1494.709" x2="-793.7808" y2="1494.709" gradientTransform="matrix(-1 0 0 1 1925.6185 0)">
				<stop  offset="0" style="stop-color:#FF9085"/>
				<stop  offset="1" style="stop-color:#FB6FBB"/>
			</linearGradient>
			<path style="fill:url(#SVGID_00000043431069140968581550000001121842320728327355_);" d="M2954.982,1639.932
				c1.437-34.885-0.98-103.758-43.095-170.11c-47.542-74.903-140.432-138.337-174.646-115.675
				c-35.411,23.454-18.155,145.88,52.167,217.741C2848.765,1632.544,2928.115,1638.969,2954.982,1639.932z"/>
			
				<linearGradient id="SVGID_00000088104707544463206250000015160826243379295875_" gradientUnits="userSpaceOnUse" x1="-1254.1857" y1="1820.4189" x2="-909.1523" y2="1820.4189" gradientTransform="matrix(-1 0 0 1 1925.6185 0)">
				<stop  offset="0" style="stop-color:#FF9085"/>
				<stop  offset="1" style="stop-color:#FB6FBB"/>
			</linearGradient>
			<path style="fill:url(#SVGID_00000088104707544463206250000015160826243379295875_);" d="M2834.771,1848.601
				c11.124-13.838,81.345-98.466,185.988-95.262c81.965,2.509,164.439,58.276,158.769,90.725
				c-6.176,35.353-117.511,46.077-184.41,43.032C2925.528,1883.928,2870.054,1864.314,2834.771,1848.601z"/>
			
				<linearGradient id="SVGID_00000061444369145495139010000010489614714094974610_" gradientUnits="userSpaceOnUse" x1="-878.6069" y1="1162.3147" x2="-1018.0906" y2="2346.2239" gradientTransform="matrix(-1 0 0 1 1925.6185 0)">
				<stop  offset="0" style="stop-color:#FFC444"/>
				<stop  offset="0.9964" style="stop-color:#F36F56"/>
			</linearGradient>
			<path style="fill:url(#SVGID_00000061444369145495139010000010489614714094974610_);" d="M2964.546,561.932
				c-14.265,8.394-28.156,17.55-41.219,27.867c-13.018,10.361-25.303,21.729-36.507,34.163
				c-11.2,12.429-21.315,25.926-29.958,40.391c-8.593,14.513-15.516,29.974-20.905,46.077c-5.203,16.268-7.785,33.584-7.921,50.499
				c-0.236,16.955,1.134,33.705,3.301,50.222c4.526,33.011,11.545,65.338,19.21,97.425c1.873,8.039,3.902,16.024,5.94,24.008
				c2.035,7.985,4.099,15.963,6.286,23.908c4.246,15.92,8.726,31.794,13.399,47.624c9.384,31.625,19.761,63.147,31.327,93.967
				c5.679,15.44,11.455,30.746,16.805,46.097c5.331,15.362,10.337,30.794,14.901,46.387c2.274,7.8,4.446,15.635,6.592,23.48
				l6.15,23.67c4.061,15.89,8.062,31.758,11.896,47.634c3.766,15.88,7.474,31.758,10.615,47.688
				c1.691,7.954,3.021,15.943,4.51,23.915c1.246,7.995,2.67,15.975,3.655,23.992c4.458,32.023,6.156,64.277,5.101,96.502
				l-0.647,12.076l-0.328,6.039l-0.531,6.027l-1.056,12.058l-1.286,12.195c-1.767,16.218-3.783,32.289-6.562,48.195
				c-5.576,31.766-13.757,63.038-26.263,92.616c-6.008,14.891-13.469,29.129-21.404,43.066c-4.214,6.825-8.207,13.799-12.873,20.341
				c-2.285,3.3-4.449,6.689-6.831,9.923l-7.226,9.646c-19.713,25.411-43.012,48.003-68.656,67.606
				c-25.684,19.574-53.872,35.953-83.506,49.182c-14.825,6.613-30.029,12.4-45.48,17.478c-15.449,5.088-31.167,9.403-47.089,12.882
				c-1.836,0.4-3.001,2.212-2.602,4.049c0.39,1.791,2.133,2.942,3.921,2.626c16.277-2.901,32.417-6.667,48.338-11.237
				c15.91-4.616,31.564-10.142,46.918-16.443c30.678-12.649,60.12-28.617,87.239-48.077c27.107-19.462,51.683-42.6,72.82-68.601
				l7.743-9.897c2.553-3.322,4.889-6.804,7.344-10.201c5.008-6.733,9.348-13.916,13.838-21.003
				c8.519-14.438,16.54-29.235,23.061-44.703c13.505-30.742,22.633-63.249,28.731-96.036c3.02-16.407,5.236-32.905,7.172-49.299
				l1.407-12.275l1.208-12.456l0.603-6.229l0.397-6.249l0.781-12.501c1.425-33.373-0.044-66.937-4.617-99.943
				c-0.996-8.279-2.427-16.466-3.687-24.69c-1.495-8.164-2.842-16.374-4.539-24.481c-3.162-16.285-6.874-32.39-10.633-48.458
				c-3.823-16.043-7.8-32.016-11.819-47.94c-1.985-7.963-4.196-15.983-6.284-23.971c-2.212-7.976-4.451-15.952-6.798-23.899
				c-4.712-15.895-9.891-31.676-15.375-47.304c-5.508-15.626-11.376-31.013-17.08-46.36c-11.5-30.645-22.196-61.333-31.748-92.566
				c-9.597-31.188-18.243-62.764-26.526-94.354c-8.132-31.612-15.59-63.412-20.532-95.381c-4.756-31.881-7.308-64.287,1.854-94.447
				l1.747-5.673l2.02-5.611c1.409-3.718,2.55-7.551,4.259-11.155c1.632-3.631,3.092-7.352,4.864-10.924l5.457-10.664
				c7.745-13.988,16.968-27.198,27.338-39.5c20.782-24.611,45.989-45.523,73.292-63.189l0.022-0.014
				c1.577-1.021,2.029-3.127,1.008-4.706C2968.135,561.481,2966.109,561.016,2964.546,561.932z"/>
		</g>
		<g>
			
				<linearGradient id="SVGID_00000111906682323491885590000012134982926184701868_" gradientUnits="userSpaceOnUse" x1="2087.3064" y1="971.1972" x2="2540.7319" y2="2199.6665">
				<stop  offset="0" style="stop-color:#AA80F9"/>
				<stop  offset="0.9964" style="stop-color:#6165D7"/>
			</linearGradient>
			<path style="fill:url(#SVGID_00000111906682323491885590000012134982926184701868_);" d="M2206.496,1726.121
				c-10.632-36.652-26.021-110.366,1.563-191.679c26.239-77.348,95.738-174.472,152.671-162.15
				c31.195,6.751,60.327,46.729,58.972,83.921c-2.223,60.961-84.985,76.76-163.306,183.719
				C2232.047,1673.182,2216.33,1704.042,2206.496,1726.121z"/>
			
				<linearGradient id="SVGID_00000065057083321606231880000013131919947459042445_" gradientUnits="userSpaceOnUse" x1="1778.2716" y1="1085.2612" x2="2231.6958" y2="2313.7271">
				<stop  offset="0" style="stop-color:#AA80F9"/>
				<stop  offset="0.9964" style="stop-color:#6165D7"/>
			</linearGradient>
			<path style="fill:url(#SVGID_00000065057083321606231880000013131919947459042445_);" d="M2188.856,1752.127
				c-9.505-30.548-43.745-126.41-138.862-175.703c-57.499-29.798-167.606-58.314-210.937-4.537
				c-21.202,26.314-25.89,71.678-6.805,102.066c23.153,36.864,70.96,35.241,196.216,52.113
				C2097.347,1735.345,2153.031,1745.283,2188.856,1752.127z"/>
			
				<linearGradient id="SVGID_00000018194739477730111910000014322879297880510088_" gradientUnits="userSpaceOnUse" x1="1864.929" y1="1053.2769" x2="2318.3538" y2="2281.7444">
				<stop  offset="0" style="stop-color:#AA80F9"/>
				<stop  offset="0.9964" style="stop-color:#6165D7"/>
			</linearGradient>
			<path style="fill:url(#SVGID_00000018194739477730111910000014322879297880510088_);" d="M2081.749,1458.481
				c4.708-16.471,27.336-101.87-22.401-177.784c-29.918-45.664-99.358-108.254-165.239-86.022
				c-29.294,9.886-64.871,38.9-64.124,71.014c0.853,36.625,48.395,53.317,178.604,141.551
				C2039.116,1427.926,2064.174,1445.76,2081.749,1458.481z"/>
			
				<linearGradient id="SVGID_00000034082602806523559440000001190617345562595209_" gradientUnits="userSpaceOnUse" x1="2101.2178" y1="966.0625" x2="2554.6428" y2="2194.5305">
				<stop  offset="0" style="stop-color:#AA80F9"/>
				<stop  offset="0.9964" style="stop-color:#6165D7"/>
			</linearGradient>
			<path style="fill:url(#SVGID_00000034082602806523559440000001190617345562595209_);" d="M2124.843,1458.481
				c4.869-52.086,20.337-91.004,32.38-115.224c16.952-34.094,47.354-95.238,109.8-115.484c29.395-9.531,77.344-13.712,91.439,8.43
				c18.667,29.325-31.538,89.918-45.363,106.603C2286.9,1374.424,2231.409,1428.65,2124.843,1458.481z"/>
			
				<linearGradient id="SVGID_00000006673902618204885280000003556988239441537959_" gradientUnits="userSpaceOnUse" x1="2092.5591" y1="969.2587" x2="2545.9839" y2="2197.7258">
				<stop  offset="0" style="stop-color:#AA80F9"/>
				<stop  offset="0.9964" style="stop-color:#6165D7"/>
			</linearGradient>
			<path style="fill:url(#SVGID_00000006673902618204885280000003556988239441537959_);" d="M2156.597,1184.036
				c10.849-16.916,55.94-91.348,34.022-181.451c-3.995-16.421-22.965-94.408-92.094-127.286
				c-10.829-5.15-65.686-29.548-91.625-6.534c-39.855,35.362,19.707,155.022,27.218,170.11
				C2069.087,1109.13,2118.834,1155.585,2156.597,1184.036z"/>
			
				<linearGradient id="SVGID_00000174583183962910258450000008590827071846176670_" gradientUnits="userSpaceOnUse" x1="2252.7478" y1="910.1331" x2="2706.1733" y2="2138.6028">
				<stop  offset="0" style="stop-color:#AA80F9"/>
				<stop  offset="0.9964" style="stop-color:#6165D7"/>
			</linearGradient>
			<path style="fill:url(#SVGID_00000174583183962910258450000008590827071846176670_);" d="M2192.887,1193.108
				c6.134-31.198,22.019-86.799,68.262-133.995c58.472-59.677,156.108-96.351,183.501-67.869
				c21.989,22.864-2.287,86.678-31.754,124.748C2343.002,1206.292,2210.512,1194.89,2192.887,1193.108z"/>
			
				<linearGradient id="SVGID_00000039819877581287126560000004802059728293479832_" gradientUnits="userSpaceOnUse" x1="2378.4028" y1="863.7541" x2="2831.8276" y2="2092.2212">
				<stop  offset="0" style="stop-color:#AA80F9"/>
				<stop  offset="0.9964" style="stop-color:#6165D7"/>
			</linearGradient>
			<path style="fill:url(#SVGID_00000039819877581287126560000004802059728293479832_);" d="M2283.613,916.395
				c-21.531-37.888-53.302-106.818-52.167-195.06c0.885-68.755,22.238-187.447,74.309-195.991
				c43.866-7.199,95.818,66.026,113.947,125.679c23.894,78.623,2.393,177.636-65.776,231.35
				C2328.568,902.354,2302.301,911.696,2283.613,916.395z"/>
			
				<linearGradient id="SVGID_00000080907214959566510470000000407668881333473673_" gradientUnits="userSpaceOnUse" x1="2095.8845" y1="1292.9336" x2="2416.7236" y2="1292.9336">
				<stop  offset="0" style="stop-color:#FFC444"/>
				<stop  offset="0.9964" style="stop-color:#F36F56"/>
			</linearGradient>
			<path style="fill:url(#SVGID_00000080907214959566510470000000407668881333473673_);" d="M2327.889,662.931
				c2.224,14.603,3.815,29.286,4.694,44.003c0.947,14.711,1.167,29.457,0.697,44.167c-0.918,29.42-4.801,58.723-11.61,87.246
				l-1.25,5.353l-1.456,5.299l-2.921,10.59c-2.244,6.971-4.286,14.004-6.886,20.854c-2.364,6.93-5.215,13.685-7.923,20.488
				c-2.97,6.705-5.833,13.449-9.089,20.037c-12.629,26.519-27.81,51.917-42.84,77.597c-7.522,12.815-15.043,25.798-22.325,38.748
				c-7.318,12.95-14.671,25.901-21.808,38.992c-14.349,26.133-28.331,52.553-41.275,79.56
				c-25.952,53.901-47.424,110.681-58.91,170.059l-1.999,11.151c-0.647,3.72-1.405,7.422-1.825,11.181l-1.485,11.24l-0.741,5.62
				c-0.274,1.871-0.489,3.747-0.591,5.636l-1.67,22.617l-0.415,5.654l-0.085,5.667l-0.143,11.334l-0.14,11.334
				c-0.068,3.778,0.276,7.548,0.394,11.322l0.517,11.319l0.26,5.659c0.062,1.888,0.177,3.772,0.402,5.648l2.276,22.536
				c0.288,3.767,1.043,7.473,1.562,11.21l1.718,11.188c9.946,59.547,29.48,117.265,56.867,170.86
				c6.974,13.335,14.207,26.565,22.308,39.255c4.065,6.335,8.041,12.725,12.178,19.006l13.02,18.434
				c17.864,24.207,37.546,47.042,58.874,68.196c42.854,42.085,92.006,77.685,145.525,104.497c1.68,0.843,3.725,0.166,4.569-1.514
				c0.824-1.642,0.186-3.639-1.412-4.514c-12.98-7.077-25.655-14.688-38.014-22.765c-6.253-3.923-12.284-8.186-18.387-12.328
				c-3.034-2.099-5.982-4.32-8.976-6.473c-2.967-2.192-6.009-4.278-8.891-6.583c-23.475-17.865-45.569-37.487-66.064-58.609
				c-20.566-21.056-39.46-43.701-56.536-67.622l-12.428-18.202c-3.941-6.198-7.72-12.5-11.589-18.74
				c-7.709-12.5-14.55-25.506-21.148-38.621c-12.892-26.386-24.208-53.566-33.258-81.488c-9.104-27.902-15.957-56.493-20.695-85.393
				l-1.638-10.861c-0.491-3.627-1.223-7.225-1.486-10.878l-2.147-21.852c-0.216-1.818-0.321-3.644-0.375-5.473l-0.234-5.482
				l-0.471-10.963c-0.104-3.655-0.435-7.307-0.355-10.963l0.169-10.968c0.223-29.244,3.164-58.439,8.688-87.182
				c5.485-28.757,13.433-57.067,23.19-84.786c9.779-27.718,21.281-54.878,33.833-81.603c12.57-26.721,26.227-52.993,40.313-79.094
				c14.169-26.079,28.251-52.241,42.952-77.988c14.635-25.843,29.665-51.784,42.243-79.17c3.237-6.792,6.092-13.779,9.043-20.712
				c2.695-7.049,5.525-14.042,7.867-21.224c2.575-7.097,4.587-14.381,6.792-21.596l2.821-10.961l1.371-5.488l1.161-5.535
				c12.669-58.954,12.938-120.209,1.898-179.063c-0.344-1.848-2.121-3.066-3.968-2.723
				C2328.824,659.41,2327.619,661.128,2327.889,662.931z"/>
		</g>
		<g>
			
				<linearGradient id="SVGID_00000115487817838322960760000004514440857986486207_" gradientUnits="userSpaceOnUse" x1="-1077.6443" y1="656.7646" x2="-2533.6985" y2="2695.2388" gradientTransform="matrix(-1 0 0 1 1175.4218 0)">
				<stop  offset="0" style="stop-color:#893976"/>
				<stop  offset="1" style="stop-color:#311944"/>
			</linearGradient>
			<polygon style="fill:url(#SVGID_00000115487817838322960760000004514440857986486207_);" points="2167.248,961.047 
				2487.939,811.162 2589.546,491.38 2635.871,515.305 2635.871,806.594 2891.285,797.277 2937.61,803.159 2937.61,961.94 
				2891.285,961.94 2635.871,966.416 2635.871,1907.242 2589.546,1939.802 2487.939,968.61 2213.572,972.68 			"/>
			
				<linearGradient id="SVGID_00000137848854184442849720000017188909352354264737_" gradientUnits="userSpaceOnUse" x1="-1182.0486" y1="544.942" x2="-2133.9504" y2="3061.3538" gradientTransform="matrix(-1 0 0 1 1175.4218 0)">
				<stop  offset="0" style="stop-color:#FFC444"/>
				<stop  offset="0.9964" style="stop-color:#F36F56"/>
			</linearGradient>
			<polygon style="fill:url(#SVGID_00000137848854184442849720000017188909352354264737_);" points="2167.248,819.634 
				2441.615,811.162 2441.615,500.997 2589.546,491.38 2589.546,806.594 2891.285,797.277 2891.285,950.307 2589.546,954.782 
				2589.546,1939.802 2441.615,1926.22 2441.615,956.977 2167.248,961.047 			"/>
			
				<linearGradient id="SVGID_00000152962684546765351320000004289518851882943377_" gradientUnits="userSpaceOnUse" x1="-1675.9297" y1="817.8844" x2="-1829.7096" y2="1033.1761" gradientTransform="matrix(-1 0 0 1 1175.4218 0)">
				<stop  offset="0" style="stop-color:#893976"/>
				<stop  offset="1" style="stop-color:#311944"/>
			</linearGradient>
			<path style="fill:url(#SVGID_00000152962684546765351320000004289518851882943377_);" d="M2891.285,797.277v153.03V797.277z"/>
			<path style="opacity:0.5;fill:#FFFFFF;" d="M2527.008,1289.925c-27.314-86.055-94.76-237.223-43.013-406.972
				c27.127-88.989,69.177-124.582,82.718-215.067c9.082-60.692,1.192-118.448-15.098-170.731l37.933-2.466v315.214l301.739-9.317
				v153.03l-301.739,4.475v985.02l-103.085-9.465C2586.466,1625.959,2569.545,1423.936,2527.008,1289.925z"/>
		</g>
		<g>
			
				<linearGradient id="SVGID_00000091723749428389401400000011483257032016185506_" gradientUnits="userSpaceOnUse" x1="2115.1963" y1="1144.8986" x2="2011.83" y2="1433.2356">
				<stop  offset="0" style="stop-color:#FFC444"/>
				<stop  offset="0.9964" style="stop-color:#F36F56"/>
			</linearGradient>
			<path style="fill:url(#SVGID_00000091723749428389401400000011483257032016185506_);" d="M2030.461,1310.231
				c0,0,13.383-20.567,21.672-35.687c8.289-15.122,49.556-59.363,49.556-59.363s4.058,5.985-4.675,17.048
				c-8.733,11.063-27.499,30.394-22.079,37.267c5.42,6.875,19.292,12.047,11.088,26.826c-8.205,14.779-25.744,6.945-33.154,18.882
				c-7.411,11.935-14.93,24.901-14.93,24.901L2030.461,1310.231z"/>
			
				<linearGradient id="SVGID_00000163793783598648024720000017605933405802048132_" gradientUnits="userSpaceOnUse" x1="1864.0089" y1="1403.4763" x2="2243.6211" y2="1002.774">
				<stop  offset="0" style="stop-color:#AB316D"/>
				<stop  offset="1" style="stop-color:#792D3D"/>
			</linearGradient>
			<path style="fill:url(#SVGID_00000163793783598648024720000017605933405802048132_);" d="M2023.295,1298.363
				c11.802,14.555,23.603,29.102,35.405,43.655c-7.653,32.318-21.865,77.541-49.719,126.51
				c-12.286,21.6-50.709,85.203-120.908,140.187c-95.559,74.847-275.284,153.517-336.369,89.76
				c-54.507-56.889,10.424-201.124,22.443-227.055c30.506,10.83,80.213,24.291,142.249,22.566
				c20.33-0.565,73.203-2.494,130.64-26.464C1953.336,1423.161,2005.881,1332.257,2023.295,1298.363z"/>
			<g>
				
					<linearGradient id="SVGID_00000048488902141972462470000003146874643221348775_" gradientUnits="userSpaceOnUse" x1="1596.0083" y1="1543.8538" x2="1166.8665" y2="1856.8192">
					<stop  offset="0" style="stop-color:#311944"/>
					<stop  offset="1" style="stop-color:#893976"/>
				</linearGradient>
				<path style="fill:url(#SVGID_00000048488902141972462470000003146874643221348775_);" d="M1531.503,1996.147
					c-56.212,52.915-200.108,32.141-300.765,10.966c-18.099-3.744-34.816-7.578-49.349-10.966
					c-95.44-22.288-21.932-485.898-17.696-532.08c1.604-17.787,15.424-24.518,40.299-26.658
					c39.763-3.388,107.699,4.948,199.129-1.47c148.621-10.387,172.025,47.297,172.025,47.297
					C1583.66,1505.212,1597.79,1933.738,1531.503,1996.147z"/>
				
					<linearGradient id="SVGID_00000088128148835744340530000006694316219275619733_" gradientUnits="userSpaceOnUse" x1="1334.8741" y1="1629.7115" x2="1089.858" y2="1808.3975">
					<stop  offset="0" style="stop-color:#311944"/>
					<stop  offset="1" style="stop-color:#893976"/>
				</linearGradient>
				<path style="opacity:0.5;fill:url(#SVGID_00000088128148835744340530000006694316219275619733_);" d="M1251.555,1569.672
					c-2.497,84.43,3.522,365.983-20.818,437.441c-18.099-3.744-34.816-7.578-49.349-10.966
					c-95.44-22.288-21.932-485.898-17.696-532.08c1.604-17.787,15.424-24.518,40.299-26.658c2.986,3.21,5.929,6.91,8.959,11.189
					C1264.928,1522.151,1254.541,1470.129,1251.555,1569.672z"/>
			</g>
			
				<linearGradient id="SVGID_00000170968231488291927370000004199380557107466648_" gradientUnits="userSpaceOnUse" x1="828.0488" y1="2532.9033" x2="969.0779" y2="3041.8342" gradientTransform="matrix(-0.9968 0.0799 0.0799 0.9968 2308.6487 65.4365)">
				<stop  offset="0" style="stop-color:#311944"/>
				<stop  offset="1" style="stop-color:#893976"/>
			</linearGradient>
			<path style="fill:url(#SVGID_00000170968231488291927370000004199380557107466648_);" d="M1570.157,2955.079
				c0,0-4.526,27.709-3.95,37.569c0.574,9.862,110.005,14.903,111.111,7.515c1.105-7.388-18.088-19.134-31.597-23.28
				c-13.51-4.146-53.049-15.211-53.049-15.211L1570.157,2955.079z"/>
			
				<linearGradient id="SVGID_00000094608907329157243960000001912595829401589438_" gradientUnits="userSpaceOnUse" x1="953.5637" y1="2892.7217" x2="955.6077" y2="2721.0349" gradientTransform="matrix(-0.9968 0.0799 0.0799 0.9968 2308.6487 65.4365)">
				<stop  offset="0" style="stop-color:#FFC444"/>
				<stop  offset="0.9964" style="stop-color:#F36F56"/>
			</linearGradient>
			<path style="fill:url(#SVGID_00000094608907329157243960000001912595829401589438_);" d="M1596.719,2927.456l-3.49,34.453
				c0,0-12.712,8.4-23.911,1.916l-5.604-37.502L1596.719,2927.456z"/>
			
				<linearGradient id="SVGID_00000089542544504922216810000005666385770300045196_" gradientUnits="userSpaceOnUse" x1="1004.613" y1="2483.9697" x2="1145.6426" y2="2992.9023" gradientTransform="matrix(-0.9968 0.0799 0.0799 0.9968 2308.6487 65.4365)">
				<stop  offset="0" style="stop-color:#311944"/>
				<stop  offset="1" style="stop-color:#893976"/>
			</linearGradient>
			<path style="fill:url(#SVGID_00000089542544504922216810000005666385770300045196_);" d="M1374.914,2999.997
				c0,0-4.527,27.708-3.952,37.569c0.576,9.862,110.007,14.902,111.112,7.515c1.106-7.387-18.088-19.134-31.597-23.281
				c-13.509-4.146-53.047-15.211-53.047-15.211L1374.914,2999.997z"/>
			
				<linearGradient id="SVGID_00000020366347815295533900000016909881222386651778_" gradientUnits="userSpaceOnUse" x1="1152.0909" y1="2895.0815" x2="1154.135" y2="2723.3921" gradientTransform="matrix(-0.9968 0.0799 0.0799 0.9968 2308.6487 65.4365)">
				<stop  offset="0" style="stop-color:#FFC444"/>
				<stop  offset="0.9964" style="stop-color:#F36F56"/>
			</linearGradient>
			<path style="fill:url(#SVGID_00000020366347815295533900000016909881222386651778_);" d="M1401.476,2972.373l-3.491,34.454
				c0,0-12.711,8.401-23.911,1.916l-5.603-37.502L1401.476,2972.373z"/>
			
				<linearGradient id="SVGID_00000144318620688599106780000007027865717024173457_" gradientUnits="userSpaceOnUse" x1="854.581" y1="2340.5591" x2="1037.3782" y2="2340.5591" gradientTransform="matrix(-0.9968 0.0799 0.0799 0.9968 2308.6487 65.4365)">
				<stop  offset="0" style="stop-color:#444B8C"/>
				<stop  offset="0.9964" style="stop-color:#26264F"/>
			</linearGradient>
			<path style="fill:url(#SVGID_00000144318620688599106780000007027865717024173457_);" d="M1576.861,2028.007
				c12.649,25.644,25.298,51.288,37.948,76.932c10.172,146.346,15.229,305.479,11.981,475.664
				c-2.415,126.616-9.183,246.56-18.902,359.148c-17.15-0.785-34.3-1.577-51.451-2.361
				c-24.799-49.219-54.075-123.787-56.769-215.834c-2.811-96.014,26.298-108.762,24.453-200.693
				c-2.394-119.153-52.358-150.943-78.978-294.267c-10.18-54.811-17.033-126.402-8.887-213.257
				C1483.125,2018.226,1529.992,2023.121,1576.861,2028.007z"/>
			
				<linearGradient id="SVGID_00000034068852994805928970000000677360358205906352_" gradientUnits="userSpaceOnUse" x1="854.5842" y1="2340.5591" x2="1037.3785" y2="2340.5591" gradientTransform="matrix(-0.9968 0.0799 0.0799 0.9968 2308.6487 65.4365)">
				<stop  offset="0" style="stop-color:#444B8C"/>
				<stop  offset="0.9964" style="stop-color:#26264F"/>
			</linearGradient>
			<path style="opacity:0.3;fill:url(#SVGID_00000034068852994805928970000000677360358205906352_);" d="M1436.256,2013.339
				c25.312,2.639,50.623,5.279,75.936,7.924c45.563,79.29,58.285,161.818,50.288,198.322
				c-11.311,51.649-41.235,68.193-39.59,120.048c1.627,51.309,31.857,64.614,51.034,125.089
				c13.274,41.871,9.771,80.368,2.219,155.655c-15.209,151.651-51.829,198.028-21.155,247.749
				c8.717,14.127,24.42,30.951,55.189,43.797c-0.753,9.299-1.495,18.629-2.29,27.829c-17.149-0.782-34.3-1.577-51.451-2.359
				c-24.8-49.225-54.075-123.788-56.769-215.836c-2.811-96.015,26.298-108.765,24.452-200.695
				c-2.393-119.153-52.357-150.94-78.977-294.264C1434.963,2171.786,1428.109,2100.195,1436.256,2013.339z"/>
			
				<linearGradient id="SVGID_00000148637017889078617710000003176335168937800886_" gradientUnits="userSpaceOnUse" x1="957.7819" y1="2366.6704" x2="1235.2811" y2="2366.6704" gradientTransform="matrix(-0.9968 0.0799 0.0799 0.9968 2308.6487 65.4365)">
				<stop  offset="0" style="stop-color:#444B8C"/>
				<stop  offset="0.9964" style="stop-color:#26264F"/>
			</linearGradient>
			<path style="fill:url(#SVGID_00000148637017889078617710000003176335168937800886_);" d="M1508.811,2074.175
				c-23.744,129.477-44.717,268.049-61.081,415.01c-19.757,177.444-30.302,344.729-34.448,500.047
				c-18.824,0.536-37.648,1.064-56.471,1.599c-74.176-146.74-78.708-246.228-68.013-311.001
				c4.121-24.96,15.315-73.902,17.87-147.047c1.78-50.988-1.472-89.791-5.535-136.436c-8.907-102.273-19.719-124.599-21.272-202.828
				c-1.46-73.417-1.761-110.565,19.196-132.248C1354.272,2004.146,1497.914,2069.119,1508.811,2074.175z"/>
			
				<linearGradient id="SVGID_00000032609624944525632120000005109317557954944913_" gradientUnits="userSpaceOnUse" x1="1850.5426" y1="1390.7147" x2="2230.1545" y2="990.0125">
				<stop  offset="0" style="stop-color:#AB316D"/>
				<stop  offset="1" style="stop-color:#792D3D"/>
			</linearGradient>
			<path style="fill:url(#SVGID_00000032609624944525632120000005109317557954944913_);" d="M1629.215,2131.195
				c18.036-29.926-4.618-58.788-9.774-115.486c-5.844-64.259,18.91-74.959,43.392-181.452
				c16.28-70.825,31.909-138.817,13.255-218.407c-8.94-38.144-24.103-102.84-77.646-134.089
				c-27.63-16.126-65.357-14.513-139.68-10.624c-91.91,4.806-137.864,7.208-172.136,25.255
				c-5.016,2.643-109.281,59.355-116.457,151.798c-7.306,94.086,95.16,106.733,108.825,232.203
				c6.135,56.324-4.801,142.953-11.892,199.142c-6.809,53.95-11.495,67.764-0.849,84.097c25.661,39.37,104.221,28.147,261.344,5.711
				C1589.23,2160.541,1615.757,2153.527,1629.215,2131.195z"/>
			
				<linearGradient id="SVGID_00000047044049985573976720000015126965847351872398_" gradientUnits="userSpaceOnUse" x1="1515.4843" y1="2399.6062" x2="896.1699" y2="1510.4912" gradientTransform="matrix(-0.9968 0.0799 0.0799 0.9968 2308.6487 65.4365)">
				<stop  offset="0" style="stop-color:#AA80F9"/>
				<stop  offset="0.9964" style="stop-color:#6165D7"/>
			</linearGradient>
			<path style="opacity:0.3;fill:url(#SVGID_00000047044049985573976720000015126965847351872398_);" d="M1390.153,1860.21
				c-6.644,24.454-30.538,42.72-47.171,102.202c-3.591,12.844-29.168,104.298,4.009,126.81c19.165,13,36.368-11.632,82.878-14.848
				c80.596-5.575,118.99,62.161,171.636,43.665c9.134-3.214,21.194-10.055,33.234-25.779c2.397,14.169,1.986,26.475-5.522,38.937
				c-13.458,22.332-39.985,29.346-101.618,38.148c-157.123,22.436-235.683,33.658-261.344-5.711
				c-10.646-16.334-5.96-30.147,0.849-84.097c7.091-56.188,18.027-142.817,11.892-199.142
				c-13.666-125.47-116.131-138.117-108.825-232.203c1.952-25.152,11.205-47.55,23.578-67.043
				C1323.73,1633.746,1411.036,1783.364,1390.153,1860.21z"/>
			
				<linearGradient id="SVGID_00000083073889897035297230000006256404743227637947_" gradientUnits="userSpaceOnUse" x1="1138.3621" y1="1906.4171" x2="1238.2562" y2="1906.4171" gradientTransform="matrix(-0.9968 0.0799 0.0799 0.9968 2308.6487 65.4365)">
				<stop  offset="0" style="stop-color:#FFC444"/>
				<stop  offset="0.9964" style="stop-color:#F36F56"/>
			</linearGradient>
			<path style="fill:url(#SVGID_00000083073889897035297230000006256404743227637947_);" d="M1225.976,2045.286l26.006,16.605
				c4.67-5.392,15.48-16.27,32.36-19.985c19.017-4.179,40.847,1.816,41.355,7.885c0.407,4.863-12.886,9.766-14.941,10.526
				c-16.592,6.123-28.903,1.037-35.612,7.708c-2.372,2.359-5.329,6.746-12.128,10.811c-1.785,1.068-3.657,2.011-4.643,2.396
				c-11.074,4.306-30.072-14.974-31.706-16.657L1225.976,2045.286z"/>
			
				<linearGradient id="SVGID_00000109717452183500968720000017243957093452083350_" gradientUnits="userSpaceOnUse" x1="1722.4668" y1="1269.3809" x2="2102.0791" y2="868.6785">
				<stop  offset="0" style="stop-color:#AB316D"/>
				<stop  offset="1" style="stop-color:#792D3D"/>
			</linearGradient>
			<path style="fill:url(#SVGID_00000109717452183500968720000017243957093452083350_);" d="M1302.809,1704.198
				c18.813-45.058,31.847-114.045,2.132-216.495c-195.793,77.149-295.647,260.043-256.658,405.026
				c32.141,119.521,149.075,177.737,175.159,189.985c6.069-13.816,12.139-27.626,18.208-41.442
				c-30.229-33.662-64.293-83.436-59.475-140.235C1188.854,1822.295,1264.721,1795.419,1302.809,1704.198z"/>
			
				<linearGradient id="SVGID_00000054964676492414089660000000234009582801999497_" gradientUnits="userSpaceOnUse" x1="-1391.8373" y1="2300.6941" x2="-1391.8373" y2="2123.6509" gradientTransform="matrix(-0.7795 0.6265 0.6265 0.7795 -1015.7339 622.2045)">
				<stop  offset="0" style="stop-color:#FFC444"/>
				<stop  offset="0.9964" style="stop-color:#F36F56"/>
			</linearGradient>
			<path style="fill:url(#SVGID_00000054964676492414089660000000234009582801999497_);" d="M1453.951,1378.444
				c0,0-1.546,34.25-12.178,59.899c-9.608,23.182-60.143,37.754-70.386,42.928c-10.245,5.174,19.191,20.3,48.752,23.272
				c29.558,2.972,113.977-3.74,129.194-14.946c15.218-11.205-12.228-10.363-33.328-18.109
				c-21.098-7.745-33.298-49.008-29.574-67.737C1490.154,1385.02,1453.951,1378.444,1453.951,1378.444z"/>
			
				<linearGradient id="SVGID_00000014635946797658300790000013481776914675716028_" gradientUnits="userSpaceOnUse" x1="993.6381" y1="1352.4205" x2="919.5854" y2="1164.3403" gradientTransform="matrix(-0.9968 0.0799 0.0799 0.9968 2308.6487 65.4365)">
				<stop  offset="0" style="stop-color:#444B8C"/>
				<stop  offset="0.9964" style="stop-color:#3E4177"/>
			</linearGradient>
			<path style="fill:url(#SVGID_00000014635946797658300790000013481776914675716028_);" d="M1500.703,1366.026
				c15.338-15.07,17.479-16.83,19.15-22.039c6.703-20.907-9.512-49.538-30.781-56.587c-1.107-0.365-15.37-4.932-20.814,1.257
				c-4.624,5.255,2.178,12.513-1.056,22.641c-3.03,9.482-11.25,10.192-26.484,22.627c-12.55,10.24-20.349,16.606-22.148,25.561
				c-3.71,18.462,18.639,45.219,38.424,44.491C1464.109,1403.714,1466.044,1400.08,1500.703,1366.026z"/>
			<g>
				
					<linearGradient id="SVGID_00000142875774536507410270000008069661735754910880_" gradientUnits="userSpaceOnUse" x1="-1516.9821" y1="2249.6719" x2="-1434.2078" y2="2088.7219" gradientTransform="matrix(-0.7795 0.6265 0.6265 0.7795 -1015.7339 622.2045)">
					<stop  offset="0" style="stop-color:#FFC444"/>
					<stop  offset="0.9964" style="stop-color:#F36F56"/>
				</linearGradient>
				<path style="fill:url(#SVGID_00000142875774536507410270000008069661735754910880_);" d="M1458.93,1406.828
					c0,0,16.304,18.461,41.141,12.358c22.238-5.464,16.563-56.501,0.289-64.655c-5.428-2.719-15.293-2.494-22.712,1.081
					c-4.383,2.112-5.601,4.306-12.828,7.619c-6.666,3.053-8.779,2.63-10.571,4.781c-2.244,2.688-3.209,8.475,3.819,22.443
					c-5.065-3.585-10.514-4.335-13.857-1.964c-0.534,0.38-1.893,1.705-2.478,3.452
					C1439.614,1398.265,1446.184,1404.689,1458.93,1406.828z"/>
			</g>
			
				<linearGradient id="SVGID_00000091705163849432585840000007931092459838319236_" gradientUnits="userSpaceOnUse" x1="1423.1785" y1="1555.464" x2="1188.927" y2="1726.2994">
				<stop  offset="0" style="stop-color:#444B8C"/>
				<stop  offset="0.9964" style="stop-color:#26264F"/>
			</linearGradient>
			<path style="fill:url(#SVGID_00000091705163849432585840000007931092459838319236_);" d="M1270.887,1458.242
				c0,0,114.416-40.12,123.332,63.895c8.916,104.015-60.843,347.898-144.209,360.658c-24.164-44.578-11.814-68.034,14.933-95.472
				c26.747-27.438,115.902-272.455,5.944-292.596l-14.134,7.499C1256.753,1502.226,1238.196,1478.116,1270.887,1458.242z"/>
			
				<linearGradient id="SVGID_00000164500865513334003080000006893770725731138482_" gradientUnits="userSpaceOnUse" x1="1704.9617" y1="1569.8062" x2="1583.5254" y2="1658.3674">
				<stop  offset="0" style="stop-color:#444B8C"/>
				<stop  offset="0.9964" style="stop-color:#26264F"/>
			</linearGradient>
			<path style="fill:url(#SVGID_00000164500865513334003080000006893770725731138482_);" d="M1553.736,1469.794
				c0,0,184.88,96.242,113.336,340.841c0,0,79.001-136.981,21.924-260.313C1631.918,1426.99,1573.41,1442.22,1553.736,1469.794z"/>
			<path style="fill:#FFFFFF;" d="M1399.671,1586.714c-1.016,3.038-4.344,4.672-7.475,3.816c-21.581-5.898-44.346-5.898-65.927,0
				c-3.117,0.845-6.465-0.768-7.475-3.816l0,0c-1.025-3.026,0.957-6.405,4.42-7.369c23.578-6.443,48.46-6.443,72.037,0
				C1398.723,1580.303,1400.682,1583.671,1399.671,1586.714L1399.671,1586.714z"/>
			<path style="fill:#FFFFFF;" d="M1706.895,1591.028c-0.645,3.038-2.76,4.672-4.749,3.816c-13.711-5.898-28.175-5.898-41.886,0
				c-1.98,0.845-4.107-0.768-4.749-3.816l0,0c-0.651-3.026,0.608-6.405,2.808-7.37c14.98-6.443,30.788-6.443,45.768,0
				C1706.293,1584.617,1707.537,1587.985,1706.895,1591.028L1706.895,1591.028z"/>
		</g>
		<g>
			<g>
				
					<linearGradient id="SVGID_00000183928491412347918150000003036447444101417399_" gradientUnits="userSpaceOnUse" x1="1133.231" y1="1678.9615" x2="837.5609" y2="1894.5884">
					<stop  offset="0" style="stop-color:#444B8C"/>
					<stop  offset="0.9964" style="stop-color:#26264F"/>
				</linearGradient>
				<path style="fill:url(#SVGID_00000183928491412347918150000003036447444101417399_);" d="M1088.788,1990.583
					c-38.729,36.457-137.87,22.144-207.221,7.555c-12.469-2.579-23.987-5.221-34-7.555
					c-65.756-15.356-15.111-334.774-12.192-366.592c1.105-12.255,10.626-16.892,27.765-18.367
					c27.396-2.334,74.202,3.41,137.196-1.013c102.397-7.156,118.522,32.586,118.522,32.586
					C1124.723,1652.338,1134.459,1947.584,1088.788,1990.583z"/>
				
					<linearGradient id="SVGID_00000013883276817211869300000012467823499019015815_" gradientUnits="userSpaceOnUse" x1="953.3148" y1="1738.1157" x2="784.5036" y2="1861.2267">
					<stop  offset="0" style="stop-color:#444B8C"/>
					<stop  offset="0.9964" style="stop-color:#26264F"/>
				</linearGradient>
				<path style="opacity:0.5;fill:url(#SVGID_00000013883276817211869300000012467823499019015815_);" d="M895.91,1696.749
					c-1.72,58.171,2.426,252.155-14.343,301.389c-12.469-2.579-23.987-5.221-34-7.555c-65.756-15.356-15.111-334.774-12.192-366.592
					c1.105-12.255,10.626-16.892,27.765-18.367c2.058,2.211,4.085,4.761,6.173,7.709
					C905.123,1664.009,897.967,1628.166,895.91,1696.749z"/>
			</g>
			
				<linearGradient id="SVGID_00000057109353205897897800000007126559494307328683_" gradientUnits="userSpaceOnUse" x1="-423.0233" y1="1408.6392" x2="-393.3883" y2="1589.8694" gradientTransform="matrix(-1 0 0 1 653.8055 0)">
				<stop  offset="0" style="stop-color:#444B8C"/>
				<stop  offset="0.9964" style="stop-color:#26264F"/>
			</linearGradient>
			<path style="fill:url(#SVGID_00000057109353205897897800000007126559494307328683_);" d="M1077.595,1438.766
				c0,0,69.985,28.817,50.431,80.277c-19.555,51.459,5.66,81.563-16.982,89.925c-22.642,8.363-144.086,30.49-142.028,2.702
				c2.059-27.788,28.303-36.314,28.818-62.155S1025.621,1422.299,1077.595,1438.766z"/>
			
				<linearGradient id="SVGID_00000177463390637936943450000006256626805245623980_" gradientUnits="userSpaceOnUse" x1="7908.6128" y1="1677.3574" x2="7928.0093" y2="1989.0839" gradientTransform="matrix(1 0 0 1 -6636.8984 0)">
				<stop  offset="0" style="stop-color:#AA80F9"/>
				<stop  offset="0.9964" style="stop-color:#6165D7"/>
			</linearGradient>
			<path style="fill:url(#SVGID_00000177463390637936943450000006256626805245623980_);" d="M1153.094,1613.924
				c20.221-18.423,92.383,17.083,140.203,64.207c56.182,55.364,51.865,100.252,100.894,169.031
				c24.374,34.194,18.397,160.742-47.172,117.93c-45.548-29.744-68.983-69.152-113.998-146.758
				C1187.849,1740.447,1127.819,1636.954,1153.094,1613.924z"/>
			
				<linearGradient id="SVGID_00000165228799034114263690000013849560661977110670_" gradientUnits="userSpaceOnUse" x1="-6985.8633" y1="2936.7551" x2="-6965.5322" y2="3302.7156" gradientTransform="matrix(-1 0 0 1 -5896.4263 0)">
				<stop  offset="0" style="stop-color:#444B8C"/>
				<stop  offset="0.9964" style="stop-color:#26264F"/>
			</linearGradient>
			<path style="fill:url(#SVGID_00000165228799034114263690000013849560661977110670_);" d="M1038.508,3066.885
				c0,0-2.541,20.23-0.837,27.008c1.709,6.778,60.527,11.675,80.493,9.318c19.964-2.354-11.893-22.749-24.613-26.575
				C1080.831,3072.807,1038.508,3066.885,1038.508,3066.885z"/>
			
				<linearGradient id="SVGID_00000036965332348376296400000015270254364405062313_" gradientUnits="userSpaceOnUse" x1="-6947.4648" y1="3117.106" x2="-6958.2651" y2="2623.002" gradientTransform="matrix(-1 0 0 1 -5896.4263 0)">
				<stop  offset="0" style="stop-color:#AB316D"/>
				<stop  offset="1" style="stop-color:#792D3D"/>
			</linearGradient>
			<path style="fill:url(#SVGID_00000036965332348376296400000015270254364405062313_);" d="M1068.116,3033.137l-6.2,40.588
				c0,0-15.809,7.105-23.409,0.084l-0.837-42.484L1068.116,3033.137z"/>
			
				<linearGradient id="SVGID_00000165915192543178575610000007992728770729695161_" gradientUnits="userSpaceOnUse" x1="-6617.8789" y1="2916.3167" x2="-6597.5488" y2="3282.2656" gradientTransform="matrix(-1 0 0 1 -5896.4263 0)">
				<stop  offset="0" style="stop-color:#444B8C"/>
				<stop  offset="0.9964" style="stop-color:#26264F"/>
			</linearGradient>
			<path style="fill:url(#SVGID_00000165915192543178575610000007992728770729695161_);" d="M736.537,3031.324
				c0,0,12.482,9.261,9.154,20.352c-3.327,11.091-32.449,55.532-53.204,68.146c-20.753,12.613-14.248-13.665-8.208-30.033
				c6.039-16.368,21.473-52.421,27.496-58.466C717.8,3025.282,736.537,3031.324,736.537,3031.324z"/>
			
				<linearGradient id="SVGID_00000179625414330999281690000002598484078130260902_" gradientUnits="userSpaceOnUse" x1="-6623.4839" y1="3110.0237" x2="-6634.2842" y2="2615.9229" gradientTransform="matrix(-1 0 0 1 -5896.4263 0)">
				<stop  offset="0" style="stop-color:#AB316D"/>
				<stop  offset="1" style="stop-color:#792D3D"/>
			</linearGradient>
			<path style="fill:url(#SVGID_00000179625414330999281690000002598484078130260902_);" d="M758.987,2986.734
				c-6.032,16.816-11.836,30.642-16.375,40.839c-10.041,22.561-15.53,31.026-21.745,38.366
				c-5.422,6.393-18.254,20.033-21.703,17.761c-3.504-2.301,5.886-18.885,23.98-67.456c2.629-7.047,10.929-29.509,10.929-29.509l0,0
				H758.987z"/>
			
				<linearGradient id="SVGID_00000051352625253782447750000006333692509875413438_" gradientUnits="userSpaceOnUse" x1="-7104.3394" y1="2795.9597" x2="-6899.1357" y2="2520.5544" gradientTransform="matrix(-1 0 0 1 -5896.4263 0)">
				<stop  offset="0" style="stop-color:#444B8C"/>
				<stop  offset="0.9964" style="stop-color:#26264F"/>
			</linearGradient>
			<path style="fill:url(#SVGID_00000051352625253782447750000006333692509875413438_);" d="M1191.295,2284.057
				c4.304,42.269,8.434,107.874,2.259,187.496c-8.048,103.738-28.791,169.382-54.804,279.991
				c-15.899,67.595-37.321,167.084-56.706,291.51c-4.496,2.574-17.729,9.344-34.768,6.817c-9.538-1.417-16.673-5.208-20.886-7.935
				c-50.862-155.419-35.84-251.731-11.295-311.736c10.461-25.578,23.147-45.757,29.928-85.074
				c8.972-52.019-2.122-81.099-17.941-201.593c-11.276-85.883-9.324-99.158-1.822-112.037
				C1055.25,2279.999,1146.98,2281.006,1191.295,2284.057z"/>
			
				<linearGradient id="SVGID_00000111880322261128962980000016332993375530374824_" gradientUnits="userSpaceOnUse" x1="-6951.9043" y1="2830.1384" x2="-6471.2954" y2="2381.9304" gradientTransform="matrix(-1 0 0 1 -5896.4263 0)">
				<stop  offset="0" style="stop-color:#444B8C"/>
				<stop  offset="0.9964" style="stop-color:#26264F"/>
			</linearGradient>
			<path style="fill:url(#SVGID_00000111880322261128962980000016332993375530374824_);" d="M1016.226,2302.132
				c-31.159,160.91-61.739,245.424-84.882,293.224c-5.707,11.788-24.75,49.822-42.749,104.348
				c-15.936,48.263-22.577,83.768-25.978,99.396c-10.742,49.323-37.291,121.341-108.729,215.8
				c-0.89,0.524-13.072,7.414-24.716,1.272c-5.894-3.111-8.831-8.068-10-10.377c9.34-90.31,20.061-166.199,29.366-224.768
				c1.955-12.284,10.552-66.029,24.037-137.034c5.277-27.789,13.01-68.502,22.273-110.322
				c11.532-52.078,29.217-122.925,56.474-207.82C906.289,2317.942,961.258,2310.039,1016.226,2302.132z"/>
			
				<linearGradient id="SVGID_00000018956065321709761650000004331339048773816966_" gradientUnits="userSpaceOnUse" x1="-7078.1641" y1="2815.4634" x2="-6872.9604" y2="2540.0583" gradientTransform="matrix(-1 0 0 1 -5896.4263 0)">
				<stop  offset="0" style="stop-color:#444B8C"/>
				<stop  offset="0.9964" style="stop-color:#26264F"/>
			</linearGradient>
			<path style="opacity:0.3;fill:url(#SVGID_00000018956065321709761650000004331339048773816966_);" d="M1015.096,2730.199
				c10.461-25.58,23.147-45.759,29.928-85.074c8.972-52.019-2.122-81.099-17.941-201.593c-11.276-85.883-9.324-99.158-1.822-112.037
				c16.298-27.984,50.835-40.402,86.082-45.474c-0.471,1.808-0.946,3.618-1.329,5.368c-18.494,84.457,52.086,135.989,20.25,228.828
				c-15.695,45.773-40.74,56.257-46.574,109.353c-5.466,49.736,14.358,60.097,10.123,105.302
				c-6.329,67.575-54.334,83.929-66.825,135.677c-8.116,33.626-1.28,82.794,58.001,153.964c-0.985,6.132-1.967,12.283-2.944,18.541
				c-4.5,2.574-17.729,9.344-34.768,6.817c-9.538-1.417-16.673-5.208-20.886-7.935
				C975.528,2886.517,990.55,2790.204,1015.096,2730.199z"/>
			
				<linearGradient id="SVGID_00000053526469563924646170000001650922524498563231_" gradientUnits="userSpaceOnUse" x1="-625.2534" y1="2217.7253" x2="97.8295" y2="2217.7253" gradientTransform="matrix(-1 0 0 1 653.8055 0)">
				<stop  offset="0" style="stop-color:#AA80F9"/>
				<stop  offset="0.9964" style="stop-color:#6165D7"/>
			</linearGradient>
			<path style="fill:url(#SVGID_00000053526469563924646170000001650922524498563231_);" d="M579.138,2801.537
				c5.021,5.434,11.032,10.292,17.906,14.614c69.78,44.049,228.48,32.399,362.194-18.854c24.166-9.263,43.556-14.203,59.613-16.302
				c0,0,90.569,45.037,177.841-1.523c120.785-64.51,29.601-537.401,18.196-656.088c-11.442-118.686,8.563-171.339,8.563-171.339
				c117.372-253.839,12.475-318.184,12.475-318.184c-149.148-85.341-277.017-21.16-341.856,26.677
				c-11.445,8.439-19.799,19.678-24.66,32.152c-7.039,17.784-6.995,38.162,1.318,56.647c13.46,30.052,33.099,73.937,58.994,131.86
				c54.177,121.321-48.702,234.078-128.279,278.375c-79.617,44.296-31.575,226.052-113.911,283.645
				c-82.335,57.594-26.059,166.07-65.868,243.094C581.856,2763.333,522.862,2741.02,579.138,2801.537z"/>
			<g>
				
					<linearGradient id="SVGID_00000034066834365045861310000012732618919808414865_" gradientUnits="userSpaceOnUse" x1="-6966.9312" y1="1659.5031" x2="-6770.2544" y2="2862.2595" gradientTransform="matrix(-1 0 0 1 -5896.4263 0)">
					<stop  offset="0" style="stop-color:#AA80F9"/>
					<stop  offset="0.9964" style="stop-color:#6165D7"/>
				</linearGradient>
				<path style="fill:url(#SVGID_00000034066834365045861310000012732618919808414865_);" d="M1170.092,1833.729
					c0,0-142.761-186.405-223.91-206.805c19.067-7.983,39.962-14.89,62.891-19.749c64.474-13.661,116.539-6.205,149.937,0.867
					C1166.659,1632.604,1196.689,1736.528,1170.092,1833.729z"/>
			</g>
			
				<linearGradient id="SVGID_00000168825555224962726470000000045160800635470470_" gradientUnits="userSpaceOnUse" x1="-6961.4917" y1="1629.9939" x2="-6817.6475" y2="1421.1876" gradientTransform="matrix(-1 0 0 1 -5896.4263 0)">
				<stop  offset="0" style="stop-color:#AB316D"/>
				<stop  offset="1" style="stop-color:#792D3D"/>
			</linearGradient>
			<path style="fill:url(#SVGID_00000168825555224962726470000000045160800635470470_);" d="M1045.399,1515.715
				c0,0-7.53,60.194-29.746,73.987c-22.219,13.783-58.135,31.799-62.091,36.691c-3.956,4.883,137.632,20.108,207.799-15.301l0,0
				c-23.124-4.822-29.411-6.596-29.411-6.596c-6.276-1.774-17.983-5.073-29.718-11.761c-7.988-4.548-20.864-13.435-32.673-30.216
				l0.258-33.329L1045.399,1515.715z"/>
			
				<linearGradient id="SVGID_00000158708765092178348110000014392574305850209174_" gradientUnits="userSpaceOnUse" x1="-429.2989" y1="1517.6138" x2="-110.6247" y2="1325.7585" gradientTransform="matrix(-1 0 0 1 653.8055 0)">
				<stop  offset="0" style="stop-color:#AB316D"/>
				<stop  offset="1" style="stop-color:#792D3D"/>
			</linearGradient>
			<path style="fill:url(#SVGID_00000158708765092178348110000014392574305850209174_);" d="M1013.838,1517.052
				c1.588-3.568,7.929-5.462,15.129-3.374c-9.967-24.209,7.42-45.811,13.934-49.873c9.258-5.776,23.111-7.016,30.651-4.214
				c22.616,8.399,39.63,82.033,11.119,92.429c-31.836,11.614-52.14-16.254-52.14-16.254c-2.662-0.443-8.437-1.795-13.229-6.634
				C1017.925,1527.736,1011.824,1521.577,1013.838,1517.052z"/>
			
				<linearGradient id="SVGID_00000134232891698973824700000002780074214142432645_" gradientUnits="userSpaceOnUse" x1="-242.3043" y1="1887.0919" x2="-181.5863" y2="2862.9106" gradientTransform="matrix(-1 0 0 1 653.8055 0)">
				<stop  offset="0" style="stop-color:#AA80F9"/>
				<stop  offset="0.9964" style="stop-color:#6165D7"/>
			</linearGradient>
			<path style="opacity:0.3;fill:url(#SVGID_00000134232891698973824700000002780074214142432645_);" d="M579.138,2801.537
				c5.021,5.434,11.032,10.292,17.906,14.614c54.137-24.536,94.07-130.666,149.192-228.809
				c72.458-128.978,1.689-186.613,114.2-237.578c112.511-50.924,164.67-83.529,132.026-143.922
				c-32.689-60.352-9.882-200.321,65.044-205.838c74.966-5.475,129.513-63.11,123.378-119.386
				c-6.175-56.235-131.077-38.409-143.427-89.21c-12.35-50.801-103.289-130.048-103.289-130.048
				c-15.602-16.879-38.285-2.717-64.758,31.329c-7.039,17.784-6.995,38.162,1.318,56.647c13.46,30.052,33.099,73.937,58.994,131.86
				c54.177,121.321-48.702,234.078-128.279,278.375c-79.617,44.296-31.575,226.052-113.911,283.645
				c-82.335,57.594-26.059,166.07-65.868,243.094C581.856,2763.333,522.862,2741.02,579.138,2801.537z"/>
			
				<linearGradient id="SVGID_00000034806890750107665390000003701031963113413823_" gradientUnits="userSpaceOnUse" x1="-401.3845" y1="1436.4481" x2="-390.8972" y2="1500.5818" gradientTransform="matrix(-1 0 0 1 653.8055 0)">
				<stop  offset="0" style="stop-color:#444B8C"/>
				<stop  offset="0.9964" style="stop-color:#26264F"/>
			</linearGradient>
			<path style="fill:url(#SVGID_00000034806890750107665390000003701031963113413823_);" d="M1079.997,1455.919
				c1.381,1.018-43.783,61.755-53.968,57.122c-10.185-4.633-6.754-28.433-6.754-28.433S1040.888,1427.102,1079.997,1455.919z"/>
			
				<linearGradient id="SVGID_00000000919383278091053170000001551433666398499508_" gradientUnits="userSpaceOnUse" x1="1285.5464" y1="1696.9244" x2="1201.8792" y2="1757.9414">
				<stop  offset="0" style="stop-color:#444B8C"/>
				<stop  offset="0.9964" style="stop-color:#26264F"/>
			</linearGradient>
			<path style="fill:url(#SVGID_00000000919383278091053170000001551433666398499508_);" d="M1181.355,1628.018
				c0,0,127.378,66.309,78.086,234.833c0,0,54.43-94.377,15.105-179.35C1235.221,1598.527,1194.91,1609.02,1181.355,1628.018z"/>
			
				<linearGradient id="SVGID_00000026127591145825428700000009032778415563968699_" gradientUnits="userSpaceOnUse" x1="-376.4166" y1="1635.9623" x2="-420.289" y2="1573.8097" gradientTransform="matrix(-1 0 0 1 653.8055 0)">
				<stop  offset="0" style="stop-color:#FF9085"/>
				<stop  offset="1" style="stop-color:#FB6FBB"/>
			</linearGradient>
			<path style="fill:url(#SVGID_00000026127591145825428700000009032778415563968699_);" d="M996.289,1680.955
				c45.984,14.409,109.094-24.701,170.845-26.718c40.593-1.358,44.709-12.515,38.285-27.912c-3.293-8.027-9.508-17.249-14.943-26.8
				c-11.156-19.678-38.699-20.213-66.692-18.155c-0.165,0-0.33,0.041-0.45,0.041c-0.374,0-0.619,0.041-0.619,0.041
				c12.31-22.848,16.962-61.092,14.903-80.935c-0.29-3.005-0.784-5.228-1.399-6.875c-5.351-29.599-23.432-60.516-56.196-67.926
				c-155.406-35.147-91.268,115.269-96.784,141.617c-5.476,26.347-43.885,49.813-55.536,70.932
				C916.093,1659.383,950.305,1666.546,996.289,1680.955z M1078.379,1452.228c33.344,1.564,38.2,51.953,36.677,76.489
				c-0.575,9.88-1.85,19.76-3.458,29.517c-0.33,2.017-3.168,21.613-4.856,24.289c-0.085,0.123-0.165,0.206-0.25,0.288
				c-0.04,0.042-0.08,0.042-0.121,0.042c-5.765,0.535-11.361,0.988-16.716,1.317c-36.307,1.976-48.082-6.464-65.579-38.862
				c-2.183-4.117-3.952-8.974-5.186-13.915c0-0.082-0.04-0.123-0.04-0.206c-0.909-3.705-1.524-7.492-1.813-10.951
				C1014.196,1486.397,1043.057,1450.581,1078.379,1452.228z"/>
			
				<linearGradient id="SVGID_00000005265749074535430240000008919961220816397450_" gradientUnits="userSpaceOnUse" x1="-432.2233" y1="1615.6481" x2="-448.5465" y2="1592.5234" gradientTransform="matrix(-1 0 0 1 653.8055 0)">
				<stop  offset="0" style="stop-color:#FF9085"/>
				<stop  offset="1" style="stop-color:#FB6FBB"/>
			</linearGradient>
			<path style="opacity:0.3;fill:url(#SVGID_00000005265749074535430240000008919961220816397450_);" d="M1045.815,1616.486
				c32.11-2.758,21.158-22.518,58.209,0.042c37.051,22.601,64.469-3.088,95.345,8.727c2.348,0.905,4.362,1.235,6.051,1.07
				c-3.293-8.027-9.508-17.249-14.943-26.8c-11.156-19.678-38.699-20.213-66.692-18.155c-0.165,0-0.33,0.041-0.45,0.041
				c-0.374,0.083-0.619-0.407-0.619-0.407l-15.972,0.622h-0.165l-0.085,0.572c-0.04,0.041-0.08,0.348-0.121,0.348
				c-5.765,0.535-11.361,1.141-16.716,1.471c-36.307,1.976-48.082-6.387-65.579-38.786c-2.183-4.117-3.952-8.936-5.186-13.876
				l-0.04-0.022l-0.125-0.155C1018.726,1531.178,1013.661,1619.204,1045.815,1616.486z"/>
			
				<linearGradient id="SVGID_00000046300905860264064720000008033522546370057892_" gradientUnits="userSpaceOnUse" x1="1041.5757" y1="1703.1755" x2="851.2169" y2="1842.0009">
				<stop  offset="0" style="stop-color:#444B8C"/>
				<stop  offset="0.9964" style="stop-color:#26264F"/>
			</linearGradient>
			<path style="fill:url(#SVGID_00000046300905860264064720000008033522546370057892_);" d="M923.386,1626.381
				c0,0,84.336-38.401,91.572,46.023c7.237,84.424-49.383,282.374-117.048,292.731c-19.613-36.182-9.589-55.22,12.121-77.49
				c21.709-22.27,99.1-215.329,9.851-231.676l-12.816,1.499C907.065,1657.468,896.852,1642.513,923.386,1626.381z"/>
			<path style="fill:#FFFFFF;" d="M1020.443,1735.552c-0.824,2.466-3.526,3.792-6.067,3.097c-17.516-4.787-35.994-4.787-53.51,0
				c-2.53,0.686-5.247-0.623-6.066-3.097l0,0c-0.832-2.456,0.776-5.199,3.587-5.982c19.137-5.229,39.333-5.229,58.47,0
				C1019.674,1730.349,1021.264,1733.083,1020.443,1735.552L1020.443,1735.552z"/>
			
				<linearGradient id="SVGID_00000053544401657145380120000012899190625510180264_" gradientUnits="userSpaceOnUse" x1="224.2451" y1="-13355.0527" x2="116.272" y2="-13253.3018" gradientTransform="matrix(-0.0999 -0.995 -0.995 0.0999 -12044.1807 3288.0164)">
				<stop  offset="0" style="stop-color:#AB316D"/>
				<stop  offset="1" style="stop-color:#792D3D"/>
			</linearGradient>
			<path style="fill:url(#SVGID_00000053544401657145380120000012899190625510180264_);" d="M1228.941,1796.221
				c11.503-28.128-6.249-58.634-7.429-60.595c-3.359-5.589-9.15-13.633-18.831-21.376c-1.429-0.842-18.644-10.813-23.363-6.076
				c-3.781,3.796,0.951,16.552,12.324,31.313c1.588,6.506,3.425,16.245,3.524,28.123c0.178,21.813-5.656,32.4,1.026,39.654
				c4.892,5.312,14.211,6.354,20.785,3.605C1224.039,1807.915,1226.994,1800.983,1228.941,1796.221z"/>
			
				<linearGradient id="SVGID_00000014614223700045369680000002193322419617631652_" gradientUnits="userSpaceOnUse" x1="1300.2957" y1="1825.6504" x2="1310.33" y2="1986.9152">
				<stop  offset="0" style="stop-color:#AA80F9"/>
				<stop  offset="0.9964" style="stop-color:#6165D7"/>
			</linearGradient>
			<path style="fill:url(#SVGID_00000014614223700045369680000002193322419617631652_);" d="M1228.363,1791.401l-20.496,20.94
				c0,0,74.439,116.174,139.154,152.75s49.886-18.829,50.609-45.034C1399.375,1856.845,1228.363,1791.401,1228.363,1791.401z"/>
			<g>
				<g>
					
						<linearGradient id="SVGID_00000110438948990266412440000008899533351049238407_" gradientUnits="userSpaceOnUse" x1="11328.8086" y1="1830.505" x2="11570.583" y2="1853.6313" gradientTransform="matrix(1 0 0 1 -10274.7373 0)">
						<stop  offset="0" style="stop-color:#AA80F9"/>
						<stop  offset="0.9964" style="stop-color:#6165D7"/>
					</linearGradient>
					<path style="fill:url(#SVGID_00000110438948990266412440000008899533351049238407_);" d="M1165.511,1815.185
						c-10.926-1.732-21.851-3.462-32.777-5.194c-23.842-0.549-56.957,2.564-87.794,21.731
						c-34.904,21.695-46.378,51.208-56.063,47.614c-17.684-6.563,27.541-102.35-15.991-180.767
						c-4.152-7.48-26.624-47.957-56.031-47.119c-36.845,1.051-59.779,66.255-61.552,71.464
						c-36.768,108.045,43.144,262.936,121.271,266.269c5.686,0.242,19.319,0.022,50.969-18.454
						C1058.455,1952.684,1119.439,1909.704,1165.511,1815.185z"/>
				</g>
				
					<linearGradient id="SVGID_00000066496544430621093580000003024867785862579852_" gradientUnits="userSpaceOnUse" x1="8312.4238" y1="3438.8975" x2="8204.4434" y2="3540.6558" gradientTransform="matrix(0.0025 -1 1 0.0025 -2329.9353 10041.6328)">
					<stop  offset="0" style="stop-color:#AB316D"/>
					<stop  offset="1" style="stop-color:#792D3D"/>
				</linearGradient>
				<path style="fill:url(#SVGID_00000066496544430621093580000003024867785862579852_);" d="M1128.917,1803.704
					c-14.191-26.873,0.503-58.964,1.484-61.032c2.799-5.889,7.779-14.459,16.657-23.111c1.34-0.976,17.502-12.577,22.659-8.324
					c4.133,3.41,0.667,16.566-9.212,32.365c-0.946,6.631-1.825,16.501-0.764,28.332c1.95,21.728,8.788,31.694,2.844,39.566
					c-4.349,5.763-13.523,7.71-20.334,5.614C1134.936,1814.864,1131.32,1808.252,1128.917,1803.704z"/>
			</g>
		</g>
	</g>
</g>
</svg>
