<?xml version="1.0" encoding="utf-8"?>
<!-- Generator: Adobe Illustrator 27.5.0, SVG Export Plug-In . SVG Version: 6.00 Build 0)  -->
<svg version="1.1" xmlns="http://www.w3.org/2000/svg" xmlns:xlink="http://www.w3.org/1999/xlink" x="0px" y="0px"
	 viewBox="0 0 750 500" style="enable-background:new 0 0 750 500;" xml:space="preserve">
<g id="BACKGROUND">
	<rect style="fill:#FFFFFF;" width="750" height="500"/>
</g>
<g id="OBJECTS">
	<g>
		<linearGradient id="SVGID_1_" gradientUnits="userSpaceOnUse" x1="379.3579" y1="467.2142" x2="379.3579" y2="19.2147">
			<stop  offset="0.3692" style="stop-color:#B5B4E0"/>
			<stop  offset="0.8761" style="stop-color:#6765BF"/>
		</linearGradient>
		<path style="fill:url(#SVGID_1_);" d="M421.812,21.151c-79.146-7.819-161.298,7.787-229.559,51.56
			c-68.26,43.773-121.335,116.939-137.07,200.706c-7.679,40.88-6.111,85.279,12.696,121.755
			c16.107,31.237,44.279,54.652,76.009,65.221c31.73,10.568,66.679,8.555,97.796-3.946c39.1-15.708,72.377-47.223,113.214-56.506
			c41.655-9.469,84.4,5.634,124.47,21.109c33.755,13.035,68.735,26.69,104.468,23.371c51.126-4.749,96.123-46.154,114.06-97.853
			c17.937-51.698,10.631-111.324-13.732-159.887c-24.365-48.562-64.493-86.594-109.524-113.053
			C529.608,47.168,480.263,26.925,421.812,21.151z"/>
		<g>
			<defs>
				<path id="SVGID_00000034079145252010964510000004352951974950368444_" d="M421.812,21.151
					c-79.146-7.819-161.298,7.787-229.559,51.56c-68.26,43.773-121.335,116.939-137.07,200.706
					c-7.679,40.88-6.111,85.279,12.696,121.755c16.107,31.237,44.279,54.652,76.009,65.221c31.73,10.568,66.679,8.555,97.796-3.946
					c39.1-15.708,72.377-47.223,113.214-56.506c41.655-9.469,84.4,5.634,124.47,21.109c33.755,13.035,68.735,26.69,104.468,23.371
					c51.126-4.749,96.123-46.154,114.06-97.853c17.937-51.698,10.631-111.324-13.732-159.887
					c-24.365-48.562-64.493-86.594-109.524-113.053C529.608,47.168,480.263,26.925,421.812,21.151z"/>
			</defs>
			<clipPath id="SVGID_00000077286866494385547860000018252729708797323414_">
				<use xlink:href="#SVGID_00000034079145252010964510000004352951974950368444_"  style="overflow:visible;"/>
			</clipPath>
			<g style="clip-path:url(#SVGID_00000077286866494385547860000018252729708797323414_);">
				<g>
					<polygon style="opacity:0.3;fill:#FFED65;" points="316.129,-77.184 310.031,-77.184 314.031,247.467 316.129,247.458 
						318.226,247.467 322.226,-77.184 					"/>
					<polygon style="opacity:0.3;fill:#FFED65;" points="232.105,-66.122 226.216,-64.544 314.105,248.01 316.129,247.458 
						318.157,246.924 237.995,-67.7 					"/>
					<polygon style="opacity:0.3;fill:#FFED65;" points="153.808,-33.69 148.527,-30.641 314.317,248.515 316.129,247.458 
						317.95,246.418 159.088,-36.739 					"/>
					<polygon style="opacity:0.3;fill:#FFED65;" points="86.572,17.902 82.261,22.213 314.652,248.948 316.129,247.458 
						317.618,245.982 90.884,13.59 					"/>
					<polygon style="opacity:0.3;fill:#FFED65;" points="34.98,85.137 31.932,90.418 315.088,249.279 316.129,247.458 
						317.185,245.647 38.029,79.857 					"/>
					<polygon style="opacity:0.3;fill:#FFED65;" points="2.549,163.435 0.97,169.324 315.595,249.487 316.129,247.458 
						316.681,245.435 4.127,157.545 					"/>
					<polygon style="opacity:0.3;fill:#FFED65;" points="-8.513,247.458 -8.513,253.555 316.138,249.556 316.129,247.458 
						316.138,245.361 -8.513,241.361 					"/>
					<polygon style="opacity:0.3;fill:#FFED65;" points="400.152,-66.122 406.042,-64.544 318.152,248.01 316.129,247.458 
						314.101,246.924 394.263,-67.7 					"/>
					<polygon style="opacity:0.3;fill:#FFED65;" points="478.45,-33.69 483.73,-30.641 317.941,248.515 316.129,247.458 
						314.308,246.418 473.169,-36.739 					"/>
					<polygon style="opacity:0.3;fill:#FFED65;" points="545.685,17.902 549.997,22.213 317.605,248.948 316.129,247.458 
						314.639,245.982 541.374,13.59 					"/>
					<polygon style="opacity:0.3;fill:#FFED65;" points="597.277,85.137 600.326,90.418 317.169,249.279 316.129,247.458 
						315.072,245.647 594.228,79.857 					"/>
					<polygon style="opacity:0.3;fill:#FFED65;" points="678.623,157.264 316.663,249.487 316.129,247.458 315.577,245.435 
						673.064,144.91 					"/>
					<polygon style="opacity:0.3;fill:#FFED65;" points="640.771,247.458 640.771,253.555 316.12,249.556 316.129,247.458 
						316.12,245.361 640.771,241.361 					"/>
				</g>
				<g>
					<path style="opacity:0.3;fill:#FFED65;" d="M340.993,190.91c29.345,12.863,44.596,50.971,32.226,80.528
						c-12.369,29.556-50.217,45.442-79.976,33.57c-29.76-11.873-46.278-49.45-34.905-79.404
						C269.711,195.65,307.856,176.386,340.993,190.91z"/>
					<path style="opacity:0.3;fill:#FFED65;" d="M330.437,214.915c16.889,7.403,25.666,29.335,18.547,46.345
						c-7.119,17.011-28.901,26.155-46.028,19.321c-17.128-6.833-26.634-28.459-20.089-45.699
						C289.413,217.643,311.366,206.556,330.437,214.915z"/>
					<path style="opacity:0.3;fill:#FFED65;" d="M324.555,228.296c9.946,4.36,15.114,17.275,10.922,27.293
						c-4.192,10.018-17.02,15.401-27.106,11.378c-10.086-4.025-15.685-16.76-11.83-26.912
						C300.396,229.903,313.324,223.373,324.555,228.296z"/>
					<path style="fill:#FFF982;" d="M322.121,233.833c7.073,3.1,10.749,12.285,7.768,19.409
						c-2.982,7.124-12.104,10.953-19.277,8.091c-7.173-2.861-11.154-11.918-8.413-19.138
						C304.94,234.976,314.134,230.333,322.121,233.833z"/>
				</g>
			</g>
			
				<linearGradient id="SVGID_00000117640425555459392670000003344310407990894258_" gradientUnits="userSpaceOnUse" x1="396.6158" y1="68.4066" x2="396.6158" y2="256.7145">
				<stop  offset="0" style="stop-color:#FFFFFF"/>
				<stop  offset="1" style="stop-color:#FFFFFF;stop-opacity:0"/>
			</linearGradient>
			
				<path style="opacity:0.45;clip-path:url(#SVGID_00000077286866494385547860000018252729708797323414_);fill:url(#SVGID_00000117640425555459392670000003344310407990894258_);" d="
				M117.838,124.296c11.772-4.953,25.733-2.75,38.079,0.934c12.346,3.685,24.434,8.8,37.433,9.497
				c11.71,0.628,23.396-2.396,35.094-1.62c21.976,1.457,41.054,16.031,63.086,16.405c7.321,0.125,14.605-1.351,21.919-1.034
				c5.358,0.233,15.402,1.254,21.64,4.091c2.286,1.039,1.59,4.096-0.97,4.269c-17.001,1.156-39.111,2.869-54.722,3.872
				c-16.944,1.089-34.023,2.175-50.873,0.254c-14.383-1.641-28.502-5.463-43.003-5.533c-18.719-0.092-36.661,6.047-54.945,9.615
				c-18.284,3.567-38.959,4.154-54.083-5.656L117.838,124.296z M716.738,161.253c-24.799-24.372-66.124-29.801-96.377-12.662
				c-7.418,4.202-14.538,9.715-23.007,10.692c-11.477,1.323-22.021-5.973-33.288-8.527c-20.2-4.577-40.355,6.29-58.181,16.834
				c-17.826,10.544-37.828,23.324-58.101,19.084c-3.582-0.75-8.443-0.75-12.068-0.247c-4.124,0.573-8.227,1.641-7.796,5.615
				c0.467,4.311,8.591,3.353,11.864,3.559c33.269,2.093,66.293-11.855,99.387-7.865c17.794,2.145,34.691,9.408,52.513,11.296
				c19.861,2.103,39.719-2.554,59.492-5.358c19.774-2.803,40.928-3.542,58.666,5.636L716.738,161.253z M585.76,47.946
				c-23.455-11.658-51.909-15.066-75.992-4.768c-11.462,4.903-21.825,12.759-34.06,15.153c-11.479,2.246-23.362-0.582-35.013,0.451
				c-12.717,1.128-24.512,6.767-36.471,11.236c-11.96,4.468-25.123,7.834-37.386,4.283c-3.219-0.932-6.519-2.343-9.8-1.658
				c-3.281,0.685-6.002,4.802-3.914,7.423c0.976,1.224,2.612,1.67,4.143,1.996c29.016,6.179,58.474-5.335,87.814-9.733
				c50.006-7.495,101.055,5.838,151.416,1.326L585.76,47.946z"/>
		</g>
		<g>
			<defs>
				<path id="SVGID_00000138559474759497659780000007685047090013866882_" d="M421.812,21.151
					c-79.146-7.819-161.298,7.787-229.559,51.56c-68.26,43.773-121.335,116.939-137.07,200.706
					c-7.679,40.88-6.111,85.279,12.696,121.755c16.107,31.237,44.279,54.652,76.009,65.221c31.73,10.568,66.679,8.555,97.796-3.946
					c39.1-15.708,72.377-47.223,113.214-56.506c41.655-9.469,84.4,5.634,124.47,21.109c33.755,13.035,68.735,26.69,104.468,23.371
					c51.126-4.749,96.123-46.154,114.06-97.853c17.937-51.698,10.631-111.324-13.732-159.887
					c-24.365-48.562-64.493-86.594-109.524-113.053C529.608,47.168,480.263,26.925,421.812,21.151z"/>
			</defs>
			<clipPath id="SVGID_00000015350814395886387550000018337196978001511095_">
				<use xlink:href="#SVGID_00000138559474759497659780000007685047090013866882_"  style="overflow:visible;"/>
			</clipPath>
			<g style="clip-path:url(#SVGID_00000015350814395886387550000018337196978001511095_);">
				<path style="fill:#5958A6;" d="M637.774,283.434c-5.738-41.916-23.445-82.125-50.49-114.659
					c-3.523,7.393-11.37,10.434-17.477,7.892c-4.794-1.996-7.905-6.591-10.735-10.945c-9.718-14.95-19.435-29.9-29.152-44.85
					c-5.118,2.979-8.191,6.248-11.264,9.515c-9.09-15.92-21.502-29.904-35.989-41.248c-27.961,14.751-50.109,34.423-65.35,58.518
					c-10.399,16.439-17.73,34.97-30.562,49.589c-22.418,25.539-60.627,38.271-74.878,75.691
					C421.892,269.281,532.109,271.677,637.774,283.434z"/>
				<path style="fill:#47468A;" d="M637.774,283.434c-5.738-41.916-23.445-82.125-50.49-114.659
					c-3.523,7.393-11.37,10.434-17.477,7.892c-4.794-1.996-7.905-6.591-10.735-10.945c-9.718-14.95-19.435-29.9-29.152-44.85
					c-5.118,2.979-8.191,6.248-11.264,9.515c-9.09-15.92-21.502-29.904-35.989-41.248c-0.106,0.056-0.208,0.115-0.313,0.171
					c6.849,17.266,12.41,35.044,16.584,53.143c-3.501-0.917-7.152-1.838-10.698-1.116c-3.547,0.722-6.931,3.622-6.928,7.241
					c0.002,3.286,2.604,5.891,4.814,8.323c10.033,11.045,15.063,26.47,10.55,44.112c-5.588-5.843-13.956-8.903-21.995-8.044
					c-8.039,0.859-15.571,5.616-19.799,12.507c-3.623,5.902-6.816,14.446-13.724,13.957c-3.222-0.229-5.867-2.6-8.951-3.561
					c-7.602-2.367-14.924,4.154-19.76,10.479c-10.296,13.469-18.111,28.824-22.958,45.068
					C473.494,270.941,556.966,274.443,637.774,283.434z"/>
				<path style="fill:#5958A6;" d="M603.402,279.963c0.891-11.344,0.457-29.337-8.325-44.084
					c-13.978-23.473-26.637-15.824-30.857-32.439c-4.22-16.615-24.528-13.714-21.363,5.275c3.165,18.989-15.56,20.044-15.56,20.044
					c8.735,16.462,3.241,34.624-1.901,45.65C551.59,275.764,577.614,277.599,603.402,279.963z"/>
			</g>
			<g style="clip-path:url(#SVGID_00000015350814395886387550000018337196978001511095_);">
				<path style="fill:#47468A;" d="M231.61,246.21c-2.983-20.47-9.559-40.411-19.335-58.642c-6.167,2.832-11.248,5.932-15.919,9.559
					c-13.691-34.445-31.719-65.801-54.02-93.755c-27.444,30.497-51.111,64.34-70.542,100.215
					c-8.888,14.535-14.968,30.778-17.151,49.278C111.355,247.96,168.251,245.177,231.61,246.21z"/>
				<path style="fill:#5958A6;" d="M196.356,197.127c-13.691-34.445-31.719-65.801-54.02-93.755
					c-0.278,0.309-0.55,0.624-0.828,0.934c4.025,8.134,5.442,17.549,3.913,26.498c-0.665,3.893-1.865,7.87-0.964,11.714
					c1.2,5.125,5.746,8.621,9.516,12.292c3.771,3.672,7.197,8.965,5.364,13.898c-1.635,4.402-6.732,6.397-11.372,7.122
					c-4.64,0.726-9.617,0.782-13.562,3.33c-3.945,2.547-5.841,8.934-1.206,13.454c-6.322-0.307-10.885,6.234-12.254,12.413
					c-1.37,6.179-0.941,12.832-3.623,18.566c-3.065,6.549-9.563,10.645-15.323,15.016c-4.056,3.077-8.077,6.876-10.16,11.375
					c44.642-3.049,90.23-4.582,139.774-3.774c-2.983-20.47-9.559-40.411-19.335-58.642C206.108,190.4,201.027,193.5,196.356,197.127
					z"/>
				<path style="fill:#5958A6;" d="M114.483,176.678c0,0-5.515-9.695-19.106-12.463c-6.236,9.455-12.15,19.108-17.754,28.922
					C86.531,185.969,99.074,178.603,114.483,176.678z"/>
			</g>
			<path style="clip-path:url(#SVGID_00000015350814395886387550000018337196978001511095_);fill:#6069CC;" d="M701.693,215.16
				c1.262-2.906,2.134-6.249,1.005-9.209c-1.13-2.96-4.992-4.972-7.625-3.209c-0.862,0.577-1.475,1.455-2.273,2.118
				c-0.796,0.663-1.955,1.099-2.863,0.598c-1.091-0.602-1.17-2.095-1.575-3.274c-0.962-2.796-4.298-4.186-7.241-3.893
				c-2.943,0.294-5.582,1.867-8.111,3.402c-2.338-4.656-8.292-6.51-12.099-3.964c-1.44,0.963-2.513,2.379-3.852,3.478
				c-1.34,1.099-3.176,1.885-4.792,1.261c-1.052-0.406-1.801-1.325-2.631-2.09c-2.905-2.678-7.329-3.583-11.052-2.26
				c-3.725,1.323-6.586,4.815-7.151,8.727c-1.999-3.289-5.324-4.291-8.394-3.714c-3.071,0.578-5.804,2.721-7.097,5.566
				c-4.594-3.302-11.09-2.221-13.736,1.977c-1.201,1.904-1.802,4.401-3.784,5.468c-2.173,1.171-4.82,0.004-7.289,0.022
				c-4.204,0.031-7.878,4.239-7.34,8.409c-3.577-2.877-6.672-4.241-9.57-3.801c-2.897,0.439-5.449,2.659-6.286,5.467
				c-3.556-1.992-6.259-2.473-8.565-1.678c-2.307,0.795-4.14,2.841-4.678,5.221c-4.543-4.564-12.616-3.605-16.32,1.393
				c-2.13,2.873-3.219,6.993-6.594,8.175c-3.438,1.204-6.924-1.458-10.495-2.177c-5.662-1.14-11.75,3.691-11.926,9.465
				c-3.032-1.644-7.054-1.228-9.687,1c-2.632,2.228-3.707,6.126-3.508,9.383c20.825,0.778,41.247-5.703,60.49-13.699
				c19.244-7.997,37.89-17.606,57.84-23.627C642.195,211.335,672.039,210.184,701.693,215.16z"/>
			<path style="clip-path:url(#SVGID_00000015350814395886387550000018337196978001511095_);fill:#6069CC;" d="M283.311,235.829
				c-0.584-3.761-3.636-7.016-7.353-7.839c-3.716-0.824-7.857,0.836-9.977,3.998c0.471-2.677-1.524-4.784-3.989-5.636
				s-5.335-0.427-7.447,1.103c-1.3,0.942-2.668,2.358-4.21,1.912c-1.832-0.53-1.964-3.077-3.139-4.581
				c-1.726-2.211-5.233-1.65-7.736-0.385c-2.503,1.265-5.032,3.075-7.812,2.703c-1.552-0.208-2.921-1.084-4.389-1.629
				c-1.468-0.546-3.296-0.692-4.44,0.376c-0.293-4.014-4.004-6.902-6.955-5.715c-2.102,0.845-3.538,3.213-5.797,3.375
				c-2.299,0.165-3.981-2.003-5.902-3.278c-3.306-2.194-8.187-1.561-10.825,1.402c0.623-4.924-2.507-8.864-6.561-9.876
				c-4.055-1.013-8.669,0.993-10.695,4.649c-0.211-2.677-1.862-5.196-4.231-6.459c-2.369-1.264-5.381-1.232-7.722,0.083
				c-0.979,0.549-1.939,1.332-3.06,1.274c-1.943-0.102-2.755-2.437-3.791-4.084c-1.355-2.152-3.847-3.539-6.389-3.558
				c-2.543-0.019-5.055,1.332-6.441,3.464c-1.806-4.746-4.952-8.34-8.858-9.169c-3.905-0.829-8.241,1.177-10.138,4.689
				c-1.08,2-1.862,4.755-4.115,5.056c-1.279,0.17-2.465-0.601-3.629-1.157c-3.021-1.443-6.668-1.508-9.738-0.174
				c-3.071,1.334-5.513,4.044-6.286,8.395c27.901-0.273,54.851,9.112,82.128,14.991
				C215.741,236.639,248.692,238.749,283.311,235.829z"/>
			<g style="clip-path:url(#SVGID_00000015350814395886387550000018337196978001511095_);">
				<path style="fill:#9494D9;" d="M722.267,300.608c-152.222-10.565-304.443-21.13-456.665-31.695
					c38.612-21.118,82.201-27.973,124.854-24.087c35.511,3.234,70.721,13.767,106.21,10.308
					c37.755-3.678,71.954-22.774,107.439-36.183c35.484-13.409,77.127-20.752,105.914,0.64
					C719.219,242.583,722.7,267.837,722.267,300.608z"/>
				<path style="fill:#8484D1;" d="M710.509,220.875c-24.4-6.982-45.409-7.305-62.632-0.922c-8.767,3.249-17.985,7.136-27.746,11.25
					c-17.814,7.51-36.236,15.276-52.819,19.442c-36.075,9.067-62.278,14.865-96.305,12.953
					c-32.691-1.836-70.266-2.515-103.482,12.389c3.824,0.265,7.648,0.531,11.471,0.796c29.83-10.536,62.728-9.822,91.73-8.193
					c34.674,1.943,62.405-4.2,97.805-13.096c16.954-4.26,35.555-12.101,53.543-19.685c9.708-4.093,18.877-7.958,27.542-11.169
					c17.018-6.308,38.172-5.599,63.03,2.081C711.973,224.755,711.262,222.806,710.509,220.875z"/>
				<path style="opacity:0.6;fill:#D4F4FF;" d="M710.019,219.591c-28.787-21.392-70.43-14.049-105.914-0.64
					c-35.485,13.409-69.684,32.505-107.439,36.183c-35.489,3.459-70.699-7.074-106.21-10.308
					c-24.154-2.201-48.608-0.953-72.289,4.376l1.986,2.794c20.571-5.969,54.763-3.828,74.591-1.996
					c27.134,2.506,71.792,13.682,95.44,12.342c40.268-2.281,78.149-22.235,116.234-35.509
					c38.841-13.537,71.371-14.424,105.902-1.053C711.591,223.699,710.836,221.632,710.019,219.591z"/>
			</g>
			<g style="clip-path:url(#SVGID_00000015350814395886387550000018337196978001511095_);">
				<path style="fill:#9494D9;" d="M321.779,271.048c-0.883-17.351-17.252-30.391-34.065-34.769
					c-16.813-4.378-34.534-2.497-51.876-3.543c-33.451-2.016-65.252-14.907-98.312-20.394c-33.059-5.486-71.049-1.749-89.484,22.536
					c-12.627,33.83-14.792,71.483-3.817,110.899C116.373,277.597,223.286,248.322,321.779,271.048z"/>
				<g>
					<path style="fill:#8484D1;" d="M196.235,269c-23.686-12.568-53.285-17.191-81.872-13.462
						c-28.118,3.669-55.109,15.4-77.098,33.286c-0.678,18.387,1.531,37.454,6.96,56.953C86.025,306.275,139.495,279.836,196.235,269
						z"/>
					<path style="fill:#8484D1;" d="M238.854,232.888c-13.813,2.875-29.515,4.338-47.957,4.549
						c-9.778,0.113-19.735-0.096-29.367-0.297c-18.555-0.389-37.74-0.789-56.549,1.075c-25.279,2.506-46.614,9.009-63.695,19.387
						c-0.305,1.364-0.588,2.735-0.861,4.109c17.08-11.033,38.801-17.928,64.852-20.51c18.631-1.846,37.726-1.446,56.19-1.061
						c9.656,0.202,19.638,0.41,29.464,0.298c23.707-0.272,42.98-2.593,59.569-7.31C246.613,233.098,242.726,233.052,238.854,232.888
						z"/>
				</g>
				<path style="opacity:0.6;fill:#D4F4FF;" d="M287.714,236.279c-16.813-4.378-34.534-2.497-51.876-3.543
					c-33.451-2.016-65.252-14.907-98.312-20.394c-33.059-5.486-71.049-1.749-89.484,22.536c-0.728,1.951-1.417,3.916-2.076,5.892
					c13.548-12.174,31.86-18.686,50.115-20.549c20.808-2.124,41.77,1.228,62.275,5.359c20.504,4.13,40.967,9.066,61.855,10.159
					c10.467,0.548,20.998,0.126,31.399,1.423c10.4,1.297,38.687,2.307,46.632,9.142c2.784,2.395,6.153,6.16,9.252,10.567
					l9.612-0.312C310.907,246.579,299.421,239.327,287.714,236.279z"/>
			</g>
		</g>
		<g>
			<defs>
				<path id="SVGID_00000057138789380262425090000002868212933569507210_" d="M421.812,21.151
					c-79.146-7.819-161.298,7.787-229.559,51.56c-68.26,43.773-121.335,116.939-137.07,200.706
					c-7.679,40.88-6.111,85.279,12.696,121.755c16.107,31.237,44.279,54.652,76.009,65.221c31.73,10.568,66.679,8.555,97.796-3.946
					c39.1-15.708,72.377-47.223,113.214-56.506c41.655-9.469,84.4,5.634,124.47,21.109c33.755,13.035,68.735,26.69,104.468,23.371
					c51.126-4.749,96.123-46.154,114.06-97.853c17.937-51.698,10.631-111.324-13.732-159.887
					c-24.365-48.562-64.493-86.594-109.524-113.053C529.608,47.168,480.263,26.925,421.812,21.151z"/>
			</defs>
			<clipPath id="SVGID_00000153664244417592487510000002805725536392070828_">
				<use xlink:href="#SVGID_00000057138789380262425090000002868212933569507210_"  style="overflow:visible;"/>
			</clipPath>
			<g style="clip-path:url(#SVGID_00000153664244417592487510000002805725536392070828_);">
				<path style="fill:#4B54B3;" d="M709.659,287.483c6.66-8.261,6.013-21.494-1.422-29.066c-7.434-7.572-20.653-8.461-29.035-1.954
					c-3.961,3.076-7.818,7.83-12.752,6.929c-5.007-0.914-7.315-7.228-12.121-8.905c-8.151-2.842-15.507,9.212-23.94,7.362
					c-3.41-0.748-5.867-3.606-8.573-5.813c-6.417-5.234-15.428-7.112-23.402-4.876c-7.974,2.235-14.696,8.522-17.459,16.329
					c-7.338-9.568-23.516-10.379-31.774-1.594c-2.553-9.646-8.527-15.936-15.879-18.183c-7.353-2.246-15.822-0.368-21.536,4.776
					c-5.447,4.902-9.626,13.001-16.953,12.898c-6.126-0.086-10.232-6.035-15.187-9.637c-10.936-7.952-28.871-2.437-33.452,10.284
					c-2.891-5.473-8.688-9.298-14.857-9.805c-6.169-0.506-12.512,2.323-16.257,7.251c-4.037-8.586-8.769-12.131-14.065-13.253
					c-5.297-1.123-11.06,0.199-15.337,3.518c-2.298,1.782-5.162,4.251-7.669,2.779c-1.734-1.017-2.109-3.445-3.681-4.698
					c-2.188-1.743-5.439-0.425-7.677,1.254c-2.239,1.678-4.592,3.802-7.377,3.537c-1.97-0.188-3.603-1.559-5.018-2.942
					c-1.415-1.382-2.836-2.895-4.718-3.505c-1.882-0.611-4.369,0.108-4.924,2.006c-8.373-8.084-20.836-9.905-29.124-4.282
					c-1.725-4.525-5.665-8.144-10.321-9.479c-4.655-1.334-9.914-0.351-13.774,2.573c-3.271,2.479-6.256,6.485-10.327,5.966
					c-2.138-0.273-3.868-1.792-5.758-2.829c-5.496-3.016-13.05-1.547-17.015,3.31c-5.97-6.291-14.831-8.176-21.326-4.714
					c-3.409,1.817-6.578,4.992-10.412,4.52c-3.803-0.467-6.738-4.505-10.549-4.108c-3.766,0.392-6.315,5.021-10.088,4.716
					c-2.318-0.186-3.992-2.184-5.862-3.568c-4.807-3.56-12.244-2.89-16.338,1.472c-8.079-5.637-17.279-7.342-25.181-4.712
					c-7.902,2.63-14.245,9.509-16.227,17.598c-9.19-3.476-20.487-0.216-26.411,7.623c-7.451-8.28-22.57-7.528-29.558,3.082
					c5.407,14.119,12.433,27.618,18.032,38.361c61.394-29.389,131.317-36.389,199.334-33.815
					c68.018,2.573,135.344,14.222,203.144,20.24C574.633,300.145,644.17,300.349,709.659,287.483z"/>
				<path style="opacity:0.12;fill:#292940;" d="M708.237,258.417c-7.434-7.572-20.653-8.461-29.035-1.954
					c-3.961,3.076-7.818,7.83-12.752,6.929c-2.483-0.453-4.302-2.235-6.091-4.12c-28.995,8.105-61.627,15.647-85.589,16.694
					c-54.33,2.374-125.011-0.791-185.281-13.451c-60.27-12.659-148.082-18.725-216.126-7.121
					c-30.121,5.137-58.377,17.302-80.522,29.267c3.897,8.417,7.988,16.276,11.514,23.041
					c61.394-29.389,131.317-36.389,199.334-33.815c68.018,2.573,135.344,14.222,203.144,20.24
					c67.8,6.016,137.337,6.22,202.826-6.646C716.318,279.222,715.672,265.989,708.237,258.417z"/>
			</g>
			<g style="clip-path:url(#SVGID_00000153664244417592487510000002805725536392070828_);">
				<g>
					<path style="fill:#B0AFE3;" d="M720.451,292.047c-16.573-15.449-40.186-21.236-62.842-21.528
						c-22.656-0.293-45.053,4.286-67.569,6.811c-63.529,7.124-127.63-2.123-190.874-11.439
						c-63.245-9.318-127.296-18.744-190.864-11.976s-127.669,31.65-171.79,86.851c15.097,39.397,35.802,77.661,67.185,105.859
						c31.383,28.199,74.782,45.187,116.282,37.578c51.314-9.409,90.943-53.302,142.081-63.628
						c74.401-15.022,146.788,44.688,222.305,37.034c37.868-3.837,72.996-25.174,96.517-55.1
						C704.4,372.583,716.715,334.667,720.451,292.047z"/>
					<g>
						<path style="fill:#9897DB;" d="M700.604,321.543c-10.907-0.094-21.74,1.25-32.266,2.541
							c-5.508,0.676-11.204,1.375-16.796,1.856c-43.24,3.719-87.021-4.917-129.367-13.267c-7.835-1.545-15.937-3.141-23.899-4.633
							c-92.059-17.243-170.837-20.409-240.835-9.675c-41.433,6.353-80.62,17.849-116.472,34.168
							c-31.345,14.267-59.559,32.005-84.16,52.853c0.836,1.541,1.686,3.074,2.548,4.599c65.452-55.947,143.257-77.95,198.854-86.475
							c69.422-10.645,147.641-7.49,239.128,9.647c7.937,1.488,16.028,3.082,23.851,4.625c42.692,8.417,86.829,17.122,130.787,13.344
							c5.684-0.489,11.426-1.193,16.98-1.875c10.049-1.233,20.429-2.507,30.645-2.507c0.319,0,0.64,0.001,0.96,0.004
							c4.325,0.035,9.252,0.366,14.383,1.197c0.382-1.692,0.752-3.392,1.1-5.105C711.165,322.032,706.012,321.587,700.604,321.543z"
							/>
						<path style="fill:#9897DB;" d="M42.008,354.425c2.75,6.515,5.67,12.97,8.789,19.322
							c57.555-60.304,136.335-96.093,216.397-98.033c48.918-1.188,100.049,9.243,145.801-7.797
							c-4.614-0.671-9.224-1.348-13.829-2.027c-2.468-0.364-4.937-0.727-7.407-1.09c-55.821,9.862-113.938-5.673-171.049-1.669
							C153.149,267.868,87.865,301.478,42.008,354.425z"/>
					</g>
					<path style="opacity:0.4;fill:#D4F4FF;" d="M590.04,277.33c-63.529,7.124-127.63-2.123-190.874-11.439
						c-63.245-9.318-127.296-18.744-190.864-11.976s-127.669,31.65-171.79,86.851c0.999,2.606,2.024,5.207,3.073,7.801
						c41.274-30.65,85.273-62.22,136.571-69.529c42.548-6.063,85.353,5.308,127.952,10.997c56.539,7.551,113.88,5.08,170.867,2.595
						c44.129-1.924,88.3-3.852,132.197-8.77c23.084-2.587,46.489-5.995,69.41-2.231c15.69,2.575,31.369,9.179,42.888,19.822
						c0.373-3.109,0.703-6.242,0.98-9.404c-16.573-15.449-40.186-21.236-62.842-21.528
						C634.952,270.226,612.555,274.805,590.04,277.33z"/>
				</g>
				<path style="opacity:0.12;fill:#292940;" d="M707.431,353.855c-90.196-75.079-246.405-60.624-311.211-34.711
					c-64.806,25.913-108.236,45.124-214.681,28.5c-71.987-11.242-119.213-11.352-142.25-10.245c-0.93,1.116-1.864,2.225-2.777,3.367
					c15.097,39.397,35.802,77.661,67.185,105.859c31.383,28.199,74.782,45.187,116.282,37.578
					c51.314-9.409,90.943-53.302,142.081-63.628c74.401-15.022,146.788,44.688,222.305,37.034
					c37.868-3.837,72.996-25.174,96.517-55.1C692.255,388.037,701.001,371.692,707.431,353.855L707.431,353.855z"/>
			</g>
		</g>
		<g>
			<defs>
				<path id="SVGID_00000060013431063606754740000004338103670519689892_" d="M421.812,21.151
					c-79.146-7.819-161.298,7.787-229.559,51.56c-68.26,43.773-121.335,116.939-137.07,200.706
					c-7.679,40.88-6.111,85.279,12.696,121.755c16.107,31.237,44.279,54.652,76.009,65.221c31.73,10.568,66.679,8.555,97.796-3.946
					c39.1-15.708,72.377-47.223,113.214-56.506c41.655-9.469,84.4,5.634,124.47,21.109c33.755,13.035,68.735,26.69,104.468,23.371
					c51.126-4.749,96.123-46.154,114.06-97.853c17.937-51.698,10.631-111.324-13.732-159.887
					c-24.365-48.562-64.493-86.594-109.524-113.053C529.608,47.168,480.263,26.925,421.812,21.151z"/>
			</defs>
			<clipPath id="SVGID_00000015318889574849913480000006790314149442255501_">
				<use xlink:href="#SVGID_00000060013431063606754740000004338103670519689892_"  style="overflow:visible;"/>
			</clipPath>
			<g style="clip-path:url(#SVGID_00000015318889574849913480000006790314149442255501_);">
				<path style="fill:#6069CC;" d="M478.059,315.009c-5.443-9.496-15.449-16.236-26.296-17.712
					c-10.847-1.475-22.289,2.348-30.071,10.045c-2.365-5.748-7.931-10.055-14.089-10.9c-6.158-0.847-12.678,1.798-16.506,6.696
					c-10.321-9.823-22.634-13.215-33.719-10.605c-11.085,2.61-20.591,11.139-24.383,21.877c-1.137,3.217-2.508,7.261-5.897,7.65
					c-2.177,0.25-4.114-1.24-5.931-2.464c-8.114-5.463-18.902-6.726-28.058-3.283c-9.156,3.442-16.441,11.499-18.946,20.954
					c-9.303-3.932-21.13-0.362-26.034,8.089c-1.551,2.673-2.599,5.867-5.189,7.552c-3.131,2.037-7.24,1.087-10.956,1.468
					c-8.364,0.857-14.843,10.004-10.344,18.443c41.975,9.384,85.95,0.578,126.782-12.939
					C389.254,346.365,428.588,328.135,478.059,315.009z"/>
				<g>
					<defs>
						<path id="SVGID_00000127731493562453474370000016591005743483481521_" d="M478.059,315.009
							c-5.443-9.496-15.449-16.236-26.296-17.712c-10.847-1.475-22.289,2.348-30.071,10.045c-2.365-5.748-7.931-10.055-14.089-10.9
							c-6.158-0.847-12.678,1.798-16.506,6.696c-10.321-9.823-22.634-13.215-33.719-10.605
							c-11.085,2.61-20.591,11.139-24.383,21.877c-1.137,3.217-2.508,7.261-5.897,7.65c-2.177,0.25-4.114-1.24-5.931-2.464
							c-8.114-5.463-18.902-6.726-28.058-3.283c-9.156,3.442-16.441,11.499-18.946,20.954c-9.303-3.932-21.13-0.362-26.034,8.089
							c-1.551,2.673-2.599,5.867-5.189,7.552c-3.131,2.037-7.24,1.087-10.956,1.468c-8.364,0.857-14.843,10.004-10.344,18.443
							c41.975,9.384,85.95,0.578,126.782-12.939C389.254,346.365,428.588,328.135,478.059,315.009z"/>
					</defs>
					<clipPath id="SVGID_00000119839980979677300990000017664108717846569881_">
						<use xlink:href="#SVGID_00000127731493562453474370000016591005743483481521_"  style="overflow:visible;"/>
					</clipPath>
					<g style="clip-path:url(#SVGID_00000119839980979677300990000017664108717846569881_);">
						
							<path style="fill:none;stroke:#2E2854;stroke-width:0.75;stroke-linecap:round;stroke-linejoin:round;stroke-miterlimit:10;" d="
							M286.769,313.945c0,0,13.714,34.549,21.363,72.264"/>
						
							<path style="fill:none;stroke:#2E2854;stroke-width:0.75;stroke-linecap:round;stroke-linejoin:round;stroke-miterlimit:10;" d="
							M306.022,309.725c0,0-4.271,17.984-8.202,36.421"/>
					</g>
					
						<path style="clip-path:url(#SVGID_00000119839980979677300990000017664108717846569881_);fill:none;stroke:#2E2854;stroke-width:0.75;stroke-linecap:round;stroke-linejoin:round;stroke-miterlimit:10;" d="
						M317.626,307.704c0,0-3.956,36.57,6.593,66.109"/>
					<g style="clip-path:url(#SVGID_00000119839980979677300990000017664108717846569881_);">
						
							<path style="fill:none;stroke:#2E2854;stroke-width:0.75;stroke-linecap:round;stroke-linejoin:round;stroke-miterlimit:10;" d="
							M335.56,300.608c0,0,22.644,20.204,37.96,50.924"/>
						
							<path style="fill:none;stroke:#2E2854;stroke-width:0.75;stroke-linecap:round;stroke-linejoin:round;stroke-miterlimit:10;" d="
							M363.78,286.78c0,0-0.507,20.374-2.759,43.682"/>
					</g>
					
						<path style="clip-path:url(#SVGID_00000119839980979677300990000017664108717846569881_);fill:none;stroke:#2E2854;stroke-width:0.75;stroke-linecap:round;stroke-linejoin:round;stroke-miterlimit:10;" d="
						M400.292,288.774c0,0,3.143,27.953,8.371,58.87"/>
					<g style="clip-path:url(#SVGID_00000119839980979677300990000017664108717846569881_);">
						
							<path style="fill:none;stroke:#2E2854;stroke-width:0.75;stroke-linecap:round;stroke-linejoin:round;stroke-miterlimit:10;" d="
							M432.615,288.774c0,0,8.967,27.898,14.505,51.985"/>
						
							<path style="fill:none;stroke:#2E2854;stroke-width:0.75;stroke-linecap:round;stroke-linejoin:round;stroke-miterlimit:10;" d="
							M447.78,294.61c0,0-3.865,11.628-8.064,17.773"/>
						
							<path style="fill:none;stroke:#2E2854;stroke-width:0.75;stroke-linecap:round;stroke-linejoin:round;stroke-miterlimit:10;" d="
							M426.813,297.264c0,0,6.463,7.379,11.935,11.75"/>
					</g>
					<g style="clip-path:url(#SVGID_00000119839980979677300990000017664108717846569881_);">
						
							<path style="fill:none;stroke:#2E2854;stroke-width:0.75;stroke-linecap:round;stroke-linejoin:round;stroke-miterlimit:10;" d="
							M240.681,338.604c0,0,15.824,20.681,29.077,45.253"/>
						
							<path style="fill:none;stroke:#2E2854;stroke-width:0.75;stroke-linecap:round;stroke-linejoin:round;stroke-miterlimit:10;" d="
							M263.824,327.936c0,0-1.338,20.432-5.119,37.012"/>
					</g>
				</g>
				<path style="opacity:0.12;fill:#292940;" d="M348.422,359.88c40.832-13.516,80.166-31.745,129.637-44.871
					c-1.64-2.862-3.701-5.467-6.069-7.76c-5.268,0.401-10.502,0.942-15.697,1.631c-17.406-9.243-39.568,4.801-39.568,4.801
					c-21.084-2.928-27.748,6.602-29.79,11.754c-17.715,5.807-35.019,12.42-51.964,19.059c-37.309-12.313-51.66,9.934-51.66,9.934
					c-17.203-2.024-26.379,5.264-29.508,8.459c-14.923,0.596-26.755-0.193-32.556-0.726c-1.443,3.195-1.561,6.993,0.393,10.658
					C263.615,382.203,307.59,373.397,348.422,359.88z"/>
			</g>
			<g style="clip-path:url(#SVGID_00000015318889574849913480000006790314149442255501_);">
				<path style="fill:#EBEBFA;" d="M696.206,375.746c-39.454-39.985-94.662-62.074-150.421-67.282
					c-55.76-5.209-112.112,5.516-164.974,24.114c-44.385,15.616-88.37,37.071-135.391,36.784
					c-34.858-0.212-68.393-12.451-102.66-18.886c-34.267-6.434-72.749-6.067-94.408,16.918
					c12.14,42.507,42.282,79.482,81.337,99.777c39.056,20.294,86.471,23.62,127.946,8.972c49.37-17.435,91.805-59.084,144.125-58.55
					c36.932,0.377,69.907,22.089,105.334,32.602C574.745,470.267,653.352,445.201,696.206,375.746z"/>
				<g>
					<path style="fill:#D3D3F0;" d="M633.725,436.037c-47.355-26.297-95.382-43.757-143.028-51.955
						c-60.019-10.328-119.295-5.675-171.414,13.458c-19.468,7.147-38.328,16.461-56.567,25.468
						c-15.533,7.671-31.594,15.602-47.89,22.118c-38.313,15.32-72.252,19.51-101.06,12.508c3.77,2.568,7.647,4.977,11.626,7.207
						c5.484,0.708,11.113,1.083,16.901,1.083c22.592,0,47.473-5.393,74.389-16.156c16.478-6.589,32.628-14.564,48.247-22.277
						c18.122-8.948,36.86-18.202,56.077-25.258c51.297-18.831,109.683-23.404,168.843-13.224
						c46.142,7.939,92.673,24.679,138.615,49.833C630.231,437.941,631.984,437.005,633.725,436.037z"/>
					<path style="fill:#D3D3F0;" d="M545.784,308.464c-23.121-2.16-46.342-1.573-69.376,1.172
						c-21.674,16.467-50.712,26.171-79.837,31.177c-17.487,3.006-35.164,4.457-52.882,5.596
						c-32.037,12.062-64.364,23.16-98.27,22.954c-14.385-0.088-28.545-2.226-42.624-5.156
						c-46.534,10.488-92.013,25.653-135.507,45.238c5.601,8.845,12.037,17.157,19.186,24.791
						c68.962-25.11,136.912-47.597,207.387-57.607c51.097-7.257,102.999-7.869,153.97-15.961
						c45.195-7.176,90.693-20.95,127.343-47.849C565.45,310.84,555.627,309.383,545.784,308.464z"/>
				</g>
				<path style="opacity:0.12;fill:#292940;" d="M485.363,337.154c-81.077,4.116-163.038,57.237-244.22,57.495
					c-31.147,0.099-65.314-20.628-96.444-21.65c-29.232-0.961-60.346,3.969-84.953,23.217
					c15.373,30.093,40.039,55.417,69.943,70.956c39.056,20.294,86.471,23.62,127.946,8.972
					c49.37-17.435,91.805-59.084,144.125-58.55c36.932,0.377,69.907,22.089,105.334,32.602
					c53.523,15.882,113.898,3.501,158.006-36.755C619.026,358.706,556.969,333.519,485.363,337.154z"/>
			</g>
			<g style="clip-path:url(#SVGID_00000015318889574849913480000006790314149442255501_);">
				<path style="fill:#6069CC;" d="M293.434,472.669c-4.08-13.618-14.268-25.279-27.215-31.148
					c-12.948-5.871-28.433-5.849-41.364,0.058c-9.511-11.505-26.126-16.575-42.657-11.65c2.999-10.162,0.809-21.713-5.702-30.073
					c-6.511-8.36-17.175-13.311-27.762-12.891c2.066-6.963,0.488-14.9-4.084-20.544c-4.572-5.644-12.009-8.834-19.25-8.257
					c4.092-8.679,3.654-19.348-1.133-27.662c-4.789-8.315-13.796-14.049-23.751-14.981c6.021-6.459,8.964-15.669,7.805-24.423
					c-1.16-8.753-6.4-16.88-13.896-21.548c4.864-5.09,6.734-12.852,4.722-19.598c-2.012-6.746-7.827-12.216-14.684-13.811
					c6.846-8.226,5.04-21.157-1.376-29.722c-6.415-8.567-16.331-13.698-24.466-17.358c-24.112,41.982-28.683,92.658-24.322,140.875
					c3.256,36.003,11.77,72.873,33.923,101.44c21.758,28.058,54.712,45.455,88.535,56.257c34.389,10.982,71.511,15.943,106.722,7.98
					C274.272,493.173,285.781,488.744,293.434,472.669z"/>
				<path style="opacity:0.12;fill:#292940;" d="M270.549,491.703c3.665-24.188-8.743-44.67-15.417-53.66
					c-10.14-1.926-20.882-0.757-30.278,3.535c-9.511-11.505-26.126-16.575-42.657-11.65c1.614-5.467,1.712-11.333,0.457-16.892
					c-21.541,4.782-31.379,14.776-31.379,14.776c-5.482-59.819-44.901-60.527-44.901-60.527c6.999-22.518,6.04-41.16,5.224-48.573
					c-3.418-1.712-7.174-2.827-11.082-3.192c3.585-3.845,6.068-8.668,7.254-13.787c-5.01-22.711-26.121-38.096-26.121-38.096
					c3.77-37.855-16.77-61.971-25.393-70.305c-22.04,41.122-26.171,90.01-21.957,136.604c3.256,36.003,11.77,72.873,33.923,101.44
					c21.758,28.058,54.712,45.455,88.535,56.257c34.389,10.982,71.511,15.943,106.722,7.98c2.153-0.487,4.334-1.055,6.507-1.777
					C270.247,493.146,270.439,492.436,270.549,491.703z"/>
			</g>
			<g style="clip-path:url(#SVGID_00000015318889574849913480000006790314149442255501_);">
				<path style="fill:#C2BADB;" d="M266.998,489.736c2.67-28.244-14.082-57.298-39.862-69.139
					c-25.781-11.84-58.736-5.613-78.419,14.818c-2.312-14.666-4.759-29.723-12.272-42.529c-7.512-12.804-21.36-23.024-36.156-21.801
					c5.381-19.275,10.813-39.173,8.333-59.03c-2.481-19.856-14.922-39.871-34.276-44.954c10.65-30.227-7.269-67.423-35.415-71.951
					C5.652,258.819,6.802,339.235,41.887,401.927S144.912,507.656,216.584,512.59C231.307,513.604,248.446,511.95,266.998,489.736z"
					/>
				<g>
					<defs>
						<path id="SVGID_00000084510810339118434390000012195701718842450081_" d="M266.998,489.736
							c2.67-28.244-14.082-57.298-39.862-69.139c-25.781-11.84-58.736-5.613-78.419,14.818
							c-2.312-14.666-4.759-29.723-12.272-42.529c-7.512-12.804-21.36-23.024-36.156-21.801c5.381-19.275,10.813-39.173,8.333-59.03
							c-2.481-19.856-14.922-39.871-34.276-44.954c10.65-30.227-7.269-67.423-35.415-71.951
							C5.652,258.819,6.802,339.235,41.887,401.927S144.912,507.656,216.584,512.59C231.307,513.604,248.446,511.95,266.998,489.736
							z"/>
					</defs>
					<clipPath id="SVGID_00000100347427737696781320000004294066174665965206_">
						<use xlink:href="#SVGID_00000084510810339118434390000012195701718842450081_"  style="overflow:visible;"/>
					</clipPath>
					<g style="clip-path:url(#SVGID_00000100347427737696781320000004294066174665965206_);">
						
							<line style="fill:none;stroke:#2E2854;stroke-width:0.75;stroke-linecap:round;stroke-linejoin:round;stroke-miterlimit:10;" x1="215.304" y1="397.682" x2="189.494" y2="541.297"/>
						
							<path style="fill:none;stroke:#2E2854;stroke-width:0.75;stroke-linecap:round;stroke-linejoin:round;stroke-miterlimit:10;" d="
							M167.824,414.429c0,0,18.406,20.873,32.807,64.898"/>
						
							<path style="fill:none;stroke:#2E2854;stroke-width:0.75;stroke-linecap:round;stroke-linejoin:round;stroke-miterlimit:10;" d="
							M237.978,414.429c0,0-16.252,17.793-31.071,29.98"/>
					</g>
					<g style="clip-path:url(#SVGID_00000100347427737696781320000004294066174665965206_);">
						
							<line style="fill:none;stroke:#2E2854;stroke-width:0.75;stroke-linecap:round;stroke-linejoin:round;stroke-miterlimit:10;" x1="124.571" y1="370.693" x2="102.418" y2="477.989"/>
						
							<line style="fill:none;stroke:#2E2854;stroke-width:0.75;stroke-linecap:round;stroke-linejoin:round;stroke-miterlimit:10;" x1="150.418" y1="405.198" x2="112.113" y2="431.031"/>
					</g>
					
						<path style="clip-path:url(#SVGID_00000100347427737696781320000004294066174665965206_);fill:none;stroke:#2E2854;stroke-width:0.75;stroke-linecap:round;stroke-linejoin:round;stroke-miterlimit:10;" d="
						M105.846,368.818c0,0,0,55.523-13.187,105.479"/>
					<g style="clip-path:url(#SVGID_00000100347427737696781320000004294066174665965206_);">
						
							<path style="fill:none;stroke:#2E2854;stroke-width:0.75;stroke-linecap:round;stroke-linejoin:round;stroke-miterlimit:10;" d="
							M31.736,392.275c0,0,39.367-56.938,92.835-88.088"/>
						
							<path style="fill:none;stroke:#2E2854;stroke-width:0.75;stroke-linecap:round;stroke-linejoin:round;stroke-miterlimit:10;" d="
							M83.956,262.253c0,0-10.262,48.567-15.417,86.657"/>
						
							<path style="fill:none;stroke:#2E2854;stroke-width:0.75;stroke-linecap:round;stroke-linejoin:round;stroke-miterlimit:10;" d="
							M119.56,322.912c0,0-17.328,6.579-34.089,9.963"/>
					</g>
					<g style="clip-path:url(#SVGID_00000100347427737696781320000004294066174665965206_);">
						
							<path style="fill:none;stroke:#2E2854;stroke-width:0.75;stroke-linecap:round;stroke-linejoin:round;stroke-miterlimit:10;" d="
							M10.11,283.879c0,0,41.143-30.857,87.033-48.791"/>
						
							<path style="fill:none;stroke:#2E2854;stroke-width:0.75;stroke-linecap:round;stroke-linejoin:round;stroke-miterlimit:10;" d="
							M78.154,222.17c0,0-9.295,15.288-14.669,28.477"/>
					</g>
				</g>
				<path style="opacity:0.12;fill:#292940;" d="M266.998,489.736c0.633-6.696,0.162-13.435-1.249-19.982
					c-2.304-3.554-5.566-6.962-10.035-10.095c-34.418-24.132-89.604-1.78-89.604-1.78c-10.879-22.747-35.209-14.044-35.209-14.044
					c-5.957-47.031-49.45-71.604-49.45-71.604c10.286-87.824-30.593-129.016-30.593-129.016l-36.084,54.837
					c0.381,36.186,9.432,72.282,27.114,103.876c35.085,62.692,103.025,105.729,174.697,110.663
					C231.307,513.604,248.446,511.95,266.998,489.736z"/>
			</g>
			<g style="clip-path:url(#SVGID_00000015318889574849913480000006790314149442255501_);">
				<path style="fill:#6069CC;" d="M504.566,459.118c0.551-17.476,7.728-34.662,19.77-47.338
					c12.041-12.677,28.835-20.727,47.187-22.903c-9.024-13.048-5.506-33.086,7.424-42.279c5.953-4.232,13.992-7.005,16.294-13.937
					c1.263-3.804,0.388-7.932-0.009-11.92c-1.282-12.902,2.876-26.259,11.255-36.154c8.379-9.896,20.867-16.198,32.29-12.697
					c-12.146-14.052-15.52-35.105-8.376-52.25c7.144-17.144,24.47-29.571,47.196-29.175c1.228-10.162,8.766-19.288,19.527-19.304
					c43.159,61.727,45.285,149.437,5.167,213.182C662.171,448.087,582.171,484.111,504.566,459.118z"/>
				<path style="opacity:0.12;fill:#292940;" d="M702.291,384.343c40.118-63.745,37.992-151.455-5.167-213.182
					c-10.761,0.016-18.299,9.142-19.527,19.304c-8.87-0.155-16.912,1.651-23.852,4.921c-1.526,18.747,6.277,32.845,6.277,32.845
					s-17.056,6.642-31.098,25.531c1.997,6.641,5.312,12.874,9.853,18.128c-7.11-2.179-14.632-0.559-21.319,3.36
					c-9.169,29.101,8.542,60.387,8.542,60.387c-29.939,8.051-49.303,26.172-59.445,38.305c0.306,5.317,1.918,10.525,4.967,14.934
					c-6.332,0.751-12.472,2.217-18.302,4.315c-14.101,24.918-14.307,58.067-13.514,73.176
					C605.401,472.601,668.223,438.47,702.291,384.343z"/>
			</g>
			<g style="clip-path:url(#SVGID_00000015318889574849913480000006790314149442255501_);">
				<path style="fill:#C2BADB;" d="M551.261,473.5c-9.407-27.905-6.075-59.833,8.891-85.194
					c14.966-25.362,41.304-43.713,74.031-52.313c-14.663-17.23-19.458-42.323-12.184-63.746
					c7.276-21.423,26.36-38.406,45.531-43.301c-11.054-15.932-13.751-37.338-6.996-55.513c6.756-18.176,22.78-32.623,45.667-34.228
					c38.243,56.064,47.948,130.576,25.342,194.565c-22.605,63.989-76.961,115.871-141.933,135.472
					C576.156,473.301,562.126,476.063,551.261,473.5z"/>
				<g>
					<defs>
						<path id="SVGID_00000161615518613967871240000003929680587462974594_" d="M551.261,473.5
							c-9.407-27.905-6.075-59.833,8.891-85.194c14.966-25.362,41.304-43.713,74.031-52.313
							c-14.663-17.23-19.458-42.323-12.184-63.746c7.276-21.423,26.36-38.406,45.531-43.301
							c-11.054-15.932-13.751-37.338-6.996-55.513c6.756-18.176,22.78-32.623,45.667-34.228
							c38.243,56.064,47.948,130.576,25.342,194.565c-22.605,63.989-76.961,115.871-141.933,135.472
							C576.156,473.301,562.126,476.063,551.261,473.5z"/>
					</defs>
					<clipPath id="SVGID_00000012465801217245562070000007918026983701838774_">
						<use xlink:href="#SVGID_00000161615518613967871240000003929680587462974594_"  style="overflow:visible;"/>
					</clipPath>
					<g style="clip-path:url(#SVGID_00000012465801217245562070000007918026983701838774_);">
						
							<path style="fill:none;stroke:#2E2854;stroke-width:0.75;stroke-linecap:round;stroke-linejoin:round;stroke-miterlimit:10;" d="
							M547.605,373.549c0,0,54.048,36.293,97.178,90.725"/>
						
							<path style="fill:none;stroke:#2E2854;stroke-width:0.75;stroke-linecap:round;stroke-linejoin:round;stroke-miterlimit:10;" d="
							M541.143,414.165c0,0,41.249,4.244,68.69,11.419"/>
						
							<path style="fill:none;stroke:#2E2854;stroke-width:0.75;stroke-linecap:round;stroke-linejoin:round;stroke-miterlimit:10;" d="
							M576.549,362.539c0,0,4.635,24.723,8.054,39.856"/>
					</g>
					<g style="clip-path:url(#SVGID_00000012465801217245562070000007918026983701838774_);">
						
							<path style="fill:none;stroke:#2E2854;stroke-width:0.75;stroke-linecap:round;stroke-linejoin:round;stroke-miterlimit:10;" d="
							M599.68,339.791c0,0,22.166,68.451,54.606,114.33"/>
						
							<path style="fill:none;stroke:#2E2854;stroke-width:0.75;stroke-linecap:round;stroke-linejoin:round;stroke-miterlimit:10;" d="
							M619.868,334.205c0,0-3.835,31.074-4.39,47.111"/>
					</g>
					<g style="clip-path:url(#SVGID_00000012465801217245562070000007918026983701838774_);">
						
							<path style="fill:none;stroke:#2E2854;stroke-width:0.75;stroke-linecap:round;stroke-linejoin:round;stroke-miterlimit:10;" d="
							M614.132,313.483c0,0,61.319-0.791,125.209,13.451"/>
						
							<path style="fill:none;stroke:#2E2854;stroke-width:0.75;stroke-linecap:round;stroke-linejoin:round;stroke-miterlimit:10;" d="
							M624.022,251.568c0,0,32.976,35.406,50.906,65.177"/>
						
							<path style="fill:none;stroke:#2E2854;stroke-width:0.75;stroke-linecap:round;stroke-linejoin:round;stroke-miterlimit:10;" d="
							M639.756,243.214c0,0,3.901,15.082,7.831,35.653"/>
					</g>
					
						<path style="clip-path:url(#SVGID_00000012465801217245562070000007918026983701838774_);fill:none;stroke:#2E2854;stroke-width:0.75;stroke-linecap:round;stroke-linejoin:round;stroke-miterlimit:10;" d="
						M728.006,354.824c0,0-61.061-23.736-103.984-30.066"/>
					<g style="clip-path:url(#SVGID_00000012465801217245562070000007918026983701838774_);">
						
							<path style="fill:none;stroke:#2E2854;stroke-width:0.75;stroke-linecap:round;stroke-linejoin:round;stroke-miterlimit:10;" d="
							M655.077,228.033c0,0,45.451-13.055,88.495-18.593"/>
						
							<path style="fill:none;stroke:#2E2854;stroke-width:0.75;stroke-linecap:round;stroke-linejoin:round;stroke-miterlimit:10;" d="
							M653.692,179.374c0,0,25.22,18.989,38.522,39.363"/>
					</g>
					
						<path style="clip-path:url(#SVGID_00000012465801217245562070000007918026983701838774_);fill:none;stroke:#2E2854;stroke-width:0.75;stroke-linecap:round;stroke-linejoin:round;stroke-miterlimit:10;" d="
						M647.586,233.591c-0.01,0.432,45.935,28.129,95.746,39.176"/>
				</g>
				<path style="opacity:0.12;fill:#292940;" d="M736.3,205.923c-10.929-18.136-26.167-32.568-42.849-18.307
					c-32.703,27.956,0,86.67,0,86.67c-29.011,29.966-21.89,69.99-21.89,69.99c-54.062,28.152-53.802,70.418-53.802,70.418
					c-36.897,1.441-60.215,15.69-71.749,25.133c-0.121,11.418,1.603,22.849,5.252,33.674c10.865,2.563,24.895-0.199,38.349-4.258
					c64.972-19.601,119.328-71.483,141.933-135.472C745.972,292.928,747.216,247.805,736.3,205.923z"/>
			</g>
		</g>
		<g>
			<circle style="fill:#FFFFFF;" cx="181.275" cy="126.429" r="1.053"/>
			<path style="fill:#FFFFFF;" d="M336.444,58.516c0-0.581-0.471-1.053-1.053-1.053c-0.581,0-1.053,0.471-1.053,1.053
				c0,0.581,0.471,1.053,1.053,1.053C335.973,59.569,336.444,59.098,336.444,58.516z"/>
			<path style="fill:#FFFFFF;" d="M305.505,134.74c0-0.581-0.471-1.053-1.053-1.053s-1.053,0.471-1.053,1.053
				c0,0.581,0.471,1.053,1.053,1.053S305.505,135.321,305.505,134.74z"/>
			<circle style="fill:#FFFFFF;" cx="453.319" cy="89.657" r="1.053"/>
			<circle style="fill:#FFFFFF;" cx="236.659" cy="151.22" r="1.053"/>
			<path style="fill:#FFFFFF;" d="M299.295,83.708c0-0.582-0.471-1.053-1.053-1.053c-0.582,0-1.053,0.471-1.053,1.053
				c0,0.581,0.471,1.053,1.053,1.053C298.823,84.76,299.295,84.289,299.295,83.708z"/>
			<circle style="fill:#FFFFFF;" cx="386.066" cy="99.226" r="1.053"/>
			<path style="fill:#FFFFFF;" d="M416.472,47.574c0-0.581-0.471-1.053-1.053-1.053c-0.582,0-1.053,0.471-1.053,1.053
				c0,0.582,0.471,1.053,1.053,1.053C416.001,48.626,416.472,48.155,416.472,47.574z"/>
			<path style="fill:#FFFFFF;" d="M538.2,93.565c0-0.581-0.471-1.053-1.053-1.053c-0.582,0-1.053,0.471-1.053,1.053
				c0,0.581,0.471,1.053,1.053,1.053C537.729,94.617,538.2,94.146,538.2,93.565z"/>
			<path style="fill:#FFFFFF;" d="M614.061,136.327c0-0.581-0.471-1.053-1.053-1.053c-0.581,0-1.053,0.471-1.053,1.053
				c0,0.581,0.471,1.053,1.053,1.053C613.59,137.38,614.061,136.909,614.061,136.327z"/>
			<path style="fill:#FFFFFF;" d="M202.105,85.813c0-0.581-0.471-1.053-1.053-1.053c-0.581,0-1.053,0.471-1.053,1.053
				c0,0.581,0.471,1.053,1.053,1.053C201.634,86.866,202.105,86.395,202.105,85.813z"/>
			<path style="fill:#FFFFFF;" d="M305.505,90.71c0-0.581-0.471-1.053-1.053-1.053c-0.582,0-1.053,0.471-1.053,1.053
				c0,0.581,0.471,1.053,1.053,1.053C305.033,91.763,305.505,91.292,305.505,90.71z"/>
			<circle style="fill:#FFFFFF;" cx="590.332" cy="137.38" r="1.053"/>
			<path style="fill:#FFFFFF;" d="M598.596,105.58c0-0.581-0.471-1.053-1.053-1.053c-0.582,0-1.053,0.471-1.053,1.053
				c0,0.581,0.471,1.053,1.053,1.053C598.125,106.632,598.596,106.161,598.596,105.58z"/>
			<path style="fill:#FFFFFF;" d="M471.382,48.626c0-0.581-0.471-1.053-1.053-1.053c-0.581,0-1.053,0.471-1.053,1.053
				c0,0.582,0.471,1.053,1.053,1.053C470.911,49.679,471.382,49.208,471.382,48.626z"/>
			<path style="fill:#FFFFFF;" d="M415.419,127.481c0-0.581-0.471-1.053-1.053-1.053c-0.582,0-1.053,0.471-1.053,1.053
				c0,0.582,0.471,1.053,1.053,1.053C414.948,128.534,415.419,128.063,415.419,127.481z"/>
			<path style="fill:#FFFFFF;" d="M245.36,99.226c0-0.581-0.471-1.053-1.053-1.053c-0.581,0-1.053,0.471-1.053,1.053
				c0,0.581,0.471,1.053,1.053,1.053C244.889,100.279,245.36,99.807,245.36,99.226z"/>
			<g>
				
					<line style="fill:none;stroke:#FFFFFF;stroke-linecap:round;stroke-linejoin:round;stroke-miterlimit:10;" x1="399.291" y1="32.308" x2="399.291" y2="37.253"/>
				
					<line style="fill:none;stroke:#FFFFFF;stroke-linecap:round;stroke-linejoin:round;stroke-miterlimit:10;" x1="397.484" y1="34.78" x2="401.099" y2="34.78"/>
			</g>
			<g>
				
					<line style="fill:none;stroke:#FFFFFF;stroke-linecap:round;stroke-linejoin:round;stroke-miterlimit:10;" x1="418.28" y1="113.215" x2="418.28" y2="118.16"/>
				
					<line style="fill:none;stroke:#FFFFFF;stroke-linecap:round;stroke-linejoin:round;stroke-miterlimit:10;" x1="416.472" y1="115.687" x2="420.087" y2="115.687"/>
			</g>
			<g>
				
					<line style="fill:none;stroke:#FFFFFF;stroke-linecap:round;stroke-linejoin:round;stroke-miterlimit:10;" x1="574.769" y1="118.16" x2="574.769" y2="123.105"/>
				
					<line style="fill:none;stroke:#FFFFFF;stroke-linecap:round;stroke-linejoin:round;stroke-miterlimit:10;" x1="572.962" y1="120.632" x2="576.577" y2="120.632"/>
			</g>
			<g>
				
					<line style="fill:none;stroke:#FFFFFF;stroke-linecap:round;stroke-linejoin:round;stroke-miterlimit:10;" x1="249.846" y1="72.365" x2="249.846" y2="77.31"/>
				
					<line style="fill:none;stroke:#FFFFFF;stroke-linecap:round;stroke-linejoin:round;stroke-miterlimit:10;" x1="248.039" y1="74.837" x2="251.654" y2="74.837"/>
			</g>
			<g>
				
					<line style="fill:none;stroke:#FFFFFF;stroke-linecap:round;stroke-linejoin:round;stroke-miterlimit:10;" x1="224.674" y1="182.505" x2="224.674" y2="187.451"/>
				
					<line style="fill:none;stroke:#FFFFFF;stroke-linecap:round;stroke-linejoin:round;stroke-miterlimit:10;" x1="222.866" y1="184.978" x2="226.481" y2="184.978"/>
			</g>
		</g>
	</g>
</g>
</svg>
