<?xml version="1.0" encoding="utf-8"?>
<!-- Generator: Adobe Illustrator 27.5.0, SVG Export Plug-In . SVG Version: 6.00 Build 0)  -->
<svg version="1.1" xmlns="http://www.w3.org/2000/svg" xmlns:xlink="http://www.w3.org/1999/xlink" x="0px" y="0px"
	 viewBox="0 0 500 500" style="enable-background:new 0 0 500 500;" xml:space="preserve">
<g id="BACKGROUND">
	<rect style="fill:#FFFFFF;stroke:#FFFFFF;stroke-miterlimit:10;" width="500" height="500"/>
</g>
<g id="OBJECTS">
	<path style="fill:#D6E4FF;" d="M86.501,197.037c-6.698,13.351-11.04,27.447-11.538,41.667
		c-0.394,11.232,3.265,24.095,13.496,28.747c6.612,3.007,14.354,1.805,21.31-0.286c12.151-3.653,23.375-9.752,35.397-13.755
		c8.397-2.796,25.253-7.877,32.189,0.569c8.188,9.975-2.79,28.77-7.905,37.92c-4.687,8.385-10.435,16.17-13.96,25.171
		c-5.647,14.419-9.155,38.259,7.513,47.178c17.831,9.541,36.386-10.502,49.415-20.16c9.774-7.245,19.148-15.034,29.189-21.917
		c8.82-6.046,21.125-16.074,32.021-9.037c5.347,3.454,7.591,10.066,9.077,16.255c3.985,16.592,7.39,36.78,23.166,43.283
		c9.452,3.896,20.259,1.146,29.821-2.473c44.697-16.918,81.82-52.884,100.143-97.023c4.746-11.434,8.312-23.584,8.189-35.964
		c-0.123-12.379-4.272-25.07-13.132-33.716c-11.299-11.026-28.251-13.926-44.036-13.714c-15.786,0.212-31.622,2.975-47.284,0.996
		c-5.123-0.647-10.634-2.079-13.718-6.221c-2.64-3.545-2.9-8.312-2.516-12.716c1.464-16.795,10.676-33.515,5.944-49.696
		c-5.633-19.262-29.901-28.089-49.286-22.893c-19.384,5.196-34.32,20.527-46.485,36.489c-11.264,14.78-22.976,31.968-41.222,35.491
		c-3.26,0.629-6.81,0.73-9.717-0.872c-7.299-4.023-5.808-14.643-7.568-22.791c-4.166-19.285-25.638-22.321-39.125-10.914
		C117.537,152.17,98.339,173.44,86.501,197.037z"/>
	<g>
		<path style="fill:#99BCFF;" d="M54.211,228.888h86.803c5.341,0,8.691-5.916,5.798-10.406c-0.021-0.032-0.042-0.064-0.062-0.096
			c-2.092-3.206-5.713-5.447-9.539-5.575c-3.826-0.128-7.717,2.001-9.408,5.435c-0.028-6.389-3.702-13.042-9.195-16.305
			c-5.493-3.263-12.473-3.702-18.493-1.559c-4.691,1.67-8.917,4.954-11.111,9.424c-1.07,2.18-1.638,4.568-2.119,6.948
			c-0.787-1.058-1.736-2.404-2.777-3.214c-0.718-0.558-1.493-1.051-2.336-1.39c-1.979-0.796-4.306-0.675-6.192,0.321
			c-1.886,0.996-3.298,2.85-3.757,4.933c-0.369-1.717-0.764-3.212-1.874-4.574c-2.884-3.539-7.178-5.471-11.718-4.993
			c-4.54,0.478-8.756,3.367-10.84,7.429c-1.393,2.715-0.779,6.114,0.455,9.254C48.878,227.145,51.391,228.888,54.211,228.888z"/>
		<path style="fill:#99BCFF;" d="M388.457,303.178h59.526c2.126,0,3.726-2.044,3.1-4.076c-0.004-0.013-0.008-0.026-0.012-0.039
			c-0.588-1.865-1.92-3.485-3.636-4.423c-1.716-0.938-3.798-1.185-5.686-0.673c-1.144,0.31-2.262,0.936-2.854,1.962
			c0.743-3.441-0.458-7.214-2.943-9.706c-2.486-2.492-6.009-3.809-9.525-3.974c-3.299-0.155-6.711,0.698-9.292,2.758
			c-2.581,2.06-4.21,5.402-3.823,8.682c-1.106-2.12-3.772-3.403-6.035-2.631c-2.263,0.772-3.83,3.124-3.851,5.515
			c-0.588-1.98-2.159-3.747-4.05-4.58c-1.89-0.833-4.116-1.257-6.153-0.909c-2.037,0.348-3.973,1.495-5.389,2.999
			c-1.307,1.388-2.341,3.521-2.583,5.582C385.032,301.544,386.562,303.178,388.457,303.178z"/>
		<path style="fill:#99BCFF;" d="M384.407,140.547H277.952c-4.963,0-8.208-5.468-5.57-9.671c0.018-0.028,0.036-0.057,0.054-0.085
			c1.81-2.813,4.833-4.973,8.172-5.161c3.842-0.216,7.385,2.117,10.079,4.865c0.874-7.989,3.219-15.601,9.369-20.775
			c6.15-5.174,14.735-7.537,22.541-5.625c7.806,1.912,14.501,8.292,16.206,16.145c2.995-4.659,8.893-7.286,14.214-5.75
			c1.759,0.507,3.428,1.408,4.684,2.741c1.972,2.092,2.757,5.029,3.149,7.877c1.632-3.377,4.849-6.462,8.412-7.633
			c4.68-1.539,9.994-0.808,14.307,1.446c2.091,1.093,3.934,2.664,5.236,4.633c2.45,3.705,2.643,7.7,1.914,11.813
			C390.184,138.389,387.478,140.547,384.407,140.547z"/>
		<path style="fill:#99BCFF;" d="M129.857,322.261h44.292c2.065,0,3.415-2.275,2.317-4.024c-0.007-0.012-0.015-0.023-0.022-0.035
			c-0.753-1.17-2.011-2.069-3.4-2.147c-1.598-0.09-3.073,0.881-4.193,2.024c-0.363-3.324-1.339-6.491-3.898-8.644
			c-2.559-2.152-6.131-3.136-9.378-2.34c-3.248,0.796-6.033,3.45-6.743,6.717c-1.246-1.938-3.7-3.031-5.914-2.392
			c-0.732,0.211-1.426,0.586-1.949,1.14c-0.82,0.87-1.147,2.092-1.31,3.277c-0.679-1.405-2.018-2.689-3.5-3.176
			c-1.947-0.64-4.158-0.336-5.953,0.601c-0.87,0.455-1.637,1.108-2.178,1.927c-1.019,1.542-1.1,3.203-0.796,4.915
			C127.453,321.363,128.579,322.261,129.857,322.261z"/>
	</g>
	<path style="fill:#99BCFF;" d="M66.561,383.331c0,20.1,78.087,36.394,174.412,36.394c96.325,0,174.412-16.294,174.412-36.394
		H66.561z"/>
	<g>
		<path style="fill:#1B2030;" d="M362.447,277.97c5.466-1.227,3.768-10.435,2.359-15.575c20.103-8.357,47.353-19.142,47.353-19.142
			l-8.999-22.197l-45.824,17.946c-0.161-0.27-0.367-0.615-0.631-1.056c-0.767-1.28-2.41,0.071-2.41,0.071s-0.532-0.752-1.451-0.605
			c-0.703,0.113-1.355,1.074-1.355,1.074s-0.268-0.422-1.382-0.145c-1.114,0.277-1.298,1.465-1.298,1.465s-0.638-0.791-1.546-0.123
			c-0.548,0.404-1.02,2.077-1.02,3.663l-10.544,4.129l-30.294-77.666l-23.347,9.46l23.947,62.779
			c0.063-0.033,0.127-0.057,0.009,0.023c-0.855,0.575-1.473,1.494-1.683,2.503c-0.111,0.532-0.117,1.098-0.361,1.584
			c-0.719,1.427-2.986,1.358-3.842,2.707c-0.603,0.949-0.316,2.341-1.106,3.141c-0.67,0.678-1.761,0.587-2.694,0.782
			c-0.802,0.168-1.561,0.597-2.06,1.248c-0.151,0.196-0.265,0.417-0.36,0.646c-6.932-1.419-14.695-0.891-20.682,5.777
			c-2.436,2.714-6.741,11.756-9.034,14.816L87.797,344.095l9.135,22.564l155.275-60.767c-0.124,0.376-0.245,0.741-0.357,1.079
			c-2.768,8.385-7.772,28.105-9.404,32.938c-1.632,4.833-1.082,6.185-2.651,6.672c-1.569,0.469-13.813,3.444-25.589,13.2
			c0,0-1.704,1.47-7.358,4.355c-8.25,4.202-17.24,1.668-14.382,9.422c0,0-10.955-0.568-9.494,7.132
			c1.461,7.7,3.913,6.05,5.112,15.211c1.19,9.161,6.438,8.932,6.438,8.932h9.251c1.28,0,2.561-0.583,3.408-1.565
			c0.415-0.478,0.712-1.091,0.577-1.74c-0.144-0.658-0.568-1.181-1.172-1.461c-0.694-0.316-1.398-0.207-2.119-0.343
			c-0.451-0.081-0.893-0.207-1.307-0.388c-1.001-0.433-1.83-1.172-2.335-2.137c-0.577-1.109-0.712-2.398-0.649-3.625
			c0.153-3.228,0.09-3.994,1.406-5.329c1.416,4.869,6.204,14.787,15.022,14.787l29.674,0.081c5.875,0,6.519-3.372,14.76-8.404
			c-1.452,2.741-2.687,5.644-2.398,7.186c0.649,3.426,5.845,2.98,12.923,2.936c7.281-0.045,9.105,0.049,15.537,0
			c6.364-0.049,8.13-1.079,6.84-3.233c-1.289-2.155-2.38-1.911-7.998-3.219c-5.004-1.154-6.42-1.921-6.789-4.346
			c1.073,0.252,2.065,0.478,2.939,0.667c1.966,0.415,3.976-0.379,5.139-2.02c7.835-11.126,25.589-38.032,21.541-46.661
			c-3.12-6.645-18.042-32.162-18.06-32.216c0,0,7.117,4.301,21.762,9.137c16.158,5.336,8.218-16.793,8.218-16.793
			c0.018-0.433,0.243-1.118,1.56-1.118c1.93,0,6.372,0.659,6.643-3.076l18.824,49.309l23.309-9.46l-25.148-65.873
			C352.958,277.516,359.125,278.716,362.447,277.97z M322.325,287.354c-1.489,0.094-1.043,2.174-1.043,2.174
			s-0.913,0.127-1.203,1.012c-0.222,0.677,0.168,1.588,0.168,1.588s-0.333,0.153-0.599,1.27c-0.266,1.117,0.706,1.826,0.706,1.826
			s-0.891,0.517-0.819,1.317c0.02,0.223,0.183,0.483,0.43,0.754c-0.291,0.127-0.937,0.322-0.976,0.343l-0.191-0.554
			c-0.19-0.551-0.755-0.88-1.328-0.773l-9.473,2.104l-3.967-3.715c1.037-7.736,16.636-12.217,16.636-12.217l1.569,3.877l0.372,0.976
			C322.513,287.342,322.426,287.348,322.325,287.354z"/>
		<path style="fill:#1B2030;" d="M306.013,242.071l-0.009-0.023C305.939,242.082,305.876,242.124,306.013,242.071z"/>
	</g>
</g>
</svg>
