<?xml version="1.0" encoding="utf-8"?>
<!-- Generator: Adobe Illustrator 27.5.0, SVG Export Plug-In . SVG Version: 6.00 Build 0)  -->
<svg version="1.1" xmlns="http://www.w3.org/2000/svg" xmlns:xlink="http://www.w3.org/1999/xlink" x="0px" y="0px"
	 viewBox="0 0 500 500" style="enable-background:new 0 0 500 500;" xml:space="preserve">
<g id="BACKGROUND">
</g>
<g id="OBJECTS">
	<g>
		<path style="fill:#F2EDFF;" d="M87.281,399.181c-19.54,0.193-48.641-10.618-43.708-34.808
			c3.343-16.395-10.515-31.787-13.027-48.305c-2.894-19.031,7.686-39.201,25.759-49.106c6.438-3.528,13.955-6.048,18.391-11.572
			c13.682-17.038-9.332-38.198-0.524-60.959c5.058-13.068,20.005-20.343,39.874-19.095c20.403,1.282,39.968-2.482,42.544-20.964
			c2.083-14.939,1.939-25.386,17.679-38.175c26.307-21.374,91.766-24.215,105.061,15.8c3.852,11.592,14.916,37.004,53.18,15.49
			c29.792-16.751,100.37,2.582,77.84,50.989c-8.882,19.084,8.57,25.248,35.744,35.105c20.274,7.354,37.278,44.313-4.287,75.979
			c-5.952,4.534,7.988,17.433,13.791,22.124c33.441,27.032,1.975,66.758-29.378,67.497
			C426.22,399.181,106.821,398.988,87.281,399.181z M133.508,140.296c-11.071-2.488-14.598,9.048-14.191,17.257
			c0.079,1.598,0.172,3.25,0.917,4.679c1.057,2.026,3.268,3.271,5.519,3.917c3.644,1.046,7.569,0.797,11.283,0.015
			c2.368-0.499,4.794-1.272,6.474-2.96C150.296,156.385,141.768,142.152,133.508,140.296z M322.928,135.444
			c-0.179,2.895-2.465,5.359-5.16,6.637c-2.695,1.278-5.76,1.581-8.753,1.8c-4.323,0.317-9.268,0.276-12.202-2.807
			c-2.022-2.125-2.545-5.274-2.074-8.124c1.18-7.151,5.75-14.325,14.205-13.359C315.257,120.313,323.306,129.308,322.928,135.444z
			 M333.46,118.161c-1.042,0.682-2.378,0.862-3.604,0.587c-0.641-0.144-1.251-0.411-1.774-0.795c-3.56-2.617-2.176-7.5,2.35-7.035
			C334.084,111.292,337.592,115.456,333.46,118.161z M442.274,208.164c1.206,1.666,2.079,3.801,1.365,5.714
			c-0.508,1.362-1.75,2.369-3.112,2.974c-2.846,1.263-6.231,0.964-9.135-0.171c-2.903-1.135-5.411-3.031-7.813-4.973
			c-1.057-0.854-2.134-1.763-2.695-2.978c-0.404-0.875-0.511-1.85-0.547-2.808c-0.064-1.674,0.072-3.37,0.583-4.971
			c0.669-2.099,1.953-3.961,3.301-5.73c2.012-2.642,4.893-5.731,8.691-5.097c2.319,0.387,2.827,1.662,2.871,3.758
			c0.049,2.312-0.517,4.549,0.386,6.795C437.357,203.635,440.423,205.607,442.274,208.164z M48.89,257.312
			c-3.722,3.079-10.026,2.57-13.167-1.064c-11.199-12.954-1.303-45.035,19.558-40.421c7.824,1.73,13.707,10.438,10.175,18.029
			c-1.985,4.267-7.255,6.466-9.765,10.496C53.096,248.518,52.918,253.98,48.89,257.312z"/>
		<g>
			<g>
				<g>
					<g>
						
							<linearGradient id="SVGID_1_" gradientUnits="userSpaceOnUse" x1="212.4613" y1="184.4264" x2="304.2325" y2="361.6762" gradientTransform="matrix(1.0178 -0.6957 0.7797 0.9154 -331.9526 238.7703)">
							<stop  offset="0" style="stop-color:#6CD3FF"/>
							<stop  offset="1" style="stop-color:#8582C9"/>
						</linearGradient>
						<path style="fill:url(#SVGID_1_);" d="M201.83,355.338c-0.011-4.66-3.141-8.706-4.461-13.202
							c-11.478-39.099-29.108-13.324-26.796-35.862c1.889-18.419-24.545-27.304-26.704-19.281
							c-1.714,6.369-10.081,9.853-14.131,4.47c-5.099-6.778-3.1-16.466-7.649-23.576c-2.648-4.139-7.483-6.99-12.619-7.443
							c-4.647-0.409-9.45,1.021-13.936-0.188c-7.992-2.154-12.089-11.834-20.327-12.889c-0.703-0.09-1.446-0.106-2.093,0.163
							c-1.32,0.547-1.806,2.031-2.145,3.342c-0.897,3.469-1.717,7.404,0.388,10.39c1.889,2.68,5.662,3.811,7.495,6.525
							c1.841,2.726,1.23,6.285,0.125,9.332c-1.104,3.047-2.658,6.078-2.519,9.295c0.2,4.601,3.966,8.569,8.432,10.531
							c4.467,1.962,9.542,2.265,14.473,2.298c1.295,0.009,2.622,0.006,3.839,0.42c3.885,1.322,4.791,6.638,2.338,9.736
							c-0.959,1.211-2.29,2.176-3.005,3.526c-1.86,3.508,1.506,7.809,5.521,8.958c4.015,1.15,8.314,0.211,12.473-0.305
							c4.159-0.516,8.854-0.445,11.952,2.205c3.945,3.375,3.524,9.239,5.786,13.765c2.434,4.868,7.914,7.881,13.498,9.167
							c5.584,1.287,11.409,1.138,17.151,1.413c12.068,0.578,24.228,3.151,34.604,8.956"/>
					</g>
					<g>
						<path style="opacity:0.2;fill:#444472;" d="M81.951,260.846c3.185,10.878,13.083,20.137,21.993,27.332
							c9.399,7.59,19.897,13.899,30.491,19.914c22.188,12.596,45.426,24.278,62.6,42.929c0.485,0.526,1.27-0.21,0.819-0.738
							c-15.146-17.745-36.579-28.961-57.16-40.328c-10.444-5.768-20.868-11.646-30.486-18.581
							c-10.808-7.793-23.8-18.035-27.842-30.626C82.287,260.502,81.879,260.596,81.951,260.846L81.951,260.846z"/>
					</g>
				</g>
				<g>
					
						<linearGradient id="SVGID_00000169521149661400054780000014011661266237697182_" gradientUnits="userSpaceOnUse" x1="88.2991" y1="207.3492" x2="91.8696" y2="443.8585" gradientTransform="matrix(-0.6713 -0.7411 -0.7411 0.6713 642.1862 163.6708)">
						<stop  offset="0" style="stop-color:#6CD3FF"/>
						<stop  offset="1" style="stop-color:#8582C9"/>
					</linearGradient>
					<path style="fill:url(#SVGID_00000169521149661400054780000014011661266237697182_);" d="M341.957,325.613
						c4.761,2.372,10.243,2.739,15.559,2.909c11.502,0.369,23.175-0.001,34.231-3.196c2.839-0.82,5.674-1.85,8.03-3.634
						c2.356-1.784,4.198-4.428,4.433-7.374c0.325-4.068-2.322-7.678-4.038-11.38c-0.524-1.132-0.976-2.396-0.672-3.606
						c0.714-2.842,4.583-3.152,7.497-2.843c2.414,0.256,4.827,0.512,7.241,0.768c3,0.319,6.613,0.377,8.344-2.094
						c1.465-2.092,0.684-5.184-1.195-6.912c-1.88-1.729-4.547-2.327-7.099-2.419c-2.552-0.092-5.108,0.252-7.657,0.099
						c-0.607-0.036-1.248-0.115-1.726-0.49c-1.152-0.903-0.615-2.766,0.237-3.956c1.896-2.648,4.905-4.472,8.13-4.929
						c3.156-0.447,6.335,0.362,9.508,0.667c3.173,0.305,6.7-0.027,8.972-2.263c2.188-2.152,2.803-5.49,2.682-8.556
						c-0.175-4.433-6.342-9.955-12.082-6.424c-3.173,1.952-6.288,3.996-9.432,5.994c-2.035,1.293-5.021,2.468-6.551,0.606
						c-1.238-1.506-0.357-3.779,0.758-5.378c4.383-6.287,11.723-9.689,17.56-14.655c9.01-7.664-4.888-21.097-16.361-13.457
						c-3.02,2.011-5.518,4.783-7.298,7.944c-2.059,3.657-3.174,7.903-5.956,11.046c-1.006,1.137-2.287,2.132-3.789,2.354
						c-1.502,0.222-3.219-0.546-3.683-1.991c-0.476-1.48,0.424-3.001,0.972-4.456c1.603-4.252,0.136-9.179-2.635-12.78
						c-1.61-2.092-3.961-3.97-6.592-3.762c-3.164,0.251-5.359,3.463-5.865,6.596c-0.506,3.134,0.181,6.325,0.235,9.498
						c0.054,3.174-0.738,6.689-3.339,8.508c-0.427,0.299-0.924,0.549-1.444,0.514c-0.428-0.029-0.819-0.25-1.167-0.5
						c-2.485-1.783-3.344-5.006-4.713-7.741c-1.369-2.735-4.203-5.414-7.114-4.475c-2.381,0.768-3.447,3.646-3.268,6.142
						c0.179,2.495,1.246,4.838,1.704,7.297c1.392,7.46-3.767,15.551-11.118,17.437c-2.067,0.53-4.251,0.625-6.234,1.414
						c-3.326,1.323-5.662,4.478-6.797,7.872c-1.135,3.394-1.225,7.04-1.185,10.619c0.102,9.217,1.592,19.575,8.972,25.098"/>
					<g style="opacity:0.41;">
						<path style="fill:#444472;" d="M419.587,245.313c-0.377,0.14-0.748,0.271-1.12,0.401c0.361-0.16,0.72-0.323,1.063-0.514
							C419.602,245.159,419.662,245.285,419.587,245.313z"/>
						<path style="fill:#444472;" d="M414.929,246.784c1.173-0.286,2.345-0.651,3.538-1.07
							C417.349,246.211,416.158,246.562,414.929,246.784z"/>
						<path style="opacity:0.47;fill:#444472;" d="M359.469,258.036c-3.815,14.16-7.401,28.831-3.696,43.349
							c5.143-6.984,10.52-13.802,16.175-20.366c0.843-12.505,4.695-24.444,8.507-36.313c0.039-0.122,0.223-0.063,0.189,0.06
							c-3.241,11.464-6.161,22.926-7.432,34.781c8.691-9.955,18.06-19.28,28.23-27.711c-0.069-0.066-0.112-0.152-0.061-0.268
							c2.594-5.929,6.164-11.192,10.722-15.782c0.045-0.046,0.11,0.027,0.066,0.073c-4.28,4.539-7.595,9.641-10.001,15.379
							c1.703-1.399,3.435-2.767,5.181-4.118c-0.036-0.151,0.035-0.326,0.226-0.297c0.045,0.007,0.092,0.01,0.137,0.017
							c2.939-2.262,5.934-4.459,9.017-6.553c0.046-0.031,0.101,0.049,0.055,0.081c-2.983,2.093-5.883,4.272-8.721,6.516
							c2.212,0.296,4.592,0.312,6.868-0.1c-2.364,0.576-4.746,0.832-7.38,0.535c-0.013-0.001-0.017-0.013-0.029-0.016
							c-9.19,7.315-17.65,15.382-25.563,23.974c12.327,4.68,24.788-0.301,37.218-1.828c0.062-0.008,0.084,0.088,0.02,0.097
							c-12.431,1.812-25.158,7.307-37.574,2.558c-0.114-0.044-0.184-0.119-0.231-0.205c-2.873,3.139-5.666,6.354-8.402,9.621
							c-0.032,0.25-0.194,0.401-0.386,0.454c-2.332,2.794-4.615,5.632-6.859,8.503c12.866,3.894,25.954,5.267,39.279,3.076
							c0.063-0.01,0.083,0.084,0.02,0.097c-13.302,2.654-26.967,2.117-39.759-2.577c-4.604,5.916-9.035,11.98-13.337,18.137
							c12.606,5.23,26.206,9.097,39.43,3.612c0.058-0.024,0.103,0.063,0.044,0.088c-13.262,5.799-27.128,2.115-39.989-2.959
							c-1.331,1.912-2.653,3.831-3.96,5.759c-0.536,0.791-1.79-0.004-1.254-0.796c2.901-4.28,5.88-8.517,8.941-12.696
							c-4.254-14.989-0.213-29.715,4.121-44.242C359.317,257.853,359.502,257.914,359.469,258.036z"/>
					</g>
				</g>
				<g>
					
						<linearGradient id="SVGID_00000054258829933898435310000008026416313277215669_" gradientUnits="userSpaceOnUse" x1="-26.5349" y1="337.3922" x2="-23.7482" y2="521.9861" gradientTransform="matrix(0.1652 -0.9862 0.9862 0.1652 -272.206 256.1221)">
						<stop  offset="0" style="stop-color:#6F87FC"/>
						<stop  offset="1" style="stop-color:#824AD3"/>
					</linearGradient>
					<path style="fill:url(#SVGID_00000054258829933898435310000008026416313277215669_);" d="M150.646,359.212
						c-2.13,3.564-5.577,6.113-8.999,8.465c-7.403,5.087-15.229,9.76-23.84,12.317c-2.211,0.657-4.508,1.174-6.807,0.994
						c-2.299-0.18-4.623-1.142-6.018-2.978c-1.927-2.536-1.707-6.023-2.14-9.179c-0.132-0.965-0.368-1.986-1.077-2.653
						c-1.666-1.567-4.339-0.141-6.124,1.29c-1.478,1.185-2.956,2.37-4.435,3.554c-1.837,1.473-4.187,3.033-6.365,2.138
						c-1.843-0.757-2.633-3.118-2.126-5.046c0.507-1.928,2.008-3.444,3.646-4.579c1.638-1.135,3.463-1.986,5.074-3.16
						c0.383-0.279,0.772-0.601,0.928-1.049c0.377-1.079-0.761-2.077-1.822-2.499c-2.362-0.942-5.107-0.873-7.419,0.185
						c-2.262,1.035-4.01,2.906-5.967,4.443c-1.956,1.536-4.414,2.804-6.849,2.292c-2.344-0.493-4.154-2.427-5.366-4.493
						c-1.752-2.987-0.025-9.213,5.233-9.31c2.907-0.054,5.815-0.022,8.722-0.033c1.881-0.007,4.339-0.493,4.56-2.361
						c0.179-1.511-1.357-2.634-2.763-3.215c-5.528-2.285-11.784-1.43-17.711-2.234c-9.148-1.242-5.673-15.922,5.084-15.734
						c2.831,0.05,5.64,0.819,8.141,2.147c2.894,1.536,5.414,3.856,8.566,4.75c1.14,0.323,2.401,0.438,3.481-0.049
						c1.08-0.487,1.885-1.714,1.582-2.859c-0.311-1.173-1.543-1.794-2.516-2.519c-2.844-2.119-3.955-5.975-3.651-9.508
						c0.177-2.053,0.931-4.277,2.748-5.249c2.185-1.168,4.98,0.019,6.632,1.865c1.652,1.846,2.545,4.232,3.846,6.341
						c1.301,2.108,3.302,4.085,5.777,4.184c0.406,0.016,0.838-0.028,1.165-0.27c0.269-0.199,0.433-0.509,0.557-0.82
						c0.882-2.218,0.089-4.698-0.163-7.072c-0.252-2.374,0.482-5.328,2.79-5.937c1.888-0.498,3.801,0.944,4.734,2.66
						c0.933,1.715,1.219,3.703,1.953,5.513c2.227,5.488,9.025,8.632,14.65,6.775c1.581-0.522,3.057-1.379,4.692-1.696
						c2.743-0.531,5.606,0.558,7.782,2.31c2.175,1.752,3.77,4.111,5.251,6.479c3.815,6.1,7.198,13.534,4.674,20.271"/>
					<g style="opacity:0.41;">
						<path style="fill:#444472;" d="M65.815,339.139c0.307-0.067,0.606-0.137,0.905-0.208c-0.304,0.047-0.609,0.091-0.915,0.11
							C65.74,339.044,65.753,339.152,65.815,339.139z"/>
						<path style="fill:#444472;" d="M69.495,338.144c-0.891,0.306-1.815,0.56-2.775,0.787
							C67.663,338.786,68.594,338.515,69.495,338.144z"/>
						<path style="opacity:0.47;fill:#444472;" d="M110.678,322.18c8.471,7.698,17.006,15.829,20.686,26.929
							c-6.321-2.423-12.726-4.639-19.206-6.57c-5.82-7.862-13.38-14.085-20.883-20.279c-0.077-0.064-0.173,0.053-0.099,0.119
							c6.958,6.168,13.704,12.471,19.532,19.725c-9.904-2.881-19.988-5.063-30.221-6.32c0.017-0.072,0.01-0.147-0.073-0.202
							c-4.202-2.804-8.764-4.759-13.692-5.855c-0.049-0.011-0.061,0.064-0.013,0.076c4.724,1.18,9.051,3.137,13.049,5.894
							c-1.709-0.202-3.422-0.372-5.139-0.524c-0.04-0.114-0.16-0.2-0.274-0.1c-0.027,0.023-0.056,0.045-0.083,0.069
							c-2.884-0.249-5.777-0.431-8.685-0.509c-0.043-0.001-0.046,0.075-0.002,0.077c2.842,0.119,5.665,0.33,8.475,0.609
							c-1.329,1.126-2.886,2.139-4.555,2.826c1.796-0.617,3.469-1.452,5.075-2.757c0.008-0.006,0.005-0.016,0.012-0.023
							c9.12,0.937,18.077,2.674,26.895,4.988c-6.13,8.267-16.416,10.242-25.227,14.473c-0.044,0.021-0.018,0.093,0.027,0.072
							c8.932-4.044,19.609-5.794,25.768-14.144c0.057-0.076,0.071-0.156,0.065-0.232c3.21,0.853,6.399,1.789,9.573,2.783
							c0.126,0.151,0.297,0.182,0.445,0.136c2.709,0.854,5.404,1.757,8.089,2.699c-6.814,7.977-14.837,14.392-24.516,18.564
							c-0.045,0.02-0.019,0.091,0.027,0.072c9.859-3.858,18.612-9.966,25.041-18.439c5.517,1.949,10.983,4.067,16.403,6.301
							c-6.081,8.746-13.389,17.015-24.389,18.98c-0.049,0.009-0.042,0.085,0.008,0.077c11.157-1.775,18.717-10.035,25.032-18.787
							c1.68,0.696,3.357,1.4,5.028,2.117c0.685,0.294,1.174-0.757,0.488-1.051c-3.709-1.591-7.451-3.12-11.222-4.577
							c-3.518-11.642-12.375-19.616-21.341-27.337C110.701,321.996,110.605,322.114,110.678,322.18z"/>
					</g>
				</g>
				<g>
					<g>
						
							<linearGradient id="SVGID_00000111897552231905406940000009127610803892673688_" gradientUnits="userSpaceOnUse" x1="199.1015" y1="114.4351" x2="218.1044" y2="291.7962" gradientTransform="matrix(-1 0 0 1 542.0139 0)">
							<stop  offset="6.009600e-04" style="stop-color:#B2DB90"/>
							<stop  offset="1" style="stop-color:#2BBA90"/>
						</linearGradient>
						<path style="fill:url(#SVGID_00000111897552231905406940000009127610803892673688_);" d="M290.093,351.956
							c-2.765-5.009-2.154-11.012-3.559-16.54c-12.211-48.064,20.151-29.741,4.497-52.713
							c-12.793-18.773,7.422-42.331,14.284-34.863c5.447,5.929,15.595,5.232,16.297-2.695c0.884-9.981-6.815-19.322-6.661-29.368
							c0.09-5.847,3.057-11.473,7.743-14.682c4.24-2.904,9.726-3.915,13.335-7.593c6.429-6.55,4.617-19.116,11.938-24.618
							c0.625-0.47,1.332-0.88,2.117-0.935c1.599-0.112,2.952,1.223,4.06,2.451c2.932,3.249,6.066,7.039,5.814,11.361
							c-0.227,3.88-3.194,7.094-3.346,10.98c-0.153,3.903,2.557,7.4,5.437,10.085c2.88,2.686,6.185,5.116,7.966,8.643
							c2.548,5.046,1.276,11.302-1.865,15.778c-3.141,4.475-7.857,7.492-12.596,10.143c-1.245,0.696-2.526,1.397-3.454,2.487
							c-2.961,3.48-0.67,9.667,3.543,11.692c1.647,0.792,3.505,1.122,5,2.192c3.884,2.78,3.198,9.182,0.008,12.546
							c-3.189,3.364-7.897,4.635-12.217,6.287c-4.32,1.651-8.808,4.218-10.219,8.707c-1.797,5.716,2.102,11.788,2.615,17.847
							c0.551,6.517-2.943,12.657-7.565,17c-4.622,4.343-10.331,7.272-15.707,10.613
							C306.257,333.781,296.648,340.221,290.093,351.956"/>
					</g>
					<g>
						<path style="opacity:0.41;fill:#444472;" d="M349.487,186.933c3.406,13.368-0.631,28.557-4.942,41.007
							c-4.549,13.133-10.921,25.474-17.561,37.55c-13.907,25.29-29.373,50.155-34.836,79.288c-0.154,0.822-1.35,0.449-1.23-0.358
							c4.046-27.083,18.046-50.492,31.136-73.61c6.642-11.731,13.2-23.57,18.35-36.116c5.787-14.099,12.224-31.984,8.625-47.647
							C348.959,186.742,349.409,186.627,349.487,186.933L349.487,186.933z"/>
					</g>
				</g>
				<g>
					<g>
						
							<linearGradient id="SVGID_00000171690388593625621160000002656929046441348265_" gradientUnits="userSpaceOnUse" x1="430.2464" y1="180.2646" x2="340.2785" y2="351.1678" gradientTransform="matrix(-1 0 0 1 542.0139 0)">
							<stop  offset="0.0025" style="stop-color:#56D6D5"/>
							<stop  offset="1" style="stop-color:#00674B"/>
						</linearGradient>
						<path style="fill:url(#SVGID_00000171690388593625621160000002656929046441348265_);" d="M220.117,349.69
							c-13.389-3.602-26.876-7.24-39.317-13.361c-19.938-9.809-36.675-26-47.139-45.602c-1.136-2.128-1.976-5.247,0.053-6.551
							c0.894-0.575,2.043-0.52,3.098-0.395c2.663,0.315,5.288,0.95,7.8,1.888c1.733,0.646,3.837,1.389,5.279,0.231
							c0.982-0.789,1.222-2.187,1.176-3.446c-0.219-6.061-5.304-10.909-10.769-13.541c-5.464-2.632-11.561-3.755-17.009-6.42
							c-5.448-2.666-10.483-7.592-10.59-13.657c-0.026-1.483,0.365-3.147,1.629-3.923c0.57-0.349,1.248-0.471,1.913-0.534
							c7.394-0.699,13.661,4.872,19.884,8.927c0.686,0.447,1.479,0.897,2.278,0.721c1.131-0.25,1.629-1.595,1.689-2.752
							c0.325-6.286-5.983-10.558-11.232-14.033c-7.155-4.737-14.056-10.918-16.249-19.214c-0.482-1.824-0.701-3.849,0.156-5.531
							c1.991-3.905,8.209-3.062,11.205,0.138c2.997,3.199,4.09,7.707,6.396,11.435c0.563,0.91,1.295,1.839,2.342,2.058
							c1.733,0.362,3.25-1.558,3.188-3.327c-0.062-1.769-1.161-3.31-2.215-4.731c-8.35-11.263-17.049-24.059-15.471-37.991
							c0.161-1.425,0.469-2.917,1.431-3.981c1.847-2.044,5.23-1.602,7.646-0.278c6.309,3.456,9.112,11.04,10.14,18.16
							c1.028,7.12,0.833,14.53,3.419,21.243c0.912,2.368,2.233,4.687,4.326,6.12c2.094,1.433,5.095,1.76,7.125,0.237
							c2.661-1.995,2.595-5.934,2.27-9.243c-0.259-2.643-0.519-5.286-0.778-7.928c-0.153-1.558-0.162-3.442,1.143-4.308
							c1.697-1.127,3.894,0.526,4.972,2.255c3.127,5.016,3.241,11.401,1.978,17.176c-1.262,5.774-3.766,11.192-5.609,16.808
							c-0.488,1.486-0.934,3.035-0.782,4.592c0.2,2.038,1.417,3.856,2.895,5.274c2.869,2.752,6.873,4.282,10.846,4.146
							c2.962-0.102,5.893-1.083,8.839-0.755c4.93,0.548,9.039,5.241,8.931,10.2c-0.096,4.381-3.018,8.206-6.317,11.091
							c-3.299,2.885-7.116,5.201-10.023,8.48c-1.301,1.468-2.442,3.226-2.53,5.185c-0.124,2.761,1.872,5.199,4.153,6.759
							c3.431,2.346,7.761,3.342,11.872,2.729c3.767-0.561,7.221-2.386,10.903-3.357c3.682-0.972,8.057-0.9,10.761,1.781
							c3.946,3.913,2.057,10.658-0.885,15.373c-2.942,4.715-6.862,9.551-6.248,15.075c0.421,3.791,2.947,6.985,5.529,9.793
							c5.546,6.031,11.841,11.371,18.695,15.861"/>
					</g>
					<g>
						
							<linearGradient id="SVGID_00000170259859581050923830000004917143133258007952_" gradientUnits="userSpaceOnUse" x1="310.914" y1="269.2437" x2="414.9712" y2="269.2437" gradientTransform="matrix(-1 0 0 1 542.0139 0)">
							<stop  offset="0" style="stop-color:#2B6565"/>
							<stop  offset="1" style="stop-color:#2BBA90"/>
						</linearGradient>
						<path style="opacity:0.3;fill:url(#SVGID_00000170259859581050923830000004917143133258007952_);" d="M127.784,186.338
							c14.226,30.15,17.903,64.043,31.238,94.668c6.62,15.202,14.325,30.522,25.362,43.046
							c12.387,14.057,28.535,20.485,45.932,26.183c1.286,0.421,0.879,2.511-0.424,2.086c-14.989-4.882-29.912-10.145-41.661-21.079
							c-11.546-10.746-19.373-24.748-26.068-38.857c-8.01-16.879-14.111-34.491-18.744-52.578
							c-4.62-18.033-8.535-36.227-16.341-53.229C126.877,186.14,127.582,185.91,127.784,186.338L127.784,186.338z"/>
					</g>
				</g>
				<g>
					<g>
						
							<linearGradient id="SVGID_00000124147363676097356840000007589649981288887217_" gradientUnits="userSpaceOnUse" x1="330.966" y1="86.3411" x2="381.9502" y2="190.2212" gradientTransform="matrix(-0.7241 0.6897 0.6897 0.7241 413.903 -133.3294)">
							<stop  offset="6.009600e-04" style="stop-color:#B2DB90"/>
							<stop  offset="1" style="stop-color:#2BBA90"/>
						</linearGradient>
						<path style="fill:url(#SVGID_00000124147363676097356840000007589649981288887217_);" d="M256.613,356.172
							c9.426-10.168,18.916-20.419,26.201-32.216c11.673-18.907,17.243-41.518,15.687-63.683c-0.168-2.406-1.115-5.495-3.527-5.521
							c-1.063-0.011-2.007,0.645-2.835,1.312c-2.088,1.682-3.974,3.616-5.604,5.745c-1.124,1.469-2.512,3.216-4.349,3.001
							c-1.251-0.146-2.198-1.203-2.828-2.294c-3.037-5.25-1.306-12.06,1.924-17.194c3.23-5.134,7.797-9.326,10.995-14.48
							c3.198-5.154,4.844-12.003,1.71-17.197c-0.766-1.27-1.982-2.472-3.465-2.456c-0.668,0.007-1.308,0.264-1.904,0.564
							c-6.635,3.338-8.981,11.389-12.097,18.131c-0.344,0.743-0.775,1.546-1.547,1.821c-1.091,0.389-2.227-0.485-2.893-1.433
							c-3.616-5.152-0.545-12.124,2.054-17.856c3.543-7.816,6.103-16.719,3.55-24.912c-0.561-1.801-1.452-3.633-3.072-4.602
							c-3.762-2.25-8.58,1.77-9.418,6.073c-0.838,4.303,0.633,8.702,0.661,13.085c0.007,1.07-0.119,2.247-0.89,2.988
							c-1.275,1.228-3.582,0.408-4.469-1.123c-0.887-1.531-0.776-3.421-0.638-5.185c1.085-13.979,1.652-29.441-7.09-40.402
							c-0.894-1.121-1.948-2.221-3.328-2.611c-2.651-0.749-5.281,1.423-6.624,3.828c-3.507,6.281-1.849,14.195,1.065,20.772
							c2.914,6.577,7.018,12.75,8.396,19.811c0.486,2.49,0.6,5.157-0.411,7.484c-1.011,2.327-3.38,4.199-5.908,3.988
							c-3.314-0.276-5.352-3.647-6.836-6.623c-1.185-2.376-2.37-4.753-3.555-7.129c-0.699-1.401-1.693-3.001-3.258-3.041
							c-2.036-0.052-3.019,2.516-3.013,4.553c0.017,5.911,3.316,11.38,7.454,15.6c4.139,4.22,9.139,7.478,13.685,11.255
							c1.203,1,2.405,2.074,3.103,3.473c0.914,1.833,0.85,4.019,0.351,6.006c-0.968,3.856-3.546,7.28-6.983,9.277
							c-2.563,1.489-5.567,2.215-7.888,4.059c-3.885,3.085-4.871,9.244-2.143,13.387c2.41,3.66,6.919,5.346,11.246,6.036
							c4.327,0.69,8.792,0.623,12.998,1.855c1.882,0.552,3.783,1.434,4.899,3.047c1.573,2.272,1.178,5.399,0.075,7.932
							c-1.659,3.811-4.797,6.956-8.605,8.623c-3.488,1.527-7.384,1.817-11.02,2.952c-3.635,1.134-7.303,3.52-8.168,7.229
							c-1.262,5.412,3.923,10.121,8.921,12.551c4.998,2.43,10.889,4.443,13.306,9.447c1.658,3.435,1.217,7.483,0.522,11.234
							c-1.492,8.056-3.985,15.926-7.404,23.372"/>
					</g>
					<g>
						
							<linearGradient id="SVGID_00000160911978994661855740000009185478062676534408_" gradientUnits="userSpaceOnUse" x1="60.2275" y1="228.712" x2="164.2921" y2="228.712" gradientTransform="matrix(0.847 -0.5316 0.5316 0.847 30.7308 132.5461)">
							<stop  offset="0" style="stop-color:#2B6565"/>
							<stop  offset="1" style="stop-color:#2BBA90"/>
						</linearGradient>
						<path style="opacity:0.3;fill:url(#SVGID_00000160911978994661855740000009185478062676534408_);" d="M246.77,169.102
							c3.976,33.099,18.878,63.762,23.862,96.791c2.474,16.395,4.091,33.467,1.399,49.942c-3.02,18.491-13.281,32.519-24.988,46.593
							c-0.865,1.04,0.59,2.594,1.468,1.542c10.101-12.103,19.944-24.493,24.083-40c4.068-15.239,3.254-31.26,1.426-46.769
							c-2.188-18.555-6.382-36.716-12.071-54.498c-5.672-17.73-12.027-35.221-14.454-53.772
							C247.433,168.453,246.714,168.633,246.77,169.102L246.77,169.102z"/>
					</g>
				</g>
				<g>
					
						<linearGradient id="SVGID_00000084511221788927269680000001354201021345904258_" gradientUnits="userSpaceOnUse" x1="139.5915" y1="323.3864" x2="153.3108" y2="427.8949" gradientTransform="matrix(0.904 0.4275 -0.4275 0.904 286.3795 -116.4635)">
						<stop  offset="0.0025" style="stop-color:#56D6D5"/>
						<stop  offset="1" style="stop-color:#00674B"/>
					</linearGradient>
					<path style="fill:url(#SVGID_00000084511221788927269680000001354201021345904258_);" d="M282.828,287.963
						c2.815-5.486,4.444-11.637,4.42-17.841c-0.024-6.277-1.95-12.439-4.129-18.398c-2.414-6.601-5.164-13.092-8.235-19.441
						c-9.242,6.491-18.184,13.503-25.634,21.908c-7.45,8.406-13.748,18.214-15.955,29.22c-3.791,18.913,5.876,36.332,5.876,36.332
						S267.626,317.588,282.828,287.963z"/>
					
						<linearGradient id="SVGID_00000087414279043811706670000017385256835224073390_" gradientUnits="userSpaceOnUse" x1="140.2636" y1="369.5356" x2="148.3447" y2="369.5356" gradientTransform="matrix(0.904 0.4275 -0.4275 0.904 286.3795 -116.4635)">
						<stop  offset="0" style="stop-color:#2B6565"/>
						<stop  offset="1" style="stop-color:#2BBA90"/>
					</linearGradient>
					<path style="opacity:0.3;fill:url(#SVGID_00000087414279043811706670000017385256835224073390_);" d="M252.903,298.864
						c3.726-6.224,7.205-12.607,10.239-19.221c5.755-12.543,9.674-25.866,10.53-39.963c0.02-0.33-0.495-0.36-0.522-0.038
						c-1.251,14.548-5.807,28.366-12.026,41.218c-2.936,6.068-6.24,11.939-9.749,17.675c-3.689,6.029-7.983,11.716-11.483,17.854
						c-0.391,0.686,0.623,1.268,1.092,0.685C245.495,311.463,249.205,305.042,252.903,298.864z"/>
				</g>
				<g>
					
						<linearGradient id="SVGID_00000005972223787365035730000017858934122200364189_" gradientUnits="userSpaceOnUse" x1="350.7005" y1="342.2821" x2="379.8975" y2="427.1248" gradientTransform="matrix(0.3822 0.9241 -0.9241 0.3822 622.7418 -152.6371)">
						<stop  offset="6.009600e-04" style="stop-color:#B2DB90"/>
						<stop  offset="1" style="stop-color:#2BBA90"/>
					</linearGradient>
					<path style="fill:url(#SVGID_00000005972223787365035730000017858934122200364189_);" d="M430.74,340.182
						c4.195-4.121,7.548-9.173,9.456-14.735c1.93-5.628,2.144-11.689,2.069-17.639c-0.082-6.591-0.495-13.179-1.237-19.729
						c-10.191,3.213-20.279,6.977-29.48,12.409c-9.201,5.432-17.821,12.445-23.194,21.681c-9.233,15.872-6.101,34.193-6.101,34.193
						S408.085,362.438,430.74,340.182z"/>
					
						<linearGradient id="SVGID_00000114033774642677958730000002130647122069196437_" gradientUnits="userSpaceOnUse" x1="341.9137" y1="378.1598" x2="377.6418" y2="378.1598" gradientTransform="matrix(0.3822 0.9241 -0.9241 0.3822 622.7418 -152.6371)">
						<stop  offset="0" style="stop-color:#2B6565"/>
						<stop  offset="1" style="stop-color:#2BBA90"/>
					</linearGradient>
					<path style="opacity:0.3;fill:url(#SVGID_00000114033774642677958730000002130647122069196437_);" d="M400.888,341.526
						c5.23-4.526,10.292-9.264,15.031-14.334c8.989-9.615,16.598-20.444,21.738-32.829c0.12-0.29-0.325-0.461-0.45-0.18
						c-5.63,12.677-13.955,23.772-23.451,33.532c-4.483,4.608-9.23,8.938-14.116,13.087c-5.137,4.362-10.702,8.247-15.706,12.76
						c-0.559,0.505,0.157,1.311,0.753,0.921C390.419,350.725,395.697,346.018,400.888,341.526z"/>
				</g>
				<g>
					
						<linearGradient id="SVGID_00000129928536753349817780000012201361792523041156_" gradientUnits="userSpaceOnUse" x1="435.8317" y1="362.2413" x2="367.1883" y2="408.6305" gradientTransform="matrix(0.5304 0.8478 -0.8478 0.5304 515.2159 -193.0241)">
						<stop  offset="0.0025" style="stop-color:#56D6D5"/>
						<stop  offset="1" style="stop-color:#00674B"/>
					</linearGradient>
					<path style="fill:url(#SVGID_00000129928536753349817780000012201361792523041156_);" d="M401.707,370.662
						c4.241,1.225,8.853,1.535,13.348,0.686c4.548-0.859,8.835-3.027,12.951-5.344c4.559-2.567,9.008-5.353,13.323-8.344
						c-5.571-5.567-11.492-10.855-18.284-14.917c-6.792-4.062-14.492-7.134-22.677-7.194c-14.066-0.104-25.788,8.966-25.788,8.966
						S378.806,364.046,401.707,370.662z"/>
					
						<linearGradient id="SVGID_00000103985223333370934170000007645582587556075448_" gradientUnits="userSpaceOnUse" x1="382.298" y1="381.1005" x2="424.8837" y2="381.1005" gradientTransform="matrix(0.5304 0.8478 -0.8478 0.5304 515.2159 -193.0241)">
						<stop  offset="0" style="stop-color:#2B6565"/>
						<stop  offset="1" style="stop-color:#2BBA90"/>
					</linearGradient>
					<path style="opacity:0.3;fill:url(#SVGID_00000103985223333370934170000007645582587556075448_);" d="M391.001,351.28
						c4.861,1.76,9.814,3.328,14.893,4.554c9.632,2.326,19.658,3.269,29.958,1.975c0.241-0.03,0.215-0.393-0.022-0.369
						c-10.664,1.08-21.108-0.24-31.007-2.849c-4.674-1.232-9.24-2.745-13.727-4.42c-4.717-1.761-9.241-3.989-14.019-5.604
						c-0.534-0.181-0.861,0.604-0.394,0.852C381.174,347.809,386.176,349.532,391.001,351.28z"/>
				</g>
				<g>
					
						<linearGradient id="SVGID_00000088126826258993598630000009040307594554033570_" gradientUnits="userSpaceOnUse" x1="368.2839" y1="208.5606" x2="274.9382" y2="254.709" gradientTransform="matrix(0.888 -0.4599 0.4599 0.888 -84.5094 215.342)">
						<stop  offset="6.009600e-04" style="stop-color:#B2DB90"/>
						<stop  offset="1" style="stop-color:#2BBA90"/>
					</linearGradient>
					<path style="fill:url(#SVGID_00000088126826258993598630000009040307594554033570_);" d="M311.594,302.876
						c4.327-3.273,8.025-7.586,10.497-12.635c2.501-5.109,3.522-10.924,4.269-16.681c0.827-6.377,1.358-12.806,1.589-19.254
						c-9.58,1.388-19.142,3.325-28.138,7.022c-8.996,3.697-17.686,9.017-23.768,17.031c-10.452,13.77-10.149,31.984-10.149,31.984
						S288.231,320.552,311.594,302.876z"/>
					
						<linearGradient id="SVGID_00000037664190145814054330000017036724401923843241_" gradientUnits="userSpaceOnUse" x1="349.2066" y1="217.9738" x2="274.6779" y2="250.1461" gradientTransform="matrix(0.888 -0.4599 0.4599 0.888 -84.5094 215.342)">
						<stop  offset="6.009600e-04" style="stop-color:#B2DB90"/>
						<stop  offset="1" style="stop-color:#2BBA90"/>
					</linearGradient>
					<path style="opacity:0.3;fill:url(#SVGID_00000037664190145814054330000017036724401923843241_);" d="M284.636,299.154
						c5.309-3.49,10.498-7.213,15.442-11.31c9.377-7.771,17.683-16.946,23.987-28.038c0.147-0.259-0.229-0.5-0.379-0.25
						c-6.783,11.292-15.768,20.603-25.62,28.429c-4.652,3.695-9.501,7.076-14.451,10.26c-5.204,3.348-10.727,6.162-15.832,9.677
						c-0.571,0.393-0.039,1.292,0.549,1.015C273.988,306.274,279.366,302.618,284.636,299.154z"/>
				</g>
				<g>
					
						<linearGradient id="SVGID_00000046311758364902584870000003497268834488967061_" gradientUnits="userSpaceOnUse" x1="193.8171" y1="164.006" x2="233.4936" y2="322.7125">
						<stop  offset="0.0025" style="stop-color:#56D6D5"/>
						<stop  offset="1" style="stop-color:#00674B"/>
					</linearGradient>
					<path style="fill:url(#SVGID_00000046311758364902584870000003497268834488967061_);" d="M241.12,361.007
						c4.402-2.278,7.721-6.301,10.803-10.313c6.669-8.679,12.885-17.929,16.669-28.375c0.972-2.682,1.786-5.486,1.777-8.366
						c-0.01-2.879-0.941-5.871-2.989-7.799c-2.828-2.662-6.97-2.754-10.662-3.621c-1.129-0.265-2.315-0.665-3.041-1.617
						c-1.705-2.237,0.217-5.413,2.066-7.485c1.531-1.715,3.063-3.431,4.594-5.146c1.904-2.132,3.955-4.892,3.09-7.696
						c-0.732-2.373-3.454-3.602-5.777-3.172c-2.324,0.43-4.249,2.138-5.736,4.058c-1.487,1.919-2.654,4.101-4.184,5.983
						c-0.364,0.448-0.779,0.898-1.322,1.045c-1.308,0.356-2.387-1.163-2.794-2.528c-0.904-3.036-0.58-6.445,0.875-9.211
						c1.424-2.706,3.79-4.686,5.78-6.96c1.99-2.274,3.705-5.2,3.315-8.282c-0.375-2.968-2.501-5.422-4.837-7.145
						c-3.376-2.492-10.889-0.993-11.469,5.539c-0.321,3.611-0.541,7.233-0.811,10.849c-0.175,2.34-0.966,5.347-3.195,5.427
						c-1.802,0.065-2.994-1.964-3.556-3.774c-2.213-7.116-0.648-14.811-1.075-22.27c-0.659-11.512-18.322-8.721-19.05,4.682
						c-0.192,3.528,0.469,7.103,1.818,10.354c1.56,3.761,4.08,7.139,4.858,11.154c0.281,1.452,0.305,3.033-0.366,4.326
						c-0.671,1.293-2.193,2.167-3.52,1.669c-1.359-0.509-1.984-2.107-2.755-3.393c-2.254-3.76-6.714-5.545-10.918-5.535
						c-2.442,0.006-5.139,0.711-6.448,2.87c-1.574,2.596-0.418,6.198,1.618,8.446c2.036,2.249,4.779,3.608,7.156,5.448
						c2.377,1.839,4.537,4.535,4.436,7.625c-0.017,0.507-0.107,1.04-0.423,1.421c-0.26,0.314-0.64,0.485-1.019,0.607
						c-2.701,0.865-5.562-0.38-8.346-0.942c-2.784-0.562-6.342,0.043-7.265,2.851c-0.756,2.297,0.781,4.827,2.726,6.168
						c1.945,1.34,4.271,1.903,6.345,3.006c6.291,3.345,9.407,12.131,6.715,18.935c-0.757,1.913-1.901,3.659-2.42,5.66
						c-0.87,3.357,0.164,7.034,2.043,9.923c1.879,2.89,4.526,5.12,7.195,7.21c6.874,5.384,15.363,10.369,23.552,7.933"/>
					<g style="opacity:0.41;">
						<path style="fill:#444472;" d="M224.892,253.362c-0.106,0.375-0.216,0.739-0.326,1.104c0.082-0.374,0.162-0.748,0.211-1.127
							C224.787,253.259,224.913,253.287,224.892,253.362z"/>
						<path style="fill:#444472;" d="M223.39,257.837c0.441-1.077,0.822-2.2,1.176-3.371
							C224.312,255.625,223.909,256.754,223.39,257.837z"/>
						<path style="opacity:0.47;fill:#444472;" d="M200.876,307.41c8.352,11.344,17.209,22.812,30.007,28.55
							c-2.306-8.118-4.359-16.318-6.069-24.583c-8.78-8.063-15.469-18.118-22.128-28.102c-0.068-0.103,0.078-0.21,0.149-0.111
							c6.676,9.301,13.531,18.353,21.592,26.362c-2.53-12.623-4.218-25.398-4.799-38.262c-0.087,0.014-0.174-0.003-0.232-0.112
							c-2.943-5.521-4.851-11.401-5.711-17.647c-0.008-0.062,0.081-0.068,0.091-0.008c0.977,6.001,2.908,11.589,5.814,16.851
							c-0.088-2.147-0.137-4.297-0.165-6.448c-0.132-0.062-0.222-0.221-0.094-0.351c0.03-0.03,0.059-0.065,0.089-0.096
							c-0.039-3.614,0.002-7.233,0.166-10.859c0.002-0.054,0.092-0.049,0.091,0.005c-0.11,3.548-0.111,7.083-0.03,10.608
							c1.449-1.536,2.784-3.368,3.744-5.372c-0.888,2.169-2.023,4.164-3.708,6.026c-0.008,0.009-0.019,0.005-0.028,0.012
							c0.301,11.445,1.563,22.771,3.519,33.984c10.315-6.763,13.56-19.355,19.342-29.876c0.029-0.053,0.112-0.013,0.083,0.042
							c-5.571,10.69-8.584,23.793-19,30.583c-0.095,0.062-0.191,0.072-0.28,0.057c0.725,4.083,1.549,8.149,2.444,12.202
							c0.167,0.173,0.189,0.388,0.121,0.568c0.77,3.46,1.599,6.908,2.475,10.346c10.034-7.645,18.326-16.957,24.115-28.564
							c0.027-0.055,0.109-0.014,0.083,0.042c-5.433,11.864-13.429,22.117-24.013,29.23c1.816,7.068,3.837,14.09,5.999,21.067
							c10.877-6.652,21.3-14.882,24.595-28.363c0.015-0.059,0.104-0.043,0.09,0.018c-3.085,13.697-13.519,22.24-24.424,29.182
							c0.674,2.163,1.359,4.323,2.058,6.477c0.287,0.883-0.999,1.382-1.286,0.498c-1.553-4.781-3.03-9.597-4.419-14.441
							c-13.452-5.593-22.096-17.446-30.431-29.407C200.656,307.419,200.803,307.312,200.876,307.41z"/>
					</g>
				</g>
			</g>
			<g>
				<g>
					<g>
						
							<rect x="91.924" y="267.102" transform="matrix(0.4152 -0.9097 0.9097 0.4152 -142.784 315.1665)" style="fill:#6200DE;" width="163.676" height="3.094"/>
					</g>
					<g>
						<path style="fill:#6200DE;" d="M137.879,347.262c-2.3-1.05-3.314-3.766-2.264-6.066c1.05-2.3,3.766-3.314,6.066-2.264
							c38.755,17.689,84.675,0.551,102.365-38.204c17.689-38.755,0.551-84.675-38.204-102.365c-2.3-1.05-3.314-3.766-2.264-6.066
							c1.05-2.3,3.766-3.313,6.066-2.264c43.348,19.786,62.517,71.149,42.731,114.496
							C232.59,347.879,181.227,367.048,137.879,347.262z"/>
					</g>
					
						<linearGradient id="SVGID_00000013894191034551362930000001188042727750709127_" gradientUnits="userSpaceOnUse" x1="173.7615" y1="184.6764" x2="173.7615" y2="462.7966">
						<stop  offset="0" style="stop-color:#86A6FF"/>
						<stop  offset="1" style="stop-color:#5A69F9"/>
					</linearGradient>
					
						<circle style="fill:url(#SVGID_00000013894191034551362930000001188042727750709127_);" cx="173.761" cy="268.648" r="72.422"/>
					
						<linearGradient id="SVGID_00000104675737721086611050000001157984501340688018_" gradientUnits="userSpaceOnUse" x1="173.7629" y1="188.4123" x2="173.7629" y2="362.1907">
						<stop  offset="0" style="stop-color:#6F87FC"/>
						<stop  offset="1" style="stop-color:#824AD3"/>
					</linearGradient>
					<path style="fill:url(#SVGID_00000104675737721086611050000001157984501340688018_);" d="M239.645,298.72
						c-2.512,5.504-5.631,10.538-9.235,15.068c-8.592,3.583-18.192,4.795-27.37,3.188c-1.17-0.205-2.391-0.48-3.278-1.27
						c-2.672-2.378-0.382-6.688-0.402-10.265c-0.017-3.031-1.842-5.713-3.547-8.219c-3.838-5.64-7.567-12.539-5.267-18.961
						c2.321-6.479,10.049-9.964,11.968-16.573c1.837-6.326-2.345-12.817-2.448-19.403c-0.079-5.085,2.361-10.004,5.941-13.615
						c3.581-3.611,8.219-6.021,13.024-7.686c2.529-0.876,5.307-1.53,7.961-1.465C246.17,240.315,252.127,271.374,239.645,298.72z
						 M151.736,336.229c3.678-1.849,6.842-5.161,7.515-9.221c0.723-4.364-1.493-8.697-4.247-12.158
						c-2.754-3.461-6.125-6.46-8.379-10.266c-0.963-1.626-1.72-3.445-1.696-5.335c0.066-5.152,5.667-8.766,6.336-13.874
						c0.589-4.501-2.952-8.635-7.03-10.629c-4.077-1.994-8.705-2.474-13.07-3.719c-4.365-1.245-8.834-3.611-10.606-7.79
						c-2.227-5.253,0.552-11.621-2.373-16.627c-1.871-3.202-6.867-5.298-11.209-5.965c-15.09,35.932,1.013,77.593,36.713,93.888
						c2.051,0.936,4.125,1.763,6.212,2.494C150.523,336.787,151.138,336.53,151.736,336.229z M131.686,209.689
						c0.217,0.8,0.522,1.585,0.873,2.331c3.474,7.398,10.983,12.977,12.081,21.076c0.298,2.201,0.156,4.656,1.568,6.37
						c0.733,0.89,1.793,1.443,2.856,1.891c9.082,3.833,20.518,1.057,26.83-6.515c6.138-7.362,7.172-17.717,12.02-25.986
						c1.38-2.354,3.128-4.736,3.06-7.464c-0.03-1.18-0.408-2.295-0.969-3.336C169.515,193.32,148.288,197.865,131.686,209.689z"/>
					<rect x="166.659" y="353.308" style="fill:#6200DE;" width="14.205" height="33.846"/>
					<path style="fill:#6200DE;" d="M229.831,399.183H117.692c-3.666,0-6.639-2.972-6.639-6.639l0,0
						c0-3.666,2.972-6.639,6.639-6.639h112.139c3.666,0,6.639,2.972,6.639,6.639l0,0
						C236.469,396.211,233.497,399.183,229.831,399.183z"/>
				</g>
				<g>
					<g>
						<g>
							<path style="fill:#EDEDED;" d="M383.689,327.827c7.101,0,12.878-5.778,12.878-12.879c0-7.101-5.777-12.878-12.878-12.878
								H232.664c5.023,8.586,5.023,17.171,0,25.757H383.689z"/>
						</g>
						<path style="fill:#FFBA49;" d="M383.689,327.827c7.316,0,13.227-6.133,12.862-13.528c-0.341-6.918-6.309-12.229-13.235-12.229
							H230.68c-1.096,0-1.984-0.888-1.984-1.984v-0.001c0-1.096,0.888-1.984,1.984-1.984h153.009
							c9.304,0,16.847,7.543,16.847,16.847v0c0,9.304-7.543,16.847-16.847,16.847H230.68c-1.096,0-1.984-0.888-1.984-1.984l0,0
							c0-1.096,0.888-1.984,1.984-1.984H383.689z"/>
						<path style="fill:#E1E3EF;" d="M391.176,304.491l-12.163,0.134l-22.945,0.145l-45.89,0.121l-45.89-0.119l-22.945-0.145
							l-7.385-0.082c-0.054-0.114-0.107-0.228-0.163-0.342l7.548-0.084l22.945-0.145l45.89-0.119l45.89,0.121l22.945,0.145
							l11.834,0.13C390.96,304.326,391.066,304.411,391.176,304.491z M394.16,307.479c-0.042-0.059-0.086-0.115-0.129-0.173
							l-15.018-0.165l-22.945-0.145l-45.89-0.121l-45.89,0.119l-22.945,0.145l-6.281,0.069c0.043,0.123,0.081,0.247,0.122,0.37
							l6.159,0.068l22.945,0.145l45.89,0.119l45.89-0.121l22.945-0.145L394.16,307.479z M395.753,310.484
							c-0.017-0.046-0.033-0.091-0.05-0.137l-16.689-0.183l-22.945-0.145l-45.89-0.121l-45.89,0.119l-22.945,0.145l-5.422,0.06
							c0.028,0.13,0.045,0.259,0.071,0.389l5.351,0.059l22.945,0.145l45.89,0.119l45.89-0.121l22.945-0.145L395.753,310.484z
							 M233.796,325.694l7.547,0.083l22.945,0.145l45.89,0.119l45.89-0.121l22.945-0.145l11.835-0.13
							c0.113-0.076,0.218-0.161,0.328-0.241l-12.163-0.134l-22.945-0.145l-45.89-0.121l-45.89,0.119l-22.945,0.145l-7.385,0.082
							C233.905,325.466,233.851,325.58,233.796,325.694z M394.031,322.59c0.043-0.058,0.087-0.114,0.129-0.173l-15.147-0.166
							l-22.945-0.145l-45.89-0.121l-45.89,0.119l-22.945,0.145l-6.159,0.068c-0.041,0.123-0.078,0.247-0.122,0.37l6.281,0.069
							l22.945,0.145l45.89,0.119l45.89-0.121l22.945-0.145L394.031,322.59z M395.703,319.549c0.017-0.045,0.033-0.091,0.05-0.137
							l-16.74-0.184l-22.945-0.145l-45.89-0.121l-45.89,0.119l-22.945,0.145l-5.351,0.059c-0.026,0.13-0.043,0.259-0.071,0.388
							l5.422,0.06l22.945,0.145l45.89,0.119l45.89-0.121l22.945-0.145L395.703,319.549z M396.461,316.519
							c0.005-0.04,0.014-0.08,0.018-0.121l-17.466-0.192l-22.945-0.145l-45.89-0.121l-45.89,0.119l-22.945,0.145l-4.959,0.055
							c-0.008,0.133-0.011,0.265-0.022,0.398l4.981,0.055l22.945,0.145l45.89,0.119l45.89-0.121l22.945-0.145L396.461,316.519z
							 M396.48,313.497c-0.005-0.041-0.013-0.08-0.018-0.121l-17.448-0.192l-22.945-0.145l-45.89-0.121l-45.89,0.119l-22.945,0.145
							l-4.981,0.055c0.01,0.133,0.014,0.265,0.022,0.398l4.959,0.055l22.945,0.145l45.89,0.119l45.89-0.121l22.945-0.145
							L396.48,313.497z"/>
						<polygon style="fill:#FFBA49;" points="249.022,326.717 255.604,322.959 262.186,326.717 262.186,310.072 249.022,310.072 
													"/>
					</g>
					<g>
						<g>
							<path style="fill:#EDEDED;" d="M245.543,361.521c-7.101,0-12.878-5.777-12.878-12.879c0-7.101,5.777-12.878,12.878-12.878
								h151.025c-5.023,8.586-5.023,17.171,0,25.757H245.543z"/>
						</g>
						<path style="fill:#FE9946;" d="M245.543,361.521c-7.316,0-13.227-6.133-12.862-13.528c0.341-6.917,6.309-12.229,13.235-12.229
							h152.636c1.096,0,1.984-0.888,1.984-1.984v-0.001c0-1.096-0.888-1.984-1.984-1.984H245.543
							c-9.304,0-16.847,7.543-16.847,16.847l0,0c0,9.304,7.543,16.847,16.847,16.847h153.009c1.096,0,1.984-0.888,1.984-1.984l0,0
							c0-1.096-0.888-1.984-1.984-1.984H245.543z"/>
						<path style="fill:#E1E3EF;" d="M238.384,337.944l11.834-0.13l22.945-0.145l45.89-0.121l45.89,0.119l22.945,0.145l7.547,0.083
							c-0.056,0.114-0.109,0.228-0.163,0.342l-7.385,0.082l-22.945,0.145l-45.89,0.119l-45.89-0.121l-22.945-0.145l-12.163-0.134
							C238.166,338.105,238.271,338.02,238.384,337.944z M250.219,341.34l22.945,0.145l45.89,0.121l45.89-0.119l22.945-0.145
							l6.159-0.068c0.041-0.123,0.078-0.246,0.122-0.37l-6.281-0.069l-22.945-0.145l-45.89-0.119l-45.89,0.121l-22.945,0.145
							l-15.018,0.165c-0.043,0.058-0.087,0.114-0.129,0.173L250.219,341.34z M250.219,344.362l22.945,0.145l45.89,0.121l45.89-0.119
							l22.945-0.145l5.351-0.059c0.026-0.129,0.043-0.259,0.071-0.388l-5.422-0.06l-22.945-0.145l-45.89-0.119l-45.89,0.121
							l-22.945,0.145l-16.689,0.183c-0.017,0.045-0.033,0.091-0.05,0.137L250.219,344.362z M395.273,359.046l-7.384-0.082
							l-22.945-0.145l-45.89-0.119l-45.89,0.121l-22.945,0.145l-12.163,0.134c0.11,0.079,0.215,0.165,0.328,0.24l11.835,0.13
							l22.945,0.145l45.89,0.121l45.89-0.119l22.945-0.145l7.547-0.083C395.38,359.275,395.327,359.16,395.273,359.046z
							 M250.219,356.449l22.945,0.145l45.89,0.121l45.89-0.119l22.945-0.145l6.281-0.07c-0.043-0.123-0.08-0.247-0.122-0.37
							l-6.159-0.068l-22.945-0.145l-45.89-0.119l-45.89,0.121l-22.945,0.145l-15.147,0.167c0.042,0.059,0.087,0.115,0.129,0.173
							L250.219,356.449z M250.219,353.427l22.945,0.145l45.89,0.121l45.89-0.119l22.945-0.145l5.422-0.06
							c-0.028-0.13-0.046-0.259-0.071-0.389l-5.351-0.059l-22.945-0.145l-45.89-0.119l-45.89,0.121l-22.945,0.145l-16.74,0.184
							c0.017,0.046,0.033,0.092,0.05,0.137L250.219,353.427z M250.219,350.405l22.945,0.145l45.89,0.121l45.89-0.119l22.945-0.145
							l4.981-0.055c-0.01-0.133-0.014-0.265-0.022-0.398l-4.959-0.055l-22.945-0.145l-45.89-0.119l-45.89,0.121l-22.945,0.145
							l-17.467,0.192c0.005,0.041,0.014,0.08,0.019,0.121L250.219,350.405z M250.219,347.384l22.945,0.145l45.89,0.121l45.89-0.119
							l22.945-0.145l4.959-0.055c0.008-0.133,0.012-0.265,0.022-0.398l-4.981-0.055l-22.945-0.145l-45.89-0.119l-45.89,0.121
							l-22.945,0.145l-17.448,0.192c-0.005,0.04-0.014,0.08-0.019,0.12L250.219,347.384z"/>
						<polygon style="fill:#FE9946;" points="384.391,354.469 377.809,350.711 371.227,354.469 371.227,337.823 384.391,337.823 
													"/>
					</g>
					<g>
						<g>
							<path style="fill:#EDEDED;" d="M383.689,395.215c7.101,0,12.878-5.778,12.878-12.879s-5.777-12.878-12.878-12.878H232.664
								c5.023,8.586,5.023,17.171,0,25.757H383.689z"/>
						</g>
						<path style="fill:#6200DE;" d="M383.689,395.215c7.316,0,13.227-6.133,12.862-13.528c-0.341-6.918-6.309-12.229-13.235-12.229
							l-152.636,0c-1.096,0-1.984-0.888-1.984-1.984v-0.001c0-1.096,0.888-1.984,1.984-1.984h153.009
							c9.304,0,16.847,7.543,16.847,16.847l0,0c0,9.304-7.543,16.847-16.847,16.847H230.68c-1.096,0-1.984-0.888-1.984-1.984l0,0
							c0-1.096,0.888-1.984,1.984-1.984H383.689z"/>
						<path style="fill:#E1E3EF;" d="M391.176,371.879l-12.163,0.134l-22.945,0.145l-45.89,0.121l-45.89-0.119l-22.945-0.145
							l-7.385-0.082c-0.054-0.114-0.107-0.228-0.163-0.342l7.548-0.083l22.945-0.145l45.89-0.119l45.89,0.121l22.945,0.145
							l11.834,0.13C390.96,371.714,391.066,371.8,391.176,371.879z M394.16,374.868c-0.042-0.058-0.086-0.115-0.129-0.173
							l-15.018-0.165l-22.945-0.145l-45.89-0.121l-45.89,0.119l-22.945,0.145l-6.281,0.07c0.043,0.123,0.081,0.247,0.122,0.37
							l6.159,0.068l22.945,0.145l45.89,0.119l45.89-0.121l22.945-0.145L394.16,374.868z M395.753,377.872
							c-0.017-0.046-0.033-0.092-0.05-0.137l-16.689-0.184l-22.945-0.145l-45.89-0.121l-45.89,0.119l-22.945,0.145l-5.422,0.06
							c0.028,0.129,0.045,0.259,0.071,0.388l5.351,0.059l22.945,0.145l45.89,0.119l45.89-0.121l22.945-0.145L395.753,377.872z
							 M394.031,389.978c0.043-0.058,0.087-0.114,0.129-0.173l-15.147-0.167l-22.945-0.145l-45.89-0.121l-45.89,0.119l-22.945,0.145
							l-6.159,0.068c-0.041,0.123-0.078,0.247-0.122,0.37l6.281,0.069l22.945,0.145l45.89,0.119l45.89-0.121l22.945-0.145
							L394.031,389.978z M395.703,386.938c0.017-0.045,0.033-0.091,0.05-0.137l-16.74-0.184l-22.945-0.145l-45.89-0.121
							l-45.89,0.119l-22.945,0.145l-5.351,0.059c-0.026,0.13-0.043,0.259-0.071,0.389l5.422,0.06l22.945,0.145l45.89,0.119
							l45.89-0.121l22.945-0.145L395.703,386.938z M396.461,383.908c0.005-0.041,0.014-0.08,0.018-0.121l-17.466-0.192
							l-22.945-0.145l-45.89-0.121l-45.89,0.119l-22.945,0.145l-4.959,0.055c-0.008,0.133-0.011,0.265-0.022,0.398l4.981,0.055
							l22.945,0.145l45.89,0.119l45.89-0.121l22.945-0.145L396.461,383.908z M396.48,380.886c-0.005-0.041-0.013-0.08-0.018-0.121
							l-17.448-0.192l-22.945-0.145l-45.89-0.121l-45.89,0.119l-22.945,0.145l-4.981,0.055c0.01,0.133,0.014,0.265,0.022,0.398
							l4.959,0.055l22.945,0.145l45.89,0.119l45.89-0.121l22.945-0.145L396.48,380.886z"/>
						<polygon style="fill:#6200DE;" points="285.248,394.106 291.83,390.347 298.412,394.106 298.412,377.46 285.248,377.46 						
							"/>
					</g>
				</g>
				<g>
					<path style="fill:#008270;" d="M235.517,383.267c1.768,8.478,25.818,8.447,27.573-0.063
						c44.267-13.526,88.568-10.927,132.894,3.681c1.845,0.608,3.147,2.968,3.147,5.67l0,0c0,3.719-2.415,6.491-4.957,5.672
						c-43.722-14.086-83.66-21.826-127.325-8.484c-6.474,12.174-27.273,12.825-34.728,0.488
						c-42.988-13.006-83.31-6.596-127.692,7.961c-2.543,0.834-4.965-1.939-4.965-5.662l0,0c0-2.69,1.293-5.043,3.127-5.659
						C147.604,371.745,191.936,370.081,235.517,383.267z"/>
					<path style="fill:#FDFDFD;" d="M249.297,357.959c46.478-24.912,97.04-32.406,143.517-3.827
						c1.261,13.608,2.304,23.457,3.17,32.752c-42.985-13.459-89.965-17.023-132.894-3.905c-0.903,9.663-26.62,9.565-27.573,0.063
						c-42.274-12.79-89.303-10.06-132.926,3.827c1.792-9.847,3.156-21.568,4.402-33.165
						C154.358,331.37,204.501,330.199,249.297,357.959z"/>
					<path style="fill:#E1E3EF;" d="M236.117,360.567c-1.473-0.554-2.943-1.116-4.436-1.581c-2.973-0.981-5.927-2.048-8.932-2.868
						l-4.489-1.311l-4.52-1.128c-12.05-3.019-24.3-4.742-36.575-5.171c-12.275-0.41-24.586,0.521-36.711,3.005
						c-6.064,1.227-12.073,2.881-17.993,4.945c-2.963,1.02-5.905,2.141-8.805,3.421c-2.509,1.104-4.996,2.299-7.421,3.675
						c0.002-0.014,0.004-0.029,0.006-0.043c2.394-1.442,4.856-2.707,7.343-3.883c2.881-1.366,5.809-2.575,8.76-3.683
						c5.912-2.18,11.926-3.928,17.999-5.262c12.151-2.673,24.521-3.593,36.846-3.273c12.323,0.516,24.625,2.239,36.685,5.439
						l4.52,1.206l4.487,1.388c3.001,0.873,5.953,1.984,8.918,3.025c1.486,0.509,2.948,1.115,4.412,1.712l4.393,1.783
						c2.912,1.249,5.796,2.602,8.693,3.897c-2.922-1.211-5.828-2.478-8.76-3.641L236.117,360.567z M393.492,364.201
						c-2.746-1.744-5.6-3.209-8.48-4.572c-2.881-1.366-5.809-2.575-8.76-3.683c-5.912-2.18-11.926-3.928-17.999-5.262
						c-12.151-2.673-24.521-3.593-36.846-3.273c-12.323,0.516-24.625,2.239-36.685,5.439l-4.521,1.206l-4.487,1.388
						c-3.001,0.873-5.953,1.984-8.918,3.025c-1.485,0.509-2.948,1.115-4.412,1.712l-4.393,1.783
						c-2.912,1.249-5.796,2.602-8.693,3.897c2.922-1.211,5.828-2.478,8.76-3.641l4.421-1.653c1.472-0.554,2.943-1.116,4.435-1.581
						c2.973-0.981,5.927-2.048,8.932-2.868l4.489-1.311l4.52-1.128c12.05-3.019,24.3-4.742,36.575-5.171
						c12.275-0.41,24.586,0.521,36.711,3.005c6.064,1.227,12.073,2.881,17.993,4.945c2.962,1.02,5.905,2.141,8.805,3.421
						C387.839,361.157,390.715,362.537,393.492,364.201L393.492,364.201z M236.117,355.428c-1.473-0.554-2.943-1.116-4.436-1.581
						c-2.973-0.981-5.927-2.048-8.932-2.868l-4.489-1.311l-4.52-1.128c-12.05-3.019-24.3-4.742-36.575-5.171
						c-12.275-0.41-24.586,0.521-36.711,3.005c-6.064,1.227-12.073,2.881-17.993,4.945c-2.963,1.02-5.905,2.142-8.805,3.421
						c-2.509,1.104-4.996,2.299-7.421,3.675c0.002-0.015,0.004-0.029,0.006-0.043c2.394-1.442,4.856-2.707,7.343-3.883
						c2.881-1.365,5.809-2.575,8.76-3.684c5.912-2.179,11.926-3.928,17.999-5.262c12.151-2.673,24.521-3.593,36.846-3.273
						c12.323,0.516,24.625,2.239,36.685,5.439l4.52,1.206l4.487,1.388c3.001,0.873,5.953,1.984,8.918,3.025
						c1.486,0.509,2.948,1.115,4.412,1.712l4.393,1.783c2.912,1.249,5.796,2.602,8.693,3.897c-2.922-1.211-5.828-2.478-8.76-3.641
						L236.117,355.428z M393.492,359.063c-2.746-1.744-5.6-3.209-8.48-4.572c-2.881-1.365-5.809-2.575-8.76-3.684
						c-5.912-2.179-11.926-3.928-17.999-5.262c-12.151-2.673-24.521-3.593-36.846-3.273c-12.323,0.516-24.625,2.239-36.685,5.439
						l-4.521,1.206l-4.487,1.388c-3.001,0.873-5.953,1.984-8.918,3.025c-1.485,0.509-2.948,1.115-4.412,1.712l-4.393,1.783
						c-2.912,1.249-5.796,2.602-8.693,3.897c2.922-1.211,5.828-2.478,8.76-3.641l4.421-1.653c1.472-0.554,2.943-1.116,4.435-1.581
						c2.973-0.981,5.927-2.048,8.932-2.868l4.489-1.311l4.52-1.128c12.05-3.019,24.3-4.742,36.575-5.171
						c12.275-0.41,24.586,0.521,36.711,3.005c6.064,1.227,12.073,2.881,17.993,4.945c2.962,1.02,5.905,2.142,8.805,3.421
						C387.839,356.019,390.715,357.399,393.492,359.063L393.492,359.063z M260.287,381.826c0.157,0.059,0.311,0.12,0.462,0.181
						l1.729-0.646c1.472-0.554,2.943-1.115,4.435-1.581c2.973-0.981,5.927-2.048,8.932-2.868l4.489-1.311l4.52-1.128
						c12.05-3.019,24.3-4.742,36.575-5.17c12.275-0.41,24.586,0.521,36.711,3.005c6.064,1.227,12.073,2.881,17.993,4.945
						c2.962,1.02,5.905,2.142,8.805,3.421c2.9,1.276,5.776,2.657,8.553,4.32c-2.746-1.744-5.6-3.209-8.48-4.572
						c-2.881-1.366-5.809-2.575-8.76-3.684c-5.912-2.179-11.926-3.928-17.999-5.262c-12.151-2.673-24.521-3.593-36.846-3.273
						c-12.323,0.516-24.625,2.239-36.685,5.439l-4.521,1.206l-4.487,1.388c-3.001,0.873-5.953,1.983-8.918,3.025
						c-1.485,0.509-2.948,1.115-4.412,1.712L260.287,381.826z M236.117,376.204l4.421,1.653c1.868,0.741,3.726,1.522,5.584,2.306
						c0.065-0.005,0.13-0.011,0.195-0.015c-1.9-0.864-3.8-1.727-5.713-2.547l-4.393-1.783c-1.464-0.598-2.926-1.203-4.412-1.712
						c-2.965-1.042-5.917-2.152-8.918-3.025l-4.487-1.388l-4.52-1.206c-12.06-3.201-24.362-4.923-36.685-5.439
						c-12.326-0.32-24.696,0.6-36.846,3.273c-6.073,1.333-12.087,3.082-17.999,5.262c-2.951,1.109-5.879,2.318-8.76,3.683
						c-2.88,1.362-5.734,2.828-8.48,4.572c2.777-1.664,5.653-3.044,8.553-4.32c2.9-1.279,5.843-2.401,8.805-3.421
						c5.92-2.064,11.929-3.719,17.993-4.945c12.126-2.484,24.437-3.415,36.711-3.005c12.275,0.429,24.525,2.151,36.575,5.171
						l4.52,1.128l4.489,1.311c3.004,0.82,5.959,1.886,8.932,2.868C233.174,375.089,234.644,375.651,236.117,376.204z
						 M177.165,369.303c12.275,0.429,24.525,2.151,36.575,5.17l4.52,1.128l4.489,1.311c3.004,0.82,5.959,1.886,8.932,2.868
						c1.493,0.465,2.963,1.027,4.436,1.581l1.712,0.64c0.147-0.064,0.292-0.129,0.443-0.19l-2.061-0.837
						c-1.464-0.598-2.926-1.203-4.412-1.712c-2.965-1.042-5.917-2.152-8.918-3.025l-4.487-1.388l-4.52-1.206
						c-12.06-3.201-24.362-4.923-36.685-5.439c-12.326-0.32-24.696,0.6-36.846,3.273c-6.073,1.333-12.087,3.082-17.999,5.262
						c-2.951,1.109-5.879,2.318-8.76,3.684c-2.88,1.362-5.734,2.828-8.48,4.572c2.777-1.664,5.653-3.044,8.553-4.32
						c2.9-1.279,5.843-2.401,8.805-3.421c5.92-2.064,11.929-3.719,17.993-4.945C152.579,369.825,164.89,368.893,177.165,369.303z
						 M252.211,380.179c0.064,0.005,0.129,0.009,0.193,0.014c1.881-0.794,3.762-1.586,5.653-2.336l4.421-1.653
						c1.472-0.554,2.943-1.116,4.435-1.581c2.973-0.981,5.927-2.048,8.932-2.868l4.489-1.311l4.52-1.128
						c12.05-3.019,24.3-4.742,36.575-5.171c12.275-0.41,24.586,0.521,36.711,3.005c6.064,1.227,12.073,2.881,17.993,4.945
						c2.962,1.02,5.905,2.141,8.805,3.421c2.9,1.276,5.776,2.657,8.553,4.32c-2.746-1.744-5.6-3.209-8.48-4.572
						c-2.881-1.366-5.809-2.575-8.76-3.683c-5.912-2.18-11.926-3.928-17.999-5.262c-12.151-2.673-24.521-3.593-36.846-3.273
						c-12.323,0.516-24.625,2.239-36.685,5.439l-4.521,1.206l-4.487,1.388c-3.001,0.873-5.953,1.984-8.918,3.025
						c-1.485,0.509-2.948,1.114-4.412,1.712l-4.393,1.783C256.056,378.431,254.133,379.305,252.211,380.179z M257.991,372.389
						c-2.912,1.249-5.796,2.602-8.693,3.897c2.922-1.211,5.828-2.478,8.76-3.641l4.421-1.653c1.472-0.554,2.943-1.115,4.435-1.58
						c2.973-0.981,5.927-2.048,8.932-2.868l4.489-1.311l4.52-1.128c12.05-3.019,24.3-4.742,36.575-5.17
						c12.275-0.41,24.586,0.521,36.711,3.005c6.064,1.227,12.073,2.881,17.993,4.945c2.962,1.02,5.905,2.141,8.805,3.421
						c2.9,1.276,5.776,2.657,8.553,4.32c-2.746-1.744-5.6-3.209-8.48-4.572c-2.881-1.366-5.809-2.575-8.76-3.684
						c-5.912-2.179-11.926-3.928-17.999-5.262c-12.151-2.673-24.521-3.593-36.846-3.273c-12.323,0.516-24.625,2.239-36.685,5.439
						l-4.521,1.206l-4.487,1.388c-3.001,0.874-5.953,1.984-8.918,3.025c-1.485,0.509-2.948,1.115-4.412,1.712L257.991,372.389z
						 M105.489,369.18c-0.001,0.005-0.001,0.01-0.002,0.015c2.658-1.563,5.402-2.883,8.169-4.102c2.9-1.279,5.843-2.401,8.805-3.421
						c5.92-2.064,11.929-3.719,17.993-4.945c12.126-2.484,24.437-3.415,36.711-3.005c12.275,0.429,24.525,2.151,36.575,5.17
						l4.52,1.128l4.489,1.311c3.004,0.82,5.959,1.887,8.932,2.868c1.493,0.465,2.963,1.027,4.436,1.581l4.421,1.653
						c2.932,1.163,5.838,2.43,8.76,3.641c-2.897-1.295-5.781-2.648-8.693-3.897l-4.393-1.783c-1.464-0.598-2.926-1.203-4.412-1.712
						c-2.965-1.042-5.917-2.152-8.918-3.025l-4.487-1.388l-4.52-1.206c-12.06-3.201-24.362-4.923-36.685-5.439
						c-12.326-0.32-24.696,0.6-36.846,3.273c-6.073,1.333-12.087,3.082-17.999,5.262c-2.951,1.109-5.879,2.318-8.76,3.684
						C110.836,366.141,108.116,367.541,105.489,369.18z M257.991,367.177c-2.912,1.249-5.796,2.602-8.693,3.897
						c2.922-1.211,5.828-2.478,8.76-3.641l4.421-1.653c1.472-0.554,2.943-1.116,4.435-1.581c2.973-0.981,5.927-2.048,8.932-2.868
						l4.489-1.311l4.52-1.128c12.05-3.019,24.3-4.742,36.575-5.17c12.275-0.41,24.586,0.521,36.711,3.005
						c6.064,1.227,12.073,2.881,17.993,4.945c2.962,1.02,5.905,2.142,8.805,3.421c2.9,1.276,5.776,2.657,8.553,4.32
						c-2.746-1.744-5.6-3.209-8.48-4.572c-2.881-1.366-5.809-2.575-8.76-3.684c-5.912-2.18-11.926-3.929-17.999-5.262
						c-12.151-2.673-24.521-3.593-36.846-3.273c-12.323,0.516-24.625,2.239-36.685,5.439l-4.521,1.206l-4.487,1.388
						c-3.001,0.873-5.953,1.984-8.918,3.025c-1.485,0.509-2.948,1.115-4.412,1.712L257.991,367.177z M105.102,374.626
						c2.777-1.664,5.653-3.044,8.553-4.32c2.9-1.279,5.843-2.401,8.805-3.421c5.92-2.064,11.929-3.719,17.993-4.945
						c12.126-2.484,24.437-3.415,36.711-3.005c12.275,0.429,24.525,2.151,36.575,5.17l4.52,1.128l4.489,1.311
						c3.004,0.82,5.959,1.887,8.932,2.868c1.493,0.465,2.963,1.026,4.436,1.58l4.421,1.653c2.932,1.162,5.838,2.43,8.76,3.641
						c-2.897-1.295-5.781-2.648-8.693-3.897l-4.393-1.783c-1.464-0.598-2.926-1.203-4.412-1.712
						c-2.965-1.041-5.917-2.152-8.918-3.025l-4.487-1.388l-4.52-1.206c-12.06-3.201-24.362-4.923-36.685-5.439
						c-12.326-0.32-24.696,0.6-36.846,3.273c-6.073,1.333-12.087,3.082-17.999,5.262c-2.951,1.109-5.879,2.318-8.76,3.684
						C110.702,371.417,107.848,372.882,105.102,374.626z"/>
				</g>
				<g>
					<path style="fill:#241D9E;" d="M362.2,392.06c0,0-11.049,4.57-10.581,6.458c0.468,1.888,19.301-0.994,19.884-2.42
						s-3.251-4.946-3.251-4.946L362.2,392.06z"/>
					<path style="fill:#241D9E;" d="M348.759,392.812c0,0-11.52,3.202-11.284,5.133c0.236,1.931,19.28,1.345,20.031,0
						c0.751-1.345-2.63-5.303-2.63-5.303L348.759,392.812z"/>
					<path style="fill:#4D00C6;" d="M363.443,318.853l-4.084,37.482c0,0,10.053,34.6,9.73,35.246
						c-0.049,0.098-8.725,1.062-8.725,1.062l-9.961-35.495l-3.784-34.082L363.443,318.853z"/>
					<g>
						<g>
							
								<rect x="315.681" y="278.214" transform="matrix(0.9242 -0.3818 0.3818 0.9242 -84.44 142.3582)" style="fill:#4D4FFF;" width="1.588" height="11.451"/>
							<path style="opacity:0.65;fill:#FFFFFF;" d="M308.696,271.86c-0.221,2.007,1.039,4.407,2.816,5.361s3.397,0.101,3.618-1.906
								c0.221-2.007-1.039-4.407-2.816-5.361C310.537,268.999,308.917,269.853,308.696,271.86z"/>
							<path style="fill:#4D4FFF;" d="M311.372,278.487c2.396,1.287,4.581,0.136,4.879-2.571c0.299-2.706-1.402-5.944-3.798-7.23
								c-2.396-1.287-4.581-0.136-4.879,2.571C307.275,273.964,308.976,277.201,311.372,278.487z M308.696,271.86
								c0.221-2.007,1.841-2.86,3.618-1.906c1.777,0.954,3.037,3.354,2.816,5.361c-0.221,2.007-1.841,2.86-3.618,1.906
								C309.735,276.267,308.474,273.866,308.696,271.86z"/>
						</g>
					</g>
					<path style="fill:#6200DE;" d="M358.974,321.133l-8.582,36.714c0,0,5.898,34.531,5.25,35.186
						c-0.424,0.429-8.593,0.29-8.593,0.29s-6.731-29.355-7.246-36.757c-0.515-7.401,1.961-33.284,1.961-33.284L358.974,321.133z"/>
					<g>
						<path style="fill:#FCD2C8;" d="M343.767,282.315c0,0,5.748,19.122,5.19,23.822c-0.559,4.701-20.526,23.513-22.654,24.563
							c-2.128,1.05-6.829,1.846-6.829,1.846s-4.708,4.239-5.813,4.127c-1.105-0.112,3.032-6.675,5.096-8.033
							c2.064-1.358,6.285-1.305,6.285-1.305s14.771-16.869,15.521-21.213c0.75-4.344-4.638-22.161-4.638-22.161L343.767,282.315z"/>
					</g>
					<polygon style="fill:#FFDEDE;" points="334.464,265.763 339.854,270.652 334.734,274.867 330.228,268.548 					"/>
					<path style="fill:#FFDEDE;" d="M334.512,260.113c0.036,0.235,0.097,0.466,0.175,0.691c0.575,1.666,0.904,3.441,0.664,5.183
						c-0.257,1.86-1.234,3.677-2.84,4.648c-1.455,0.879-3.294,0.985-4.931,0.527s-3.089-1.436-4.336-2.592
						c-1.954-1.812-4.307-4.108-4.029-6.759c0.134-1.279,2.583-4.542,4.374-6.776c1.089-1.36,2.937-1.85,4.561-1.22l3.579,1.389
						c1.331,0.517,2.286,1.704,2.505,3.115L334.512,260.113z"/>
					<path style="fill:#241D9E;" d="M330.027,258.238c1.435-1.341,2.694,0.781,2.724,1.582c0.03,0.801-0.166,1.591-0.361,2.369
						c1.553,0.835,2.258,2.645,2.873,4.298c0.817-1.389,1.875-3.289,2.274-4.85c0.74-2.895-0.661-12.371-8.144-11.488
						c-11.294-5.372-14.049,13.069-15.925,13.156c0.991,1.767,4.055,3.829,8.015,2.345c1.719-0.644,3.257-1.682,4.248-3.227
						c0.488-0.76,0.91-1.576,1.542-2.221c0.468-0.478,3.005,3.114,3.374,2.668C331.004,262.438,328.236,259.911,330.027,258.238z"/>
					<path style="fill:#FFBA49;" d="M333.763,273.505c4.489-7.181,13.056-5.999,19.582,9.966
						c6.408,15.673,12.183,37.27,12.183,37.27c-9.782,5.83-18.832,6.581-29.42,5.328c0,0,2.095-14.385,0.587-25.567
						C335.473,291.431,330.132,279.314,333.763,273.505z"/>
					<g>
						<path style="fill:#FFDEDE;" d="M341.57,284.527c2.057-0.431,4.097,0.797,4.668,2.82c1.628,5.77,4.503,20.203,1.01,21.041
							c-3.493,0.838-22.342-12.014-28.768-17.569c-5.013,0.181-5.155-2.357-5.013-5.259c0.168-3.414,3.315-3.384,6.101-0.635
							c4.087,4.034,20.994,14.472,21.872,14.584c0.878,0.111-1.362-4.465-2.902-9.998
							C337.919,287.285,339.308,285.001,341.57,284.527L341.57,284.527z"/>
						<path style="fill:#FFFFFF;" d="M338.077,272.279c8.301-1.017,11.222,16.011,11.222,16.011
							c-2.952,2.638-7.42,3.901-12.665,4.457C336.531,288.443,330.596,273.195,338.077,272.279z"/>
					</g>
				</g>
				<g>
					<g>
						<path style="fill:#FFBA49;" d="M160.37,188.314c-2.614,3.476-1.633,8.325,0.557,7.799c2.19-0.526,23.676,0.855,25.092-0.347
							c1.416-1.202,2.144-7.474-3.078-8.604C179.062,186.323,160.37,188.314,160.37,188.314z"/>
						<path style="fill:#241D9E;" d="M180.481,237.14c-0.627,3.572-1.692,9.023-0.313,9.337c1.378,0.313,5.032,0.251,4.991-0.94
							c-0.041-1.19-1.106-8.209-1.232-8.96C183.802,235.824,180.481,237.14,180.481,237.14z"/>
						<path style="fill:#241D9E;" d="M164.531,238.555c-0.627,3.572-1.692,9.023-0.313,9.336c1.378,0.313,5.032,0.251,4.991-0.94
							c-0.041-1.19-1.106-8.209-1.232-8.96C167.852,237.239,164.531,238.555,164.531,238.555z"/>
						<g>
							<path style="fill:#241D9E;" d="M183.616,130.126c0.506,4.013,1.344,12.7-1.762,12.779c-4.104,0.105-15.398,0.02-15.888,0
								c-2.976-0.124-1.097-12.138-1.106-13.677C164.799,118.334,182.106,118.14,183.616,130.126z"/>
						</g>
						<polygon style="fill:#FFDEDE;" points="162.744,158.427 160.321,174.264 157.286,184.755 163.454,183.878 167.833,176.122 
							168.276,155.958 						"/>
						<path style="fill:#FFFFFF;" d="M171.579,142.905c-6.367,1.13-9.218,7.405-10.698,16.507l10.799,1.188l-0.232-9.274"/>
						<path style="fill:#FFDEDE;" d="M187.488,154.221c1.596,10.33,2.112,20.775,1.616,31.328l-6.168-0.877l-0.537-12.756
							l-0.443-20.164L187.488,154.221z"/>
						<path style="fill:#FFFFFF;" d="M179.213,142.905c6.367,1.13,9.217,7.405,10.698,16.507l-10.799,1.188l0.232-9.274"/>
						<path style="fill:#4D4FFF;" d="M185.66,169.641c-1.338-21.893-2.546-28.929-13.354-26.899
							c-8.878,1.668-7.589,26.04-8.396,29.085c-0.808,3.044-4.708,17.745-4.708,17.745c9.521-0.336,20.507-0.176,27.082-0.217
							C186.284,189.355,185.962,174.578,185.66,169.641z"/>
						<path style="fill:#FFBA49;" d="M160.179,193.351c-1.363,14.309,3.189,47.116,3.189,47.116l5.691-0.531
							c0.409-2.06,2.572-33.137,2.621-46.585C171.704,186.775,160.934,185.431,160.179,193.351z"/>
						<path style="fill:#FFBA49;" d="M176.19,193.351c-1.363,14.309,3.189,47.116,3.189,47.116l5.691-0.531
							c0.409-2.06,2.572-33.137,2.621-46.585C187.715,186.775,176.944,185.431,176.19,193.351z"/>
						<path style="fill:#FFDEDE;" d="M179.368,132.799c-0.432-3.043-1.782-3.918-4.903-2.336c-2.003,1.015-5.775,1.758-7.41,0.831
							c0.021,0.755,0.109,1.588,0.257,2.445c-0.105-0.001-0.21,0.005-0.307,0.044c-0.217,0.086-0.372,0.282-0.477,0.489
							c-0.374,0.736-0.199,1.692,0.358,2.302c0.361,0.396,0.865,0.629,1.394,0.72c0.952,2.484,2.43,4.503,4.336,4.549
							c0.188,0.803,0.199,1.531-0.018,2.6c0.193,0.715,3.085,0.65,3.979-0.191c-0.077-0.986-0.514-1.74-0.484-2.645
							c2.058-0.35,2.938-3.024,3.715-5.79C182.912,133.971,180.69,130.603,179.368,132.799z"/>
						<path style="fill:#FFDEDE;" d="M162.069,175.838c1.013,0.493,1.454,1.674,1.802,2.745c-1.545-0.127-3.094-0.206-4.644-0.236
							c-0.565-0.011-2.718,0.368-2.74-0.421c-0.018-0.665,1.375-1.506,1.853-1.76C159.402,175.601,160.94,175.289,162.069,175.838z"
							/>
						<path style="fill:#FFDEDE;" d="M186.721,175.48c0.845-0.368,1.775-0.651,2.68-0.478c0.905,0.172,1.754,0.926,1.758,1.847
							c0.001,0.145-0.02,0.294-0.09,0.422c-0.07,0.128-0.185,0.227-0.306,0.308c-0.446,0.297-0.996,0.387-1.529,0.449
							c-0.904,0.104-1.813,0.143-2.722,0.128c-0.615-0.011-1.619,0.128-2.152-0.275C183.241,177.032,186.065,175.765,186.721,175.48
							z"/>
					</g>
					<g>
						<path style="fill:#FE9946;" d="M170.825,187.498c0.389,1.863,5.672,1.856,6.058-0.014c9.726-2.972,19.459-2.401,29.197,0.809
							c0.405,0.134,0.691,0.652,0.691,1.246l0,0c0,0.817-0.531,1.426-1.089,1.246c-9.606-3.095-18.38-4.795-27.974-1.864
							c-1.422,2.675-5.992,2.818-7.63,0.107c-9.445-2.858-18.304-1.449-28.055,1.749c-0.559,0.183-1.091-0.426-1.091-1.244l0,0
							c0-0.591,0.284-1.108,0.687-1.243C151.51,184.966,161.25,184.601,170.825,187.498z"/>
						<path style="fill:#FFFFFF;" d="M173.853,181.937c10.212-5.473,21.32-7.12,31.531-0.841c0.277,2.99,0.506,5.154,0.696,7.196
							c-9.444-2.957-19.766-3.74-29.197-0.858c-1.28-0.992-4.664-1.126-6.058,0.014c-9.288-2.81-19.62-2.21-29.204,0.841
							c0.394-2.163,0.693-4.738,0.967-7.286C152.994,176.096,164.011,175.839,173.853,181.937z"/>
						<path style="fill:#E1E3EF;" d="M170.957,181.768c-0.324-0.139-0.647-0.279-0.975-0.395c-0.653-0.245-1.302-0.512-1.962-0.717
							l-0.986-0.328l-0.993-0.282c-2.647-0.755-5.339-1.186-8.036-1.293c-2.697-0.102-5.402,0.13-8.066,0.752
							c-1.332,0.307-2.653,0.721-3.953,1.237c-0.651,0.255-1.297,0.536-1.935,0.856c-0.551,0.276-1.098,0.575-1.63,0.919
							c0-0.004,0.001-0.007,0.001-0.011c0.526-0.361,1.067-0.677,1.613-0.971c0.633-0.342,1.276-0.644,1.925-0.921
							c1.299-0.545,2.62-0.982,3.955-1.316c2.67-0.669,5.387-0.899,8.095-0.819c2.708,0.129,5.41,0.56,8.06,1.36l0.993,0.302
							l0.986,0.347c0.659,0.218,1.308,0.496,1.959,0.757c0.326,0.127,0.648,0.279,0.969,0.428l0.965,0.446
							c0.64,0.312,1.273,0.651,1.91,0.975c-0.642-0.303-1.28-0.62-1.925-0.911L170.957,181.768z M205.533,182.677
							c-0.603-0.436-1.23-0.803-1.863-1.143c-0.633-0.342-1.276-0.644-1.925-0.921c-1.299-0.545-2.62-0.982-3.954-1.316
							c-2.67-0.669-5.387-0.899-8.095-0.819c-2.707,0.129-5.41,0.56-8.06,1.36l-0.993,0.302l-0.986,0.347
							c-0.66,0.218-1.308,0.496-1.959,0.757c-0.326,0.127-0.648,0.279-0.969,0.428l-0.965,0.446c-0.64,0.312-1.273,0.651-1.91,0.975
							c0.642-0.303,1.28-0.62,1.925-0.911l0.971-0.413c0.324-0.139,0.647-0.279,0.975-0.395c0.653-0.245,1.302-0.512,1.962-0.717
							l0.986-0.328l0.993-0.282c2.647-0.755,5.339-1.186,8.036-1.293c2.697-0.102,5.402,0.13,8.066,0.752
							c1.332,0.307,2.652,0.721,3.953,1.237c0.651,0.255,1.297,0.536,1.935,0.856C204.291,181.915,204.923,182.261,205.533,182.677
							L205.533,182.677z M176.267,187.085c0.035,0.015,0.068,0.03,0.102,0.045l0.38-0.162c0.324-0.139,0.647-0.279,0.975-0.395
							c0.653-0.245,1.302-0.512,1.962-0.717l0.986-0.328l0.993-0.282c2.647-0.755,5.339-1.186,8.036-1.293
							c2.697-0.102,5.402,0.13,8.066,0.752c1.332,0.307,2.652,0.721,3.953,1.237c0.651,0.255,1.297,0.536,1.935,0.855
							c0.637,0.319,1.269,0.665,1.879,1.081c-0.603-0.436-1.23-0.803-1.863-1.143c-0.633-0.342-1.276-0.644-1.925-0.921
							c-1.299-0.545-2.62-0.982-3.954-1.316c-2.67-0.669-5.387-0.899-8.095-0.819c-2.707,0.129-5.41,0.56-8.06,1.36l-0.993,0.301
							l-0.986,0.347c-0.66,0.218-1.308,0.496-1.959,0.757c-0.326,0.127-0.648,0.279-0.969,0.428L176.267,187.085z M170.957,185.679
							l0.971,0.413c0.41,0.185,0.819,0.381,1.227,0.577c0.014-0.001,0.029-0.003,0.043-0.004c-0.417-0.216-0.835-0.432-1.255-0.637
							l-0.965-0.446c-0.322-0.15-0.643-0.301-0.969-0.428c-0.651-0.26-1.3-0.538-1.959-0.757l-0.986-0.347l-0.993-0.302
							c-2.65-0.8-5.352-1.231-8.06-1.36c-2.708-0.08-5.426,0.15-8.095,0.819c-1.334,0.333-2.656,0.771-3.955,1.316
							c-0.648,0.277-1.292,0.58-1.925,0.921c-0.633,0.341-1.26,0.707-1.863,1.143c0.61-0.416,1.242-0.761,1.879-1.081
							c0.637-0.32,1.284-0.601,1.935-0.855c1.301-0.516,2.621-0.93,3.953-1.237c2.664-0.621,5.369-0.854,8.066-0.752
							c2.697,0.107,5.388,0.538,8.036,1.293l0.993,0.282l0.986,0.328c0.66,0.205,1.309,0.472,1.962,0.717
							C170.311,185.4,170.633,185.54,170.957,185.679z M158.005,183.953c2.697,0.107,5.388,0.538,8.036,1.293l0.993,0.282
							l0.986,0.328c0.66,0.205,1.309,0.472,1.962,0.717c0.328,0.116,0.651,0.257,0.975,0.395l0.376,0.16
							c0.032-0.016,0.064-0.032,0.097-0.047l-0.453-0.209c-0.322-0.15-0.643-0.301-0.969-0.428c-0.651-0.26-1.3-0.538-1.959-0.757
							l-0.986-0.347l-0.993-0.301c-2.65-0.801-5.352-1.231-8.06-1.36c-2.708-0.08-5.426,0.15-8.095,0.819
							c-1.334,0.333-2.656,0.771-3.955,1.316c-0.648,0.277-1.292,0.58-1.925,0.921c-0.633,0.341-1.26,0.707-1.863,1.143
							c0.61-0.416,1.242-0.761,1.879-1.081c0.637-0.32,1.284-0.6,1.935-0.855c1.301-0.516,2.621-0.93,3.953-1.237
							C152.604,184.083,155.308,183.85,158.005,183.953z M174.493,186.673c0.014,0.001,0.028,0.002,0.042,0.004
							c0.413-0.199,0.827-0.396,1.242-0.584l0.971-0.413c0.324-0.139,0.647-0.279,0.975-0.395c0.653-0.245,1.302-0.512,1.962-0.717
							l0.986-0.328l0.993-0.282c2.647-0.755,5.339-1.186,8.036-1.293c2.697-0.102,5.402,0.13,8.066,0.752
							c1.332,0.307,2.652,0.721,3.953,1.237c0.651,0.255,1.297,0.535,1.935,0.855c0.637,0.319,1.269,0.664,1.879,1.081
							c-0.603-0.436-1.23-0.803-1.863-1.143c-0.633-0.342-1.276-0.644-1.925-0.921c-1.299-0.545-2.62-0.982-3.954-1.316
							c-2.67-0.669-5.387-0.899-8.095-0.819c-2.707,0.129-5.41,0.56-8.06,1.36l-0.993,0.302l-0.986,0.347
							c-0.66,0.218-1.308,0.496-1.959,0.757c-0.326,0.127-0.648,0.279-0.969,0.428l-0.965,0.446
							C175.338,186.236,174.915,186.454,174.493,186.673z M175.763,184.725c-0.64,0.312-1.273,0.651-1.91,0.975
							c0.642-0.303,1.28-0.62,1.925-0.911l0.971-0.413c0.324-0.139,0.647-0.279,0.975-0.395c0.653-0.245,1.302-0.512,1.962-0.717
							l0.986-0.328l0.993-0.282c2.647-0.755,5.339-1.186,8.036-1.293c2.697-0.103,5.402,0.13,8.066,0.752
							c1.332,0.307,2.652,0.721,3.953,1.237c0.651,0.255,1.297,0.536,1.935,0.856c0.637,0.319,1.269,0.664,1.879,1.081
							c-0.603-0.436-1.23-0.803-1.863-1.143c-0.633-0.342-1.276-0.644-1.925-0.921c-1.299-0.545-2.62-0.983-3.954-1.316
							c-2.67-0.669-5.387-0.899-8.095-0.818c-2.707,0.129-5.41,0.56-8.06,1.36l-0.993,0.302l-0.986,0.347
							c-0.66,0.218-1.308,0.496-1.959,0.757c-0.326,0.127-0.648,0.279-0.969,0.428L175.763,184.725z M142.257,183.922
							c0,0.001,0,0.002,0,0.004c0.584-0.391,1.187-0.721,1.795-1.026c0.637-0.32,1.284-0.6,1.935-0.855
							c1.301-0.516,2.621-0.93,3.953-1.237c2.664-0.621,5.369-0.854,8.066-0.752c2.697,0.107,5.388,0.538,8.036,1.293l0.993,0.282
							l0.986,0.328c0.66,0.205,1.309,0.472,1.962,0.717c0.328,0.116,0.651,0.257,0.975,0.395l0.971,0.413
							c0.644,0.291,1.283,0.608,1.925,0.91c-0.637-0.324-1.27-0.662-1.91-0.974l-0.965-0.446c-0.322-0.15-0.643-0.301-0.969-0.428
							c-0.651-0.26-1.3-0.538-1.959-0.757l-0.986-0.347l-0.993-0.302c-2.65-0.8-5.352-1.231-8.06-1.36
							c-2.708-0.08-5.426,0.15-8.095,0.819c-1.334,0.333-2.656,0.771-3.955,1.316c-0.648,0.277-1.292,0.58-1.925,0.921
							C143.432,183.162,142.835,183.512,142.257,183.922z M175.763,183.421c-0.64,0.312-1.273,0.651-1.91,0.974
							c0.642-0.303,1.28-0.62,1.925-0.91l0.971-0.413c0.324-0.139,0.647-0.279,0.975-0.395c0.653-0.245,1.302-0.512,1.962-0.717
							l0.986-0.328l0.993-0.282c2.647-0.755,5.339-1.186,8.036-1.293c2.697-0.102,5.402,0.13,8.066,0.752
							c1.332,0.307,2.652,0.721,3.953,1.237c0.651,0.255,1.297,0.535,1.935,0.855c0.637,0.319,1.269,0.665,1.879,1.08
							c-0.603-0.436-1.23-0.803-1.863-1.143c-0.633-0.342-1.276-0.644-1.925-0.921c-1.299-0.545-2.62-0.982-3.954-1.316
							c-2.67-0.669-5.387-0.899-8.095-0.819c-2.707,0.129-5.41,0.56-8.06,1.36l-0.993,0.302l-0.986,0.347
							c-0.66,0.218-1.308,0.496-1.959,0.757c-0.326,0.127-0.648,0.279-0.969,0.428L175.763,183.421z M142.173,185.284
							c0.61-0.416,1.242-0.761,1.879-1.081c0.637-0.32,1.284-0.6,1.935-0.856c1.301-0.516,2.621-0.93,3.953-1.237
							c2.664-0.621,5.369-0.854,8.066-0.752c2.697,0.107,5.388,0.538,8.036,1.293l0.993,0.282l0.986,0.328
							c0.66,0.205,1.309,0.472,1.962,0.717c0.328,0.116,0.651,0.257,0.975,0.395l0.971,0.413c0.644,0.291,1.283,0.608,1.925,0.911
							c-0.637-0.324-1.27-0.662-1.91-0.975l-0.965-0.446c-0.322-0.149-0.643-0.301-0.969-0.428c-0.651-0.26-1.3-0.538-1.959-0.757
							l-0.986-0.347l-0.993-0.302c-2.65-0.8-5.352-1.231-8.06-1.36c-2.708-0.08-5.426,0.15-8.095,0.818
							c-1.334,0.333-2.656,0.771-3.955,1.316c-0.648,0.277-1.292,0.58-1.925,0.921C143.403,184.481,142.776,184.848,142.173,185.284
							z"/>
					</g>
				</g>
				<g>
					
						<rect x="222.008" y="385.329" transform="matrix(1.526121e-04 1 -1 1.526121e-04 621.1393 160.7166)" style="fill:#A59F9A;" width="16.381" height="11.292"/>
					
						<rect x="226.093" y="385.329" transform="matrix(1.461401e-04 1 -1 1.461401e-04 621.1408 160.7191)" style="fill:#C1B9B4;" width="8.211" height="11.292"/>
					<path style="fill:#DDDCDB;" d="M244.771,397.788l-0.002-13.63c0-0.76-0.616-1.376-1.376-1.375l-7.549,0.001l0.003,16.381
						l7.549-0.001C244.155,399.164,244.771,398.548,244.771,397.788z"/>
					<path style="fill:#F2F1F0;" d="M244.77,393.8l-0.001-5.653c0-0.76-0.616-1.376-1.376-1.375l-7.549,0.001l0.001,8.404
						l7.549-0.001C244.154,395.176,244.77,394.559,244.77,393.8z"/>
					<path style="fill:#FFE0B5;" d="M95.606,390.053l14.388-7.251l0.002,16.381l-14.39-7.247
						C94.903,391.582,94.903,390.408,95.606,390.053z"/>
					<path style="fill:#FE9946;" d="M95.607,391.939l5.692,2.867l-0.001-7.618l-5.692,2.868
						C94.903,390.41,94.903,391.584,95.607,391.939z"/>
					
						<linearGradient id="SVGID_00000032634600880873005700000010658143905284548239_" gradientUnits="userSpaceOnUse" x1="138.2961" y1="390.9843" x2="265.8006" y2="390.9843" gradientTransform="matrix(-1 0 0 1 368.0751 0)">
						<stop  offset="0" style="stop-color:#FFB14C"/>
						<stop  offset="1" style="stop-color:#FFD64C"/>
					</linearGradient>
					<polygon style="fill:url(#SVGID_00000032634600880873005700000010658143905284548239_);" points="109.997,399.183 
						109.995,382.802 225.912,382.785 225.914,399.167 					"/>
					
						<linearGradient id="SVGID_00000036238469204936727780000013800610022871022247_" gradientUnits="userSpaceOnUse" x1="141.5256" y1="390.9843" x2="253.1017" y2="390.9843" gradientTransform="matrix(-1 0 0 1 368.0751 0)">
						<stop  offset="0" style="stop-color:#FFB14C"/>
						<stop  offset="1" style="stop-color:#FFD64C"/>
					</linearGradient>
					<polygon style="opacity:0.29;fill:url(#SVGID_00000036238469204936727780000013800610022871022247_);" points="
						109.996,395.022 109.995,386.964 225.912,386.947 225.914,395.005 					"/>
				</g>
			</g>
		</g>
	</g>
</g>
<g id="DESIGNED_BY_FREEPIK">
	<g>
		<g id="XMLID_319_">
			<g id="XMLID_338_">
				<path id="XMLID_346_" style="fill:#A5B7C6;" d="M260.104,465.465c-0.432,0.443-0.803,0.931-1.108,1.453l-0.465-0.241
					c-0.067-0.298-0.349-0.503-0.659-0.466c-0.331,0.039-0.568,0.339-0.529,0.67c0.039,0.331,0.339,0.568,0.67,0.529
					c0.066-0.008,0.127-0.026,0.184-0.052l0.451,0.234c-0.251,0.554-0.433,1.139-0.539,1.744l0.747,0.132
					c0.23-1.306,0.85-2.507,1.792-3.473L260.104,465.465z"/>
				<path id="XMLID_345_" style="fill:#A5B7C6;" d="M265.592,463.163c-0.171,0-0.341,0.006-0.51,0.017l-0.074-0.626
					c0.188-0.149,0.296-0.389,0.266-0.645c-0.046-0.393-0.402-0.674-0.795-0.628c-0.393,0.046-0.674,0.402-0.628,0.795
					c0.03,0.254,0.189,0.461,0.404,0.564l0.074,0.624c-0.714,0.116-1.403,0.332-2.06,0.646l0.327,0.684
					c0.934-0.447,1.942-0.673,2.995-0.673c0.496,0,0.993,0.053,1.475,0.158l0.161-0.741
					C266.692,463.222,266.142,463.163,265.592,463.163z"/>
				<path id="XMLID_344_" style="fill:#A5B7C6;" d="M272.194,465.711c0.331-0.04,0.566-0.341,0.526-0.672
					c-0.04-0.331-0.341-0.566-0.672-0.526c-0.309,0.038-0.535,0.304-0.53,0.609l-0.416,0.363c-0.418-0.43-0.889-0.813-1.408-1.139
					l-0.404,0.641c1.134,0.715,2.021,1.726,2.563,2.925l0.69-0.313c-0.251-0.554-0.567-1.072-0.942-1.545l0.402-0.351
					C272.065,465.716,272.129,465.719,272.194,465.711z"/>
				<path id="XMLID_343_" style="fill:#A5B7C6;" d="M265.044,473.372c-0.386,0.023-0.775,0.035-1.157,0.035
					c-0.88,0-1.733-0.061-2.478-0.179c-0.39-0.062-0.846-0.155-1.27-0.292c1.046,1.861,3.069,3.125,5.388,3.125
					c2.855,0,5.262-1.916,5.95-4.504c-0.682,0.449-1.505,0.825-2.459,1.123C267.839,473.047,266.463,473.286,265.044,473.372z"/>
				<path id="XMLID_339_" style="fill:#A5B7C6;" d="M265.592,464.68c-3.352,0-6.08,2.666-6.08,5.943
					c0,0.426,0.046,0.849,0.137,1.261c0.673,0.483,2.706,0.89,5.348,0.731c2.879-0.173,5.297-0.957,6.672-2.159
					c-0.006-0.195-0.021-0.39-0.045-0.582C271.244,466.913,268.65,464.68,265.592,464.68z M263.432,471.194
					c-1.02,0-1.85-0.83-1.85-1.85c0-1.02,0.83-1.85,1.85-1.85c1.02,0,1.85,0.83,1.85,1.85
					C265.282,470.365,264.452,471.194,263.432,471.194z M268.17,470.286c-0.75,0-1.36-0.61-1.36-1.36s0.61-1.361,1.36-1.361
					c0.75,0,1.361,0.61,1.361,1.361S268.92,470.286,268.17,470.286z"/>
			</g>
			<path id="XMLID_336_" style="fill:#A5B7C6;" d="M281.595,466.547c-0.295-0.116-0.805-0.309-1.382-0.237
				c-0.551,0.069-0.844,0.341-0.844,1.007v0.866h2.228v1.717h-2.228v5.455h-1.932v-5.455h-1.34v-1.717h1.34v-0.888
				c0-1.68,0.896-2.783,2.568-2.783c0.643,0,1.157,0.122,1.59,0.308L281.595,466.547z"/>
			<path id="XMLID_334_" style="fill:#A5B7C6;" d="M286.298,469.879c-0.177-0.03-0.358-0.046-0.526-0.046
				c-0.896,0-1.51,0.548-1.51,1.614v3.908h-1.932v-7.172h1.873v0.785c0.451-0.673,1.14-0.977,2.021-0.977
				c0.414,0,0.848,0.128,1.094,0.337L286.298,469.879z"/>
			<path id="XMLID_331_" style="fill:#A5B7C6;" d="M293.965,471.757c0,0.222-0.015,0.489-0.037,0.651h-5.085
				c0.207,1.036,0.933,1.488,1.843,1.488c0.622,0,1.295-0.252,1.813-0.688l1.133,1.243c-0.814,0.748-1.85,1.088-3.057,1.088
				c-2.198,0-3.723-1.495-3.723-3.753c0-2.258,1.48-3.797,3.627-3.797C292.544,467.99,293.958,469.522,293.965,471.757z
				 M288.851,471.091h3.175c-0.177-0.918-0.733-1.436-1.562-1.436C289.554,469.655,289.021,470.203,288.851,471.091z"/>
			<path id="XMLID_328_" style="fill:#A5B7C6;" d="M301.618,471.757c0,0.222-0.015,0.489-0.037,0.651h-5.085
				c0.207,1.036,0.932,1.488,1.843,1.488c0.622,0,1.295-0.252,1.814-0.688l1.132,1.243c-0.814,0.748-1.85,1.088-3.057,1.088
				c-2.198,0-3.723-1.495-3.723-3.753c0-2.258,1.48-3.797,3.627-3.797C300.197,467.99,301.611,469.522,301.618,471.757z
				 M296.504,471.091h3.175c-0.178-0.918-0.733-1.436-1.562-1.436C297.207,469.655,296.674,470.203,296.504,471.091z"/>
			<path id="XMLID_325_" style="fill:#A5B7C6;" d="M309.964,471.764c0,2.154-1.495,3.775-3.471,3.775
				c-0.962,0-1.643-0.378-2.109-0.933v3.708h-1.924v-10.133h1.887v0.792c0.466-0.585,1.155-0.984,2.139-0.984
				C308.469,467.99,309.964,469.61,309.964,471.764z M304.287,471.764c0,1.132,0.747,1.976,1.843,1.976
				c1.14,0,1.85-0.881,1.85-1.976c0-1.095-0.71-1.976-1.85-1.976C305.035,469.788,304.287,470.632,304.287,471.764z"/>
			<path id="XMLID_322_" style="fill:#A5B7C6;" d="M313.068,465.836c0,0.696-0.54,1.229-1.236,1.229
				c-0.696,0-1.229-0.533-1.229-1.229c0-0.696,0.533-1.243,1.229-1.243C312.527,464.592,313.068,465.14,313.068,465.836z
				 M312.809,475.354h-1.932v-7.172h1.932V475.354z"/>
			<path id="XMLID_320_" style="fill:#A5B7C6;" d="M316.032,470.736l2.701-2.554h2.368l-3.479,3.375l3.501,3.797h-2.376
				l-2.716-2.901v2.901H314.1v-10.658h1.932V470.736z"/>
		</g>
		<g>
			<path style="fill:#A5B7C6;" d="M184.412,475.289v-1.055c-0.527,0.718-1.391,1.23-2.388,1.23c-1.846,0-3.149-1.406-3.149-3.706
				c0-2.256,1.289-3.721,3.149-3.721c0.952,0,1.816,0.469,2.388,1.245v-3.765h1.099v9.77H184.412z M184.412,473.37v-3.208
				c-0.395-0.615-1.245-1.143-2.124-1.143c-1.421,0-2.27,1.172-2.27,2.739c0,1.567,0.85,2.724,2.27,2.724
				C183.168,474.483,184.017,473.986,184.412,473.37z"/>
			<path style="fill:#A5B7C6;" d="M186.932,471.744c0-2.051,1.465-3.706,3.486-3.706c2.139,0,3.398,1.67,3.398,3.794v0.279h-5.727
				c0.088,1.333,1.025,2.446,2.549,2.446c0.805,0,1.626-0.322,2.182-0.894l0.527,0.718c-0.703,0.703-1.655,1.084-2.812,1.084
				C188.44,475.465,186.932,473.956,186.932,471.744z M190.403,468.947c-1.509,0-2.256,1.274-2.314,2.358h4.643
				C192.718,470.25,192.015,468.947,190.403,468.947z"/>
			<path style="fill:#A5B7C6;" d="M194.607,474.351l0.571-0.791c0.469,0.542,1.362,1.011,2.329,1.011c1.084,0,1.67-0.513,1.67-1.216
				c0-1.714-4.38-0.659-4.38-3.281c0-1.098,0.952-2.036,2.636-2.036c1.201,0,2.051,0.454,2.622,1.026l-0.513,0.762
				c-0.424-0.513-1.201-0.894-2.109-0.894c-0.967,0-1.567,0.483-1.567,1.113c0,1.552,4.38,0.527,4.38,3.281
				c0,1.187-0.952,2.138-2.783,2.138C196.306,475.465,195.325,475.113,194.607,474.351z"/>
			<path style="fill:#A5B7C6;" d="M201.477,466.471c0-0.41,0.337-0.747,0.732-0.747c0.41,0,0.747,0.337,0.747,0.747
				c0,0.41-0.337,0.732-0.747,0.732C201.814,467.203,201.477,466.881,201.477,466.471z M201.667,475.289v-7.075h1.099v7.075H201.667
				z"/>
			<path style="fill:#A5B7C6;" d="M204.582,477.105l0.556-0.82c0.586,0.703,1.289,0.967,2.3,0.967c1.172,0,2.27-0.571,2.27-2.124
				v-1.011c-0.513,0.718-1.377,1.26-2.373,1.26c-1.845,0-3.149-1.377-3.149-3.662c0-2.27,1.289-3.677,3.149-3.677
				c0.952,0,1.802,0.469,2.373,1.245v-1.069h1.098v6.87c0,2.344-1.641,3.076-3.369,3.076
				C206.237,478.16,205.417,477.926,204.582,477.105z M209.709,473.253v-3.091c-0.381-0.615-1.23-1.143-2.109-1.143
				c-1.421,0-2.27,1.128-2.27,2.695c0,1.553,0.849,2.695,2.27,2.695C208.478,474.41,209.328,473.868,209.709,473.253z"/>
			<path style="fill:#A5B7C6;" d="M217.413,475.289v-4.629c0-1.245-0.63-1.641-1.582-1.641c-0.865,0-1.685,0.527-2.095,1.099v5.17
				h-1.099v-7.075h1.099v1.025c0.498-0.586,1.465-1.201,2.519-1.201c1.48,0,2.256,0.747,2.256,2.285v4.966H217.413z"/>
			<path style="fill:#A5B7C6;" d="M219.932,471.744c0-2.051,1.465-3.706,3.486-3.706c2.139,0,3.398,1.67,3.398,3.794v0.279h-5.727
				c0.088,1.333,1.025,2.446,2.549,2.446c0.806,0,1.626-0.322,2.183-0.894l0.527,0.718c-0.703,0.703-1.655,1.084-2.812,1.084
				C221.441,475.465,219.932,473.956,219.932,471.744z M223.404,468.947c-1.509,0-2.256,1.274-2.314,2.358h4.643
				C225.718,470.25,225.015,468.947,223.404,468.947z"/>
			<path style="fill:#A5B7C6;" d="M233.35,475.289v-1.055c-0.527,0.718-1.392,1.23-2.388,1.23c-1.846,0-3.149-1.406-3.149-3.706
				c0-2.256,1.289-3.721,3.149-3.721c0.952,0,1.817,0.469,2.388,1.245v-3.765h1.098v9.77H233.35z M233.35,473.37v-3.208
				c-0.396-0.615-1.245-1.143-2.124-1.143c-1.421,0-2.27,1.172-2.27,2.739c0,1.567,0.849,2.724,2.27,2.724
				C232.105,474.483,232.954,473.986,233.35,473.37z"/>
			<path style="fill:#A5B7C6;" d="M239.692,475.289v-9.77h1.098v3.765c0.572-0.776,1.421-1.245,2.388-1.245
				c1.845,0,3.149,1.465,3.149,3.721c0,2.299-1.304,3.706-3.149,3.706c-0.996,0-1.86-0.513-2.388-1.23v1.055H239.692z
				 M242.9,474.483c1.436,0,2.285-1.157,2.285-2.724c0-1.568-0.85-2.739-2.285-2.739c-0.864,0-1.728,0.527-2.109,1.143v3.208
				C241.171,473.986,242.036,474.483,242.9,474.483z"/>
			<path style="fill:#A5B7C6;" d="M247.528,477.061c0.161,0.073,0.425,0.117,0.601,0.117c0.483,0,0.805-0.161,1.055-0.747
				l0.469-1.069l-2.959-7.148h1.187l2.358,5.8l2.344-5.8h1.201l-3.545,8.51c-0.425,1.025-1.143,1.421-2.08,1.435
				c-0.234,0-0.601-0.044-0.805-0.103L247.528,477.061z"/>
		</g>
	</g>
</g>
</svg>
