<?xml version="1.0" encoding="UTF-8"?>
<svg version="1.1" xmlns="http://www.w3.org/2000/svg" width="512" height="512">
<path d="M0 0 C1.01790619 0.00215515 2.03581238 0.0043103 3.08456421 0.00653076 C17.69363523 0.05620146 32.02575853 0.30709809 46.375 3.3125 C47.34985352 3.51117676 48.32470703 3.70985352 49.32910156 3.91455078 C98.33696698 14.16611774 142.34114199 36.50532652 178.375 71.3125 C178.99584473 71.91143066 179.61668945 72.51036133 180.25634766 73.12744141 C188.15750259 80.79126503 195.70266955 88.53248394 202.375 97.3125 C202.79168945 97.85277832 203.20837891 98.39305664 203.63769531 98.94970703 C228.13584707 130.8187469 244.62689938 167.37064783 252.6875 206.75 C252.83485596 207.46889404 252.98221191 208.18778809 253.1340332 208.9284668 C256.10789088 224.57475609 256.74800362 240.04818046 256.6875 255.9375 C256.68534485 256.95540619 256.6831897 257.97331238 256.68096924 259.02206421 C256.63129854 273.63113523 256.38040191 287.96325853 253.375 302.3125 C253.07698486 303.77478027 253.07698486 303.77478027 252.77294922 305.26660156 C242.52138226 354.27446698 220.18217348 398.27864199 185.375 434.3125 C184.77606934 434.93334473 184.17713867 435.55418945 183.56005859 436.19384766 C175.89623497 444.09500259 168.15501606 451.64016955 159.375 458.3125 C158.83472168 458.72918945 158.29444336 459.14587891 157.73779297 459.57519531 C123.10615677 486.19699135 82.6106052 503.76676591 39.375 510.3125 C38.25689941 510.48982666 37.13879883 510.66715332 35.98681641 510.84985352 C25.22545702 512.39416151 14.5855899 512.65229671 3.72314453 512.62817383 C0.77468385 512.62502635 -2.17275697 512.64852578 -5.12109375 512.67382812 C-18.51105903 512.71844438 -31.42266733 511.51675057 -44.625 509.3125 C-45.76195312 509.12437744 -46.89890625 508.93625488 -48.0703125 508.74243164 C-50.66610846 508.27619865 -53.2376671 507.75746002 -55.8125 507.1875 C-57.20142456 506.88054199 -57.20142456 506.88054199 -58.6184082 506.56738281 C-114.14757064 493.65555169 -166.96198961 460.92501728 -201.625 415.3125 C-202.04168945 414.77222168 -202.45837891 414.23194336 -202.88769531 413.67529297 C-227.38584707 381.8062531 -243.87689938 345.25435217 -251.9375 305.875 C-252.08485596 305.15610596 -252.23221191 304.43721191 -252.3840332 303.6965332 C-255.35789088 288.05024391 -255.99800362 272.57681954 -255.9375 256.6875 C-255.93534485 255.66959381 -255.9331897 254.65168762 -255.93096924 253.60293579 C-255.88129854 238.99386477 -255.63040191 224.66174147 -252.625 210.3125 C-252.42632324 209.33764648 -252.22764648 208.36279297 -252.02294922 207.35839844 C-241.77138226 158.35053302 -219.43217348 114.34635801 -184.625 78.3125 C-184.02606934 77.69165527 -183.42713867 77.07081055 -182.81005859 76.43115234 C-175.14623497 68.52999741 -167.40501606 60.98483045 -158.625 54.3125 C-158.08472168 53.89581055 -157.54444336 53.47912109 -156.98779297 53.04980469 C-125.1187531 28.55165293 -88.56685217 12.06060062 -49.1875 4 C-48.46860596 3.85264404 -47.74971191 3.70528809 -47.0090332 3.5534668 C-31.36274391 0.57960912 -15.88931954 -0.06050362 0 0 Z " fill="#A639C0" transform="translate(255.625,-0.3125)"/>
<path d="M0 0 C4.51493882 3.79599148 8.86672132 7.69941534 13.08079529 11.82595825 C13.65030649 12.38050371 14.21981769 12.93504917 14.8065868 13.50639904 C16.69416811 15.34591021 18.57851252 17.18869674 20.46264648 19.03173828 C21.82321737 20.35981303 23.18383989 21.6878349 24.54450989 23.01580811 C36.9260289 35.10983235 49.24841015 47.26403303 61.5538168 59.43544197 C69.81643747 67.60595538 78.09696967 75.75650886 86.42456055 83.86083984 C93.70692281 90.94800486 100.95306232 98.06995565 108.15814453 105.2357043 C111.966363 109.02080463 115.78972397 112.78684996 119.65691948 116.51175308 C123.2974091 120.01952012 126.88706137 123.57245492 130.44465446 127.16420746 C131.75113276 128.4668091 133.07460354 129.75264345 134.41640091 131.01883316 C141.13178134 137.37460164 145.56635002 142.29786227 145.86645132 151.86132514 C145.78474127 155.93784977 145.45233045 159.94991183 145 164 C144.91626349 165.14962282 144.83252699 166.29924564 144.74625301 167.48370552 C144.55687845 170.07548341 144.2464205 172.61591682 143.875 175.1875 C143.74375732 176.13052979 143.61251465 177.07355957 143.47729492 178.04516602 C135.54519886 231.33606212 111.35468097 280.3288545 74 319 C73.40106934 319.62084473 72.80213867 320.24168945 72.18505859 320.88134766 C64.52123497 328.78250259 56.78001606 336.32766955 48 343 C47.45972168 343.41668945 46.91944336 343.83337891 46.36279297 344.26269531 C12.38987377 370.37812689 -27.19838281 387.79090023 -69.55126953 394.59033203 C-71.99280041 394.99879552 -74.41298373 395.47749265 -76.83984375 395.96484375 C-78.35102406 396.22965376 -79.86272248 396.49152953 -81.375 396.75 C-82.046521 396.89735596 -82.71804199 397.04471191 -83.40991211 397.1965332 C-85.3359375 397.484375 -85.3359375 397.484375 -89 397 C-90.48999882 395.60575867 -90.48999882 395.60575867 -92.01954651 393.6862793 C-96.79603727 387.97230159 -102.08126913 382.78671275 -107.35131836 377.53515625 C-108.48555643 376.40120077 -109.61957333 375.26702403 -110.75338745 374.13264465 C-113.81055852 371.07518839 -116.87078804 368.02081046 -119.93160319 364.96700287 C-123.13780907 361.76707701 -126.34115569 358.56429137 -129.54481506 355.36181641 C-135.60224771 349.30748342 -141.66222343 343.2557026 -147.72313172 337.20484924 C-154.62720366 330.31198094 -161.52841333 323.41624991 -168.42939174 316.52028465 C-182.61642649 302.34368337 -196.80702686 288.17065587 -211 274 C-210.34 273.67 -209.68 273.34 -209 273 C-208.01 273.33 -207.02 273.66 -206 274 C-203.56219623 274.15269181 -201.14716099 274.25682697 -198.70703125 274.31640625 C-198.00100266 274.33718735 -197.29497406 274.35796844 -196.56755066 274.37937927 C-194.31596449 274.44467491 -192.06426338 274.50366647 -189.8125 274.5625 C-188.2844934 274.60570425 -186.75649836 274.64931916 -185.22851562 274.69335938 C-181.48579438 274.80033574 -177.7429577 274.90165922 -174 275 C-174 278.63 -174 282.26 -174 286 C-173.21496094 285.62746094 -172.42992187 285.25492187 -171.62109375 284.87109375 C-164.29691088 281.57296477 -160.08479815 280.12230497 -152.35546875 282.9765625 C-149.88477894 283.93719434 -147.43998004 284.96384409 -145 286 C-145 282.37 -145 278.74 -145 275 C-99.46 275 -53.92 275 -7 275 C-7 261.8 -7 248.6 -7 235 C-5.35 234.01 -3.7 233.02 -2 232 C-0.81344717 229.62689434 -0.86087661 228.15400279 -0.83886719 225.50610352 C-0.82925964 224.57496231 -0.8196521 223.64382111 -0.80975342 222.6844635 C-0.80550354 221.67612961 -0.80125366 220.66779572 -0.796875 219.62890625 C-0.79117493 218.59563705 -0.78547485 217.56236786 -0.77960205 216.49778748 C-0.77014547 214.30965196 -0.76361546 212.12150217 -0.75976562 209.93334961 C-0.75004973 206.57966413 -0.71902797 203.22658869 -0.6875 199.87304688 C-0.68097116 197.75000365 -0.67572022 195.62695603 -0.671875 193.50390625 C-0.6533548 191.99444176 -0.6533548 191.99444176 -0.63446045 190.45448303 C-0.6389621 189.05304298 -0.6389621 189.05304298 -0.64355469 187.62329102 C-0.63990906 186.80103531 -0.63626343 185.9787796 -0.63250732 185.13160706 C-1.09159578 182.46870723 -1.87527735 181.62496543 -4 180 C-4.99 179.67 -5.98 179.34 -7 179 C-7.11672971 162.49312812 -7.20493703 145.98638982 -7.25906086 129.47920513 C-7.28485795 121.81485395 -7.32003671 114.150759 -7.37719727 106.48657227 C-7.42698679 99.80753007 -7.45928008 93.1286734 -7.47044247 86.44945079 C-7.47696898 82.91175774 -7.49233787 79.37459551 -7.52865028 75.83707237 C-7.56883028 71.89087242 -7.56995228 67.94519483 -7.56762695 63.9987793 C-7.59459152 62.23364235 -7.59459152 62.23364235 -7.62210083 60.43284607 C-7.61522751 59.36012451 -7.60835419 58.28740295 -7.60127258 57.18217468 C-7.60818603 55.78151024 -7.60818603 55.78151024 -7.61523914 54.35254955 C-7 52 -7 52 -4.52492046 50.30111408 C-3.27508483 49.65706261 -3.27508483 49.65706261 -2 49 C-0.81308507 46.62617015 -0.84427133 45.10821107 -0.79467773 42.45849609 C-0.77473251 41.51767181 -0.75478729 40.57684753 -0.73423767 39.60751343 C-0.71752518 38.58976837 -0.70081268 37.57202332 -0.68359375 36.5234375 C-0.6524221 34.96286118 -0.6524221 34.96286118 -0.62062073 33.37075806 C-0.55510128 30.03890751 -0.49622908 26.7069765 -0.4375 23.375 C-0.39431706 21.11978326 -0.35070285 18.86457473 -0.30664062 16.609375 C-0.19941746 11.07300167 -0.09803655 5.5365427 0 0 Z " fill="#8026A1" transform="translate(367,115)"/>
<path d="M0 0 C20.0475 -0.12375 40.095 -0.2475 60.75 -0.375 C70.2492627 -0.45693604 70.2492627 -0.45693604 79.94042969 -0.54052734 C87.66650391 -0.56762695 87.66650391 -0.56762695 91.28204346 -0.57266235 C93.8102654 -0.58188325 96.33846076 -0.60300123 98.86651611 -0.63345337 C102.69370442 -0.67725461 106.51927901 -0.68344039 110.34667969 -0.68115234 C111.47522747 -0.70274099 112.60377525 -0.72432964 113.76652145 -0.74657249 C116.63392826 -0.72356117 119.20721794 -0.649823 122 0 C124.45820618 2.75428772 124.45820618 2.75428772 126 6 C127.3973357 7.57700676 128.83979477 9.11505047 130.32202148 10.61254883 C131.16647324 11.46976028 132.01092499 12.32697174 132.88096619 13.2101593 C133.78520828 14.11662704 134.68945038 15.02309479 135.62109375 15.95703125 C136.56761372 16.90998738 137.5139868 17.86308942 138.46022034 18.81632996 C140.43617408 20.80420577 142.41616367 22.78795887 144.39868164 24.76928711 C146.93528843 27.30568988 149.4578105 29.85562241 151.97708035 32.40923023 C153.92366384 34.37805894 155.87927818 36.33772208 157.83754158 38.2949276 C159.22451271 39.6853958 160.60238229 41.08492352 161.98008728 42.48457336 C162.82769119 43.32602402 163.6752951 44.16747467 164.54858398 45.03442383 C165.28930649 45.77799637 166.03002899 46.52156891 166.79319763 47.28767395 C169.24079876 49.18684319 170.95257794 49.65414678 174 50 C173.01 50.495 173.01 50.495 172 51 C172 92.91 172 134.82 172 178 C173.32 178.33 174.64 178.66 176 179 C178.16112527 180.59949234 178.89880771 181.44887698 179.38768005 184.11141968 C179.39578453 185.33123032 179.39578453 185.33123032 179.40405273 186.57568359 C179.42307899 187.96259903 179.42307899 187.96259903 179.44248962 189.37753296 C179.43955399 190.37443146 179.43661835 191.37132996 179.43359375 192.3984375 C179.4388356 193.4255484 179.44407745 194.4526593 179.44947815 195.51089478 C179.45590429 197.68466284 179.45455373 199.85846565 179.44604492 202.03222656 C179.43754997 205.35545021 179.46626501 208.67694691 179.49804688 212 C179.49965935 214.11197865 179.49908048 216.22396034 179.49609375 218.3359375 C179.50732773 219.32878754 179.51856171 220.32163757 179.53013611 221.34457397 C179.4859918 225.72521531 179.39544059 228.32077016 177.15649414 232.16650391 C175 234 175 234 172 234 C172 247.2 172 260.4 172 274 C126.46 274 80.92 274 34 274 C34 277.63 34 281.26 34 285 C29 284 29 284 25.625 282.375 C18.58116893 279.70320201 11.8896742 282.82928073 5 285 C5 281.37 5 277.74 5 274 C3.61663452 274.03927612 3.61663452 274.03927612 2.20532227 274.0793457 C-1.25577774 274.16517247 -4.71572795 274.22753632 -8.17749023 274.2746582 C-9.668233 274.29961933 -11.1588557 274.33360159 -12.64916992 274.37719727 C-29.16448563 274.84779795 -29.16448563 274.84779795 -36 269 C-42.28122195 262.06263092 -42.51502389 255.08866345 -42.33984375 246.19140625 C-42.06773227 241.07096826 -40.71771942 237.59689354 -37 234 C-25.94904596 224.25641329 -16.55563542 228 0 228 C0 152.76 0 77.52 0 0 Z " fill="#9B80FE" transform="translate(188,116)"/>
<path d="M0 0 C2.34179688 1.34399414 2.34179688 1.34399414 4 4 C4.58916883 7.49955743 4.56016793 10.95413252 4.53125 14.49609375 C4.5350769 15.5217897 4.53890381 16.54748566 4.54284668 17.60426331 C4.54556697 19.7720742 4.53819768 21.93991785 4.52148438 24.10766602 C4.50009914 27.42213374 4.52127167 30.73442834 4.546875 34.04882812 C4.54423132 36.15625478 4.5391055 38.26368008 4.53125 40.37109375 C4.53934692 41.36080673 4.54744385 42.35051971 4.55578613 43.370224 C4.49640427 47.73927322 4.39042182 50.33065381 2.15429688 54.16430664 C0 56 0 56 -3 56 C-3 69.2 -3 82.4 -3 96 C-48.54 96 -94.08 96 -141 96 C-141 99.63 -141 103.26 -141 107 C-146 106 -146 106 -149.375 104.375 C-156.41883107 101.70320201 -163.1103258 104.82928073 -170 107 C-170 103.37 -170 99.74 -170 96 C-171.38336548 96.03927612 -171.38336548 96.03927612 -172.79467773 96.0793457 C-176.25577774 96.16517247 -179.71572795 96.22753632 -183.17749023 96.2746582 C-184.668233 96.29961933 -186.1588557 96.33360159 -187.64916992 96.37719727 C-204.16448563 96.84779795 -204.16448563 96.84779795 -211 91 C-217.28122195 84.06263092 -217.51502389 77.08866345 -217.33984375 68.19140625 C-217.06773227 63.07096826 -215.71771942 59.59689354 -212 56 C-206.48595199 51.13828356 -202.24826509 49.87351842 -194.90032959 49.87974548 C-193.0241394 49.87768349 -193.0241394 49.87768349 -191.11004639 49.87557983 C-189.72668433 49.87911874 -188.34332252 49.88275354 -186.95996094 49.88647461 C-185.50126141 49.88675672 -184.04256175 49.88659827 -182.5838623 49.8860321 C-178.62553529 49.88574508 -174.66723855 49.89162656 -170.70891857 49.89860606 C-166.57159262 49.90485531 -162.43426598 49.90544465 -158.29693604 49.90663147 C-150.46305058 49.90974014 -142.62917908 49.9179473 -134.79529977 49.92798096 C-125.87639434 49.93915648 -116.95748824 49.94465618 -108.03857756 49.94967639 C-89.69237713 49.96013028 -71.34618969 49.97772077 -53 50 C-52.70936298 49.22263646 -52.41872597 48.44527292 -52.11928177 47.64435291 C-50.78905588 44.50163514 -49.12984025 42.72926643 -46.73730469 40.30151367 C-45.85588806 39.40095749 -44.97447144 38.50040131 -44.06634521 37.57255554 C-43.10212967 36.60375459 -42.13729087 35.63557358 -41.171875 34.66796875 C-40.17997535 33.66642242 -39.18829986 32.66465404 -38.19683838 31.66267395 C-36.12075222 29.56866096 -34.03859442 27.48090575 -31.95263672 25.39672852 C-29.28296593 22.72736315 -26.63455923 20.03792567 -23.99097824 17.34275341 C-21.9508602 15.26926337 -19.89723482 13.20956918 -17.83957672 11.1534977 C-16.85715395 10.1675392 -15.87958204 9.17672205 -14.90706635 8.18099022 C-13.54581706 6.79030694 -12.16343978 5.42040025 -10.78027344 4.05151367 C-10.00020935 3.26717453 -9.22014526 2.48283539 -8.41644287 1.67472839 C-5.37940874 -0.43010402 -3.6240827 -0.4291728 0 0 Z " fill="#DDE2EE" transform="translate(363,294)"/>
<path d="M0 0 C0 75.24 0 150.48 0 228 C-8.58 228.33 -17.16 228.66 -26 229 C-34.61594193 232.69254654 -37.85354033 234.72409092 -41.30078125 243.171875 C-41.53152344 243.77515625 -41.76226562 244.3784375 -42 245 C-42.33 245 -42.66 245 -43 245 C-43.11415575 216.12441679 -43.20259614 187.24886027 -43.25532665 158.37309567 C-43.2615799 154.96113242 -43.26805154 151.54916961 -43.2746582 148.13720703 C-43.27596976 147.45796997 -43.27728131 146.7787329 -43.2786326 146.0789129 C-43.30036682 135.09250387 -43.33977729 124.10622616 -43.38576398 113.11989494 C-43.43258405 101.84007507 -43.45993303 90.56032061 -43.47044247 79.28039873 C-43.47695646 72.94745852 -43.49224862 66.61481578 -43.52865028 60.28197098 C-43.56265264 54.3180721 -43.57304414 48.35459253 -43.56553841 42.39060593 C-43.56691103 40.20493031 -43.57681781 38.01924031 -43.59602737 35.83364868 C-43.77626268 14.26448003 -43.77626268 14.26448003 -38 7 C-27.14326749 -3.85673251 -16.16712258 0 0 0 Z " fill="#6649E9" transform="translate(188,116)"/>
<path d="M0 0 C7.59 0 15.18 0 23 0 C23 7.59 23 15.18 23 23 C36.2 23 49.4 23 63 23 C63 30.92 63 38.84 63 47 C50.13 47 37.26 47 24 47 C24 75.05 24 103.1 24 132 C16.08 132 8.16 132 0 132 C0 103.95 0 75.9 0 47 C-12.87 47 -25.74 47 -39 47 C-39 39.08 -39 31.16 -39 23 C-26.13 23 -13.26 23 0 23 C0 15.41 0 7.82 0 0 Z " fill="#FDCD04" transform="translate(262,165)"/>
<path d="M0 0 C2.34179688 1.34399414 2.34179688 1.34399414 4 4 C4.58916883 7.49955743 4.56016793 10.95413252 4.53125 14.49609375 C4.5350769 15.5217897 4.53890381 16.54748566 4.54284668 17.60426331 C4.54556697 19.7720742 4.53819768 21.93991785 4.52148438 24.10766602 C4.50009914 27.42213374 4.52127167 30.73442834 4.546875 34.04882812 C4.54423132 36.15625478 4.5391055 38.26368008 4.53125 40.37109375 C4.53934692 41.36080673 4.54744385 42.35051971 4.55578613 43.370224 C4.49640427 47.73927322 4.39042182 50.33065381 2.15429688 54.16430664 C0 56 0 56 -3 56 C-3 57.65 -3 59.3 -3 61 C-3.9952151 61.00331015 -4.9904302 61.00662029 -6.01580334 61.01003075 C-30.21869177 61.09098337 -54.42151657 61.18328616 -78.62431622 61.28752708 C-90.328551 61.33767351 -102.0327787 61.38411623 -113.73706055 61.421875 C-123.93713337 61.45479045 -134.13715161 61.49461924 -144.33716422 61.54279006 C-149.73922069 61.56805943 -155.14124093 61.58983947 -160.54334068 61.60334396 C-165.62648517 61.61616026 -170.70950543 61.63821014 -175.79258156 61.66738319 C-177.65942162 61.67646232 -179.5262817 61.68214998 -181.3931427 61.68421364 C-183.94014903 61.68753378 -186.48680263 61.70300454 -189.03373718 61.7215271 C-190.14415683 61.718625 -190.14415683 61.718625 -191.27700919 61.71566427 C-195.27806957 61.75922327 -198.43856365 62.12211709 -202 64 C-204.99410235 67.51032689 -205.46555421 70.60484107 -205.296875 75.06640625 C-204.8633361 77.89011354 -203.75180394 79.77655654 -202 82 C-199.15464275 83.42267862 -196.63781448 83.21971869 -193.4609375 83.31640625 C-192.15898437 83.35830078 -190.85703125 83.40019531 -189.515625 83.44335938 C-188.13541955 83.48317299 -186.75521117 83.52288522 -185.375 83.5625 C-183.98696585 83.60569407 -182.59894472 83.64930865 -181.2109375 83.69335938 C-177.80739744 83.79972 -174.40378222 83.90174714 -171 84 C-171 87.96 -171 91.92 -171 96 C-175.24998477 96.12476245 -179.49896494 96.21487534 -183.75024414 96.2746582 C-185.1924906 96.29961056 -186.63461314 96.33358606 -188.07641602 96.37719727 C-196.57053106 96.62745715 -204.14829355 96.80093403 -211 91 C-217.2844289 84.06753417 -217.5149626 77.08555078 -217.33984375 68.19140625 C-217.06773227 63.07096826 -215.71771942 59.59689354 -212 56 C-206.48595199 51.13828356 -202.24826509 49.87351842 -194.90032959 49.87974548 C-193.0241394 49.87768349 -193.0241394 49.87768349 -191.11004639 49.87557983 C-189.72668433 49.87911874 -188.34332252 49.88275354 -186.95996094 49.88647461 C-185.50126141 49.88675672 -184.04256175 49.88659827 -182.5838623 49.8860321 C-178.62553529 49.88574508 -174.66723855 49.89162656 -170.70891857 49.89860606 C-166.57159262 49.90485531 -162.43426598 49.90544465 -158.29693604 49.90663147 C-150.46305058 49.90974014 -142.62917908 49.9179473 -134.79529977 49.92798096 C-125.87639434 49.93915648 -116.95748824 49.94465618 -108.03857756 49.94967639 C-89.69237713 49.96013028 -71.34618969 49.97772077 -53 50 C-52.70936298 49.22263646 -52.41872597 48.44527292 -52.11928177 47.64435291 C-50.78905588 44.50163514 -49.12984025 42.72926643 -46.73730469 40.30151367 C-45.85588806 39.40095749 -44.97447144 38.50040131 -44.06634521 37.57255554 C-43.10212967 36.60375459 -42.13729087 35.63557358 -41.171875 34.66796875 C-40.17997535 33.66642242 -39.18829986 32.66465404 -38.19683838 31.66267395 C-36.12075222 29.56866096 -34.03859442 27.48090575 -31.95263672 25.39672852 C-29.28296593 22.72736315 -26.63455923 20.03792567 -23.99097824 17.34275341 C-21.9508602 15.26926337 -19.89723482 13.20956918 -17.83957672 11.1534977 C-16.85715395 10.1675392 -15.87958204 9.17672205 -14.90706635 8.18099022 C-13.54581706 6.79030694 -12.16343978 5.42040025 -10.78027344 4.05151367 C-10.00020935 3.26717453 -9.22014526 2.48283539 -8.41644287 1.67472839 C-5.37940874 -0.43010402 -3.6240827 -0.4291728 0 0 Z " fill="#EEF1F8" transform="translate(363,294)"/>
<path d="M0 0 C0.92453476 -0.01591187 1.84906952 -0.03182373 2.80162048 -0.04821777 C4.2892263 -0.0485199 4.2892263 -0.0485199 5.80688477 -0.04882812 C6.83258072 -0.05644165 7.85827667 -0.06405518 8.91505432 -0.07189941 C11.08283048 -0.08269795 13.25065865 -0.08555453 15.41845703 -0.08105469 C18.73306131 -0.08008259 22.04534921 -0.12170391 25.35961914 -0.16601562 C27.46703619 -0.17122286 29.57446128 -0.17391081 31.68188477 -0.17382812 C32.67159775 -0.19022339 33.66131073 -0.20661865 34.68101501 -0.22351074 C39.04928602 -0.17969359 41.63846469 0.01728191 45.43798828 2.29272461 C48.17520295 6.86331289 47.99128691 10.8123438 47.90454102 16.04882812 C47.9045813 17.0754808 47.90462158 18.10213348 47.90466309 19.15989685 C47.8993109 21.32597998 47.88174119 23.49206282 47.8527832 25.65795898 C47.81089236 28.97439843 47.81171891 32.28880908 47.81860352 35.60546875 C47.80811204 37.71160266 47.79517417 39.8177261 47.77954102 41.92382812 C47.7793396 42.91556534 47.77913818 43.90730255 47.77893066 44.92909241 C47.7630188 45.85362717 47.74710693 46.77816193 47.73071289 47.73071289 C47.7222937 48.54169937 47.71387451 49.35268585 47.7052002 50.18824768 C47.18605699 53.12570087 46.54851288 54.42143273 44.31079102 56.41992188 C40.27741708 57.02598687 38.16200819 56.97878988 34.72267151 54.72068787 C33.92103073 53.92461624 33.11938995 53.12854462 32.29345703 52.30834961 C31.37303116 51.40998886 30.45260529 50.51162811 29.50428772 49.58604431 C28.52352685 48.59275335 27.54368491 47.59855433 26.56469727 46.60351562 C25.54439053 45.58792792 24.5230469 44.57338096 23.50071716 43.55982971 C21.3653691 41.43478484 19.24315082 39.29763971 17.12939453 37.15112305 C14.42364694 34.40549079 11.68767671 31.69249348 8.94107151 28.98780727 C6.82733514 26.89940987 4.7306097 24.79457011 2.63859367 22.68443489 C1.63623146 21.6774151 0.62867614 20.67553619 -0.38415337 19.67904472 C-1.79895044 18.28209493 -3.18889325 16.86010901 -4.57763672 15.43725586 C-5.37370834 14.63561508 -6.16977997 13.8339743 -6.98997498 13.00804138 C-9.24807699 9.5687047 -9.29527398 7.45329581 -8.68920898 3.41992188 C-6.07805644 0.49619665 -3.82390676 0.03969757 0 0 Z " fill="#FCCA04" transform="translate(319.689208984375,109.580078125)"/>
<path d="M0 0 C2.34179688 1.34399414 2.34179688 1.34399414 4 4 C4.58916883 7.49955743 4.56016793 10.95413252 4.53125 14.49609375 C4.5350769 15.5217897 4.53890381 16.54748566 4.54284668 17.60426331 C4.54556697 19.7720742 4.53819768 21.93991785 4.52148438 24.10766602 C4.50009914 27.42213374 4.52127167 30.73442834 4.546875 34.04882812 C4.54423132 36.15625478 4.5391055 38.26368008 4.53125 40.37109375 C4.53934692 41.36080673 4.54744385 42.35051971 4.55578613 43.370224 C4.50089003 47.40923082 4.26144269 50.39233906 2.65454102 54.12719727 C-1.62213314 57.14442962 -5.89792137 56.6741083 -11.00390625 56.59375 C-12.61615334 56.59381042 -12.61615334 56.59381042 -14.26097107 56.59387207 C-16.53138075 56.58851386 -18.80178976 56.57091848 -21.07202148 56.54199219 C-24.55314587 56.50011253 -28.03233793 56.5009251 -31.51367188 56.5078125 C-33.71876349 56.49732117 -35.9238451 56.48438338 -38.12890625 56.46875 C-39.17268936 56.46854858 -40.21647247 56.46834717 -41.29188538 56.46813965 C-42.25976486 56.45222778 -43.22764435 56.43631592 -44.22485352 56.41992188 C-45.0766066 56.41150269 -45.92835968 56.4030835 -46.80592346 56.39440918 C-49 56 -49 56 -50.79844666 54.91125488 C-52.72572037 51.84563045 -52.43403221 49.53301984 -52 46 C-50.29403687 43.41188049 -50.29403687 43.41188049 -47.87255859 40.98266602 C-46.97097015 40.06224014 -46.06938171 39.14181427 -45.14047241 38.1934967 C-44.14393754 37.21280934 -43.14657189 36.23296558 -42.1484375 35.25390625 C-41.13038227 34.23367366 -40.1134405 33.21232888 -39.0975647 32.18992615 C-36.96816187 30.05472574 -34.82691453 27.93240081 -32.67626953 25.81860352 C-29.92338345 23.11122557 -27.20056235 20.37577793 -24.48575401 17.63028049 C-22.39147922 15.51819276 -20.28289877 13.42087644 -18.16963577 11.32780266 C-17.15988895 10.32456215 -16.15441799 9.31699865 -15.15339279 8.30505562 C-13.75147042 6.8925798 -12.32804175 5.5015486 -10.90380859 4.11157227 C-10.0999472 3.31550064 -9.29608582 2.51942902 -8.46786499 1.69923401 C-5.39823142 -0.41434424 -3.6559329 -0.43895396 0 0 Z " fill="#FCCC03" transform="translate(363,294)"/>
<path d="M0 0 C45.21 0 90.42 0 137 0 C137 3.96 137 7.92 137 12 C91.79 12 46.58 12 0 12 C0 8.04 0 4.08 0 0 Z " fill="#EEF1F8" transform="translate(223,378)"/>
<path d="M0 0 C0.33 0 0.66 0 1 0 C0.98316162 0.82612793 0.96632324 1.65225586 0.94897461 2.50341797 C0.90735941 5.61693181 0.90690188 8.72719176 0.93286133 11.84082031 C0.93740092 13.83155074 0.8959671 15.82221708 0.85351562 17.8125 C0.86962891 19.08867187 0.88574219 20.36484375 0.90234375 21.6796875 C0.89710693 22.84226074 0.89187012 24.00483398 0.88647461 25.20263672 C2.63444687 31.16360155 6.68314617 34.66319469 11 39 C11.97229438 39.99476952 12.94380332 40.99030722 13.91459656 41.98654175 C17.18661783 45.32834377 20.49435144 48.63371826 23.8046875 51.9375 C25.01789665 53.15138445 26.23095747 54.36541718 27.44387817 55.57958984 C29.96519926 58.10237331 32.48829019 60.62336907 35.01269531 63.14306641 C38.24746479 66.3720963 41.47766539 69.60565393 44.70658684 72.8405304 C47.20116871 75.33872095 49.69812117 77.83453108 52.1958046 80.32962036 C53.38865659 81.52180616 54.58076862 82.71473281 55.77212143 83.90841675 C57.4301475 85.56897901 59.09133887 87.22630832 60.75341797 88.8828125 C61.24278336 89.37420212 61.73214874 89.86559174 62.23634338 90.37187195 C64.40806586 92.53010262 66.43871277 94.29247518 69 96 C66.36 97.98 63.72 99.96 61 102 C60.33213974 100.87580406 60.33213974 100.87580406 59.65078735 99.72889709 C53.66955825 89.94325618 46.98242805 80.85957938 39.625 72.0625 C39.03049545 71.35072098 38.43599091 70.63894196 37.82347107 69.90559387 C21.24049661 50.48029801 3.24768171 40.52897813 -22.10663164 38.43156081 C-38.63681782 37.23369701 -55.19312321 37.3311068 -71.75 37.75 C-72.54891883 37.76948023 -73.34783766 37.78896047 -74.17096615 37.80903101 C-95.15141017 38.3315897 -116.07304268 39.41689381 -137 41 C-137 44.63 -137 48.26 -137 52 C-137.66 51.67 -138.32 51.34 -139 51 C-138.67 47.37 -138.34 43.74 -138 40 C-92.46 40 -46.92 40 0 40 C0 26.8 0 13.6 0 0 Z " fill="#852EA5" transform="translate(360,350)"/>
<path d="M0 0 C9.57 0 19.14 0 29 0 C29 11.22 29 22.44 29 34 C24 33 24 33 20.625 31.375 C13.29730921 28.59553108 7.44041664 31.76787501 0 34 C0 22.78 0 11.56 0 0 Z " fill="#9A7FFE" transform="translate(193,367)"/>
<path d="M0 0 C1.04590805 0.00222061 2.0918161 0.00444122 3.16941833 0.00672913 C4.35056717 0.00680466 5.531716 0.00688019 6.74865723 0.00695801 C8.03404892 0.01211929 9.31944061 0.01728058 10.64378357 0.02259827 C12.60601112 0.02472069 12.60601112 0.02472069 14.60787964 0.02688599 C18.09150591 0.03071042 21.57509071 0.04054005 25.05870056 0.05158997 C28.6111444 0.06180569 32.16359491 0.06638395 35.71604919 0.07142639 C42.69067564 0.0821624 49.66527449 0.09923792 56.63987732 0.12025452 C56.63987732 1.77025452 56.63987732 3.42025452 56.63987732 5.12025452 C52.01987732 5.12025452 47.39987732 5.12025452 42.63987732 5.12025452 C42.63987732 13.04025452 42.63987732 20.96025452 42.63987732 29.12025452 C42.30987732 29.12025452 41.97987732 29.12025452 41.63987732 29.12025452 C41.63987732 21.53025452 41.63987732 13.94025452 41.63987732 6.12025452 C32.06987732 6.12025452 22.49987732 6.12025452 12.63987732 6.12025452 C12.63987732 13.71025452 12.63987732 21.30025452 12.63987732 29.12025452 C12.30987732 29.12025452 11.97987732 29.12025452 11.63987732 29.12025452 C11.63987732 21.20025452 11.63987732 13.28025452 11.63987732 5.12025452 C7.01987732 5.12025452 2.39987732 5.12025452 -2.36012268 5.12025452 C-2.69012268 3.80025452 -3.02012268 2.48025452 -3.36012268 1.12025452 C-2.36012268 0.12025452 -2.36012268 0.12025452 0 0 Z " fill="#C9CAE1" transform="translate(180.36012268066406,360.87974548339844)"/>
<path d="M0 0 C1.31419922 -0.01224609 2.62839844 -0.02449219 3.98242188 -0.03710938 C5.23474609 -0.03904297 6.48707031 -0.04097656 7.77734375 -0.04296875 C8.93355225 -0.04707764 10.08976074 -0.05118652 11.28100586 -0.05541992 C14.0625 0.1875 14.0625 0.1875 16.0625 2.1875 C16.28955078 4.98486328 16.28955078 4.98486328 16.2578125 8.5078125 C16.25136719 9.76464844 16.24492187 11.02148438 16.23828125 12.31640625 C16.22152344 13.63511719 16.20476562 14.95382813 16.1875 16.3125 C16.17746983 17.65233721 16.16834404 18.99218152 16.16015625 20.33203125 C16.13652075 23.61736573 16.10357234 26.90234465 16.0625 30.1875 C14.40635343 30.56968767 12.73792976 30.90145102 11.0625 31.1875 C10.0625 30.1875 10.0625 30.1875 9.94897461 27.87084961 C9.95421143 26.87061768 9.95944824 25.87038574 9.96484375 24.83984375 C9.96734131 23.86781006 9.96983887 22.89577637 9.97241211 21.89428711 C9.98151611 20.65042236 9.99062012 19.40655762 10 18.125 C10.020625 14.185625 10.04125 10.24625 10.0625 6.1875 C2.1425 6.1875 -5.7775 6.1875 -13.9375 6.1875 C-14.2675 4.5375 -14.5975 2.8875 -14.9375 1.1875 C-12.18198489 -1.56801511 -3.71775429 0.00181797 0 0 Z " fill="#FFA800" transform="translate(341.9375,118.8125)"/>
<path d="M0 0 C2.125 0.9375 2.125 0.9375 4 2 C4.02465881 5.96930989 4.04284023 9.93859034 4.05493164 13.90795898 C4.05997057 15.25920386 4.06680177 16.61044326 4.07543945 17.96166992 C4.08752419 19.90020434 4.09269828 21.838778 4.09765625 23.77734375 C4.10551147 25.52905884 4.10551147 25.52905884 4.11352539 27.31616211 C4 30 4 30 3 31 C0.85441173 31.08775605 -1.29404421 31.10695219 -3.44140625 31.09765625 C-4.74658203 31.09443359 -6.05175781 31.09121094 -7.39648438 31.08789062 C-8.7851569 31.07953401 -10.17382877 31.07106905 -11.5625 31.0625 C-12.95507656 31.05748666 -14.34765481 31.05292347 -15.74023438 31.04882812 C-19.1601987 31.03699434 -22.58007844 31.0205088 -26 31 C-26.5625 29.0625 -26.5625 29.0625 -27 27 C-26 26 -26 26 -23.68334961 25.88647461 C-22.68311768 25.89171143 -21.68288574 25.89694824 -20.65234375 25.90234375 C-19.68031006 25.90484131 -18.70827637 25.90733887 -17.70678711 25.90991211 C-15.84098999 25.92356812 -15.84098999 25.92356812 -13.9375 25.9375 C-9.998125 25.958125 -6.05875 25.97875 -2 26 C-2 17.75 -2 9.5 -2 1 C-1.34 0.67 -0.68 0.34 0 0 Z " fill="#FFA800" transform="translate(354,310)"/>
<path d="M0 0 C1.56047445 0.00015913 3.12095416 0.00585397 4.68139648 0.01586914 C5.91115456 0.01799156 5.91115456 0.01799156 7.16575623 0.02015686 C9.79470406 0.0257725 12.42356797 0.0383276 15.05249023 0.05102539 C16.8304838 0.05603838 18.60847869 0.06060163 20.38647461 0.06469727 C24.75434569 0.07574701 29.12215371 0.09302208 33.48999023 0.11352539 C33.87217791 1.76967196 34.20394125 3.43809563 34.48999023 5.11352539 C33.48999023 6.11352539 33.48999023 6.11352539 29.97998047 6.22705078 C28.41950602 6.22689165 26.85902631 6.22119681 25.29858398 6.21118164 C24.47874527 6.20976669 23.65890656 6.20835175 22.81422424 6.20689392 C20.18527641 6.20127828 17.5564125 6.18872318 14.92749023 6.17602539 C13.14949667 6.1710124 11.37150177 6.16644915 9.59350586 6.16235352 C5.22563478 6.15130378 0.85782676 6.1340287 -3.51000977 6.11352539 C-3.89219744 4.45737882 -4.22396078 2.78895515 -4.51000977 1.11352539 C-3.51000977 0.11352539 -3.51000977 0.11352539 0 0 Z " fill="#CCD1DC" transform="translate(286.510009765625,363.886474609375)"/>
</svg>
