<?xml version="1.0" encoding="UTF-8"?>
<svg width="200" height="200" viewBox="0 0 200 200" xmlns="http://www.w3.org/2000/svg">
  <!-- Light bulb outline -->
  <path d="M 100 30 C 120 30 140 50 140 80 C 140 95 135 105 125 115 L 125 140 L 75 140 L 75 115 C 65 105 60 95 60 80 C 60 50 80 30 100 30 Z" 
        fill="#6B46C1" stroke="#4F46E5" stroke-width="2"/>
  
  <!-- Light rays -->
  <line x1="100" y1="15" x2="100" y2="25" stroke="#D4AF37" stroke-width="3" stroke-linecap="round"/>
  <line x1="130" y1="25" x2="125" y2="30" stroke="#D4AF37" stroke-width="3" stroke-linecap="round"/>
  <line x1="145" y1="45" x2="135" y2="50" stroke="#D4AF37" stroke-width="3" stroke-linecap="round"/>
  <line x1="150" y1="80" x2="140" y2="80" stroke="#D4AF37" stroke-width="3" stroke-linecap="round"/>
  <line x1="145" y1="115" x2="135" y2="110" stroke="#D4AF37" stroke-width="3" stroke-linecap="round"/>
  <line x1="70" y1="25" x2="75" y2="30" stroke="#D4AF37" stroke-width="3" stroke-linecap="round"/>
  <line x1="55" y1="45" x2="65" y2="50" stroke="#D4AF37" stroke-width="3" stroke-linecap="round"/>
  <line x1="50" y1="80" x2="60" y2="80" stroke="#D4AF37" stroke-width="3" stroke-linecap="round"/>
  <line x1="55" y1="115" x2="65" y2="110" stroke="#D4AF37" stroke-width="3" stroke-linecap="round"/>
  
  <!-- Bulb filament -->
  <path d="M 80 55 Q 100 45 120 55 Q 100 65 80 55" stroke="#FFFFFF" stroke-width="2" fill="none"/>
  <path d="M 85 75 Q 100 85 115 75" stroke="#FFFFFF" stroke-width="2" fill="none"/>
  
  <!-- Base -->
  <rect x="80" y="140" width="40" height="20" rx="4" fill="#4F46E5"/>
  <rect x="85" y="160" width="30" height="15" rx="2" fill="#6B46C1"/>
  
  <!-- Scripture scroll -->
  <rect x="120" y="120" width="60" height="50" rx="4" fill="#FFFFFF" stroke="#6B46C1" stroke-width="2"/>
  <line x1="130" y1="135" x2="170" y2="135" stroke="#6B46C1" stroke-width="1"/>
  <line x1="130" y1="145" x2="165" y2="145" stroke="#6B46C1" stroke-width="1"/>
  <line x1="130" y1="155" x2="170" y2="155" stroke="#6B46C1" stroke-width="1"/>
</svg>