<?xml version="1.0" encoding="utf-8"?>
<!-- Generator: Adobe Illustrator 27.5.0, SVG Export Plug-In . SVG Version: 6.00 Build 0)  -->
<svg version="1.1" xmlns="http://www.w3.org/2000/svg" xmlns:xlink="http://www.w3.org/1999/xlink" x="0px" y="0px"
	 viewBox="0 0 3710 3710" style="enable-background:new 0 0 3710 3710;" xml:space="preserve">

<g id="Illustration">
	<g>
		<path style="fill:#F4F7FA;" d="M1620.999,3133.248C918.503,3026.86,347.604,2362.665,451.324,1624.428
			c88.484-629.599,640.474-1119.563,1302.417-1165.831c47.931-3.359,96.415-4.398,145.349-2.978
			c369.274,10.666,697.372,158.37,940.034,381.88c241.52,222.437,398.434,519.956,427.004,832.088
			C3342.213,2500.048,2494.75,3265.574,1620.999,3133.248z"/>
		<g>
			<g>
				<linearGradient id="SVGID_1_" gradientUnits="userSpaceOnUse" x1="1086.6237" y1="1708.4725" x2="1146.9552" y2="648.3526">
					<stop  offset="0" style="stop-color:#FFC444"/>
					<stop  offset="0.9964" style="stop-color:#F36F56"/>
				</linearGradient>
				<polygon style="fill:url(#SVGID_1_);" points="1133.141,627.374 1167.598,563.25 1187.971,633.137 1235.007,577.579 
					1240.405,650.174 1297.964,605.609 1288.15,677.74 1353.718,646.116 1329.121,714.63 1399.831,697.33 1361.527,759.233 
					1434.289,757.012 1383.952,809.599 1455.585,822.554 1395.414,863.526 1462.788,891.092 1395.414,918.658 1455.585,959.629 
					1383.952,972.585 1434.289,1025.172 1361.527,1022.951 1399.831,1084.854 1329.121,1067.553 1353.718,1136.068 
					1288.15,1104.444 1297.964,1176.575 1240.405,1132.01 1235.007,1204.605 1187.971,1149.047 1167.598,1218.933 1133.141,1154.81 
					1098.683,1218.933 1078.311,1149.047 1031.274,1204.605 1025.877,1132.01 968.317,1176.575 978.131,1104.444 912.564,1136.068 
					937.16,1067.553 866.451,1084.854 904.755,1022.951 831.993,1025.172 882.33,972.585 810.697,959.629 870.868,918.658 
					803.494,891.092 870.868,863.526 810.697,822.554 882.33,809.599 831.993,757.012 904.755,759.233 866.451,697.33 
					937.16,714.63 912.564,646.116 978.131,677.74 968.317,605.609 1025.877,650.174 1031.274,577.579 1078.311,633.137 
					1098.683,563.25 				"/>
				
					<linearGradient id="SVGID_00000034797989617774285330000006856383770488750736_" gradientUnits="userSpaceOnUse" x1="1105.1626" y1="1645.5443" x2="1160.9182" y2="665.8303" gradientTransform="matrix(1 0.0056 -0.0056 1 -10.0259 -5.4965)">
					<stop  offset="0" style="stop-color:#FFC444"/>
					<stop  offset="0.9964" style="stop-color:#F36F56"/>
				</linearGradient>
				<polygon style="fill:url(#SVGID_00000034797989617774285330000006856383770488750736_);" points="1371.884,941.242 
					1436.487,922.241 1377.094,890.508 1436.335,858.491 1371.641,839.8 1422.931,796.166 1355.766,791.334 1396.863,737.99 
					1330.16,747.228 1359.268,686.505 1295.943,709.409 1311.79,643.961 1254.612,679.531 1256.505,612.218 1207.971,658.899 
					1195.828,592.663 1158.06,648.415 1132.411,586.151 1107.06,648.537 1069.026,592.967 1057.201,659.26 1008.444,612.812 
					1010.659,680.115 953.311,644.819 969.471,710.19 906.038,687.589 935.436,748.172 868.69,739.253 910.042,792.401 
					842.9,797.554 894.398,840.942 829.795,859.942 889.189,891.675 829.947,923.692 894.641,942.383 843.351,986.018 
					910.517,990.849 869.42,1044.194 936.123,1034.956 907.015,1095.679 970.339,1072.775 954.492,1138.223 1011.67,1102.653 
					1009.777,1169.966 1058.31,1123.285 1070.454,1189.52 1108.221,1133.769 1133.87,1196.032 1159.221,1133.647 1197.255,1189.217 
					1209.082,1122.924 1257.838,1169.372 1255.623,1102.069 1312.971,1137.365 1296.811,1071.993 1360.244,1094.595 
					1330.845,1034.011 1397.592,1042.93 1356.24,989.783 1423.382,984.63 				"/>
			</g>
			<g>
				
					<linearGradient id="SVGID_00000063598285114163328160000003492078575671688626_" gradientUnits="userSpaceOnUse" x1="1308.7319" y1="460.0879" x2="929.4681" y2="1391.0103">
					<stop  offset="0" style="stop-color:#FCB148"/>
					<stop  offset="0.0521" style="stop-color:#FDBA46"/>
					<stop  offset="0.1424" style="stop-color:#FFC244"/>
					<stop  offset="0.3183" style="stop-color:#FFC444"/>
					<stop  offset="0.4849" style="stop-color:#FDB946"/>
					<stop  offset="0.7754" style="stop-color:#F99C4D"/>
					<stop  offset="0.8658" style="stop-color:#F8924F"/>
					<stop  offset="1" style="stop-color:#F8924F"/>
				</linearGradient>
				<path style="fill:url(#SVGID_00000063598285114163328160000003492078575671688626_);" d="M1396.002,891.092
					c0,134.483-101.013,245.393-231.302,260.979c-10.342,1.25-20.872,1.882-31.559,1.882c-145.17,0-262.861-117.691-262.861-262.861
					c0-66.121,24.406-126.539,64.714-172.722c48.193-55.233,119.098-90.139,198.147-90.139
					C1278.311,628.231,1396.002,745.922,1396.002,891.092z"/>
				
					<linearGradient id="SVGID_00000182529494437528137200000005695227283713143209_" gradientUnits="userSpaceOnUse" x1="870.2797" y1="936.1613" x2="1260.9156" y2="936.1613">
					<stop  offset="0" style="stop-color:#FCB148"/>
					<stop  offset="0.0521" style="stop-color:#FDBA46"/>
					<stop  offset="0.1424" style="stop-color:#FFC244"/>
					<stop  offset="0.3183" style="stop-color:#FFC444"/>
					<stop  offset="0.4849" style="stop-color:#FDB946"/>
					<stop  offset="0.7754" style="stop-color:#F99C4D"/>
					<stop  offset="0.8658" style="stop-color:#F8924F"/>
					<stop  offset="1" style="stop-color:#F8924F"/>
				</linearGradient>
				<path style="opacity:0.2;fill:url(#SVGID_00000182529494437528137200000005695227283713143209_);" d="M1253.761,1046.102
					c-13.301,37.061-44.559,73.49-89.061,105.969c-10.342,1.25-20.872,1.882-31.559,1.882
					c-145.17,0-262.861-117.691-262.861-262.861c0-66.121,24.406-126.539,64.714-172.722c2.083,19.134,11.894,40.451,35.653,62.357
					c24.305,22.366,63.22,45.364,123.437,67.198C1237.788,900.055,1279.532,974.235,1253.761,1046.102z"/>
				<circle style="opacity:0.3;fill:#FFFFFF;" cx="1133.141" cy="891.092" r="196.404"/>
			</g>
		</g>
		<g>
			
				<linearGradient id="SVGID_00000109013602576428992760000011618130718808763065_" gradientUnits="userSpaceOnUse" x1="2968.7419" y1="1428.6676" x2="1955.3325" y2="2643.9812">
				<stop  offset="0" style="stop-color:#AA80F9"/>
				<stop  offset="0.9964" style="stop-color:#6165D7"/>
			</linearGradient>
			<path style="fill:url(#SVGID_00000109013602576428992760000011618130718808763065_);" d="M2867.953,1294.821
				c-31.404,27.993-58.965,38.73-82.24,41.371c-98.581,11.186-139.001-123.9-241.618-105.118
				c-111.578,20.422-135.391,193.214-225.628,186.445c-57.402-4.306-70.635-74.516-136.905-97.422
				c-28.525-9.859-57.917-7.768-87.261,3.006c-173.098,234.177-252.246,370.311-292.214,452.639
				c-12.583,25.919-28.591,61.56-58.984,119.232c-87.276,165.607-118.875,178.649-112.193,210.976
				c20.648,99.91,350.518,121.45,605.369,76.326c139.209-24.649,216.425-38.321,303.448-100.984
				c132.558-95.452,168.416-218.562,266.391-218.559c73.241,0.002,126.63,70.151,152.535,99.607
				c161.418,183.558,85.987,511.494,99.239,512.152c16.22,0.806,53.722-232.561,42.505-516.102
				c-10.578-267.402-56.762-384.148-82.068-439.429C2970.911,1415.366,2911.665,1341.572,2867.953,1294.821z"/>
			
				<linearGradient id="SVGID_00000015319789267663175980000010965062797939287683_" gradientUnits="userSpaceOnUse" x1="2749.2148" y1="816.0977" x2="2523.8892" y2="1217.4595">
				<stop  offset="0" style="stop-color:#FFFFFF"/>
				<stop  offset="0.9964" style="stop-color:#EBEFF2"/>
			</linearGradient>
			<path style="fill:url(#SVGID_00000015319789267663175980000010965062797939287683_);" d="M2181.562,1320.097
				c66.269,22.906,79.504,93.117,136.906,97.422c90.237,6.769,114.051-166.023,225.628-186.445
				c102.617-18.782,143.036,116.304,241.618,105.118c23.274-2.641,50.836-13.378,82.239-41.371
				c-69.488-134.421-154.948-298.781-250.078-495.136c-13.437-27.734-44.904-92.924-97.041-102.698
				c-97.238-18.227-187.339,166.228-227.98,248.118c-75.573,152.278-141.955,276.124-198.552,377.999
				C2123.646,1312.328,2153.038,1310.238,2181.562,1320.097z"/>
			
				<linearGradient id="SVGID_00000040576979187758621000000003141766463505125030_" gradientUnits="userSpaceOnUse" x1="2763.7729" y1="897.8232" x2="1962.9431" y2="2324.3015">
				<stop  offset="0" style="stop-color:#AA80F9"/>
				<stop  offset="0.9964" style="stop-color:#6165D7"/>
			</linearGradient>
			<path style="opacity:0.3;fill:url(#SVGID_00000040576979187758621000000003141766463505125030_);" d="M2418.835,1800.285
				c-62.484-127.045,44.106-254.091,80.862-377.166c18.378-59.553,18.378-127.045-11.027-178.658
				c-91.357-164.467-129.728-369.812-39.864-523.462c-69.067,47.157-128.144,167.836-158.909,229.789
				c-75.567,152.296-141.949,276.125-198.55,378c-173.082,234.2-252.215,370.337-292.206,452.639
				c-12.57,25.925-28.595,61.577-58.992,119.224c-87.258,165.635-118.868,178.657-112.177,210.974
				c20.657,99.929,350.498,121.448,605.36,76.347c139.229-24.655,216.415-38.312,303.45-101.001
				c21.422-15.421,40.287-31.565,57.326-47.795C2522.686,1972.611,2463.3,1891.289,2418.835,1800.285z"/>
		</g>
		<g>
			
				<linearGradient id="SVGID_00000181807495666362790860000002600944691449663385_" gradientUnits="userSpaceOnUse" x1="2162.5325" y1="1653.5693" x2="1205.0103" y2="2801.8611">
				<stop  offset="0" style="stop-color:#AA80F9"/>
				<stop  offset="0.9964" style="stop-color:#6165D7"/>
			</linearGradient>
			<path style="fill:url(#SVGID_00000181807495666362790860000002600944691449663385_);" d="M2203.405,1640.595
				c-30.941,25.092-58.096,34.717-81.029,37.084c-97.129,10.027-136.954-111.06-238.059-94.224
				c-109.935,18.306-133.398,173.191-222.306,167.124c-56.556-3.859-69.595-66.794-134.888-87.326
				c-28.105-8.837-57.064-6.963-85.976,2.694c-170.549,209.909-248.531,331.935-287.91,405.732
				c-12.397,23.233-28.17,55.181-58.116,106.875c-85.991,148.445-117.124,160.136-110.541,189.112
				c20.344,89.556,345.356,108.864,596.454,68.416c137.159-22.094,213.238-34.35,298.979-90.519
				c130.606-85.56,165.936-195.912,262.469-195.909c72.163,0.002,124.765,62.881,150.288,89.285
				c159.041,164.536,83.731-347.879,58.798-397.432C2304.846,1748.649,2246.473,1682.502,2203.405,1640.595z"/>
			
				<linearGradient id="SVGID_00000085211071330722635160000013810430941851910280_" gradientUnits="userSpaceOnUse" x1="2069.8911" y1="1212.2045" x2="1862.0712" y2="1582.384">
				<stop  offset="0" style="stop-color:#FFFFFF"/>
				<stop  offset="0.9964" style="stop-color:#EBEFF2"/>
			</linearGradient>
			<path style="fill:url(#SVGID_00000085211071330722635160000013810430941851910280_);" d="M1527.122,1663.252
				c65.293,20.532,78.333,83.467,134.89,87.326c88.908,6.067,112.371-148.818,222.306-167.123
				c101.106-16.836,140.93,104.251,238.06,94.224c22.931-2.367,50.088-11.991,81.028-37.084
				c-68.464-120.49-152.667-267.818-246.395-443.825c-13.239-24.86-44.242-83.294-95.612-92.056
				c-95.806-16.338-184.58,149.002-224.623,222.405c-74.459,136.497-139.864,247.509-195.628,338.826
				C1470.059,1656.288,1499.018,1654.414,1527.122,1663.252z"/>
			
				<linearGradient id="SVGID_00000093143656865794014600000013563396811929375167_" gradientUnits="userSpaceOnUse" x1="2051.957" y1="1273.062" x2="1317.4908" y2="2581.3303">
				<stop  offset="0" style="stop-color:#AA80F9"/>
				<stop  offset="0.9964" style="stop-color:#6165D7"/>
			</linearGradient>
			<path style="opacity:0.3;fill:url(#SVGID_00000093143656865794014600000013563396811929375167_);" d="M1760.9,2093.677
				c-61.564-113.88,43.457-227.759,79.671-338.08c18.107-53.381,18.107-113.88-10.864-160.143
				c-90.012-147.423-127.817-331.488-39.277-469.215c-68.05,42.27-126.257,150.443-156.569,205.975
				c-74.454,136.513-139.859,247.51-195.626,338.827c-170.533,209.93-248.501,331.959-287.903,405.731
				c-12.385,23.239-28.174,55.196-58.123,106.869c-85.973,148.47-117.117,160.143-110.525,189.111
				c20.353,89.573,345.336,108.862,596.445,68.435c137.178-22.1,213.228-34.342,298.981-90.534
				c21.106-13.823,39.694-28.294,56.482-42.842C1863.223,2248.145,1804.711,2175.251,1760.9,2093.677z"/>
		</g>
		<g>
			<g style="opacity:0.6;">
				<defs>
					<path id="SVGID_00000052078723993500486310000010036351649344276881_" style="opacity:0.6;" d="M1384.19,2684.847
						c55.907-54.218,48.954-172.241,21.356-247.859c-32.223-88.286-79.654-83.335-99.371-153.947
						c-36.71-131.468,112.658-202.541,86.151-338.057c-21.669-110.783-129.716-105.322-148.129-229.098
						c-13.288-89.314,36.585-135.087-0.601-209.016c-3.179-6.32-38.439-73.987-102.061-81.136
						c-64.214-7.215-119.765,51.44-144.862,95.612c-46.392,81.651,4.346,125.996-15.13,242.97
						c-26.517,159.256-136.261,171.327-131.547,292.627c3.891,100.166,79.623,115.038,81.732,226.185
						c1.958,103.21-62.632,127.891-54.661,197.2C895.403,2639.774,1270.155,2795.436,1384.19,2684.847z"/>
				</defs>
				
					<linearGradient id="SVGID_00000072999812509877376320000011435911379504631733_" gradientUnits="userSpaceOnUse" x1="1254.4226" y1="1962.614" x2="1555.235" y2="1256.4954">
					<stop  offset="0.0036" style="stop-color:#E38DDD"/>
					<stop  offset="1" style="stop-color:#9571F6"/>
				</linearGradient>
				
					<use xlink:href="#SVGID_00000052078723993500486310000010036351649344276881_"  style="overflow:visible;fill:url(#SVGID_00000072999812509877376320000011435911379504631733_);"/>
				<clipPath id="SVGID_00000129187364031226479910000017028814274934407846_">
					<use xlink:href="#SVGID_00000052078723993500486310000010036351649344276881_"  style="overflow:visible;"/>
				</clipPath>
				<g style="clip-path:url(#SVGID_00000129187364031226479910000017028814274934407846_);">
					<g>
						<path style="fill:#FFFFFF;" d="M1304.862,2773.445c-0.264,0-0.532-0.049-0.79-0.151
							c-64.418-25.421-120.689-63.203-167.25-112.296c-44.166-46.564-89.839-94.714-97.399-162.686
							c-5.752-51.711,13.854-82.886,38.672-122.355c23.666-37.639,53.122-84.482,66.297-164.768
							c7.519-45.832,16.876-102.863-7.045-165.644c-13.882-36.441-31.969-55.461-47.924-72.242
							c-16.704-17.567-31.131-32.739-33.449-62.272c-3.714-47.318,16.586-81.089,40.093-120.193
							c14.258-23.719,29-48.247,40.497-78.904c32.322-86.187,16.828-192.979-46.051-317.407c-0.538-1.061-0.112-2.356,0.949-2.892
							c1.057-0.533,2.354-0.113,2.892,0.95c63.446,125.547,79.004,233.501,46.242,320.861
							c-11.637,31.026-26.481,55.724-40.841,79.61c-23.124,38.47-43.093,71.693-39.488,117.638
							c2.201,28.01,15.471,41.969,32.277,59.642c16.236,17.075,34.637,36.428,48.828,73.677
							c24.331,63.866,14.87,121.533,7.268,167.869c-13.315,81.149-43.026,128.4-66.902,166.368
							c-24.37,38.758-43.621,69.371-38.035,119.587c7.401,66.535,52.564,114.151,96.24,160.199
							c46.128,48.634,101.88,86.065,165.709,111.254c1.105,0.436,1.65,1.687,1.213,2.793
							C1306.531,2772.928,1305.719,2773.445,1304.862,2773.445z"/>
					</g>
					<g>
						<path style="fill:#FFFFFF;" d="M1148.666,2077.562c-0.481,0-0.965-0.16-1.363-0.488c-0.92-0.754-1.054-2.11-0.302-3.03
							c164.549-200.865,142.167-350.9,141.922-352.392c-0.191-1.173,0.602-2.28,1.774-2.474c1.137-0.19,2.28,0.598,2.475,1.772
							c0.248,1.51,23.057,153.312-142.839,355.823C1149.905,2077.293,1149.287,2077.562,1148.666,2077.562z"/>
					</g>
					<g>
						<path style="fill:#FFFFFF;" d="M1130.793,2278.232c-0.37,0-0.742-0.095-1.086-0.295
							c-142.587-83.509-193.709-193.587-211.486-271.226c-19.268-84.151-4.567-149.485-4.414-150.135
							c0.268-1.159,1.436-1.878,2.583-1.61c1.156,0.268,1.879,1.424,1.612,2.582c-0.15,0.642-14.64,65.173,4.462,148.398
							c17.615,76.75,68.246,185.595,209.422,268.276c1.026,0.601,1.37,1.919,0.768,2.945
							C1132.252,2277.851,1131.532,2278.232,1130.793,2278.232z"/>
					</g>
					<g>
						<path style="fill:#FFFFFF;" d="M1092.828,2610.005c-0.806,0-1.58-0.457-1.946-1.235c-0.51-1.075-0.048-2.358,1.029-2.865
							c140.645-66.316,204.292-156.483,232.919-220.446c30.969-69.198,28.739-123.3,28.714-123.839
							c-0.057-1.188,0.857-2.197,2.045-2.254c1.143-0.051,2.201,0.858,2.255,2.046c0.029,0.549,2.302,55.679-29.083,125.806
							c-28.924,64.627-93.176,155.703-235.015,222.582C1093.449,2609.938,1093.137,2610.005,1092.828,2610.005z"/>
					</g>
					<g>
						<path style="fill:#FFFFFF;" d="M1143.268,1701.171c-0.471,0-0.943-0.152-1.338-0.467
							c-98.603-78.22-124.367-172.565-128.622-237.936c-4.605-70.804,14.389-123.883,14.58-124.411
							c0.405-1.118,1.637-1.691,2.758-1.286c1.118,0.407,1.694,1.642,1.287,2.759c-0.188,0.521-18.901,52.893-14.315,122.835
							c4.226,64.45,29.688,157.479,126.989,234.667c0.933,0.739,1.089,2.093,0.35,3.024
							C1144.529,1700.892,1143.902,1701.171,1143.268,1701.171z"/>
					</g>
				</g>
			</g>
		</g>
		<g>
			<g>
				<defs>
					<path id="SVGID_00000056424917126387991190000011498957051618174903_" d="M541.832,2443.198
						c-112.828-148.576,27.565-253.679,130.474-359.181c51.406-52.701,63.656-112.473,57.14-179.61
						c-5.139-52.96-49.947-134.674-22.001-186.015c75.771-138.91,194.065,130.993,203.692,179.702
						c18.27,92.444,7.766,192.444,48.682,280.81c47.995,103.615,107.866,145.461,62.73,263.522
						c-35.951,94.034-64.502,188.653-19.813,284.345c65.708,140.697,119.021,249.859-63.556,323.02
						c-78.839,31.592-276.446,106.473-340.195,7.637c-51.392-79.678,29.063-243.434,38.438-327.262
						c13.19-117.943-14.743-187.946-90.597-280.635C545.111,2447.436,543.448,2445.327,541.832,2443.198z"/>
				</defs>
				
					<linearGradient id="SVGID_00000013171793443689963990000008786484316648817566_" gradientUnits="userSpaceOnUse" x1="1142.8397" y1="2025.8817" x2="307.6037" y2="3027.5239">
					<stop  offset="0" style="stop-color:#FF9085"/>
					<stop  offset="1" style="stop-color:#FB6FBB"/>
				</linearGradient>
				
					<use xlink:href="#SVGID_00000056424917126387991190000011498957051618174903_"  style="overflow:visible;fill:url(#SVGID_00000013171793443689963990000008786484316648817566_);"/>
				<clipPath id="SVGID_00000042014545657204969850000017982657706622954408_">
					<use xlink:href="#SVGID_00000056424917126387991190000011498957051618174903_"  style="overflow:visible;"/>
				</clipPath>
				<g style="opacity:0.6;clip-path:url(#SVGID_00000042014545657204969850000017982657706622954408_);">
					<g>
						<path style="fill:#FFFFFF;" d="M839.706,2964.995l-3.134-0.9c32.3-112.5-9.879-338.169-86.791-464.358
							c-70.364-115.447-0.736-396.36,36.669-547.276c3.217-12.978,6.188-24.955,8.793-35.734
							c32.077-132.624-53.271-267.429-54.138-268.776l2.745-1.764c0.873,1.358,86.966,137.342,54.564,271.307
							c-2.608,10.785-5.58,22.769-8.799,35.753c-37.29,150.454-106.705,430.508-37.051,544.793
							C829.861,2624.857,872.209,2851.789,839.706,2964.995z"/>
					</g>
					<g>
						<path style="fill:#FFFFFF;" d="M752.507,2101.094c-13.309,0-52.016-89.353-82.201-164.543l3.026-1.171
							c64.052,159.549,77.915,162.725,79.163,162.608l2.987,0.982c-0.226,0.776-1.08,2.123-2.831,2.123
							C752.603,2101.094,752.555,2101.094,752.507,2101.094z"/>
					</g>
					<g>
						<path style="fill:#FFFFFF;" d="M735.768,2463.191l-1.822-2.704c2.51-1.694,251.111-171.102,260.732-321.752l3.255,0.209
							C988.21,2291.188,738.294,2461.489,735.768,2463.191z"/>
					</g>
					<g>
						<path style="fill:#FFFFFF;" d="M815.275,2653.666c-2.115-0.175-212.279-19.305-293.286-174.84l2.892-1.506
							c80.17,153.923,288.567,172.923,290.662,173.096L815.275,2653.666z"/>
					</g>
				</g>
			</g>
		</g>
		<path style="fill:#D8DEE8;" d="M3098.816,2766.572c6.99-19.661,12.73-40.751,17.17-63.268
			c41.884-212.408,74.058-434.191,67.429-651.167c-3.998-130.854-6.688-335.466-118.942-426.499
			c-48.768-39.549-137.877-56.854-199.348-43.792c-531.878,113.02-374.453,344.6-805.803,437.19
			c-431.35,92.59-634.313,140.522-816.888,394.89c-74.232,103.417-204.702,148.758-321.866,184.608
			c-113.141,34.618-256.094,43.362-337.286,141.526c-66.716,80.663-53.963,209.169-6.942,297.527
			c85.861,161.343,241.136,179.276,406.136,144.446c356.011-75.151,681.511-308.593,1048.133-325.37
			c249.033-11.396,477.223,90.166,721.481,110.182C2923.982,2980.929,3046.466,2913.82,3098.816,2766.572z"/>
		<g>
			<g>
				
					<linearGradient id="SVGID_00000146487871828788542980000010402848160147272622_" gradientUnits="userSpaceOnUse" x1="-1203.0157" y1="3099.4272" x2="-1237.3721" y2="2787.0969" gradientTransform="matrix(-0.9986 0.0527 0.0527 0.9986 1370.7856 28.5205)">
					<stop  offset="0" style="stop-color:#AA80F9"/>
					<stop  offset="0.9964" style="stop-color:#6165D7"/>
				</linearGradient>
				<path style="fill:url(#SVGID_00000146487871828788542980000010402848160147272622_);" d="M2771.335,3040.176
					c116.044,6.651,150.539,13.605,205.224-5.03c51.385-17.511,104.094-51.992,99.465-67.822
					c-3.321-11.355-35.581-11.204-54.849-11.113c-51.708,0.241-94.35,16.08-124.27,31.388
					c25.805-17.513,51.611-35.025,77.416-52.537c18.019-6.448,48.509-20.127,75.518-49.032
					c16.91-18.096,55.766-67.108,41.161-90.657c-15.255-24.6-87.73-19.632-129.506,15.256
					c-20.045,16.74-20.072,29.553-46.939,58.779c-24.419,26.562-49.627,43.422-67.338,53.599
					c16.595-20.745,39.167-53.152,56.714-96.826c26.663-66.362,46.79-171.347,12.878-190.431
					c-22.495-12.659-67.097,13.425-89.405,44.341c-18.087,25.065-16.314,46.088-28.76,126.63
					c-5.411,35.015-10.717,63.212-14.163,80.706c-34.513-75.704-44.525-139.395-46.546-186.205
					c-2.598-60.15,7.355-107.279-15.65-119.816c-20.505-11.174-57.121,10.627-75.692,31.084
					c-75.166,82.799,24.008,277.116,34.491,297.168c-27.58-20.886-65.589-53.564-102.401-100.797
					c-39.365-50.51-55.989-88.107-76.001-84.741c-19.905,3.348-33.022,45.722-31.529,78.514
					c4.163,91.421,123.559,145.107,136.302,150.642c-10.044,1.617-27.072,3.317-47.148-0.516
					c-44.517-8.497-58.402-35.483-103.566-44.644c-17.273-3.504-52.592-7.133-56.944,3.562
					c-7.813,19.197,81.395,91.291,189.635,118.781C2629.106,3040.533,2619.62,3031.482,2771.335,3040.176z"/>
				<path style="opacity:0.28;fill:#FFFFFF;" d="M2847.927,2974.038c52.832-23.487,45.652-55.426,103.45-94.976
					c37.013-25.326,45.612-16.096,85.275-40.309c21.816-13.316,39.649-28.587,54.125-43.691c0.069,0.106,0.156,0.202,0.222,0.31
					c14.605,23.549-24.251,72.561-41.161,90.657c-27.009,28.905-57.499,42.584-75.518,49.032
					c-25.805,17.512-51.611,35.024-77.416,52.537c29.92-15.308,72.562-31.147,124.27-31.388c16.797-0.079,43.462-0.201,52.227,7.291
					c-15.528,9.628-29.499,14.261-40.867,16.581c-25.922,5.289-42.184-0.628-64.609,12.89c-17.99,10.844-16.49,20.057-32.329,25.928
					c-14.907,5.526-22.521-0.305-59.307-6.345c-35.781-5.875-53.968-8.627-68.426,0.455c-10.927,6.865-16.731,18.188-19.932,28.148
					c-3.708-0.226-7.5-0.455-11.392-0.682c2.877-11.436,8.164-24.545,18.224-36.251
					C2810.709,2985.666,2828.161,2982.825,2847.927,2974.038z"/>
				<path style="opacity:0.28;fill:#FFFFFF;" d="M2697.375,3014.635c-8.348-1.998-12.338,3.971-23.931,5.477
					c-21.544,2.798-29.619-14.979-54.945-23.425c-29.974-9.997-37.575,8.598-67.43-0.65c-23.633-7.322-20.588-19.506-51.464-37.299
					c-32.856-18.933-46.77-11.166-70.918-26.793c-7.761-5.023-16.617-12.497-25.05-24.126c10.617-5.755,38.396-2.687,53.103,0.296
					c45.164,9.161,59.049,36.147,103.566,44.644c20.076,3.833,37.104,2.134,47.148,0.516
					c-12.743-5.535-132.139-59.221-136.302-150.642c-1.385-30.418,9.806-69.059,27.32-77.17
					c-2.082,21.118-2.373,39.169-2.052,53.369c0.748,33.036,1.335,49.834,11.785,63.615c18.131,23.91,40.231,11.447,70.367,36.3
					c27.435,22.626,17.875,40.175,46.495,62.834c24.698,19.555,39.334,12.434,62.572,28.287
					c14.58,9.946,32.286,28.783,42.923,68.203c-4.843-0.22-9.482-0.419-13.894-0.597
					C2712.467,3026.292,2706.374,3016.788,2697.375,3014.635z"/>
				<path style="opacity:0.28;fill:#FFFFFF;" d="M2723.441,2890.049c-14.459-39.382-39.561-35.334-50.034-70.019
					c-10.412-34.479,12.365-45.195,6.559-95.123c-4.349-37.404-18.473-42.912-19.412-68.478
					c-0.693-18.847,5.952-44.525,36.673-76.356c9.316-2.448,18.112-2.455,25.057,1.33c23.005,12.537,13.052,59.666,15.65,119.816
					c2.021,46.81,12.033,110.501,46.546,186.205c3.446-17.494,8.752-45.691,14.163-80.706
					c12.446-80.542,10.672-101.564,28.76-126.63c22.308-30.916,66.91-57,89.405-44.341c1.286,0.723,2.484,1.585,3.616,2.548
					c-11.221,7.649-21.57,17.05-30.272,28.648c-29.667,39.534-12.79,67.858-39.685,145.839
					c-25.867,74.999-52.111,79.632-72.931,144.438c-6.649,20.696-12.914,48.093-14.206,82.506c-7.6-0.42-14.76-0.793-21.537-1.125
					c-7.791-25.527-11.464-48.368-13.031-67.747C2725.31,2928.188,2733.207,2916.652,2723.441,2890.049z"/>
			</g>
		</g>
		<g>
			<g>
				<path style="fill:#FFFFFF;" d="M2317.89,2203.977c35.712,2.047,46.328,4.187,63.157-1.548c15.814-5.389,32.035-16,30.61-20.872
					c-1.022-3.494-10.95-3.448-16.88-3.42c-15.913,0.074-29.036,4.948-38.244,9.659c7.942-5.39,15.883-10.779,23.825-16.168
					c5.545-1.984,14.928-6.194,23.24-15.089c5.204-5.569,17.162-20.652,12.667-27.899c-4.695-7.57-26.999-6.042-39.855,4.695
					c-6.169,5.152-6.177,9.095-14.446,18.089c-7.515,8.174-15.272,13.363-20.723,16.495c5.107-6.384,12.054-16.357,17.454-29.798
					c8.205-20.423,14.399-52.731,3.963-58.604c-6.923-3.896-20.649,4.132-27.514,13.646c-5.566,7.714-5.021,14.183-8.851,38.97
					c-1.665,10.776-3.298,19.453-4.359,24.837c-10.621-23.298-13.702-42.898-14.324-57.304c-0.8-18.511,2.263-33.015-4.816-36.873
					c-6.311-3.439-17.579,3.271-23.294,9.566c-23.132,25.481,7.388,85.281,10.615,91.452c-8.488-6.427-20.185-16.484-31.513-31.02
					c-12.115-15.544-17.23-27.115-23.389-26.079c-6.125,1.03-10.162,14.071-9.703,24.162c1.281,28.135,38.025,44.656,41.946,46.36
					c-3.091,0.498-8.331,1.021-14.51-0.159c-13.7-2.615-17.973-10.92-31.872-13.739c-5.316-1.078-16.185-2.195-17.524,1.096
					c-2.404,5.908,25.049,28.095,58.36,36.554C2274.12,2204.087,2271.201,2201.302,2317.89,2203.977z"/>
				<path style="fill:#F4F7FA;" d="M2341.461,2183.624c16.259-7.228,14.049-17.057,31.836-29.229
					c11.391-7.794,14.037-4.954,26.243-12.405c6.714-4.098,12.202-8.798,16.656-13.446c0.021,0.033,0.048,0.062,0.068,0.095
					c4.495,7.247-7.463,22.331-12.667,27.899c-8.312,8.895-17.695,13.105-23.24,15.089c-7.942,5.389-15.883,10.779-23.825,16.168
					c9.208-4.711,22.331-9.585,38.244-9.659c5.169-0.024,13.375-0.062,16.073,2.244c-4.779,2.963-9.078,4.389-12.577,5.103
					c-7.978,1.628-12.982-0.193-19.883,3.967c-5.536,3.337-5.075,6.173-9.949,7.979c-4.588,1.7-6.931-0.094-18.251-1.953
					c-11.012-1.808-16.608-2.655-21.058,0.14c-3.363,2.113-5.149,5.597-6.134,8.663c-1.141-0.07-2.308-0.14-3.506-0.21
					c0.885-3.519,2.512-7.553,5.608-11.156C2330.008,2187.202,2335.379,2186.328,2341.461,2183.624z"/>
				<path style="fill:#F4F7FA;" d="M2295.13,2196.117c-2.569-0.615-3.797,1.222-7.365,1.685c-6.63,0.861-9.115-4.609-16.909-7.209
					c-9.225-3.077-11.564,2.646-20.751-0.2c-7.273-2.253-6.336-6.003-15.838-11.479c-10.112-5.827-14.394-3.436-21.825-8.246
					c-2.388-1.546-5.114-3.846-7.709-7.425c3.267-1.771,11.816-0.827,16.342,0.091c13.899,2.819,18.172,11.124,31.872,13.739
					c6.178,1.18,11.418,0.656,14.51,0.159c-3.922-1.704-40.665-18.225-41.946-46.36c-0.426-9.361,3.018-21.252,8.408-23.749
					c-0.641,6.499-0.73,12.054-0.631,16.424c0.23,10.167,0.411,15.336,3.627,19.577c5.58,7.358,12.381,3.522,21.655,11.171
					c8.443,6.963,5.501,12.364,14.309,19.337c7.601,6.018,12.105,3.827,19.256,8.706c4.487,3.061,9.936,8.858,13.209,20.989
					c-1.49-0.067-2.918-0.129-4.276-0.184C2299.774,2199.705,2297.899,2196.78,2295.13,2196.117z"/>
				<path style="fill:#F4F7FA;" d="M2303.151,2157.776c-4.45-12.12-12.175-10.874-15.398-21.548
					c-3.204-10.611,3.805-13.909,2.019-29.274c-1.339-11.511-5.685-13.206-5.974-21.074c-0.213-5.8,1.832-13.703,11.286-23.498
					c2.867-0.753,5.574-0.756,7.711,0.409c7.08,3.858,4.017,18.362,4.816,36.873c0.622,14.406,3.703,34.006,14.324,57.304
					c1.061-5.384,2.693-14.061,4.359-24.837c3.83-24.786,3.284-31.256,8.851-38.97c6.865-9.514,20.591-17.542,27.514-13.646
					c0.396,0.223,0.764,0.488,1.113,0.784c-3.453,2.354-6.638,5.247-9.316,8.816c-9.13,12.167-3.936,20.883-12.213,44.882
					c-7.96,23.081-16.037,24.506-22.444,44.45c-2.046,6.369-3.974,14.801-4.372,25.391c-2.339-0.129-4.542-0.244-6.628-0.346
					c-2.398-7.856-3.528-14.885-4.01-20.849C2303.727,2169.513,2306.157,2165.963,2303.151,2157.776z"/>
			</g>
			<g>
				<path style="fill:#FFFFFF;" d="M2759.768,1933.494c45.92,2.632,59.57,5.384,81.209-1.99
					c20.334-6.929,41.191-20.574,39.359-26.838c-1.314-4.493-14.08-4.433-21.705-4.398c-20.461,0.095-37.335,6.363-49.175,12.42
					c10.212-6.93,20.423-13.86,30.635-20.789c7.13-2.551,19.195-7.965,29.883-19.402c6.691-7.161,22.067-26.555,16.288-35.874
					c-6.037-9.734-34.716-7.768-51.247,6.037c-7.932,6.624-7.943,11.695-18.574,23.26c-9.663,10.511-19.638,17.182-26.647,21.21
					c6.567-8.209,15.499-21.033,22.443-38.315c10.551-26.26,18.515-67.804,5.096-75.356c-8.902-5.009-26.551,5.313-35.379,17.546
					c-7.157,9.919-6.456,18.237-11.38,50.109c-2.141,13.856-4.241,25.014-5.604,31.936c-13.657-29.957-17.619-55.16-18.419-73.684
					c-1.028-23.802,2.911-42.452-6.193-47.412c-8.114-4.422-22.603,4.205-29.952,12.301c-29.744,32.764,9.5,109.658,13.649,117.593
					c-10.914-8.265-25.954-21.196-40.521-39.887c-15.577-19.987-22.156-34.865-30.075-33.533
					c-7.876,1.325-13.067,18.093-12.476,31.069c1.647,36.176,48.894,57.42,53.936,59.611c-3.975,0.64-10.713,1.313-18.657-0.204
					c-17.616-3.362-23.11-14.041-40.982-17.666c-6.835-1.386-20.811-2.823-22.533,1.41c-3.092,7.596,32.209,36.125,75.041,47.003
					C2703.486,1933.635,2699.732,1930.053,2759.768,1933.494z"/>
				<path style="fill:#F4F7FA;" d="M2790.076,1907.322c20.906-9.294,18.065-21.933,40.936-37.583
					c14.646-10.022,18.049-6.37,33.744-15.951c8.633-5.269,15.69-11.312,21.418-17.289c0.027,0.042,0.062,0.08,0.088,0.123
					c5.779,9.319-9.596,28.713-16.288,35.874c-10.688,11.438-22.753,16.851-29.883,19.402c-10.211,6.93-20.423,13.859-30.635,20.789
					c11.84-6.057,28.714-12.325,49.175-12.42c6.647-0.031,17.198-0.08,20.667,2.885c-6.145,3.81-11.673,5.644-16.172,6.561
					c-10.258,2.093-16.693-0.248-25.567,5.101c-7.119,4.291-6.525,7.937-12.793,10.26c-5.899,2.187-8.912-0.121-23.468-2.511
					c-14.159-2.325-21.356-3.414-27.077,0.18c-4.324,2.717-6.621,7.198-7.887,11.139c-1.467-0.09-2.968-0.18-4.508-0.27
					c1.139-4.525,3.23-9.713,7.211-14.345C2775.348,1911.923,2782.254,1910.799,2790.076,1907.322z"/>
				<path style="fill:#F4F7FA;" d="M2730.501,1923.387c-3.304-0.791-4.883,1.571-9.47,2.167c-8.525,1.107-11.721-5.927-21.742-9.27
					c-11.861-3.956-14.869,3.402-26.683-0.257c-9.352-2.897-8.147-7.719-20.365-14.76c-13.002-7.492-18.508-4.418-28.063-10.602
					c-3.071-1.988-6.575-4.945-9.912-9.547c4.201-2.277,15.193-1.063,21.013,0.117c17.872,3.625,23.366,14.304,40.982,17.666
					c7.944,1.517,14.682,0.844,18.657,0.204c-5.043-2.19-52.289-23.434-53.936-59.611c-0.548-12.037,3.88-27.327,10.811-30.537
					c-0.824,8.357-0.939,15.5-0.812,21.119c0.296,13.073,0.528,19.72,4.663,25.173c7.175,9.461,15.92,4.529,27.845,14.364
					c10.856,8.954,7.073,15.898,18.399,24.864c9.773,7.738,15.565,4.92,24.76,11.194c5.769,3.936,12.776,11.39,16.985,26.989
					c-1.917-0.087-3.752-0.166-5.498-0.236C2736.473,1928,2734.062,1924.239,2730.501,1923.387z"/>
				<path style="fill:#F4F7FA;" d="M2740.815,1874.086c-5.721-15.584-15.655-13.982-19.799-27.707
					c-4.12-13.644,4.893-17.884,2.595-37.641c-1.721-14.801-7.31-16.981-7.682-27.097c-0.274-7.458,2.355-17.619,14.512-30.215
					c3.687-0.969,7.167-0.971,9.916,0.526c9.104,4.961,5.165,23.611,6.193,47.412c0.8,18.524,4.762,43.727,18.419,73.684
					c1.364-6.922,3.463-18.08,5.604-31.936c4.925-31.871,4.223-40.19,11.38-50.109c8.828-12.234,26.477-22.555,35.379-17.546
					c0.509,0.286,0.983,0.627,1.431,1.008c-4.44,3.027-8.535,6.747-11.979,11.336c-11.74,15.644-5.061,26.852-15.704,57.71
					c-10.236,29.678-20.621,31.511-28.86,57.156c-2.631,8.19-5.11,19.031-5.621,32.648c-3.008-0.166-5.841-0.314-8.522-0.445
					c-3.083-10.101-4.536-19.14-5.157-26.808C2741.555,1889.178,2744.68,1884.613,2740.815,1874.086z"/>
			</g>
		</g>
		<g>
			
				<linearGradient id="SVGID_00000005954536847635167070000018224136316143778476_" gradientUnits="userSpaceOnUse" x1="2034.2578" y1="1429.0471" x2="1937.0066" y2="1700.3264">
				<stop  offset="0" style="stop-color:#FFC444"/>
				<stop  offset="0.9964" style="stop-color:#F36F56"/>
			</linearGradient>
			<path style="fill:url(#SVGID_00000005954536847635167070000018224136316143778476_);" d="M1954.536,1584.599
				c0,0,12.591-19.35,20.39-33.576c7.799-14.227,46.625-55.851,46.625-55.851s3.818,5.631-4.398,16.039
				c-8.217,10.408-25.872,28.596-20.773,35.062c5.099,6.468,18.15,11.334,10.432,25.239c-7.719,13.905-24.221,6.535-31.192,17.765
				c-6.972,11.229-14.047,23.427-14.047,23.427L1954.536,1584.599z"/>
			
				<linearGradient id="SVGID_00000155147598531880661040000013547260194589621379_" gradientUnits="userSpaceOnUse" x1="2282.8386" y1="1402.7634" x2="1364.3243" y2="2003.7811">
				<stop  offset="0" style="stop-color:#FFC444"/>
				<stop  offset="0.9964" style="stop-color:#F36F56"/>
			</linearGradient>
			<path style="fill:url(#SVGID_00000155147598531880661040000013547260194589621379_);" d="M1947.793,1573.433
				c11.104,13.693,22.206,27.38,33.311,41.073c-7.2,30.406-20.571,72.954-46.778,119.027
				c-11.559,20.322-47.709,80.162-113.755,131.894c-89.906,70.419-258.999,144.436-316.471,84.45
				c-51.283-53.524,9.807-189.226,21.116-213.623c28.701,10.189,75.468,22.854,133.834,21.231
				c19.128-0.532,68.872-2.346,122.911-24.898C1881.973,1690.848,1931.409,1605.322,1947.793,1573.433z"/>
			<g>
				
					<linearGradient id="SVGID_00000176000730454857562680000010947834786448347049_" gradientUnits="userSpaceOnUse" x1="1545.7838" y1="1804.4011" x2="1142.0289" y2="2098.8523">
					<stop  offset="0" style="stop-color:#311944"/>
					<stop  offset="1" style="stop-color:#893976"/>
				</linearGradient>
				<path style="fill:url(#SVGID_00000176000730454857562680000010947834786448347049_);" d="M1485.094,2229.938
					c-52.887,49.784-188.27,30.239-282.973,10.317c-17.028-3.522-32.756-7.13-46.43-10.317
					c-89.794-20.97-20.635-457.154-16.649-500.604c1.509-16.735,14.511-23.068,37.915-25.082
					c37.411-3.188,101.327,4.656,187.349-1.383c139.83-9.772,161.849,44.499,161.849,44.499
					C1534.166,1768.046,1547.46,2171.221,1485.094,2229.938z"/>
				
					<linearGradient id="SVGID_00000078021514518893281710000018004088238743564727_" gradientUnits="userSpaceOnUse" x1="1300.0978" y1="1885.1797" x2="1069.576" y2="2053.2952">
					<stop  offset="0" style="stop-color:#311944"/>
					<stop  offset="1" style="stop-color:#893976"/>
				</linearGradient>
				<path style="opacity:0.5;fill:url(#SVGID_00000078021514518893281710000018004088238743564727_);" d="M1221.708,1828.692
					c-2.349,79.435,3.313,344.333-19.586,411.564c-17.028-3.522-32.756-7.13-46.43-10.317
					c-89.794-20.97-20.635-457.154-16.649-500.604c1.509-16.735,14.511-23.068,37.915-25.082c2.81,3.02,5.578,6.501,8.429,10.527
					C1234.29,1783.982,1224.517,1735.038,1221.708,1828.692z"/>
			</g>
			
				<linearGradient id="SVGID_00000096780832022507749000000010741432871701997969_" gradientUnits="userSpaceOnUse" x1="898.9575" y1="2722.5789" x2="1031.6427" y2="3201.3997" gradientTransform="matrix(-0.9968 0.0799 0.0799 0.9968 2308.6487 65.4365)">
				<stop  offset="0" style="stop-color:#311944"/>
				<stop  offset="1" style="stop-color:#893976"/>
			</linearGradient>
			<path style="fill:url(#SVGID_00000096780832022507749000000010741432871701997969_);" d="M1521.461,3132.142
				c0,0-4.259,26.069-3.716,35.346c0.541,9.278,103.498,14.021,104.538,7.07c1.04-6.951-17.018-18.002-29.728-21.902
				c-12.711-3.901-49.91-14.311-49.91-14.311L1521.461,3132.142z"/>
			
				<linearGradient id="SVGID_00000138571786274412011490000014748766648377663147_" gradientUnits="userSpaceOnUse" x1="1017.0466" y1="3061.1096" x2="1018.9697" y2="2899.5786" gradientTransform="matrix(-0.9968 0.0799 0.0799 0.9968 2308.6487 65.4365)">
				<stop  offset="0" style="stop-color:#FFC444"/>
				<stop  offset="0.9964" style="stop-color:#F36F56"/>
			</linearGradient>
			<path style="fill:url(#SVGID_00000138571786274412011490000014748766648377663147_);" d="M1546.452,3106.153l-3.284,32.415
				c0,0-11.96,7.903-22.497,1.803l-5.273-35.283L1546.452,3106.153z"/>
			
				<linearGradient id="SVGID_00000082326685235824064690000004554530840740041119_" gradientUnits="userSpaceOnUse" x1="1065.0759" y1="2676.5383" x2="1197.7623" y2="3155.3633" gradientTransform="matrix(-0.9968 0.0799 0.0799 0.9968 2308.6487 65.4365)">
				<stop  offset="0" style="stop-color:#311944"/>
				<stop  offset="1" style="stop-color:#893976"/>
			</linearGradient>
			<path style="fill:url(#SVGID_00000082326685235824064690000004554530840740041119_);" d="M1337.769,3174.402
				c0,0-4.26,26.068-3.718,35.346c0.542,9.278,103.5,14.021,104.539,7.07c1.04-6.95-17.018-18.002-29.728-21.903
				c-12.709-3.9-49.909-14.312-49.909-14.312L1337.769,3174.402z"/>
			
				<linearGradient id="SVGID_00000158739409530826566920000010626593605305097354_" gradientUnits="userSpaceOnUse" x1="1203.8293" y1="3063.3293" x2="1205.7526" y2="2901.7969" gradientTransform="matrix(-0.9968 0.0799 0.0799 0.9968 2308.6487 65.4365)">
				<stop  offset="0" style="stop-color:#FFC444"/>
				<stop  offset="0.9964" style="stop-color:#F36F56"/>
			</linearGradient>
			<path style="fill:url(#SVGID_00000158739409530826566920000010626593605305097354_);" d="M1362.759,3148.413l-3.284,32.415
				c0,0-11.959,7.904-22.497,1.803l-5.272-35.283L1362.759,3148.413z"/>
			
				<linearGradient id="SVGID_00000049927507770598168530000008368267783676022416_" gradientUnits="userSpaceOnUse" x1="923.9193" y1="2541.6111" x2="1095.9027" y2="2541.6111" gradientTransform="matrix(-0.9968 0.0799 0.0799 0.9968 2308.6487 65.4365)">
				<stop  offset="0" style="stop-color:#444B8C"/>
				<stop  offset="0.9964" style="stop-color:#26264F"/>
			</linearGradient>
			<path style="fill:url(#SVGID_00000049927507770598168530000008368267783676022416_);" d="M1527.769,2259.914
				c11.9,24.127,23.802,48.254,35.703,72.38c9.571,137.689,14.328,287.408,11.272,447.525
				c-2.272,119.126-8.64,231.974-17.784,337.902c-16.135-0.739-32.271-1.483-48.407-2.221
				c-23.332-46.307-50.876-116.464-53.411-203.066c-2.645-90.334,24.743-102.328,23.006-188.821
				c-2.252-112.104-49.261-142.013-74.305-276.858c-9.578-51.569-16.026-118.924-8.361-200.641
				C1439.578,2250.711,1483.673,2255.316,1527.769,2259.914z"/>
			
				<linearGradient id="SVGID_00000050659552857085449720000002127366911165579656_" gradientUnits="userSpaceOnUse" x1="923.9224" y1="2541.6111" x2="1095.9031" y2="2541.6111" gradientTransform="matrix(-0.9968 0.0799 0.0799 0.9968 2308.6487 65.4365)">
				<stop  offset="0" style="stop-color:#444B8C"/>
				<stop  offset="0.9964" style="stop-color:#26264F"/>
			</linearGradient>
			<path style="opacity:0.3;fill:url(#SVGID_00000050659552857085449720000002127366911165579656_);" d="M1395.482,2246.113
				c23.814,2.483,47.628,4.967,71.444,7.456c42.868,74.599,54.837,152.246,47.314,186.59
				c-10.642,48.593-38.795,64.159-37.248,112.946c1.531,48.274,29.972,60.792,48.015,117.689
				c12.489,39.394,9.193,75.614,2.088,146.447c-14.309,142.679-48.763,186.313-19.904,233.092
				c8.201,13.292,22.976,29.121,51.924,41.207c-0.709,8.749-1.406,17.527-2.154,26.183c-16.135-0.736-32.271-1.483-48.407-2.219
				c-23.333-46.313-50.876-116.465-53.411-203.068c-2.645-90.335,24.742-102.331,23.006-188.822
				c-2.252-112.104-49.26-142.011-74.305-276.856C1394.266,2395.186,1387.817,2327.831,1395.482,2246.113z"/>
			
				<linearGradient id="SVGID_00000020377547364415352230000010982384632031236280_" gradientUnits="userSpaceOnUse" x1="1021.0153" y1="2566.1777" x2="1282.0981" y2="2566.1777" gradientTransform="matrix(-0.9968 0.0799 0.0799 0.9968 2308.6487 65.4365)">
				<stop  offset="0" style="stop-color:#444B8C"/>
				<stop  offset="0.9964" style="stop-color:#26264F"/>
			</linearGradient>
			<path style="fill:url(#SVGID_00000020377547364415352230000010982384632031236280_);" d="M1463.745,2303.35
				c-22.339,121.817-42.071,252.192-57.468,390.459c-18.589,166.947-28.51,324.336-32.411,470.465
				c-17.71,0.504-35.421,1.002-53.13,1.505c-69.788-138.06-74.052-231.662-63.99-292.604c3.877-23.483,14.409-69.53,16.813-138.348
				c1.675-47.971-1.385-84.479-5.208-128.365c-8.38-96.223-18.552-117.228-20.013-190.829
				c-1.374-69.073-1.657-104.024,18.061-124.425C1318.348,2237.464,1453.492,2298.593,1463.745,2303.35z"/>
			
				<linearGradient id="SVGID_00000100379473508735016650000003891374795747002268_" gradientUnits="userSpaceOnUse" x1="1545.7787" y1="2597.1201" x2="963.1118" y2="1760.6179" gradientTransform="matrix(-0.9968 0.0799 0.0799 0.9968 2308.6487 65.4365)">
				<stop  offset="0" style="stop-color:#FFC444"/>
				<stop  offset="0.9964" style="stop-color:#F36F56"/>
			</linearGradient>
			<path style="fill:url(#SVGID_00000100379473508735016650000003891374795747002268_);" d="M1577.026,2356.997
				c16.969-28.156-4.344-55.311-9.196-108.654c-5.498-60.458,17.792-70.525,40.825-170.718
				c15.317-66.635,30.021-130.605,12.471-205.486c-8.411-35.888-22.677-96.756-73.052-126.157
				c-25.996-15.172-61.49-13.655-131.417-9.995c-86.473,4.522-129.708,6.781-161.953,23.761
				c-4.72,2.486-102.816,55.844-109.568,142.818c-6.874,88.52,89.53,100.419,102.388,218.466
				c5.772,52.992-4.517,134.497-11.189,187.361c-6.407,50.759-10.816,63.755-0.799,79.123
				c24.143,37.041,98.056,26.482,245.883,5.374C1539.407,2384.607,1564.364,2378.007,1577.026,2356.997z"/>
			
				<linearGradient id="SVGID_00000051347732474148051720000008238617608151945384_" gradientUnits="userSpaceOnUse" x1="1545.7252" y1="2597.165" x2="963.0482" y2="1760.6482" gradientTransform="matrix(-0.9968 0.0799 0.0799 0.9968 2308.6487 65.4365)">
				<stop  offset="0" style="stop-color:#FFC444"/>
				<stop  offset="0.9964" style="stop-color:#F36F56"/>
			</linearGradient>
			<path style="opacity:0.3;fill:url(#SVGID_00000051347732474148051720000008238617608151945384_);" d="M1352.106,2102.042
				c-6.251,23.008-28.731,40.192-44.381,96.156c-3.379,12.084-27.442,98.128,3.772,119.308
				c18.031,12.231,34.216-10.944,77.975-13.97c75.828-5.245,111.95,58.484,161.483,41.082c8.593-3.024,19.94-9.461,31.267-24.254
				c2.255,13.331,1.868,24.909-5.196,36.633c-12.662,21.01-37.62,27.61-95.606,35.892c-147.828,21.108-221.741,31.667-245.883-5.374
				c-10.017-15.367-5.608-28.364,0.799-79.123c6.672-52.864,16.961-134.369,11.189-187.361
				c-12.858-118.047-109.261-129.946-102.388-218.466c1.837-23.665,10.542-44.737,22.183-63.077
				C1289.613,1888.975,1371.754,2029.742,1352.106,2102.042z"/>
			
				<linearGradient id="SVGID_00000075863604604650056580000004960754919753537945_" gradientUnits="userSpaceOnUse" x1="1190.9128" y1="2133.1521" x2="1284.8972" y2="2133.1521" gradientTransform="matrix(-0.9968 0.0799 0.0799 0.9968 2308.6487 65.4365)">
				<stop  offset="0" style="stop-color:#FFC444"/>
				<stop  offset="0.9964" style="stop-color:#F36F56"/>
			</linearGradient>
			<path style="fill:url(#SVGID_00000075863604604650056580000004960754919753537945_);" d="M1197.642,2276.17l24.468,15.623
				c4.394-5.073,14.564-15.308,30.446-18.803c17.892-3.932,38.431,1.708,38.909,7.418c0.383,4.575-12.123,9.189-14.057,9.903
				c-15.611,5.761-27.194,0.976-33.505,7.252c-2.232,2.219-5.014,6.347-11.411,10.171c-1.679,1.005-3.44,1.892-4.368,2.254
				c-10.419,4.051-28.293-14.088-29.83-15.672L1197.642,2276.17z"/>
			
				<linearGradient id="SVGID_00000151512495224871113870000016171432556814162574_" gradientUnits="userSpaceOnUse" x1="1709.1829" y1="2483.3" x2="1126.5104" y2="1646.7898" gradientTransform="matrix(-0.9968 0.0799 0.0799 0.9968 2308.6487 65.4365)">
				<stop  offset="0" style="stop-color:#FFC444"/>
				<stop  offset="0.9964" style="stop-color:#F36F56"/>
			</linearGradient>
			<path style="fill:url(#SVGID_00000151512495224871113870000016171432556814162574_);" d="M1269.93,1955.26
				c17.7-42.393,29.963-107.298,2.006-203.688c-184.21,72.585-278.158,244.659-241.475,381.066
				c30.239,112.45,140.256,167.223,164.797,178.746c5.71-12.999,11.421-25.992,17.131-38.99
				c-28.441-31.671-60.49-78.5-55.956-131.939C1162.715,2066.37,1234.095,2041.084,1269.93,1955.26z"/>
			
				<linearGradient id="SVGID_00000135689296467717901010000004302902956538536620_" gradientUnits="userSpaceOnUse" x1="-1193.4087" y1="2475.481" x2="-1193.4087" y2="2308.9111" gradientTransform="matrix(-0.7795 0.6265 0.6265 0.7795 -1015.7339 622.2045)">
				<stop  offset="0" style="stop-color:#FFC444"/>
				<stop  offset="0.9964" style="stop-color:#F36F56"/>
			</linearGradient>
			<path style="fill:url(#SVGID_00000135689296467717901010000004302902956538536620_);" d="M1412.13,1648.776
				c0,0-1.455,32.224-11.458,56.356c-9.039,21.81-56.585,35.52-66.222,40.388c-9.639,4.868,18.056,19.099,45.868,21.895
				c27.81,2.796,107.234-3.519,121.551-14.062c14.317-10.542-11.505-9.75-31.356-17.038c-19.85-7.287-31.328-46.109-27.824-63.73
				C1446.192,1654.964,1412.13,1648.776,1412.13,1648.776z"/>
			
				<linearGradient id="SVGID_00000171715533497571310960000009229992297075495591_" gradientUnits="userSpaceOnUse" x1="1054.7502" y1="1611.9286" x2="985.0784" y2="1434.9745" gradientTransform="matrix(-0.9968 0.0799 0.0799 0.9968 2308.6487 65.4365)">
				<stop  offset="0" style="stop-color:#444B8C"/>
				<stop  offset="0.9964" style="stop-color:#3E4177"/>
			</linearGradient>
			<path style="fill:url(#SVGID_00000171715533497571310960000009229992297075495591_);" d="M1456.117,1637.093
				c14.431-14.178,16.445-15.834,18.018-20.735c6.307-19.67-8.95-46.608-28.96-53.24c-1.041-0.344-14.46-4.64-19.583,1.183
				c-4.351,4.944,2.05,11.773-0.993,21.301c-2.851,8.921-10.584,9.589-24.917,21.288c-11.807,9.634-19.145,15.624-20.838,24.049
				c-3.49,17.37,17.536,42.544,36.151,41.859C1421.687,1672.552,1423.508,1669.133,1456.117,1637.093z"/>
			<g>
				
					<linearGradient id="SVGID_00000140700657876712368190000008457556013843025819_" gradientUnits="userSpaceOnUse" x1="-1311.1501" y1="2427.4771" x2="-1233.2727" y2="2276.0486" gradientTransform="matrix(-0.7795 0.6265 0.6265 0.7795 -1015.7339 622.2045)">
					<stop  offset="0" style="stop-color:#FFC444"/>
					<stop  offset="0.9964" style="stop-color:#F36F56"/>
				</linearGradient>
				<path style="fill:url(#SVGID_00000140700657876712368190000008457556013843025819_);" d="M1416.815,1675.481
					c0,0,15.339,17.369,38.707,11.627c20.922-5.14,15.583-53.159,0.272-60.831c-5.107-2.558-14.389-2.346-21.368,1.017
					c-4.124,1.987-5.27,4.051-12.069,7.168c-6.271,2.873-8.26,2.474-9.946,4.498c-2.111,2.53-3.019,7.974,3.593,21.116
					c-4.766-3.373-9.892-4.079-13.038-1.848c-0.502,0.357-1.781,1.604-2.331,3.248
					C1398.641,1667.425,1404.823,1673.469,1416.815,1675.481z"/>
			</g>
			
				<linearGradient id="SVGID_00000134212291997257895380000005411079118309286811_" gradientUnits="userSpaceOnUse" x1="1383.1782" y1="1815.3243" x2="1162.7843" y2="1976.0536">
				<stop  offset="0" style="stop-color:#444B8C"/>
				<stop  offset="0.9964" style="stop-color:#26264F"/>
			</linearGradient>
			<path style="fill:url(#SVGID_00000134212291997257895380000005411079118309286811_);" d="M1239.895,1723.853
				c0,0,107.648-37.747,116.036,60.115c8.388,97.862-57.243,327.317-135.678,339.323c-22.734-41.94-11.115-64.009,14.05-89.824
				c25.164-25.815,109.046-256.337,5.592-275.286l-13.297,7.055C1226.598,1765.236,1209.139,1742.552,1239.895,1723.853z"/>
			
				<linearGradient id="SVGID_00000031209224476386771950000011864023309597363613_" gradientUnits="userSpaceOnUse" x1="1648.2919" y1="1828.8181" x2="1534.0394" y2="1912.1404">
				<stop  offset="0" style="stop-color:#444B8C"/>
				<stop  offset="0.9964" style="stop-color:#26264F"/>
			</linearGradient>
			<path style="fill:url(#SVGID_00000031209224476386771950000011864023309597363613_);" d="M1506.012,1734.723
				c0,0,173.943,90.549,106.632,320.677c0,0,74.328-128.878,20.627-244.914S1524.522,1708.78,1506.012,1734.723z"/>
			<path style="fill:#FFFFFF;" d="M1361.061,1844.725c-0.955,2.858-4.087,4.396-7.032,3.59c-20.305-5.549-41.722-5.549-62.027,0
				c-2.933,0.795-6.082-0.723-7.032-3.59l0,0c-0.964-2.847,0.9-6.026,4.158-6.934c22.183-6.062,45.593-6.062,67.776,0
				C1360.17,1838.694,1362.012,1841.863,1361.061,1844.725L1361.061,1844.725z"/>
			<path style="fill:#FFFFFF;" d="M1650.11,1848.785c-0.607,2.858-2.597,4.396-4.468,3.59c-12.9-5.549-26.508-5.549-39.408,0
				c-1.863,0.795-3.864-0.722-4.468-3.59l0,0c-0.612-2.847,0.572-6.026,2.642-6.934c14.094-6.062,28.967-6.062,43.061,0
				C1649.544,1842.753,1650.715,1845.922,1650.11,1848.785L1650.11,1848.785z"/>
		</g>
		<g>
			<g>
				
					<linearGradient id="SVGID_00000072993760456848560630000005671084434942730661_" gradientUnits="userSpaceOnUse" x1="2058.248" y1="2286.3367" x2="1804.1774" y2="2471.626">
					<stop  offset="0" style="stop-color:#444B8C"/>
					<stop  offset="0.9964" style="stop-color:#26264F"/>
				</linearGradient>
				<path style="fill:url(#SVGID_00000072993760456848560630000005671084434942730661_);" d="M2020.058,2554.114
					c-33.28,31.328-118.473,19.029-178.066,6.492c-10.715-2.216-20.612-4.486-29.217-6.492
					c-56.504-13.196-12.985-287.673-10.477-315.015c0.95-10.531,9.131-14.516,23.859-15.783c23.541-2.006,63.762,2.93,117.893-0.871
					c87.99-6.149,101.846,28.002,101.846,28.002C2050.937,2263.459,2059.303,2517.165,2020.058,2554.114z"/>
				
					<linearGradient id="SVGID_00000103943458831316054610000011386298849991422645_" gradientUnits="userSpaceOnUse" x1="1903.6453" y1="2337.1682" x2="1758.585" y2="2442.958">
					<stop  offset="0" style="stop-color:#444B8C"/>
					<stop  offset="0.9964" style="stop-color:#26264F"/>
				</linearGradient>
				<path style="opacity:0.5;fill:url(#SVGID_00000103943458831316054610000011386298849991422645_);" d="M1854.317,2301.622
					c-1.478,49.986,2.085,216.678-12.325,258.984c-10.715-2.216-20.612-4.486-29.217-6.492
					c-56.504-13.196-12.985-287.673-10.477-315.015c0.95-10.531,9.131-14.516,23.859-15.783c1.768,1.9,3.51,4.091,5.304,6.625
					C1862.234,2273.488,1856.085,2242.688,1854.317,2301.622z"/>
			</g>
			
				<linearGradient id="SVGID_00000016058497168014854880000000877966856587254930_" gradientUnits="userSpaceOnUse" x1="-511.3177" y1="2940.8391" x2="-498.3984" y2="3173.3892" gradientTransform="matrix(-1 0 0 1 1493.4886 0)">
				<stop  offset="0" style="stop-color:#444B8C"/>
				<stop  offset="0.9964" style="stop-color:#26264F"/>
			</linearGradient>
			<path style="fill:url(#SVGID_00000016058497168014854880000000877966856587254930_);" d="M1972.443,3023.53
				c0,0-1.616,12.855-0.531,17.162c1.085,4.307,38.463,7.419,51.15,5.922c12.687-1.498-7.557-14.457-15.64-16.889
				C1999.337,3027.292,1972.443,3023.53,1972.443,3023.53z"/>
			<path style="fill:#76326B;" d="M1991.258,3002.084l-3.939,25.792c0,0-10.046,4.516-14.876,0.053l-0.531-26.997L1991.258,3002.084
				z"/>
			
				<linearGradient id="SVGID_00000095330585210046081740000006152225662168449921_" gradientUnits="userSpaceOnUse" x1="-309.1028" y1="2927.8477" x2="-296.1835" y2="3160.3972" gradientTransform="matrix(-1 0 0 1 1493.4886 0)">
				<stop  offset="0" style="stop-color:#444B8C"/>
				<stop  offset="0.9964" style="stop-color:#26264F"/>
			</linearGradient>
			<path style="fill:url(#SVGID_00000095330585210046081740000006152225662168449921_);" d="M1812.178,3000.932
				c0,0,7.931,5.885,5.816,12.933c-2.113,7.048-20.62,35.289-33.808,43.304c-13.188,8.017-9.054-8.684-5.216-19.084
				c3.838-10.4,13.645-33.313,17.474-37.153C1800.271,2997.092,1812.178,3000.932,1812.178,3000.932z"/>
			<path style="fill:#76326B;" d="M1826.443,2972.596c-3.833,10.686-7.521,19.472-10.405,25.953
				c-6.382,14.336-9.87,19.715-13.819,24.38c-3.444,4.062-11.599,12.73-13.791,11.287c-2.226-1.464,3.74-12.002,15.239-42.866
				c1.67-4.48,6.944-18.753,6.944-18.753l0,0H1826.443z"/>
			
				<linearGradient id="SVGID_00000021808189571515778330000012607478772682445989_" gradientUnits="userSpaceOnUse" x1="1943.1731" y1="2769.1921" x2="2072.9624" y2="2769.1921">
				<stop  offset="0" style="stop-color:#444B8C"/>
				<stop  offset="0.9964" style="stop-color:#26264F"/>
			</linearGradient>
			<path style="fill:url(#SVGID_00000021808189571515778330000012607478772682445989_);" d="M2069.534,2526.067
				c2.736,26.861,5.36,68.55,1.437,119.148c-5.115,65.922-18.297,107.636-34.828,177.924
				c-10.103,42.955-23.714,106.177-36.034,185.246c-2.858,1.636-11.267,5.938-22.093,4.332c-6.063-0.9-10.596-3.311-13.273-5.042
				c-32.321-98.764-22.776-159.967-7.177-198.098c6.648-16.255,14.709-29.078,19.018-54.063
				c5.701-33.056-1.348-51.535-11.401-128.105c-7.166-54.575-5.926-63.011-1.158-71.196
				C1983.082,2523.488,2041.372,2524.128,2069.534,2526.067z"/>
			
				<linearGradient id="SVGID_00000018931015409353126240000009885929613485074595_" gradientUnits="userSpaceOnUse" x1="1801.1429" y1="2765.2322" x2="1989.91" y2="2765.2322">
				<stop  offset="0" style="stop-color:#444B8C"/>
				<stop  offset="0.9964" style="stop-color:#26264F"/>
			</linearGradient>
			<path style="fill:url(#SVGID_00000018931015409353126240000009885929613485074595_);" d="M1989.91,2537.552
				c-19.8,102.254-39.233,155.959-53.939,186.335c-3.627,7.491-15.727,31.66-27.166,66.31
				c-10.127,30.671-14.347,53.233-16.508,63.164c-6.826,31.343-23.698,77.108-69.093,137.135c-0.566,0.332-8.307,4.71-15.707,0.808
				c-3.745-1.977-5.613-5.126-6.354-6.595c5.934-57.389,12.747-105.614,18.661-142.833c1.241-7.806,6.706-41.96,15.274-87.081
				c3.354-17.659,8.268-43.532,14.154-70.106c7.329-33.094,18.568-78.115,35.888-132.063
				C1920.049,2547.6,1954.981,2542.579,1989.91,2537.552z"/>
			
				<linearGradient id="SVGID_00000057863583075738034800000008900439645335952039_" gradientUnits="userSpaceOnUse" x1="2864.6658" y1="-1006.4504" x2="2785.0752" y2="-1208.5962" gradientTransform="matrix(-0.9842 0.1772 0.1772 0.9842 4922.21 2787.666)">
				<stop  offset="0" style="stop-color:#311944"/>
				<stop  offset="1" style="stop-color:#6B3976"/>
			</linearGradient>
			<path style="fill:url(#SVGID_00000057863583075738034800000008900439645335952039_);" d="M2022.649,2134.122
				c1.716-8.977,8.327-9.226,9.745-17.543c1.78-10.434-6.425-22.915-16.567-28.263c-9.928-5.236-14.41,0.214-36.059,0
				c-23.257-0.229-26.869-6.608-45.806-3.898c-4.944,0.708-14.165,2.112-24.363,7.796c-8.133,4.531-24.261,13.52-26.314,30.213
				c-2.244,18.248,14.027,31.865,15.594,33.135c-6.153,21.179-3.531,30.158,0.974,34.111c0,0,4.782,4.195,29.237,3.898l0,0
				c0,0,6.905,8.578,10.921,11.443c4.571,3.258,13.458,4.859,32.612-4.245c0.339-4.109,1.021-9.973,2.534-16.892
				c2.84-12.987,4.26-19.483,7.861-20.711c9.073-3.096,21.189,28.625,33.455,26.29c7.887-1.5,14.028-16.736,12.999-29.022
				C2028.441,2148.142,2020.7,2144.322,2022.649,2134.122z"/>
			
				<linearGradient id="SVGID_00000002352147368908693850000014889402623286849681_" gradientUnits="userSpaceOnUse" x1="5904" y1="2313.7034" x2="5876.7324" y2="3186.2625" gradientTransform="matrix(-1 0 0 1 7920.5562 0)">
				<stop  offset="0.0036" style="stop-color:#E38DDD"/>
				<stop  offset="1" style="stop-color:#9571F6"/>
			</linearGradient>
			<path style="fill:url(#SVGID_00000002352147368908693850000014889402623286849681_);" d="M2084.36,2421.594
				c-1.26,0.289-6.735,2.11-8.899,24.98c-5.22,55.144,23.491,77.471,16.422,107.376c-6.786,28.705-41.395,42.631-77.018,56.966
				c-23.805,9.58-97.435,39.208-140.255,5.892c-18.021-14.022-19.994-30.95-32.85-93.176
				c-32.665-158.101-45.319-171.684-31.581-205.909c23.592-58.775,86.76-83.115,97.269-87.164
				c112.065-43.181,244.403,36.181,296.697,127.357c6.886,12.005,48.008,83.704,19.115,117.712
				c-17.48,20.574-57.649,23.895-84.157,9.866C2103.686,2466.75,2096.161,2418.889,2084.36,2421.594z"/>
			
				<linearGradient id="SVGID_00000152956790020408269580000003355500957618235577_" gradientUnits="userSpaceOnUse" x1="5711.1909" y1="2425.8799" x2="5792.3623" y2="2425.8799" gradientTransform="matrix(-1 0 0 1 7920.5562 0)">
				<stop  offset="0.0036" style="stop-color:#E38DDD"/>
				<stop  offset="1" style="stop-color:#9571F6"/>
			</linearGradient>
			<path style="fill:url(#SVGID_00000152956790020408269580000003355500957618235577_);" d="M2206.841,2463.416
				c0.35,0,0.705-0.074,1.046-0.229c1.268-0.577,1.828-2.076,1.251-3.346c-0.961-2.102-24.094-51.749-77.55-71.339
				c-1.313-0.486-2.761,0.19-3.24,1.503c-0.481,1.309,0.192,2.76,1.503,3.24c51.418,18.845,74.46,68.198,74.686,68.693
				C2204.963,2462.868,2205.88,2463.416,2206.841,2463.416z"/>
			
				<linearGradient id="SVGID_00000101787414641143023510000012820819066976085663_" gradientUnits="userSpaceOnUse" x1="5827.5508" y1="2451.967" x2="6115.8589" y2="2451.967" gradientTransform="matrix(-1 0 0 1 7920.5562 0)">
				<stop  offset="0.0036" style="stop-color:#E38DDD"/>
				<stop  offset="1" style="stop-color:#9571F6"/>
			</linearGradient>
			<path style="opacity:0.45;fill:url(#SVGID_00000101787414641143023510000012820819066976085663_);" d="M1883.447,2297.511
				c7.073,19.255-14.15,35.94-5.053,56.846c13.038,29.961,64.85,14.583,83.375,44.214c21.954,35.116-28.321,92.715-7.579,112.429
				c9.451,8.983,20.372-2.522,48.003,3.79c39.352,8.989,51.177,40.086,69.479,35.371c5.756-1.483,12.734-6.708,18.605-22.796
				c2.56,8.926,3.778,17.4,1.607,26.586c-6.786,28.705-41.395,42.631-77.018,56.966c-23.806,9.58-97.434,39.208-140.255,5.892
				c-18.021-14.022-19.994-30.95-32.85-93.176c-32.665-158.101-45.319-171.684-31.581-205.909
				c7.491-18.662,18.975-33.841,31.493-46.013C1868.662,2277.672,1879.745,2287.431,1883.447,2297.511z"/>
			
				<linearGradient id="SVGID_00000156581240240652313700000004193472048238500237_" gradientUnits="userSpaceOnUse" x1="5560.4854" y1="1214.7701" x2="5537.6372" y2="1409.5823" gradientTransform="matrix(-0.9939 0.1103 0.1103 0.9939 7322.7202 263.1535)">
				<stop  offset="0" style="stop-color:#311944"/>
				<stop  offset="1" style="stop-color:#A03976"/>
			</linearGradient>
			<path style="fill:url(#SVGID_00000156581240240652313700000004193472048238500237_);" d="M1986.996,2206.881
				c-1.81,10.731,5.648,20.846,16.443,22.216c13.077,1.66,29.062,4.186,36.187,7.276c13.079,5.672-37.579,3.065-83.464,7.072
				c-28.646,2.501-50.352,1.664-62.618,0.682c-3.294-0.265-4.042-4.737-1.034-6.099c11.024-4.99,23.981-12.605,39.476-16.324
				c19.182-4.605,40.307-49.776,40.307-49.776l18.353,13.294L1986.996,2206.881z"/>
			
				<linearGradient id="SVGID_00000013878301864910521730000003012477475066825919_" gradientUnits="userSpaceOnUse" x1="2118.9014" y1="-2228.7192" x2="2087.1265" y2="-2149.282" gradientTransform="matrix(-0.7805 0.6252 0.6252 0.7805 4920.2896 2519.6465)">
				<stop  offset="0" style="stop-color:#311944"/>
				<stop  offset="1" style="stop-color:#A03976"/>
			</linearGradient>
			<path style="fill:url(#SVGID_00000013878301864910521730000003012477475066825919_);" d="M1956.899,2196.278
				c0,0,19.57,22.229,49.446,14.938c26.751-6.53,20.024-67.913,0.47-77.747c-6.522-3.28-18.385-3.029-27.312,1.257
				c-5.272,2.531-6.744,5.167-15.439,9.136c-8.02,3.659-10.561,3.146-12.72,5.729c-2.704,3.229-3.874,10.187,4.549,26.995
				c-6.083-4.319-12.635-5.233-16.659-2.386c-0.643,0.454-2.279,2.046-2.986,4.145
				C1933.686,2185.943,1941.574,2193.68,1956.899,2196.278z"/>
			
				<linearGradient id="SVGID_00000001665322181355512760000005588635614419279791_" gradientUnits="userSpaceOnUse" x1="1950.9462" y1="2288.095" x2="1812.0935" y2="2389.3577">
				<stop  offset="0" style="stop-color:#444B8C"/>
				<stop  offset="0.9964" style="stop-color:#26264F"/>
			</linearGradient>
			<path style="fill:url(#SVGID_00000001665322181355512760000005588635614419279791_);" d="M1864.735,2232.079
				c0,0,61.516-28.011,66.795,33.57c5.278,61.581-36.021,205.97-85.378,213.525c-14.306-26.392-6.994-40.279,8.841-56.523
				c15.835-16.245,72.286-157.067,7.185-168.991l-9.348,1.094C1852.831,2254.754,1845.381,2243.846,1864.735,2232.079z"/>
			
				<linearGradient id="SVGID_00000180343060024175265530000002144522495830067391_" gradientUnits="userSpaceOnUse" x1="2108.5979" y1="2283.2405" x2="2036.7023" y2="2335.6729">
				<stop  offset="0" style="stop-color:#444B8C"/>
				<stop  offset="0.9964" style="stop-color:#26264F"/>
			</linearGradient>
			<path style="fill:url(#SVGID_00000180343060024175265530000002144522495830067391_);" d="M2019.065,2224.029
				c0,0,109.457,56.979,67.1,201.792c0,0,46.772-81.099,12.98-154.117C2065.353,2198.687,2030.713,2207.704,2019.065,2224.029z"/>
			<path style="fill:#FFFFFF;" d="M1935.531,2311.711c-0.601,1.799-2.572,2.766-4.425,2.259c-12.777-3.492-26.255-3.492-39.032,0
				c-1.846,0.5-3.827-0.455-4.425-2.259l0,0c-0.607-1.791,0.566-3.792,2.616-4.363c13.959-3.815,28.69-3.815,42.649,0
				C1934.971,2307.916,1936.13,2309.91,1935.531,2311.711L1935.531,2311.711z"/>
			<path style="fill:#FFFFFF;" d="M2109.742,2295.805c-0.382,1.799-1.634,2.766-2.812,2.259c-8.118-3.492-16.681-3.492-24.799,0
				c-1.172,0.5-2.432-0.455-2.811-2.259l0,0c-0.385-1.792,0.36-3.792,1.662-4.363c8.869-3.815,18.228-3.815,27.096,0
				C2109.386,2292.009,2110.123,2294.003,2109.742,2295.805L2109.742,2295.805z"/>
			<g>
				<polygon style="fill:#FFFFFF;" points="1966.169,2429.84 2026.977,2296.251 2177.629,2288.574 2118.323,2412.76 
					2141.675,2540.116 2088.669,2656.765 1943.173,2655.707 1989.91,2549.855 				"/>
				<polygon style="opacity:0.6;fill:#D8DEE8;" points="1966.169,2425.75 2118.323,2408.67 2141.675,2536.026 1989.91,2545.765 				
					"/>
			</g>
			
				<linearGradient id="SVGID_00000176743543464646563260000017257649621551292855_" gradientUnits="userSpaceOnUse" x1="5623.5752" y1="2642.5027" x2="5863.5288" y2="2305.0681" gradientTransform="matrix(-1 0 0 1 7920.5562 0)">
				<stop  offset="0" style="stop-color:#311944"/>
				<stop  offset="1" style="stop-color:#A03976"/>
			</linearGradient>
			<path style="fill:url(#SVGID_00000176743543464646563260000017257649621551292855_);" d="M2139.649,2398.389l-2.229-3.645
				c-1.972-7.571-9.244-12.511-17.01-11.554l-11.713,1.445c-3.665,0.452-6.146,3.939-5.391,7.554
				c1.09,5.228,3.894,11.482,11.091,10.997c12.225-0.825,20.04,16.991,20.04,16.991l4.692-6.609
				C2142.323,2409.069,2142.528,2403.096,2139.649,2398.389z"/>
			
				<linearGradient id="SVGID_00000182505680130184779470000002501251808269179833_" gradientUnits="userSpaceOnUse" x1="6076.4082" y1="2325.9912" x2="6050.0239" y2="3170.2935" gradientTransform="matrix(-1 0 0 1 7920.5562 0)">
				<stop  offset="0.0036" style="stop-color:#E38DDD"/>
				<stop  offset="1" style="stop-color:#9571F6"/>
			</linearGradient>
			<path style="fill:url(#SVGID_00000182505680130184779470000002501251808269179833_);" d="M1951.19,2418.306
				c-3.024,2.75-33.682,29.753-70.561,20.532c-32.118-8.031-51.837-39.257-55.292-65.533
				c-8.215-62.489,54.888-102.761,44.852-115.408c-5.976-7.531-19.72-5.125-41.062,8.031c-22.154,13.656-82.02,50.56-94.78,122.979
				c-1.085,6.156-15.162,92.495,34.127,128.154c45.573,32.97,134.839,15.036,195.296-62.952
				C1959.577,2442.176,1955.384,2430.241,1951.19,2418.306z"/>
			
				<linearGradient id="SVGID_00000017489489950596738930000005851443122817676971_" gradientUnits="userSpaceOnUse" x1="192.6469" y1="2656.7651" x2="432.6006" y2="2319.3308" gradientTransform="matrix(1 0 0 1 1611.6691 0)">
				<stop  offset="0" style="stop-color:#311944"/>
				<stop  offset="1" style="stop-color:#A03976"/>
			</linearGradient>
			<path style="fill:url(#SVGID_00000017489489950596738930000005851443122817676971_);" d="M1951.278,2422.7l2.671-4.368
				c2.363-9.072,11.077-14.992,20.383-13.845l14.035,1.731c4.392,0.542,7.364,4.72,6.46,9.052
				c-1.306,6.264-4.666,13.759-13.29,13.177c-14.649-0.988-24.013,20.36-24.013,20.36l-5.623-7.919
				C1948.073,2435.497,1947.829,2428.341,1951.278,2422.7z"/>
		</g>
		<g>
			<g>
				
					<linearGradient id="SVGID_00000057837007966448033540000010898939887296083132_" gradientUnits="userSpaceOnUse" x1="691.7652" y1="3073.6665" x2="667.8406" y2="2856.1704" gradientTransform="matrix(-0.9986 0.0527 0.0527 0.9986 1370.7856 28.5205)">
					<stop  offset="0" style="stop-color:#AA80F9"/>
					<stop  offset="0.9964" style="stop-color:#6165D7"/>
				</linearGradient>
				<path style="fill:url(#SVGID_00000057837007966448033540000010898939887296083132_);" d="M866.955,3120.389
					c80.809,4.631,104.83,9.474,142.911-3.503c35.783-12.194,72.488-36.206,69.264-47.229c-2.312-7.907-24.777-7.802-38.195-7.739
					c-36.008,0.168-65.702,11.197-86.537,21.857c17.97-12.195,35.94-24.39,53.91-36.585c12.548-4.49,33.78-14.016,52.588-34.144
					c11.775-12.601,38.833-46.731,28.663-63.13c-10.623-17.13-61.092-13.671-90.184,10.624
					c-13.959,11.657-13.977,20.58-32.687,40.932c-17.004,18.497-34.559,30.238-46.892,37.324
					c11.556-14.446,27.275-37.013,39.494-67.426c18.567-46.212,32.583-119.32,8.968-132.61
					c-15.665-8.815-46.724,9.349-62.259,30.877c-12.595,17.455-11.36,32.094-20.027,88.181c-3.768,24.383-7.463,44.019-9.862,56.201
					c-24.033-52.718-31.005-97.07-32.413-129.667c-1.809-41.886,5.122-74.706-10.898-83.436c-14.279-7.781-39.777,7.4-52.709,21.646
					c-52.343,57.658,16.718,192.974,24.019,206.938c-19.206-14.544-45.674-37.3-71.308-70.192
					c-27.413-35.173-38.989-61.355-52.925-59.011c-13.861,2.332-22.995,31.839-21.956,54.675
					c2.899,63.662,86.042,101.047,94.916,104.902c-6.994,1.126-18.852,2.31-32.832-0.359c-31-5.917-40.669-24.709-72.12-31.089
					c-12.029-2.44-36.623-4.967-39.654,2.481c-5.44,13.368,56.68,63.572,132.056,82.715
					C767.912,3120.637,761.306,3114.335,866.955,3120.389z"/>
				<path style="opacity:0.28;fill:#FFFFFF;" d="M920.291,3074.333c36.79-16.356,31.791-38.597,72.039-66.138
					c25.775-17.636,31.763-11.209,59.383-28.07c15.192-9.273,27.61-19.907,37.691-30.425c0.048,0.074,0.109,0.141,0.154,0.216
					c10.17,16.399-16.888,50.529-28.663,63.13c-18.808,20.128-40.04,29.654-52.588,34.144c-17.97,12.195-35.94,24.39-53.91,36.585
					c20.835-10.66,50.529-21.689,86.537-21.857c11.697-0.055,30.266-0.14,36.369,5.077c-10.813,6.705-20.542,9.931-28.459,11.547
					c-18.052,3.683-29.376-0.437-44.992,8.976c-12.528,7.552-11.483,13.967-22.513,18.056c-10.381,3.848-15.683-0.212-41.299-4.418
					c-24.917-4.091-37.581-6.008-47.649,0.317c-7.609,4.781-11.651,12.666-13.88,19.602c-2.582-0.157-5.223-0.317-7.933-0.475
					c2.004-7.964,5.685-17.092,12.69-25.244C894.374,3082.43,906.527,3080.452,920.291,3074.333z"/>
				<path style="opacity:0.28;fill:#FFFFFF;" d="M815.453,3102.603c-5.814-1.391-8.592,2.765-16.665,3.814
					c-15.003,1.948-20.626-10.43-38.261-16.312c-20.873-6.962-26.166,5.988-46.956-0.453c-16.457-5.099-14.337-13.583-35.838-25.973
					c-22.88-13.184-32.569-7.776-49.385-18.658c-5.405-3.498-11.571-8.703-17.444-16.801c7.394-4.008,26.737-1.871,36.979,0.206
					c31.45,6.38,41.12,25.172,72.12,31.089c13.98,2.669,25.838,1.486,32.832,0.359c-8.874-3.854-92.017-41.24-94.916-104.902
					c-0.964-21.182,6.829-48.09,19.025-53.739c-1.45,14.706-1.653,27.276-1.429,37.164c0.521,23.005,0.93,34.703,8.206,44.299
					c12.626,16.65,28.015,7.971,49.001,25.278c19.105,15.756,12.448,27.977,32.378,43.755c17.199,13.617,27.391,8.659,43.573,19.699
					c10.153,6.926,22.483,20.043,29.89,47.494c-3.373-0.153-6.603-0.292-9.675-0.416
					C825.962,3110.721,821.719,3104.103,815.453,3102.603z"/>
				<path style="opacity:0.28;fill:#FFFFFF;" d="M833.604,3015.846c-10.069-27.425-27.549-24.605-34.842-48.759
					c-7.25-24.01,8.611-31.473,4.567-66.24c-3.029-26.047-12.864-29.882-13.518-47.685c-0.482-13.125,4.145-31.006,25.538-53.172
					c6.487-1.705,12.612-1.709,17.449,0.926c16.02,8.73,9.089,41.55,10.898,83.436c1.408,32.597,8.38,76.949,32.413,129.667
					c2.4-12.182,6.095-31.818,9.862-56.201c8.667-56.087,7.432-70.726,20.027-88.181c15.535-21.528,46.594-39.693,62.259-30.877
					c0.895,0.504,1.729,1.104,2.518,1.774c-7.814,5.327-15.02,11.873-21.081,19.949c-20.659,27.53-8.906,47.254-27.635,101.557
					c-18.013,52.227-36.288,55.453-50.786,100.581c-4.63,14.412-8.993,33.49-9.893,57.454c-5.293-0.293-10.279-0.552-14.997-0.784
					c-5.425-17.776-7.983-33.682-9.075-47.177C834.905,3042.405,840.404,3034.371,833.604,3015.846z"/>
			</g>
		</g>
	</g>
</g>
</svg>
