<?xml version="1.0" encoding="UTF-8"?>
<svg version="1.1" xmlns="http://www.w3.org/2000/svg" width="1024" height="1024">
<path d="M0 0 C337.92 0 675.84 0 1024 0 C1024 337.92 1024 675.84 1024 1024 C686.08 1024 348.16 1024 0 1024 C0 686.08 0 348.16 0 0 Z " fill="#9381B6" transform="translate(0,0)"/>
<path d="M0 0 C0.78168045 -0.01901871 1.5633609 -0.03803741 2.36872864 -0.05763245 C3.21215317 -0.0715654 4.0555777 -0.08549835 4.92456055 -0.09985352 C5.81185349 -0.11511581 6.69914642 -0.13037811 7.61332703 -0.14610291 C29.5728739 -0.45251963 49.67582846 0.64109907 70.9987793 6.20874023 C71.93963379 6.44367188 72.88048828 6.67860352 73.84985352 6.9206543 C101.73653429 13.99399736 127.8714464 27.0083301 150.3503418 44.89819336 C151.80407932 46.05394914 153.27517757 47.18779573 154.7487793 48.31811523 C161.88464266 53.85298361 168.45790283 59.99331226 174.9987793 66.20874023 C175.82764648 66.99506836 176.65651367 67.78139648 177.51049805 68.59155273 C183.15975127 74.09291975 188.11614489 80.02462264 192.9987793 86.20874023 C193.76834961 87.14975586 194.53791992 88.09077148 195.33081055 89.06030273 C206.84017006 103.45165049 216.32090927 119.47387748 223.9987793 136.20874023 C224.51698242 137.32893555 225.03518555 138.44913086 225.5690918 139.60327148 C235.7447285 162.48513518 241.98253808 186.46160288 246.4387207 211.04516602 C246.62998535 212.09687988 246.82125 213.14859375 247.01831055 214.23217773 C247.18435791 215.16980957 247.35040527 216.10744141 247.52148438 217.07348633 C247.79234486 219.18091358 247.79234486 219.18091358 248.9987793 220.20874023 C249.19511963 219.20609131 249.39145996 218.20344238 249.59375 217.17041016 C250.33334201 213.39925878 251.07827477 209.62917789 251.82470703 205.859375 C252.14514266 204.23726006 252.46418887 202.61486993 252.78173828 200.9921875 C257.27819541 178.02839149 257.27819541 178.02839149 261.79956055 167.27124023 C262.73495545 164.88247932 263.5666494 162.52162387 264.35424805 160.08374023 C275.46872098 125.98130164 293.99297633 94.89909476 318.9987793 69.20874023 C319.53148437 68.65557129 320.06418945 68.10240234 320.61303711 67.5324707 C336.57355928 50.99820427 354.92003313 37.37654945 374.9987793 26.20874023 C375.59916016 25.87422852 376.19954102 25.5397168 376.81811523 25.19506836 C392.64739455 16.52403762 409.78308408 10.27431624 427.2487793 5.83374023 C428.13243164 5.60734863 429.01608398 5.38095703 429.92651367 5.14770508 C446.12377892 1.26747469 462.23527545 -0.33198425 478.86694336 -0.29223633 C481.78944281 -0.29124599 484.70945641 -0.33346727 487.6315918 -0.37719727 C489.51960727 -0.38239412 491.40763167 -0.38509263 493.2956543 -0.38500977 C494.15406921 -0.40140503 495.01248413 -0.41780029 495.89691162 -0.43469238 C502.78350959 -0.35613609 507.62168126 1.86361233 512.52679443 6.72229004 C517.35285076 12.2719596 518.4135799 16.24166492 518.2409668 23.46264648 C517.65865687 30.06528965 514.57749724 34.07614195 510.1081543 38.63061523 C504.40682521 42.89605403 499.16615118 43.64312165 492.26831055 43.61499023 C490.57063627 43.63469662 488.8729638 43.65455906 487.17529297 43.67456055 C486.29827728 43.67959595 485.4212616 43.68463135 484.51766968 43.68981934 C469.84575958 43.7923935 455.36924582 43.96147308 440.9987793 47.20874023 C440.21921875 47.37889648 439.4396582 47.54905273 438.63647461 47.72436523 C396.71049816 57.11202889 358.82956911 83.24293417 333.9987793 118.20874023 C333.60803223 118.74450684 333.21728516 119.28027344 332.81469727 119.83227539 C296.37665086 170.02951872 289.13040835 230.79629019 288.86949158 291.00989151 C288.85811249 293.58146988 288.84393994 296.153019 288.82897949 298.72457886 C288.81913083 300.4634397 288.80932475 302.20230079 288.79956055 303.94116211 C288.79220005 305.24185229 288.79220005 305.24185229 288.78469086 306.56881905 C288.76121859 311.01387418 288.74678017 315.45868773 288.74829102 319.90380859 C288.74908315 324.29128413 288.72555507 328.67806555 288.686409 333.06535912 C288.67607412 334.70969704 288.67433067 336.35411617 288.68206024 337.9984684 C288.74636156 353.14413548 285.52516787 365.6666475 274.9987793 377.20874023 C266.83320949 384.49264553 256.87831445 389.08732505 245.81518555 388.58374023 C235.01466699 387.14566841 225.39506987 382.34816405 218.1550293 374.11108398 C216.56960174 371.8825876 215.30269106 369.61229357 213.9987793 367.20874023 C213.34094955 366.07388687 213.34094955 366.07388687 212.66983032 364.91610718 C207.49315858 354.58796704 208.32506358 343.85033661 208.3972168 332.56030273 C208.39170083 330.34002915 208.3835621 328.11976071 208.37295532 325.89950562 C208.35014232 320.06173064 208.35424418 314.22433078 208.36676025 308.38653564 C208.38726667 298.00690063 208.37534428 287.62737351 208.3347168 277.24780273 C208.33073757 276.13958727 208.32675835 275.0313718 208.32265854 273.88957405 C208.20732438 249.65440919 206.66615391 225.85381161 200.9987793 202.20874023 C200.81589355 201.4253125 200.63300781 200.64188477 200.44458008 199.8347168 C197.55377422 187.59921292 193.64590548 175.88422825 188.9987793 164.20874023 C188.73371582 163.53278809 188.46865234 162.85683594 188.19555664 162.16040039 C181.5183577 145.32716092 172.4296636 129.25964239 160.9987793 115.20874023 C160.03004883 113.93836914 160.03004883 113.93836914 159.04174805 112.64233398 C129.44151356 74.6657425 84.82397727 50.71841004 37.2331543 44.75170898 C32.28437427 44.24168845 27.35944815 44.0576321 22.3894043 43.94702148 C21.25566124 43.92111435 21.25566124 43.92111435 20.09901428 43.89468384 C16.30711632 43.81531415 12.51781911 43.76727392 8.72509766 43.76245117 C-0.36201162 43.69365238 -6.57479654 43.2680275 -13.49731445 36.91967773 C-14.13797852 36.14881836 -14.77864258 35.37795898 -15.4387207 34.58374023 C-16.09743164 33.80772461 -16.75614258 33.03170898 -17.43481445 32.23217773 C-21.46668945 27.02392026 -20.72714614 20.5070076 -20.0012207 14.20874023 C-18.52872902 10.9121931 -16.61609889 8.66910289 -14.0012207 6.20874023 C-13.21231445 5.43916992 -13.21231445 5.43916992 -12.4074707 4.65405273 C-8.42644324 1.0589412 -5.22193663 0.12205254 0 0 Z " fill="#FAF9F9" transform="translate(264.001220703125,412.791259765625)"/>
<path d="M0 0 C5.70109192 3.23778994 9.60658009 7.84708403 11.6953125 14.11328125 C11.79550972 16.22587064 11.8346877 18.34151688 11.84248352 20.45646667 C11.84616021 21.10267025 11.8498369 21.74887382 11.853625 22.41465932 C11.86465414 24.58398338 11.86850438 26.75325953 11.87231445 28.92260742 C11.87857975 30.47655387 11.88522661 32.03049883 11.89222717 33.58444214 C11.91326432 38.69170082 11.9236301 43.79895979 11.93359375 48.90625 C11.93764161 50.66528146 11.94175854 52.42431275 11.94594383 54.18334389 C11.96499575 62.44867609 11.97922606 70.71399937 11.9875558 78.97934932 C11.99732479 88.5150795 12.02363542 98.05057735 12.06405669 107.58622569 C12.09423762 114.95960059 12.1090266 122.33290897 12.11233681 129.70634443 C12.1146853 134.10866275 12.12361927 138.51073287 12.14879799 142.91298485 C12.17211803 147.05726746 12.17629628 151.20113915 12.16603661 155.34547043 C12.16554207 156.86276811 12.17183839 158.38008628 12.18559265 159.8973217 C12.26280748 168.92325272 12.11581748 175.9906379 5.94921875 183.13671875 C0.35321652 187.60835102 -3.83537863 189.5559785 -11.09765625 189.36328125 C-16.88467591 188.70776044 -20.62582682 185.38871393 -24.3046875 181.11328125 C-26.87518488 176.74550648 -27.67520047 173.6064682 -27.64526367 168.55712891 C-27.64492378 166.6358165 -27.64492378 166.6358165 -27.64457703 164.6756897 C-27.62926062 163.29290409 -27.61361269 161.91012212 -27.59765625 160.52734375 C-27.59205504 159.10102791 -27.58778742 157.67470626 -27.58479309 156.24838257 C-27.5733855 152.50986558 -27.54395425 148.77170299 -27.51068115 145.0333252 C-27.4744701 140.53956932 -27.4607996 136.04569438 -27.44332123 131.55183411 C-27.41431372 124.73873732 -27.3567993 117.92641683 -27.3046875 111.11328125 C-41.1646875 111.11328125 -55.0246875 111.11328125 -69.3046875 111.11328125 C-67.3246875 108.80328125 -65.3446875 106.49328125 -63.3046875 104.11328125 C-59.31779099 97.81818149 -58.19198768 92.54568394 -59.3046875 85.11328125 C-60.13933805 82.83764208 -61.10030704 80.85330841 -62.33203125 78.76953125 C-63.3046875 77.11328125 -63.3046875 77.11328125 -64.3046875 74.11328125 C-52.0946875 74.11328125 -39.8846875 74.11328125 -27.3046875 74.11328125 C-27.40910156 67.5390625 -27.40910156 67.5390625 -27.515625 60.83203125 C-27.55425497 57.32073997 -27.58677567 53.80950933 -27.6151886 50.29812622 C-27.64677578 46.60032993 -27.68892771 42.90336889 -27.75732422 39.20605469 C-27.8228775 35.63981445 -27.8584676 32.07438019 -27.87395096 28.50758362 C-27.89031114 26.49562972 -27.93709325 24.48399681 -27.98446655 22.47253418 C-27.98699651 15.54628611 -27.62617865 10.9589015 -22.95669556 5.65197754 C-16.26907115 -0.57694055 -9.02165188 -3.47104233 0 0 Z " fill="#FAF9F8" transform="translate(524.3046875,236.88671875)"/>
<path d="M0 0 C7.71265748 -0.06298904 15.42437819 -0.12308424 23.1370697 -0.15525055 C26.72902482 -0.17106295 30.32076601 -0.19217781 33.91259766 -0.22631836 C37.37502525 -0.25902129 40.83724596 -0.27687586 44.29981613 -0.28463173 C46.2573708 -0.29283593 48.21484276 -0.31623793 50.17227173 -0.33988953 C51.97345963 -0.34022942 51.97345963 -0.34022942 53.81103516 -0.34057617 C54.86360504 -0.34723801 55.91617493 -0.35389984 57.00064087 -0.36076355 C62.83829079 0.34139022 67.22928038 3.29054929 70.86328125 7.7734375 C73.66001549 13.25157672 72.72376254 19.70098959 70.9375 25.375 C66.82051015 30.95285722 62.68518966 34.07351971 56 36 C53.15249634 36.24050903 53.15249634 36.24050903 50.17822266 36.22705078 C48.49715927 36.22682419 48.49715927 36.22682419 46.78213501 36.22659302 C44.99118912 36.21110916 44.99118912 36.21110916 43.1640625 36.1953125 C41.92957367 36.1924826 40.69508484 36.18965271 39.42318726 36.18673706 C35.49035851 36.17556522 31.55775963 36.15046564 27.625 36.125 C24.95443041 36.11383825 22.28386299 36.10584119 19.61328125 36.09765625 C13.07536157 36.07733953 6.53793733 36.03818393 0 36 C0 24.12 0 12.24 0 0 Z " fill="#8F7344" transform="translate(536,312)"/>
<path d="M0 0 C1.3125 3.125 1.3125 3.125 2 6 C2.33 5.01 2.66 4.02 3 3 C3 3.66 3 4.32 3 5 C3.66 5 4.32 5 5 5 C8.11997802 8.30350614 9 9.32409833 9 14 C6.1875 14.6875 6.1875 14.6875 3 15 C1.125 13.5625 1.125 13.5625 0 12 C0.10613836 14.45224694 0.10613836 14.45224694 1 17 C3.47636012 18.37466625 3.47636012 18.37466625 6 19 C5.47731534 21.76276177 4.89130413 24.3260876 4 27 C4.99 27 5.98 27 7 27 C7.8125 29.625 7.8125 29.625 8 33 C4.95057757 37.71274376 2.26095866 39.844684 -3 42 C-5.73434927 42.33688081 -8.15033456 42.52546115 -10.875 42.5 C-11.58317871 42.49427979 -12.29135742 42.48855957 -13.02099609 42.48266602 C-20.20492203 42.23691319 -23.86136586 40.16634835 -28.76953125 35.21484375 C-33.94834839 29.50237801 -34.35826627 24.93146421 -34.2734375 17.296875 C-33.74653426 10.9439274 -31.27708768 6.93549113 -26.6875 2.625 C-19.51937996 -2.95188832 -8.16616937 -4.28901417 0 0 Z " fill="#917543" transform="translate(454,308)"/>
<path d="M0 0 C5.30188966 -0.07438973 10.60347268 -0.12871511 15.90576172 -0.16479492 C17.70789892 -0.1798424 19.50999973 -0.2002853 21.31201172 -0.22631836 C23.90862021 -0.26288021 26.50474275 -0.27976681 29.1015625 -0.29296875 C30.30191635 -0.31619453 30.30191635 -0.31619453 31.52651978 -0.33988953 C37.28966251 -0.34160704 41.18230912 0.91861929 45.8984375 4.40234375 C49.46649513 8.11199097 50.42778162 10.89188013 50.5625 16.0625 C50.1797684 22.74366248 48.608254 26.69939121 43.6875 31.25 C37.30313091 36.78609628 29.99327302 36.27921026 22 36.1875 C20.93265625 36.18685547 19.8653125 36.18621094 18.765625 36.18554688 C13.74415609 36.15744164 8.93086845 36.07006694 4 35 C4.33 34.01 4.66 33.02 5 32 C5.99 32 6.98 32 8 32 C8 32.66 8 33.32 8 34 C10.47266765 33.65555119 10.47266765 33.65555119 13 33 C13.33 32.34 13.66 31.68 14 31 C14.66 31.33 15.32 31.66 16 32 C16.433125 31.1028125 16.433125 31.1028125 16.875 30.1875 C18 28 18 28 20 25 C20.66 25 21.32 25 22 25 C21.525625 24.4225 21.05125 23.845 20.5625 23.25 C19.03442665 21.04957437 18.61499961 19.54785554 18 17 C17.34 16.67 16.68 16.34 16 16 C16.66 15.01 17.32 14.02 18 13 C17.01 12.01 16.02 11.02 15 10 C15.99 9.67 16.98 9.34 18 9 C18 7.68 18 6.36 18 5 C17.731875 5.598125 17.46375 6.19625 17.1875 6.8125 C16.01205637 8.97779089 14.72355889 10.27644111 13 12 C13 12.66 13 13.32 13 14 C13.66 14.33 14.32 14.66 15 15 C14.360625 15.12375 13.72125 15.2475 13.0625 15.375 C12.381875 15.58125 11.70125 15.7875 11 16 C10.67 16.66 10.34 17.32 10 18 C9.14670459 14.90680414 9 12.20663885 9 9 C9.66 9 10.32 9 11 9 C11 6.69 11 4.38 11 2 C7.37 1.67 3.74 1.34 0 1 C0 0.67 0 0.34 0 0 Z " fill="#B79B5F" transform="translate(558,312)"/>
<path d="M0 0 C7.1131632 -0.37955614 11.90802306 -0.22455326 17.6953125 4.3359375 C21.48659009 7.9508766 22.42622904 10.83229066 22.5625 16.0625 C22.17449672 22.83568767 20.53710183 26.76335196 15.5625 31.375 C12.62890444 33.9345129 12.19844847 34 8 34 C7.4465236 31.92446352 7 30.15634036 7 28 C6.34 27.67 5.68 27.34 5 27 C5.2784375 25.7315625 5.2784375 25.7315625 5.5625 24.4375 C6.03529632 20.7226718 5.66064631 17.67025727 5 14 C4.01 13.67 3.02 13.34 2 13 C0.73735399 8.70700357 1.37049588 6.12168689 3 2 C2.01 1.34 1.02 0.68 0 0 Z " fill="#DCC37E" transform="translate(586,312)"/>
<path d="M0 0 C3.80285865 2.0090574 7.09334467 4.08076405 9 8 C9.52596861 11.10905887 9.60364902 13.89868391 9 17 C6.56246638 20.09632649 4.26549269 21.82300487 1 24 C-3.79144265 24.47128944 -6.0289947 24.51298393 -10.3125 22.25 C-14.10652807 19.0736044 -15.78828718 17.63321318 -16.4375 12.625 C-15.8246 7.54668572 -13.67401468 4.79358716 -10.25 1.125 C-6.85855398 -0.57072301 -3.66268278 -0.64220449 0 0 Z " fill="#927C53" transform="translate(516,752)"/>
<path d="M0 0 C2.4375 0.1875 2.4375 0.1875 3.4375 1.1875 C3.53649561 2.99259373 3.56549151 4.80156928 3.56689453 6.609375 C3.57004669 7.76727539 3.57319885 8.92517578 3.57644653 10.11816406 C3.5744223 11.37854492 3.57239807 12.63892578 3.5703125 13.9375 C3.57126923 15.22108398 3.57222595 16.50466797 3.57321167 17.82714844 C3.57468831 20.54753824 3.57253519 23.26789525 3.56787109 25.98828125 C3.56217381 29.48234669 3.56545299 32.97633533 3.57144356 36.47039795 C3.57591754 39.79277153 3.57278885 43.11512423 3.5703125 46.4375 C3.57233673 47.69788086 3.57436096 48.95826172 3.57644653 50.25683594 C3.57329437 51.41473633 3.57014221 52.57263672 3.56689453 53.765625 C3.56609894 54.79075195 3.56530334 55.81587891 3.56448364 56.87207031 C3.4375 59.1875 3.4375 59.1875 2.4375 60.1875 C0.10452567 60.22842937 -2.22955225 60.22991723 -4.5625 60.1875 C-4.6087929 52.6598122 -4.64435365 45.13213912 -4.66612434 37.60434151 C-4.67657198 34.10906073 -4.69074883 30.61387717 -4.71337891 27.11865234 C-4.73921953 23.10252944 -4.74896466 19.08650903 -4.7578125 15.0703125 C-4.76813507 13.81195587 -4.77845764 12.55359924 -4.78909302 11.2571106 C-4.78924408 10.09605804 -4.78939514 8.93500549 -4.78955078 7.73876953 C-4.793992 6.71284698 -4.79843323 5.68692444 -4.80300903 4.62991333 C-4.45733629 1.1195432 -3.50377862 0.25637405 0 0 Z " fill="#785E32" transform="translate(513.5625,680.8125)"/>
<path d="M0 0 C0.66 0 1.32 0 2 0 C0.93457862 2.21279825 -0.15369201 4.22383766 -1.54719543 6.25334167 C-3.26238104 9.49605507 -3.39516486 11.60518883 -3.43237305 15.2590332 C-3.45216721 16.49994217 -3.47196136 17.74085114 -3.49235535 19.0193634 C-3.49912402 20.36316781 -3.50557101 21.70697386 -3.51171875 23.05078125 C-3.52857468 24.43370654 -3.54672616 25.81661659 -3.56611633 27.19950867 C-3.6135239 30.82767984 -3.6433926 34.45578922 -3.66955566 38.08416748 C-3.69940818 41.79126094 -3.74576205 45.49814595 -3.79101562 49.20507812 C-3.87849661 56.47006842 -3.93851828 63.73455688 -4 71 C-16.21 71 -28.42 71 -41 71 C-39.35 73.64 -37.7 76.28 -36 79 C-34.06493086 84.80520742 -34.0474372 91.53040939 -36.5 97.1875 C-36.995 98.115625 -37.49 99.04375 -38 100 C-38.66 99.34 -39.32 98.68 -40 98 C-40 97.01 -40 96.02 -40 95 C-40.99 95 -41.98 95 -43 95 C-42.33333333 92.33333333 -41.66666667 89.66666667 -41 87 C-41.804375 86.773125 -42.60875 86.54625 -43.4375 86.3125 C-44.283125 85.879375 -45.12875 85.44625 -46 85 C-46.8125 82.375 -46.8125 82.375 -47 80 C-46.401875 80.350625 -45.80375 80.70125 -45.1875 81.0625 C-42.89186786 82.33304698 -42.89186786 82.33304698 -40 81 C-39.34 81.33 -38.68 81.66 -38 82 C-39.19899698 78.9168649 -40.47700477 75.93720508 -42 73 C-44.475 73.495 -44.475 73.495 -47 74 C-47.495 71.525 -47.495 71.525 -48 69 C-34.14 69 -20.28 69 -6 69 C-6.02320313 65.1225 -6.04640625 61.245 -6.0703125 57.25 C-6.08592536 53.48030932 -6.09806083 49.71062228 -6.10986328 45.94091797 C-6.11989948 43.32794575 -6.13353136 40.71498469 -6.15087891 38.10205078 C-6.17523163 34.33883908 -6.18650721 30.57577633 -6.1953125 26.8125 C-6.20563507 25.65073242 -6.21595764 24.48896484 -6.22659302 23.29199219 C-6.22780443 14.46642096 -5.67371294 7.09214117 0 0 Z " fill="#9183A9" transform="translate(501,240)"/>
<path d="M0 0 C1.58294782 -0.05437607 3.16644256 -0.09296271 4.75 -0.125 C5.63171875 -0.14820313 6.5134375 -0.17140625 7.421875 -0.1953125 C10.1135858 0.00860498 11.69904974 0.63448279 14 2 C13.7834375 2.93972656 13.7834375 2.93972656 13.5625 3.8984375 C13.376875 4.71570313 13.19125 5.53296875 13 6.375 C12.814375 7.18710937 12.62875 7.99921875 12.4375 8.8359375 C11.93394761 10.95874951 11.93394761 10.95874951 12 13 C13.32 13 14.64 13 16 13 C17.33257403 22.41002278 17.33257403 22.41002278 16 27 C16.33 26.67 16.66 26.34 17 26 C17.66 27.32 18.32 28.64 19 30 C18.34 30 17.68 30 17 30 C17.34786708 31.97536745 17.34786708 31.97536745 18 34 C18.66 34.33 19.32 34.66 20 35 C17.00519083 35.8723412 14.36424089 36.10829766 11.25 36.0625 C10.45078125 36.05347656 9.6515625 36.04445313 8.828125 36.03515625 C8.22484375 36.02355469 7.6215625 36.01195312 7 36 C5.9375 34.1875 5.9375 34.1875 5 32 C6 29 6 29 7 27 C6.34 27 5.68 27 5 27 C5.3125 25.125 5.3125 25.125 6 23 C6.99 22.34 7.98 21.68 9 21 C8.34 21 7.68 21 7 21 C5.875 15.25 5.875 15.25 7 13 C7 11.68 7 10.36 7 9 C7.66 8.67 8.32 8.34 9 8 C9 6.68 9 5.36 9 4 C6.03 3.01 3.06 2.02 0 1 C0 0.67 0 0.34 0 0 Z " fill="#CAB06F" transform="translate(576,312)"/>
<path d="M0 0 C1.08946678 -0.0049926 1.08946678 -0.0049926 2.20094299 -0.01008606 C3.74015671 -0.015158 5.27938145 -0.0174943 6.81860352 -0.01733398 C9.17808096 -0.01951891 11.53708986 -0.0376669 13.89648438 -0.05664062 C15.38932131 -0.05957477 16.88216048 -0.06155942 18.375 -0.0625 C19.43756264 -0.07327827 19.43756264 -0.07327827 20.52159119 -0.08427429 C25.52508288 -0.06085462 25.52508288 -0.06085462 27.75390625 2.16796875 C27.19835069 6.72352431 27.19835069 6.72352431 25.75390625 8.16796875 C23.40162306 8.28114159 21.07978677 8.33213412 18.7265625 8.3359375 C17.67038979 8.3409301 17.67038979 8.3409301 16.59288025 8.34602356 C15.10074519 8.3510953 13.60859875 8.35343181 12.11645508 8.35327148 C9.82940018 8.35545634 7.54282872 8.37360424 5.25585938 8.39257812 C3.80859541 8.39551229 2.36132914 8.39749693 0.9140625 8.3984375 C0.22756119 8.40562302 -0.45894012 8.41280853 -1.16624451 8.42021179 C-6.01727006 8.39679244 -6.01727006 8.39679244 -8.24609375 6.16796875 C-8.43359375 3.60546875 -8.43359375 3.60546875 -8.24609375 1.16796875 C-6.30565633 -0.77246867 -2.6473564 0.00414702 0 0 Z " fill="#85BCE2" transform="translate(505.24609375,476.83203125)"/>
<path d="M0 0 C0.71353638 0.00202423 1.42707275 0.00404846 2.16223145 0.00613403 C2.89091431 0.00517731 3.61959717 0.00422058 4.37036133 0.00323486 C5.91377855 0.00255318 7.45719861 0.00440666 9.00061035 0.00857544 C11.37095544 0.01392391 13.74111104 0.00863011 16.1114502 0.00222778 C17.60754437 0.00288857 19.10363842 0.00416973 20.59973145 0.00613403 C21.31326782 0.0041098 22.0268042 0.00208557 22.76196289 0 C27.76602953 0.02399462 27.76602953 0.02399462 28.88098145 1.13894653 C28.92161977 2.80511768 28.92370245 4.47282748 28.88098145 6.13894653 C25.92287669 7.61799891 22.92626595 7.26085556 19.68566895 7.23660278 C18.9782254 7.23518784 18.27078186 7.23377289 17.54190063 7.23231506 C15.27988476 7.22671254 13.01796746 7.21415971 10.75598145 7.20144653 C9.22343079 7.19643185 7.69087859 7.19186889 6.1583252 7.18777466 C2.39917256 7.1767423 -1.35990628 7.15947605 -5.11901855 7.13894653 C-5.50035154 5.14754093 -5.83227438 3.14615576 -6.11901855 1.13894653 C-4.41408974 -0.56598228 -2.27367595 0.01090233 0 0 Z " fill="#80BDE8" transform="translate(503.1190185546875,450.8610534667969)"/>
<path d="M0 0 C2.4375 0.1875 2.4375 0.1875 3.4375 1.1875 C3.53649561 2.99259373 3.56549151 4.80156928 3.56689453 6.609375 C3.57004669 7.76727539 3.57319885 8.92517578 3.57644653 10.11816406 C3.5744223 11.37854492 3.57239807 12.63892578 3.5703125 13.9375 C3.57126923 15.22108398 3.57222595 16.50466797 3.57321167 17.82714844 C3.57468831 20.54753824 3.57253519 23.26789525 3.56787109 25.98828125 C3.56217381 29.48234669 3.56545299 32.97633533 3.57144356 36.47039795 C3.57591754 39.79277153 3.57278885 43.11512423 3.5703125 46.4375 C3.57233673 47.69788086 3.57436096 48.95826172 3.57644653 50.25683594 C3.57329437 51.41473633 3.57014221 52.57263672 3.56689453 53.765625 C3.56609894 54.79075195 3.56530334 55.81587891 3.56448364 56.87207031 C3.4375 59.1875 3.4375 59.1875 2.4375 60.1875 C0.10452567 60.22842937 -2.22955225 60.22991723 -4.5625 60.1875 C-4.6087929 52.6598122 -4.64435365 45.13213912 -4.66612434 37.60434151 C-4.67657198 34.10906073 -4.69074883 30.61387717 -4.71337891 27.11865234 C-4.73921953 23.10252944 -4.74896466 19.08650903 -4.7578125 15.0703125 C-4.76813507 13.81195587 -4.77845764 12.55359924 -4.78909302 11.2571106 C-4.78924408 10.09605804 -4.78939514 8.93500549 -4.78955078 7.73876953 C-4.793992 6.71284698 -4.79843323 5.68692444 -4.80300903 4.62991333 C-4.45733629 1.1195432 -3.50377862 0.25637405 0 0 Z M-1.5625 13.1875 C-1.5625 13.8475 -1.5625 14.5075 -1.5625 15.1875 C-2.2225 15.1875 -2.8825 15.1875 -3.5625 15.1875 C-3.5625 29.7075 -3.5625 44.2275 -3.5625 59.1875 C-1.5825 59.1875 0.3975 59.1875 2.4375 59.1875 C2.4375 44.0075 2.4375 28.8275 2.4375 13.1875 C1.1175 13.1875 -0.2025 13.1875 -1.5625 13.1875 Z " fill="#A48C61" transform="translate(513.5625,680.8125)"/>
<path d="M0 0 C3.80285865 2.0090574 7.09334467 4.08076405 9 8 C9.23534378 11.01763028 9.1742084 13.98038766 9 17 C8.29875 16.67 7.5975 16.34 6.875 16 C3.73996884 14.90955438 1.29436818 14.84677357 -2 15 C-2.268125 14.071875 -2.53625 13.14375 -2.8125 12.1875 C-3.93710035 9.1688359 -4.70706573 8.0844857 -7 6 C-7 5.34 -7 4.68 -7 4 C-7.66 3.67 -8.32 3.34 -9 3 C-9.33 2.34 -9.66 1.68 -10 1 C-6.78548618 -0.60725691 -3.48666924 -0.47397924 0 0 Z " fill="#B39D5E" transform="translate(516,752)"/>
<path d="M0 0 C0.2475 0.556875 0.495 1.11375 0.75 1.6875 C1.9267573 4.1529374 1.9267573 4.1529374 4.25 6.125 C6.34667268 9.56953369 6.02895198 10.47724337 5.25 14.3125 C4.85617925 15.88091403 4.44664294 17.44580328 4 19 C4.99 18.67 5.98 18.34 7 18 C7 18.66 7 19.32 7 20 C8.65 20.33 10.3 20.66 12 21 C8.93753253 22.78409802 6.77920727 23.22880021 3.25 23.125 C2.45078125 23.10695313 1.6515625 23.08890625 0.828125 23.0703125 C0.22484375 23.04710937 -0.3784375 23.02390625 -1 23 C-2.0625 21.1875 -2.0625 21.1875 -3 19 C-2 16 -2 16 -1 14 C-1.66 14 -2.32 14 -3 14 C-2.6875 12.125 -2.6875 12.125 -2 10 C-1.01 9.34 -0.02 8.68 1 8 C0.34 8 -0.32 8 -1 8 C-1.625 5.125 -1.625 5.125 -2 2 C-1.34 1.34 -0.68 0.68 0 0 Z " fill="#C0A565" transform="translate(584,325)"/>
<path d="M0 0 C0.8971875 0.5259375 0.8971875 0.5259375 1.8125 1.0625 C4.10813214 2.33304698 4.10813214 2.33304698 7 1 C9.72146228 2.36073114 10.34908763 4.28841713 11.45703125 7.02734375 C12.3493702 10.2692946 11.84668657 12.79468657 11 16 C9.4375 18.4375 9.4375 18.4375 8 20 C7.67 18.35 7.34 16.7 7 15 C6.01 15 5.02 15 4 15 C4.66666667 12.33333333 5.33333333 9.66666667 6 7 C5.195625 6.773125 4.39125 6.54625 3.5625 6.3125 C2.716875 5.879375 1.87125 5.44625 1 5 C0.1875 2.375 0.1875 2.375 0 0 Z " fill="#BB9E62" transform="translate(454,320)"/>
<path d="M0 0 C2.4375 0.1875 2.4375 0.1875 3.4375 1.1875 C3.50955511 2.87358966 3.52136068 4.56250659 3.5 6.25 C3.49097656 7.16910156 3.48195313 8.08820312 3.47265625 9.03515625 C3.46105469 9.74542969 3.44945312 10.45570313 3.4375 11.1875 C3.1075 11.1875 2.7775 11.1875 2.4375 11.1875 C2.4375 9.2075 2.4375 7.2275 2.4375 5.1875 C0.4575 5.1875 -1.5225 5.1875 -3.5625 5.1875 C-3.5625 23.0075 -3.5625 40.8275 -3.5625 59.1875 C-1.5825 59.1875 0.3975 59.1875 2.4375 59.1875 C2.4375 59.5175 2.4375 59.8475 2.4375 60.1875 C0.1275 60.1875 -2.1825 60.1875 -4.5625 60.1875 C-4.6087929 52.6598122 -4.64435365 45.13213912 -4.66612434 37.60434151 C-4.67657198 34.10906073 -4.69074883 30.61387717 -4.71337891 27.11865234 C-4.73921953 23.10252944 -4.74896466 19.08650903 -4.7578125 15.0703125 C-4.76813507 13.81195587 -4.77845764 12.55359924 -4.78909302 11.2571106 C-4.78924408 10.09605804 -4.78939514 8.93500549 -4.78955078 7.73876953 C-4.793992 6.71284698 -4.79843323 5.68692444 -4.80300903 4.62991333 C-4.45733629 1.1195432 -3.50377862 0.25637405 0 0 Z " fill="#B0A285" transform="translate(513.5625,680.8125)"/>
<path d="M0 0 C0.71353638 0.00202423 1.42707275 0.00404846 2.16223145 0.00613403 C2.89091431 0.00517731 3.61959717 0.00422058 4.37036133 0.00323486 C5.91377855 0.00255318 7.45719861 0.00440666 9.00061035 0.00857544 C11.37095544 0.01392391 13.74111104 0.00863011 16.1114502 0.00222778 C17.60754437 0.00288857 19.10363842 0.00416973 20.59973145 0.00613403 C21.31326782 0.0041098 22.0268042 0.00208557 22.76196289 0 C27.76602953 0.02399462 27.76602953 0.02399462 28.88098145 1.13894653 C28.92161977 2.80511768 28.92370245 4.47282748 28.88098145 6.13894653 C25.92287669 7.61799891 22.92626595 7.26085556 19.68566895 7.23660278 C18.9782254 7.23518784 18.27078186 7.23377289 17.54190063 7.23231506 C15.27988476 7.22671254 13.01796746 7.21415971 10.75598145 7.20144653 C9.22343079 7.19643185 7.69087859 7.19186889 6.1583252 7.18777466 C2.39917256 7.1767423 -1.35990628 7.15947605 -5.11901855 7.13894653 C-5.50035154 5.14754093 -5.83227438 3.14615576 -6.11901855 1.13894653 C-4.41408974 -0.56598228 -2.27367595 0.01090233 0 0 Z M-3.11901855 1.13894653 C-3.44901855 2.45894653 -3.77901855 3.77894653 -4.11901855 5.13894653 C-1.48702672 7.77093837 6.15060038 6.32456502 9.69348145 6.32644653 C11.49655762 6.34481567 11.49655762 6.34481567 13.33605957 6.36355591 C15.06952637 6.3664563 15.06952637 6.3664563 16.8380127 6.36941528 C17.8999585 6.37352417 18.9619043 6.37763306 20.05603027 6.38186646 C22.85893489 6.14084234 24.49962711 5.58567752 26.88098145 4.13894653 C26.88098145 3.14894653 26.88098145 2.15894653 26.88098145 1.13894653 C16.98098145 1.13894653 7.08098145 1.13894653 -3.11901855 1.13894653 Z " fill="#8EB2E0" transform="translate(503.1190185546875,450.8610534667969)"/>
<path d="M0 0 C5.94 0 11.88 0 18 0 C18.33 1.32 18.66 2.64 19 4 C18.34 4.66 17.68 5.32 17 6 C16.67 6.99 16.34 7.98 16 9 C15 10 14 11 13 12 C13 12.66 13 13.32 13 14 C13.66 14.33 14.32 14.66 15 15 C14.360625 15.12375 13.72125 15.2475 13.0625 15.375 C12.381875 15.58125 11.70125 15.7875 11 16 C10.67 16.66 10.34 17.32 10 18 C9.14670459 14.90680414 9 12.20663885 9 9 C9.66 9 10.32 9 11 9 C11 6.69 11 4.38 11 2 C7.37 1.67 3.74 1.34 0 1 C0 0.67 0 0.34 0 0 Z " fill="#AA9262" transform="translate(558,312)"/>
<path d="M0 0 C0.99 0.33 1.98 0.66 3 1 C3.66666667 2.66666667 4.33333333 4.33333333 5 6 C5.99 6.33 6.98 6.66 8 7 C8.144375 7.639375 8.28875 8.27875 8.4375 8.9375 C8.80104993 11.20311706 8.80104993 11.20311706 11.0625 12.25 C11.701875 12.4975 12.34125 12.745 13 13 C13 13.66 13 14.32 13 15 C7.69985182 15.50477602 5.18034682 14.20817314 1 11 C0 10 0 10 -0.09765625 7.71484375 C-0.08605469 6.79832031 -0.07445312 5.88179687 -0.0625 4.9375 C-0.05347656 4.01839844 -0.04445313 3.09929688 -0.03515625 2.15234375 C-0.02355469 1.44207031 -0.01195312 0.73179687 0 0 Z " fill="#7B6741" transform="translate(502,761)"/>
<path d="M0 0 C1.32 0 2.64 0 4 0 C4 5.61 4 11.22 4 17 C3.01 17 2.02 17 1 17 C0.34 17.33 -0.32 17.66 -1 18 C-2.06723961 14.53777385 -2.10173486 11.35960734 -2.0625 7.75 C-2.04896484 6.13351562 -2.04896484 6.13351562 -2.03515625 4.484375 C-2.02355469 3.66453125 -2.01195312 2.8446875 -2 2 C-1.34 2 -0.68 2 0 2 C0 1.34 0 0.68 0 0 Z " fill="#937642" transform="translate(512,694)"/>
<path d="M0 0 C21.78 0.495 21.78 0.495 44 1 C44 1.33 44 1.66 44 2 C31.79 2 19.58 2 7 2 C8.65 4.64 10.3 7.28 12 10 C13.1577506 13.47325181 13.06866652 16.36067448 13 20 C12.34 19.67 11.68 19.34 11 19 C10.39450913 16.49730442 10.04237512 13.99096441 9.66015625 11.4453125 C8.92836933 8.73466981 8.03150262 7.84883345 6 6 C6 5.34 6 4.68 6 4 C4.35 4.33 2.7 4.66 1 5 C0.67 3.35 0.34 1.7 0 0 Z " fill="#C1B5B0" transform="translate(453,309)"/>
<path d="M0 0 C1.5 1.125 1.5 1.125 3 3 C3 5 3 7 3 9 C4.74089043 11.32118724 6.54441679 12.36294453 9 14 C5.93882432 16.62386487 5.26826873 17 1 17 C0.4465236 14.92446352 0 13.15634036 0 11 C-0.66 10.67 -1.32 10.34 -2 10 C-1.85950482 8.52031676 -1.71245174 7.04125484 -1.5625 5.5625 C-1.48128906 4.73878906 -1.40007813 3.91507812 -1.31640625 3.06640625 C-1 1 -1 1 0 0 Z " fill="#D5BB7E" transform="translate(593,329)"/>
<path d="M0 0 C5.28540588 0.13429343 8.28769525 2.60892572 12.125 6.0625 C13.89909569 9.70925226 13.47982999 13.39128016 13.25 17.375 C12.26 16.055 11.27 14.735 10.25 13.375 C10.58 12.715 10.91 12.055 11.25 11.375 C10.26 11.045 9.27 10.715 8.25 10.375 C8.91 10.375 9.57 10.375 10.25 10.375 C9.80966008 8.39479579 9.80966008 8.39479579 8.25 6.375 C3.86307838 4.06079823 -0.85075912 2.98740511 -5.75 2.375 C-3.75 0.375 -3.75 0.375 0 0 Z " fill="#BBAD81" transform="translate(511.75,751.625)"/>
<path d="M0 0 C0.33 0.66 0.66 1.32 1 2 C0.34 2 -0.32 2 -1 2 C0.11923892 5.78393339 0.11923892 5.78393339 3.078125 8.1640625 C3.71234375 8.43992187 4.3465625 8.71578125 5 9 C2.62492145 9.02719556 0.25016036 9.04693247 -2.125 9.0625 C-3.12273438 9.07506836 -3.12273438 9.07506836 -4.140625 9.08789062 C-8.20681354 9.10782292 -12.0120092 8.78890161 -16 8 C-15.67 7.01 -15.34 6.02 -15 5 C-14.01 5 -13.02 5 -12 5 C-12 5.66 -12 6.32 -12 7 C-9.52733235 6.65555119 -9.52733235 6.65555119 -7 6 C-6.67 5.34 -6.34 4.68 -6 4 C-5.34 4.33 -4.68 4.66 -4 5 C-3.71125 4.360625 -3.4225 3.72125 -3.125 3.0625 C-2 1 -2 1 0 0 Z " fill="#A58B61" transform="translate(578,339)"/>
<path d="M0 0 C1.65 0 3.3 0 5 0 C5 0.66 5 1.32 5 2 C5.66 2.33 6.32 2.66 7 3 C6.34 3 5.68 3 5 3 C5.33 4.32 5.66 5.64 6 7 C6.99 7 7.98 7 9 7 C9.6875 9.8125 9.6875 9.8125 10 13 C8.5625 14.875 8.5625 14.875 7 16 C6.87625 15.360625 6.7525 14.72125 6.625 14.0625 C6.41875 13.381875 6.2125 12.70125 6 12 C5.34 11.67 4.68 11.34 4 11 C4 10.34 4 9.68 4 9 C3.34 9 2.68 9 2 9 C0.50178941 5.62902617 0 3.79557881 0 0 Z M4 5 C3.67 5.66 3.34 6.32 3 7 C3.66 7 4.32 7 5 7 C4.67 6.34 4.34 5.68 4 5 Z " fill="#9F844F" transform="translate(452,328)"/>
<path d="M0 0 C5.17116141 0.66983956 7.34719666 2.54072799 10.60546875 6.48046875 C13.1882918 11.14691375 12.80258047 15.85191623 12 21 C10.47506657 25.2117209 9.72020689 26.51986208 6 29 C6.60990891 25.44219804 7.5783681 22.3171411 9 19 C9.66 19 10.32 19 11 19 C10.71905418 17.1858073 10.42493567 15.37364999 10.125 13.5625 C9.96257813 12.55316406 9.80015625 11.54382813 9.6328125 10.50390625 C9.31957031 9.26447266 9.31957031 9.26447266 9 8 C8.34 7.67 7.68 7.34 7 7 C5.375 5.5625 5.375 5.5625 4 4 C4 3.34 4 2.68 4 2 C2.68 1.34 1.36 0.68 0 0 Z " fill="#DFC99E" transform="translate(596,313)"/>
<path d="M0 0 C1.32 0.33 2.64 0.66 4 1 C3.38511719 1.67095703 3.38511719 1.67095703 2.7578125 2.35546875 C2.21898437 2.96003906 1.68015625 3.56460937 1.125 4.1875 C0.59132813 4.77917969 0.05765625 5.37085938 -0.4921875 5.98046875 C-3.7490086 10.34258406 -4.25650152 14.13042692 -4.1875 19.5 C-4.18105469 20.6034375 -4.17460937 21.706875 -4.16796875 22.84375 C-4.01744156 25.67226083 -3.64204162 28.24692555 -3 31 C-5 30 -5 30 -5.66796875 28.1015625 C-7.23946742 20.61035833 -8.29213054 11.79097367 -4 5 C-3.01 4.34 -2.02 3.68 -1 3 C-0.67 2.01 -0.34 1.02 0 0 Z " fill="#97839B" transform="translate(425,309)"/>
<path d="M0 0 C0.66 0.33 1.32 0.66 2 1 C1.45859375 2.06927734 1.45859375 2.06927734 0.90625 3.16015625 C-3.33642903 11.79765344 -3.33642903 11.79765344 -2.27734375 21.1328125 C-1.52307076 23.09041404 -0.76196991 25.04538153 0 27 C-0.33 27.66 -0.66 28.32 -1 29 C-5.87223122 22.85675194 -5.68145276 16.61254459 -5 9 C-3.90020141 5.6756088 -2.52331987 2.52331987 0 0 Z " fill="#7D654B" transform="translate(425,313)"/>
<path d="M0 0 C0.99 0 1.98 0 3 0 C3.4125 0.433125 3.825 0.86625 4.25 1.3125 C8.83443331 5.73320355 14.00249915 6.33217298 20.08203125 6.30078125 C22.23691519 6.15576303 22.23691519 6.15576303 24 4 C26.625 4.375 26.625 4.375 29 5 C27.98046875 6.46875 27.98046875 6.46875 26 8 C23.32996102 8.3564012 20.98133466 8.5228444 18.3125 8.5 C17.59368652 8.49718018 16.87487305 8.49436035 16.13427734 8.49145508 C10.4322231 8.31758831 6.13757956 7.14926764 2 3 C1.34 2.01 0.68 1.02 0 0 Z " fill="#775F44" transform="translate(425,342)"/>
<path d="M0 0 C0.99 0.33 1.98 0.66 3 1 C3.33 1.99 3.66 2.98 4 4 C4.99 4.33 5.98 4.66 7 5 C8.18519265 7.43276386 9 9.28017286 9 12 C8.01 11.67 7.02 11.34 6 11 C6 10.34 6 9.68 6 9 C5.34 9 4.68 9 4 9 C2.64499081 7.68870078 1.31328657 6.35308313 0 5 C-0.99 4.34 -1.98 3.68 -3 3 C-2.01 2.01 -1.02 1.02 0 0 Z " fill="#A28A55" transform="translate(505,754)"/>
<path d="M0 0 C0.99 0.33 1.98 0.66 3 1 C3.66666667 2.66666667 4.33333333 4.33333333 5 6 C5.99 6.33 6.98 6.66 8 7 C9.1875 9.5625 9.1875 9.5625 10 12 C8.68 12.33 7.36 12.66 6 13 C5.731875 12.030625 5.46375 11.06125 5.1875 10.0625 C4.795625 9.051875 4.40375 8.04125 4 7 C3.01 6.67 2.02 6.34 1 6 C0.67 4.02 0.34 2.04 0 0 Z " fill="#876E39" transform="translate(502,761)"/>
<path d="M0 0 C4.95 0.99 4.95 0.99 10 2 C10.33 2.99 10.66 3.98 11 5 C7.25 8 7.25 8 5 8 C5 7.34 5 6.68 5 6 C4.01 5.67 3.02 5.34 2 5 C0.8125 2.4375 0.8125 2.4375 0 0 Z " fill="#917F4A" transform="translate(510,768)"/>
<path d="M0 0 C0.33 0.66 0.66 1.32 1 2 C1.99 2 2.98 2 4 2 C3.34 3.65 2.68 5.3 2 7 C1.01 6.34 0.02 5.68 -1 5 C-2.54766142 4.4172881 -4.11192222 3.87735813 -5.6875 3.375 C-6.49574219 3.11460937 -7.30398438 2.85421875 -8.13671875 2.5859375 C-8.75160156 2.39257812 -9.36648438 2.19921875 -10 2 C-10 1.67 -10 1.34 -10 1 C-6.7 0.67 -3.4 0.34 0 0 Z " fill="#9F8D55" transform="translate(520,766)"/>
<path d="M0 0 C0.95390625 -0.01417969 1.9078125 -0.02835937 2.890625 -0.04296875 C5.87699459 0.1977359 8.04370741 0.938062 10.75 2.1875 C7.75 3.6875 7.75 3.6875 4.75 5.1875 C4.09 4.8575 3.43 4.5275 2.75 4.1875 C2.75 3.5275 2.75 2.8675 2.75 2.1875 C-0.93754757 2.68581724 -2.85490662 3.28817643 -5.25 6.1875 C-5.63218767 4.53135343 -5.96395102 2.86292976 -6.25 1.1875 C-4.53783874 -0.52466126 -2.33192944 0.01558776 0 0 Z " fill="#AD956D" transform="translate(443.25,305.8125)"/>
<path d="M0 0 C1.32 0.33 2.64 0.66 4 1 C4.1953125 7.0546875 4.1953125 7.0546875 4 9 C3.34 9.66 2.68 10.32 2 11 C1.67 9.35 1.34 7.7 1 6 C0.01 6 -0.98 6 -2 6 C-1.49396008 3.83125748 -1.00016187 2.00032373 0 0 Z " fill="#A9915C" transform="translate(460,329)"/>
<path d="M0 0 C0.66 0.33 1.32 0.66 2 1 C0.68 2.32 -0.64 3.64 -2 5 C-2.66 4.67 -3.32 4.34 -4 4 C-2.68 2.68 -1.36 1.36 0 0 Z M-5 5 C-5 9.15560231 -7.2820452 10.84099329 -10 13.6875 C-10.47695313 14.19861328 -10.95390625 14.70972656 -11.4453125 15.23632812 C-12.62359915 16.49709484 -13.81095253 17.74937686 -15 19 C-15.66 18.67 -16.32 18.34 -17 18 C-15.56354149 16.39490066 -14.12579294 14.79095576 -12.6875 13.1875 C-11.88699219 12.29417969 -11.08648438 11.40085937 -10.26171875 10.48046875 C-8.54775419 8.60073214 -6.82122396 6.77407253 -5 5 Z " fill="#9186A9" transform="translate(622,503)"/>
<path d="M0 0 C0.99 0.33 1.98 0.66 3 1 C-2.28 5.29 -7.56 9.58 -13 14 C-13.66 13.34 -14.32 12.68 -15 12 C-13.68 11.34 -12.36 10.68 -11 10 C-11 9.34 -11 8.68 -11 8 C-10.01 8 -9.02 8 -8 8 C-7.67 7.01 -7.34 6.02 -7 5 C-2.66666667 2 -2.66666667 2 0 2 C0 1.34 0 0.68 0 0 Z " fill="#9084A9" transform="translate(613,453)"/>
<path d="M0 0 C1.32 0.33 2.64 0.66 4 1 C4 1.66 4 2.32 4 3 C5.32 2.67 6.64 2.34 8 2 C8.33 2.66 8.66 3.32 9 4 C3.03325384 5.32594359 -2.92583615 5.0884587 -9 5 C-9 4.67 -9 4.34 -9 4 C-8.43410156 3.87882812 -7.86820313 3.75765625 -7.28515625 3.6328125 C-6.18494141 3.38144531 -6.18494141 3.38144531 -5.0625 3.125 C-4.33160156 2.96257812 -3.60070312 2.80015625 -2.84765625 2.6328125 C-0.79299706 2.17038477 -0.79299706 2.17038477 0 0 Z " fill="#7E6746" transform="translate(546,343)"/>
<path d="M0 0 C0.33 0 0.66 0 1 0 C1.33 5.28 1.66 10.56 2 16 C2.99 16.33 3.98 16.66 5 17 C5 17.66 5 18.32 5 19 C3.02 19 1.04 19 -1 19 C-0.67 12.73 -0.34 6.46 0 0 Z " fill="#806A3E" transform="translate(511,721)"/>
<path d="M0 0 C4.62 0 9.24 0 14 0 C13.01 1.485 13.01 1.485 12 3 C11.34 3 10.68 3 10 3 C9.67 3.99 9.34 4.98 9 6 C8.67 4.68 8.34 3.36 8 2 C5.36 2 2.72 2 0 2 C0 1.34 0 0.68 0 0 Z " fill="#7C643F" transform="translate(537,313)"/>
<path d="M0 0 C1.65 0 3.3 0 5 0 C5 3.3 5 6.6 5 10 C4.67 10 4.34 10 4 10 C4 8.02 4 6.04 4 4 C2.02 4 0.04 4 -2 4 C-2 3.34 -2 2.68 -2 2 C-1.34 2 -0.68 2 0 2 C0 1.34 0 0.68 0 0 Z " fill="#BDA77B" transform="translate(512,682)"/>
<path d="M0 0 C0.66 0 1.32 0 2 0 C2 0.66 2 1.32 2 2 C3.65 2.33 5.3 2.66 7 3 C3.93753253 4.78409802 1.77920727 5.22880021 -1.75 5.125 C-2.54921875 5.10695313 -3.3484375 5.08890625 -4.171875 5.0703125 C-4.77515625 5.04710937 -5.3784375 5.02390625 -6 5 C-6 4.67 -6 4.34 -6 4 C-4.35 4 -2.7 4 -1 4 C-0.67 2.68 -0.34 1.36 0 0 Z " fill="#C1A97D" transform="translate(589,343)"/>
<path d="M0 0 C5.46900489 0.48613377 5.46900489 0.48613377 7.9375 2.875 C8.288125 3.57625 8.63875 4.2775 9 5 C8.67 5.99 8.34 6.98 8 8 C7.34 6.68 6.68 5.36 6 4 C4.35 4.33 2.7 4.66 1 5 C0.67 3.35 0.34 1.7 0 0 Z " fill="#BCA67C" transform="translate(453,309)"/>
<path d="M0 0 C0.99 0.66 1.98 1.32 3 2 C-0.20380017 4.13586678 -1.01939967 4.23132175 -4.6875 4.125 C-5.89986328 4.09792969 -5.89986328 4.09792969 -7.13671875 4.0703125 C-8.05904297 4.03550781 -8.05904297 4.03550781 -9 4 C-8.67 3.01 -8.34 2.02 -8 1 C-7.01 1 -6.02 1 -5 1 C-5 1.66 -5 2.32 -5 3 C-3.35 2.67 -1.7 2.34 0 2 C0 1.34 0 0.68 0 0 Z " fill="#9C8152" transform="translate(571,343)"/>
<path d="M0 0 C0.99 0.33 1.98 0.66 3 1 C3 1.66 3 2.32 3 3 C4.32 3.66 5.64 4.32 7 5 C6.67 5.66 6.34 6.32 6 7 C3.5625 6.3125 3.5625 6.3125 1 5 C0.1875 2.375 0.1875 2.375 0 0 Z " fill="#B4965C" transform="translate(454,320)"/>
<path d="M0 0 C0.66 0 1.32 0 2 0 C2 0.99 2 1.98 2 3 C2.66 3 3.32 3 4 3 C3.67 3.99 3.34 4.98 3 6 C0.9375 6.6875 0.9375 6.6875 -1 7 C-1.04254356 5.00045254 -1.04080783 2.99958364 -1 1 C-0.67 0.67 -0.34 0.34 0 0 Z " fill="#9D824E" transform="translate(562,315)"/>
<path d="M0 0 C3.35358125 1.11786042 5.31158141 2.74754119 8 5 C7.67 5.99 7.34 6.98 7 8 C3.83282717 6.41641358 2.26731682 5.54736301 0.6875 2.3125 C0.460625 1.549375 0.23375 0.78625 0 0 Z " fill="#9B804A" transform="translate(436,313)"/>
<path d="M0 0 C0.66 0.33 1.32 0.66 2 1 C2 1.99 2 2.98 2 4 C2.66 4.33 3.32 4.66 4 5 C3.360625 5.12375 2.72125 5.2475 2.0625 5.375 C1.0415625 5.684375 1.0415625 5.684375 0 6 C-0.33 6.66 -0.66 7.32 -1 8 C-1.93065133 5.39417629 -2.14917407 4.35801776 -1.0625 1.75 C-0.711875 1.1725 -0.36125 0.595 0 0 Z " fill="#A58953" transform="translate(569,322)"/>
<path d="M0 0 C0.99 0 1.98 0 3 0 C4.6875 2 4.6875 2 6 4 C1.25 5.125 1.25 5.125 -1 4 C-0.67 2.68 -0.34 1.36 0 0 Z " fill="#967E45" transform="translate(508,763)"/>
<path d="M0 0 C-1.26691507 0.67408308 -2.53870749 1.33900497 -3.8125 2 C-4.52019531 2.37125 -5.22789062 2.7425 -5.95703125 3.125 C-8 4 -8 4 -11 4 C-4.45754717 -1.33726415 -4.45754717 -1.33726415 0 0 Z " fill="#8F7A63" transform="translate(437,308)"/>
<path d="M0 0 C0.66 0.33 1.32 0.66 2 1 C0.88121617 2.17262904 -0.24523051 3.33795138 -1.375 4.5 C-2.00148438 5.1496875 -2.62796875 5.799375 -3.2734375 6.46875 C-5 8 -5 8 -7 8 C-6.67 7.01 -6.34 6.02 -6 5 C-5.34 5 -4.68 5 -4 5 C-4 4.34 -4 3.68 -4 3 C-2 1.375 -2 1.375 0 0 Z " fill="#9084A8" transform="translate(595,468)"/>
<path d="M0 0 C1.5625 1.0625 1.5625 1.0625 3 3 C2.6875 6.6875 2.6875 6.6875 2 10 C1.67 10 1.34 10 1 10 C0.896875 9.05125 0.79375 8.1025 0.6875 7.125 C0.31460705 3.70892499 0.31460705 3.70892499 -3 2 C-2.01 2 -1.02 2 0 2 C0 1.34 0 0.68 0 0 Z " fill="#B49F70" transform="translate(463,326)"/>
<path d="M0 0 C0.66 0 1.32 0 2 0 C0.71480435 2.86697492 -0.57129254 4.97607712 -3 7 C-3.66 7 -4.32 7 -5 7 C-4.34 5.68 -3.68 4.36 -3 3 C-2.34 3 -1.68 3 -1 3 C-0.67 2.01 -0.34 1.02 0 0 Z " fill="#9489AC" transform="translate(585,477)"/>
</svg>
