<?xml version="1.0" encoding="utf-8"?>
<!-- Generator: Adobe Illustrator 27.5.0, SVG Export Plug-In . SVG Version: 6.00 Build 0)  -->
<svg version="1.1" xmlns="http://www.w3.org/2000/svg" xmlns:xlink="http://www.w3.org/1999/xlink" x="0px" y="0px"
	 viewBox="0 0 500 500" style="enable-background:new 0 0 500 500;" xml:space="preserve">
<g id="BACKGROUND">
	<rect style="fill-rule:evenodd;clip-rule:evenodd;fill:#FFFFFF;" width="500" height="500"/>
</g>
<g id="OBJECTS">
	<g>
		<g>
			<path style="fill-rule:evenodd;clip-rule:evenodd;fill:#E3D9EB;" d="M350.395,151.423c13.09,7.819,26.991,18.835,39.676,31.773
				c57.81,58.963,56.718,155.79-26.617,175.999c-53.351,12.938-111.998,31.221-159.369,41.911
				c-52.002,11.736-102.932-9.588-126.642-73.348C32.437,206.73,194.136,58.086,350.395,151.423z"/>
		</g>
		<g>
			<path style="fill-rule:evenodd;clip-rule:evenodd;fill:#5C7649;" d="M326.044,282.952c-3.242,3.08-21.349,15.755-34.721,27.935
				c-16.105,14.671-27.696,28.805-29.171,26.978C256.332,334.368,307.564,282.826,326.044,282.952z"/>
		</g>
		<g>
			<path style="fill-rule:evenodd;clip-rule:evenodd;fill:#5C7649;" d="M147.442,277.739c20.46,19.44,45.749,36.861,67.7,59.322
				C218.327,338.344,178.516,277.528,147.442,277.739z"/>
		</g>
		<g>
			<g>
				<path style="fill-rule:evenodd;clip-rule:evenodd;fill:#FFFFFF;" d="M208.493,392.34c-3.403-12.604-7.153-22.115-13.567-33.502
					c-3.105-4.938-27.92-36.363-27.822-37.607c6.469-0.668,31.292,28.349,34.767,33.116c8.004,11.705,12.501,21.815,16.244,35.477
					c0.259,1.124,1.044,3.991,1.863,7.529c-3.43,0.842-6.813,1.654-10.145,2.433C209.405,396.998,208.988,394.392,208.493,392.34z"
					/>
			</g>
			<g>
				<path style="fill-rule:evenodd;clip-rule:evenodd;fill:#FFFFFF;" d="M150.941,400.855
					c-6.929-10.208-33.805-42.625-33.885-42.919c10.869-2.516,37.529,31.323,43.095,39.756c1.162,1.882,2.273,3.744,3.346,5.608
					C159.248,402.75,155.057,401.934,150.941,400.855z"/>
			</g>
			<g>
				<path style="fill-rule:evenodd;clip-rule:evenodd;fill:#FFFFFF;" d="M266.35,385.169c2.492-12.831,5.98-23.101,12.44-35.075
					c4.52-7.692,30.506-42.431,39.875-43.233c-0.007,0.075-29.023,40.612-32.305,47.07c-4.476,9.891-7.216,18.481-9.307,28.297
					C273.47,383.216,269.9,384.198,266.35,385.169z"/>
			</g>
			<g>
				<path style="fill-rule:evenodd;clip-rule:evenodd;fill:#FFFFFF;" d="M332.966,366.96c1.525-6.832,3.631-12.954,6.743-19.814
					c2.902-5.914,19.737-33.567,26.94-32.737c0.023,0.158-17.399,32.153-18.917,36.027c-1.689,4.766-3.003,9.192-4.079,13.729
					C340.102,365.081,336.539,366.014,332.966,366.96z"/>
			</g>
			<g>
				<path style="fill-rule:evenodd;clip-rule:evenodd;fill:#FFFFFF;" d="M171.869,404.042c-2.783-8.125-5.695-15.878-9.389-23.934
					c-4.911-10.352-9.611-18.322-17.16-27.003c-3.688-3.949-26.198-19.145-26.798-20.46c5.637-3.402,27.195,11.697,31.673,15.627
					c8.993,8.638,14.584,16.824,20.445,27.764c4.804,9.428,8.36,18.278,11.716,28.03
					C178.834,404.224,175.336,404.213,171.869,404.042z"/>
			</g>
			<g>
				<path style="fill-rule:evenodd;clip-rule:evenodd;fill:#FFFFFF;" d="M289.535,375.076c3.555-13.953,8.273-25.316,14.991-38.041
					c5.688-9.988,35.303-53.568,47.849-52.596c-0.176,0.762-35.12,47.317-39.87,56.66c-5.608,11.789-9.689,22.405-12.944,34.916
					c-3.646,1.004-7.287,2.01-10.917,3.013C289.053,377.18,289.392,375.769,289.535,375.076z"/>
			</g>
			<g>
				<path style="fill-rule:evenodd;clip-rule:evenodd;fill:#FFFFFF;" d="M310.527,373.005c2.232-7.991,4.946-15.237,8.48-23.046
					c5.259-10.948,10.536-19.501,18.441-28.761c3.442-3.761,22.679-21.898,28.055-19.629c-0.119,0.725-20.342,21.092-22.518,24.005
					c-6.541,9.264-11.019,17.715-15.426,28.141c-2.28,5.538-4.18,10.806-5.84,16.251
					C317.991,370.971,314.259,371.985,310.527,373.005z"/>
			</g>
			<g>
				<path style="fill-rule:evenodd;clip-rule:evenodd;fill:#FFFFFF;" d="M192.65,403.149c-4.326-14.675-9.56-26.516-16.98-39.963
					c-3.598-6.064-39.857-52.318-39.941-52.878c10.342-1.483,42.142,40.483,47.37,48.413c8.688,14.053,14.624,26.448,19.296,42.317
					c0.027,0.112,0.063,0.25,0.104,0.41C199.207,402.147,195.922,402.717,192.65,403.149z"/>
			</g>
		</g>
		<g>
			<g>
				<g>
					<path style="fill-rule:evenodd;clip-rule:evenodd;fill:#6D4133;" d="M236.268,459.357c-2.368,0.161-4.246,0.059-6.585-0.244
						c-4.849-0.701-8.642-1.938-13.633-1.337c-3.073,0.535-5.45,1.811-8.679,2.399c-2.061,0.292-3.56,0.215-5.552-0.307
						c-1.204-0.401-6.143-2.73-6.094-3.756c0.088-0.016,5.619,2.059,6.627,2.246c1.649,0.271,2.809,0.228,4.424-0.143
						c3.101-0.81,5.244-2.198,8.571-2.963c5.82-0.986,9.316,0.109,14.915,0.805c2.002,0.217,3.618,0.294,5.637,0.157
						c0.568-0.045,1.112-0.106,1.674-0.186c4.737-0.89,8.897-3.559,9.762-1.766c2.73,2.228-7.462,4.531-9.044,4.861
						C237.611,459.228,236.956,459.304,236.268,459.357z"/>
				</g>
				<g>
					<path style="fill-rule:evenodd;clip-rule:evenodd;fill:#6D4133;" d="M245.012,462.31c-1.584,1.603-3.039,3.401-4.731,4.912
						c-1.319,1.17-2.503,1.941-4.369,2.47c-1.48,0.369-2.602,0.403-4.122,0.213c-1.415-0.214-3.946-0.971-5.113-0.948
						c-2.342,0.184-3.726,0.352-5.864,1.262c-1.491,0.658-2.485,1.337-3.614,2.357c-0.671,0.616-3.928,4.53-4.021,4.55
						c-0.674-0.734,1.945-4.822,2.469-5.501c1.143-1.314,2.205-2.21,3.833-3.14c2.449-1.241,3.97-1.528,6.711-1.983
						c2.302-0.243,3.86,0.412,6.075,0.655c0.915,0.071,1.57,0.045,2.442-0.206c1.154-0.389,1.894-0.955,2.703-1.712
						c1.579-1.576,2.968-3.286,4.532-4.893c0.448-0.453,0.905-0.884,1.381-1.317c1.329-1.163,2.519-2.054,4.22-2.854
						c1.671-0.646,5.562-2.186,5.232,0.098c0.35,1.69-0.291,0.924-3.304,2.444c-1.266,0.725-2.202,1.478-3.235,2.41
						C245.813,461.513,245.411,461.906,245.012,462.31z"/>
				</g>
				<g>
					<path style="fill-rule:evenodd;clip-rule:evenodd;fill:#6D4133;" d="M256.563,460.601c0.483,0.886,0.794,1.722,1.086,2.65
						c0.06,0.192,0.13,0.323,0.304,0.476c0.214,0.175,0.458,0.277,0.755,0.378c1.123,0.356,2.434,0.461,3.666,0.551
						c3.86,0.257,7.15,0.233,10.807,1.22c2.559,0.833,2.614,1.603,4.257,2.89c0.785,0.594,1.487,0.887,2.571,1.185
						c1.008,0.288,5.779,1.025,5.899,1.169c-0.564,0.645-5.675,0.411-6.601,0.313c-1.517-0.253-2.552-0.56-3.776-1.216
						c-1.269-0.765-2.103-1.742-3.648-2.119c-3.222-0.608-6.655-0.445-9.993-0.527c-1.845-0.068-3.385-0.172-5.099-0.639
						c-0.907-0.276-1.532-0.556-2.216-1.053c-0.715-0.56-1.078-1.064-1.342-1.798c-0.261-0.763-0.533-1.48-0.933-2.208
						c-0.35-0.608-0.684-1.075-1.26-1.585c-0.558-0.463-1.053-0.741-1.797-1.047c-3.026-1.146-3.3-0.582-2.612-1.998
						c0.221-1.746,1.627-1.377,4.624-0.675c1.358,0.415,2.259,0.864,3.262,1.621C255.474,458.959,256.014,459.652,256.563,460.601z"
						/>
				</g>
				<g>
					<path style="fill-rule:evenodd;clip-rule:evenodd;fill:#6D4133;" d="M263.357,454.018c1.946,0.499,3.519,1.052,5.243,1.893
						c1.852,0.946,3.222,1.869,4.416,3.372c0.364,0.474,0.715,0.729,1.31,1.009c0.817,0.36,1.629,0.528,2.558,0.68
						c3.081,0.486,6.619,0.604,9.802,0.789c0.72,0.049,1.237,0.155,1.855,0.422c0.526,0.244,0.866,0.487,1.256,0.856
						c0.633,0.642,1.107,1.355,1.704,2.023c0.823,0.924,1.557,1.457,2.77,2.048c0.717,0.344,6.149,2.031,6.155,2.039
						c-0.876,0.672-6.166-0.404-7.112-0.685c-1.541-0.564-2.527-1.129-3.673-2.108c-0.629-0.577-1.204-1.269-1.857-1.8
						c-0.215-0.166-0.397-0.287-0.675-0.387c-0.154-0.083-0.649-0.116-0.845-0.116c-3.381-0.035-6.993,0.01-10.301-0.323
						c-1.317-0.165-2.367-0.363-3.549-0.817c-1.143-0.478-1.858-0.972-2.581-1.827c-0.94-1.078-2.085-1.77-3.472-2.447
						c-1.486-0.688-2.863-1.151-4.517-1.573c-0.285-0.071-0.57-0.137-0.859-0.2c-1.981-0.41-3.702-0.633-5.789-0.668
						c-3.818,0.093-4.624,1.073-5.086-0.515c-1.467-2.058,3.265-2.302,5.405-2.496c2.481-0.101,4.513,0.133,6.85,0.605
						C262.698,453.861,263.028,453.938,263.357,454.018z"/>
				</g>
				<g>
					<path style="fill-rule:evenodd;clip-rule:evenodd;fill:#6D4133;" d="M278.564,452.07c4.665,1.27,4.312,2.447,10.191,1.417
						c1.298-0.255,2.335-0.395,3.629-0.353c1.49,0.095,2.488,0.393,3.583,1.143c1.087,0.787,2.058,1.27,3.447,1.679
						c1.347,0.355,2.455,0.478,3.933,0.421c1.498-0.094,2.656-0.329,4.098-0.833c0.652-0.247,4.126-1.999,4.202-1.987
						c0.29,0.681-3.053,2.8-3.62,3.111c-1.605,0.804-2.941,1.215-4.712,1.496c-1.82,0.245-3.207,0.208-4.921-0.097
						c-1.813-0.367-3.079-0.876-4.531-1.764c-0.648-0.376-1.195-0.487-2.031-0.492c-0.926,0.021-1.724,0.181-2.64,0.4
						c-6.92,1.471-6.869,0.386-12.204-1.047c-7.061-1.183-14.723,1.954-14.109-0.368C260.71,451.719,276.458,451.74,278.564,452.07z
						"/>
				</g>
				<g>
					<path style="fill-rule:evenodd;clip-rule:evenodd;fill:#6D4133;" d="M235.984,461.662c-2.035,0.931-4.012,2.044-6.12,2.879
						c-1.643,0.646-3.025,1.004-4.984,1.024c-1.538-0.022-2.623-0.233-4.016-0.708c-1.285-0.469-3.463-1.605-4.587-1.836
						c-2.302-0.353-3.682-0.515-6.023-0.25c-1.641,0.204-2.812,0.531-4.225,1.097c-0.843,0.346-5.229,2.749-5.323,2.746
						c-0.408-0.726,3.424-3.4,4.146-3.828c1.521-0.796,2.828-1.279,4.688-1.667c2.746-0.462,4.296-0.366,7.068-0.143
						c2.283,0.297,3.561,1.147,5.604,1.81c0.854,0.251,1.488,0.369,2.406,0.357c1.231-0.063,2.123-0.355,3.142-0.779
						c2.024-0.911,3.907-1.969,5.926-2.907c0.576-0.264,1.152-0.507,1.749-0.748c1.649-0.639,3.079-1.09,4.965-1.361
						c1.812-0.156,6.034-0.548,4.979,1.188c-0.213,1.413-0.579,0.669-3.956,1.232c-1.446,0.305-2.589,0.701-3.879,1.218
						C237.012,461.202,236.498,461.428,235.984,461.662z"/>
				</g>
			</g>
			<g>
				<g>
					<path style="fill-rule:evenodd;clip-rule:evenodd;fill:#7A9253;" d="M355.402,178.058
						c-0.972,14.742-8.721,34.748-11.523,46.064c-8.179,33.001-24.842,49.863-37.708,64.486
						c-27.537,28.455-67.118,52.914-65.674,87.584c0.154,3.679-17.885-12.879,16.402-56.254
						c34.03-43.048,50.334-40.89,74.773-101.749C336.943,205.064,356.727,157.913,355.402,178.058z"/>
				</g>
				<g>
					<path style="fill-rule:evenodd;clip-rule:evenodd;fill:#2C492E;" d="M246.503,345.192c-0.116,0.218-0.4,0.306-0.63,0.194
						c-0.232-0.111-0.324-0.378-0.207-0.595c8.985-16.704,24.909-32.038,40.402-46.959c15.968-15.374,31.477-30.311,38.37-45.78
						c13.617-30.554,28.151-77.248,28.193-77.383c0.073-0.235,0.335-0.369,0.583-0.299c0.249,0.069,0.392,0.316,0.317,0.551
						c-0.041,0.135-14.589,46.875-28.227,77.476c-6.963,15.622-22.535,30.619-38.566,46.056
						C271.296,313.324,255.424,328.609,246.503,345.192z"/>
				</g>
				<g>
					<path style="fill-rule:evenodd;clip-rule:evenodd;fill:#2C492E;" d="M169.26,230.373c-0.275-0.415-0.142-0.962,0.296-1.221
						c0.44-0.26,1.02-0.134,1.295,0.281c1.807,2.732,3.907,5.861,6.082,9.099c22.284,33.177,52.712,78.482,60.189,143.662
						c0.056,0.486-0.318,0.924-0.833,0.977c-0.516,0.053-0.98-0.3-1.036-0.787c-7.43-64.764-37.727-109.872-59.912-142.905
						C173.297,236.435,171.326,233.498,169.26,230.373z"/>
				</g>
				<g>
					<path style="fill-rule:evenodd;clip-rule:evenodd;fill:#7A9253;" d="M236.713,375.762c-0.419-0.004-9.098-51.467-20.085-92.891
						c-0.777-2.926-11.554-41.209-24.129-74.532c-15.747-41.727-32.7-78.766-17.877-64.231
						c36.664,35.953,66.53,151.602,65.865,210.313C240.382,363.745,236.98,366.611,236.713,375.762z"/>
				</g>
				<g>
					<path style="fill-rule:evenodd;clip-rule:evenodd;fill:#5C7649;" d="M233.645,360.284c-3.53-18.411-9.771-50.094-17.018-77.413
						c-0.777-2.926-11.554-41.209-24.129-74.532c-13.684-36.257-28.27-68.966-22.138-67.386c0.762,2.238,1.578,4.681,1.578,4.681
						s42.042,80.584,53.219,139.544C233.225,327.731,233.896,350.761,233.645,360.284z"/>
				</g>
				<g>
					<path style="fill-rule:evenodd;clip-rule:evenodd;fill:#2C492E;" d="M188.072,105.627c-0.268-0.42-0.127-0.965,0.317-1.219
						c0.443-0.254,1.022-0.121,1.292,0.299c9.701,15.076,18.089,41.674,24.939,70.522c11.494,48.403,18.679,103.207,20.434,120.377
						c0.049,0.486-0.329,0.92-0.845,0.966c-0.516,0.047-0.974-0.311-1.024-0.796c-1.752-17.139-8.924-71.843-20.398-120.164
						C205.976,146.931,197.656,120.521,188.072,105.627z"/>
				</g>
				<g>
					<path style="fill-rule:evenodd;clip-rule:evenodd;fill:#2C492E;" d="M242.989,195.508c0.248-0.568-0.027-1.235-0.617-1.49
						c-0.589-0.255-1.268,0-1.516,0.568c-0.048,0.11-17.051,36.898-2.28,184.134c0.06,0.622,0.626,1.089,1.263,1.044
						c0.637-0.044,1.104-0.586,1.044-1.208C226.17,231.889,242.941,195.618,242.989,195.508z"/>
				</g>
				<g>
					<path style="fill-rule:evenodd;clip-rule:evenodd;fill:#2C492E;" d="M353.782,137.28c0.394-0.32,0.987-0.28,1.327,0.091
						c0.339,0.371,0.295,0.931-0.097,1.252c-0.272,0.221-94.297,75.824-110.63,212.979c-0.056,0.487-0.52,0.84-1.037,0.787
						c-0.516-0.053-0.889-0.491-0.833-0.979C258.927,213.555,353.511,137.503,353.782,137.28z"/>
				</g>
				<g>
					<path style="fill-rule:evenodd;clip-rule:evenodd;fill:#2C492E;" d="M234.829,363.645c-0.106,0.478-0.604,0.785-1.111,0.687
						c-0.508-0.1-0.833-0.569-0.728-1.049c0.12-0.54,41.471-187.654,75.581-270.623c0.186-0.457,0.73-0.684,1.215-0.508
						c0.483,0.176,0.726,0.689,0.538,1.146C276.269,176.135,234.947,363.103,234.829,363.645z"/>
				</g>
				<g>
					<path style="fill-rule:evenodd;clip-rule:evenodd;fill:#7A9253;" d="M315.195,166.294
						c-8.603,6.684-20.611,17.242-31.701,31.544c-46.138,59.502-36.395,148.026-45.72,165.167c-0.518,1.013-1.832,1.422-2.938,0.914
						c-1.105-0.508-1.774,0.89-1.257-0.123c11.917-23.148-22.569-160.794,81.051-203.334
						C333.487,152.719,325.974,157.921,315.195,166.294z"/>
				</g>
				<g>
					<path style="fill-rule:evenodd;clip-rule:evenodd;fill:#7A9253;" d="M228.856,364.877c4.481,9.508-0.209,16.094,7.846,25.012
						c0.712,0.789,1.857,0.959,2.563,0.378c0.704-0.58,0.699-1.691-0.012-2.48c-5.323-5.842,8.444-58.292-56.052-108.754
						c-20.623-16.135-55.588-27.048-76.867-24.011c-11.213,1.601,2.151,4.622,17.355,9.956
						C170.33,281.339,208.229,321.114,228.856,364.877z"/>
				</g>
				<g>
					<path style="fill-rule:evenodd;clip-rule:evenodd;fill:#5C7649;" d="M228.856,364.877c0.136,0.286,0.263,0.569,0.38,0.851
						c2.552-0.66,3.989-1.209,3.983-1.61c-0.054-3.957-2.689-23.232-35.499-61.153c-32.811-37.922-87.626-46.578-92.523-46.581
						c-0.843,0-1.853-0.039-2.898-0.139c-1.404,1.769,9.421,4.534,21.39,8.732C170.33,281.339,208.229,321.114,228.856,364.877z"/>
				</g>
				<g>
					<path style="fill-rule:evenodd;clip-rule:evenodd;fill:#7A9253;" d="M236.539,383.598c0,0,29.252-94.941,59.391-142.105
						c14.081-22.038,20.817-36.41,23.995-45.469c2.901-8.267,7.371-15.415-2.155-6.771
						C258.505,243.019,245.199,315.936,236.539,383.598z"/>
				</g>
				<g>
					<g>
						<g>
							<path style="fill-rule:evenodd;clip-rule:evenodd;fill:#6F428D;" d="M205.434,99.508c-2.65,6.146-2.65,8.205-3.395,11.25
								c-0.82,3.35-1.778,7.999-1.537,13.379c0.109,2.439-1.247,4.707-4.056,1.038c-25.571-33.395-21.993-18.757-2.836-22.693
								C197.085,101.768,201.007,101.965,205.434,99.508z"/>
						</g>
						<g>
							<path style="fill-rule:evenodd;clip-rule:evenodd;fill:#7C4C93;" d="M193.967,108.774
								c18.402-10.506,45.445-19.714,61.669-12.697c6.38,2.76,11.582,7.278,11.633,11.559c0.049,4.225-3.768,8.332-9.093,11.015
								c-12.508,6.302-26.153,0.777-35.754-1.73C207.077,112.913,193.967,108.774,193.967,108.774z"/>
						</g>
						<g>
							<path style="fill-rule:evenodd;clip-rule:evenodd;fill:#845B9C;" d="M216.242,98.646c14.159-4.899,28.999-7.064,39.394-2.568
								c6.38,2.76,11.582,7.278,11.633,11.559c0.014,1.187-0.277,2.365-0.822,3.503c-3.533,0.859-10.638,0.684-15.933,0.527
								c-6.707-0.198-30.509-2.196-34.046-2.851C213.331,108.235,212.47,103.748,216.242,98.646z"/>
						</g>
						<g>
							<path style="fill-rule:evenodd;clip-rule:evenodd;fill:#6F428D;" d="M193.967,108.774c5.322-3.038,11.365-5.967,17.66-8.427
								c-3.965,2.777-6.626,5.809-4.215,9.058c1.29,1.739,4.161,3.69,7.104,5.392C202.832,111.573,193.967,108.774,193.967,108.774z
								"/>
						</g>
						<g>
							<path style="fill-rule:evenodd;clip-rule:evenodd;fill:#916DA8;" d="M194.977,108.216c0.899-0.487,2.368-1.264,4.29-2.215
								c6.844-1.597,19.299-4.332,29.413-5.596c7.612-0.951,16.221-0.688,25.081,0.873c4.142,0.73,8.339,1.744,12.515,3.048
								c0.213,0.372,0.393,0.747,0.541,1.122c-4.412-1.423-8.853-2.515-13.229-3.286c-8.757-1.543-17.263-1.803-24.78-0.865
								c-11.68,1.46-26.503,4.891-32.115,6.243c8.374,1.127,37.162,4.891,52.684,5.517c7.539,0.304,12.461,0.359,15.643,0.32
								c-0.244,0.308-0.507,0.609-0.786,0.906c-3.229,0.022-7.977-0.047-14.896-0.326
								C232.561,113.282,200.316,108.946,194.977,108.216z"/>
						</g>
						<g>
							<path style="fill-rule:evenodd;clip-rule:evenodd;fill:#916DA8;" d="M196.597,107.318
								c1.838-19.378,10.734-62.55,35.973-62.52c9.345,0.011,16.398,9.463,11.716,21.161
								C237.427,83.091,210.816,102.271,196.597,107.318z"/>
						</g>
						<g>
							<path style="fill-rule:evenodd;clip-rule:evenodd;fill:#9D7BB0;" d="M200.648,84.313
								c4.913-19.073,14.542-39.535,31.921-39.516c3.276,0.004,6.27,1.169,8.575,3.184c-3.488,14.884-15.468,30.443-22.408,37.609
								C212.948,91.569,204.499,90.748,200.648,84.313z"/>
						</g>
						<g>
							<path style="fill-rule:evenodd;clip-rule:evenodd;fill:#7D5096;" d="M196.597,107.318c0.415-4.374,1.19-9.96,2.431-15.986
								c0.116,1.219,0.256,2.546,0.424,3.989c0.686,5.87,5.539,6.559,10.692,5.164C205.149,103.576,200.423,105.96,196.597,107.318z
								"/>
						</g>
						<g>
							<path style="fill-rule:evenodd;clip-rule:evenodd;fill:#A687B9;" d="M196.597,107.318l0.023-0.231
								c2.97-2.308,9.138-7.243,16.14-13.667c5.855-5.371,15.462-15.574,22.281-27.204c3.252-5.545,5.868-11.414,7.133-17.23
								c0.265,0.289,0.517,0.591,0.756,0.905c-1.341,5.673-3.908,11.367-7.067,16.754c-6.872,11.723-16.551,22.002-22.449,27.413
								c-5.846,5.364-11.113,9.692-14.436,12.331C198.154,106.736,197.356,107.048,196.597,107.318L196.597,107.318z
								 M196.694,106.336c3.276-7.18,12.509-27.083,20.087-40.287c5.564-9.697,11.829-16.956,15.992-21.248
								c-0.067-0.001-0.135-0.004-0.204-0.004c-0.365,0-0.727,0.011-1.087,0.029c-4.19,4.398-10.181,11.487-15.527,20.802
								c-6.811,11.868-14.945,29.11-18.921,37.734C196.905,104.399,196.791,105.392,196.694,106.336z"/>
						</g>
						<g>
							<path style="fill-rule:evenodd;clip-rule:evenodd;fill:#7C4C93;" d="M196.411,104.933
								c-0.589-11.666-3.479-44.006-17.531-60.924c-17.533-21.107-42.423-8.917-23.961,19.499
								c8.714,13.413,25.087,36.255,34.513,44.657C193.52,111.809,196.427,105.235,196.411,104.933z"/>
						</g>
						<g>
							<path style="fill-rule:evenodd;clip-rule:evenodd;fill:#845B9C;" d="M191.835,72.769
								c-2.612-10.517-6.663-21.184-12.956-28.759c-8.611-10.367-18.995-12.697-25.147-9.021
								c3.044,10.838,14.215,39.017,22.348,42.566C180.865,79.643,187.636,77.744,191.835,72.769z"/>
						</g>
						<g>
							<path style="fill-rule:evenodd;clip-rule:evenodd;fill:#6F428D;" d="M196.411,104.933c-0.25-4.943-0.913-13.598-2.663-23.219
								c-1.472,6.011-5.423,9.111-8.476,8.821c-4.031-0.385-12.571-5.132-19.561-11.266c7.28,10.171,15.543,20.85,21.693,26.973
								c3.02,1.102,6.001,1.567,8.033,0.595C196.066,105.906,196.415,105.039,196.411,104.933z"/>
						</g>
						<g>
							<path style="fill-rule:evenodd;clip-rule:evenodd;fill:#916DA8;" d="M161.559,33.431c-0.453-0.044-0.902-0.073-1.342-0.078
								c4.861,5.028,9.477,10.904,13.62,17.615c4.854,7.86,9.058,16.868,12.245,27.001c4.787,15.216,6.94,27.46,7.782,33.222
								c0.356,0.125,0.594-0.841,0.887-0.838c-0.815-5.663-2.881-17.103-7.766-32.635c-3.209-10.202-7.445-19.274-12.335-27.195
								C170.657,44.053,166.225,38.352,161.559,33.431L161.559,33.431z M152.636,35.743c0.881,3.9,3.018,11.171,8.103,21.667
								c6.257,12.916,23.776,40.504,31.134,51.945c0.291,0.454,0.567,0.883,0.826,1.284c-0.61-0.353-1.28-0.823-2.003-1.403
								c-7.57-11.783-24.636-38.71-30.813-51.459c-4.892-10.099-7.08-17.268-8.044-21.34
								C152.09,36.189,152.358,35.959,152.636,35.743z"/>
						</g>
						<g>
							<path style="fill-rule:evenodd;clip-rule:evenodd;fill:#916DA8;" d="M194.535,108.432c0,0-32.872,0.367-55.534-9.472
								c-31.077-13.491-18.654-37.515,18.219-20.332C173.117,86.036,183.112,96.079,194.535,108.432z"/>
						</g>
						<g>
							<path style="fill-rule:evenodd;clip-rule:evenodd;fill:#9D7BB0;" d="M122.266,85.368c-4.68-10.607,9.145-18.767,34.954-6.74
								c5.477,2.552,10.253,5.417,14.629,8.582c1.009,5.736-1.404,10.465-5.534,10.302
								C161.665,97.329,135.487,89.626,122.266,85.368z"/>
						</g>
						<g>
							<path style="fill-rule:evenodd;clip-rule:evenodd;fill:#7D5096;" d="M194.535,108.432c0,0-11.044,0.123-24.742-1.689
								c4.797-0.441,9.184-1.196,11.026-2.481c3.781-2.641,0.83-8.062-4.037-13.231C183.004,96.172,188.576,101.987,194.535,108.432
								z"/>
						</g>
						<g>
							<path style="fill-rule:evenodd;clip-rule:evenodd;fill:#A687B9;" d="M193.746,108.32c-0.408-0.013-0.837-0.028-1.289-0.045
								c-0.449-0.487-0.925-1.005-1.426-1.556c-10.865-11.938-47.182-28.273-63.694-32.871c0.482-0.184,0.991-0.349,1.528-0.493
								c16.407,4.746,52.096,20.935,62.879,32.784C192.477,106.946,193.143,107.669,193.746,108.32L193.746,108.32z
								 M188.762,108.099c-19.79-10.296-45.169-12.912-66.024-21.766c0.208,0.385,0.442,0.774,0.7,1.164
								c19.988,8.375,44.205,10.984,63.076,20.462C187.291,108.012,188.044,108.058,188.762,108.099z"/>
						</g>
						<g>
							<path style="fill-rule:evenodd;clip-rule:evenodd;fill:#7C4C93;" d="M194.537,110.886c0,0-1.386,0.608-3.717,2.142
								c-2.961,1.95-7.445,5.397-12.546,11.001c-22.45,24.659-37.631,25.975-43.6,19.467c-4.711-5.137-3.686-15.145,4.03-22.403
								c7.21-6.783,15.097-10.65,23.5-12.335c8.269-1.658,22.216-3.089,31.332-1.22
								C195.577,107.955,197.071,108.949,194.537,110.886z"/>
						</g>
						<g>
							<path style="fill-rule:evenodd;clip-rule:evenodd;fill:#845B9C;" d="M134.936,143.77c-0.089-0.09-0.177-0.182-0.264-0.275
								c-4.711-5.137-3.686-15.145,4.029-22.403c7.21-6.783,15.098-10.65,23.5-12.335c1.902-0.382,4.107-0.75,6.484-1.071
								c7.327,2.059,9.937,7.352-1.057,14.458C155.273,130.129,150.977,138.518,134.936,143.77z"/>
						</g>
						<g>
							<path style="fill-rule:evenodd;clip-rule:evenodd;fill:#6F428D;" d="M194.537,110.886c0,0-1.386,0.608-3.717,2.142
								c-2.961,1.95-7.445,5.397-12.546,11.001c-1.682,1.847-3.322,3.56-4.92,5.151c2.986-5.13,7.252-10.033,11.884-14.789
								c3.949-4.053,1.407-6.532-2.698-7.734c3.958-0.027,7.777,0.221,10.994,0.881
								C195.577,107.955,197.071,108.949,194.537,110.886z"/>
						</g>
						<g>
							<path style="fill-rule:evenodd;clip-rule:evenodd;fill:#916DA8;" d="M136.941,145.316c-0.325-0.189-0.633-0.394-0.928-0.614
								c5.629-1.934,13.258-5.58,21.4-12.434c8.283-6.975,15.028-12.069,20.897-15.932c4.171-2.746,13.197-6.579,16.729-8.321
								c0.067,0.038,0.346,0.179,0.518,0.343c0.194,0.187,0.273,0.399,0.135,0.446c-4.607,1.532-12.69,5.527-16.843,8.261
								c-5.846,3.85-12.563,8.922-20.809,15.865C150.096,139.619,142.607,143.297,136.941,145.316L136.941,145.316z
								 M132.115,132.585c20.058-13.79,35.729-22.305,60.732-25.192c-0.962-0.192-1.831-0.277-2.947-0.427
								c-23.561,3.221-38.424,11.303-57.492,24.325C132.292,131.724,132.196,132.156,132.115,132.585z"/>
						</g>
						<g>
							<path style="fill-rule:evenodd;clip-rule:evenodd;fill:#BE5419;" d="M158.837,85.849c0.299,0.312,0.598,0.598,0.924,0.886
								c4.906,4.031,11.509,5.421,17.809,6.709c2.847,0.587,4.81,1.554,7.113,3.152c2.212,1.625,3.792,3.192,5.513,5.237
								c1.322,1.665,2.349,3.197,3.446,4.975c0.29,0.541,0.556,1.095,0.848,1.631c0.063,0.16,0.123,0.326,0.19,0.483
								c0.013,0.033,0.029,0.126,0.034,0.163c0.004,0.024-0.004,0.052-0.007,0.076c-0.002,0.029-0.042,0.084-0.029,0.112
								c0.023,0.051,0.127,0,0.155-0.009c0.045-0.013,0.083-0.071,0.109-0.087c0.067-0.072,0.099-0.141,0.128-0.229
								c0.085-0.2,0.09-0.412,0.081-0.623c0.024-0.638-0.17-1.315-0.361-1.922c-0.577-2.033-1.589-3.876-2.745-5.682
								c-1.584-2.431-3.151-4.251-5.422-6.191c-2.591-2.1-4.859-3.351-8.22-4.222c-5.372-1.295-11.582-2.759-15.772-6.275
								c-0.077-0.038-0.587-0.558-0.679-0.655c-1.102-1.196-1.706-2.205-2.308-3.658c-1.292-3.636-0.776-6.886-3.162-6.294
								c-3.218-0.294-1.215,5.52-0.645,7.511C156.563,82.899,157.371,84.255,158.837,85.849z"/>
						</g>
						<g>
							<path style="fill-rule:evenodd;clip-rule:evenodd;fill:#BE5419;" d="M176.646,68.47c3.641,4.024,6.459,7.587,9.234,12.175
								c5.568,9.989,8.591,28.373,9.026,29.063c3.04-5.489-2.837-24.765-5.706-30.605c-2.721-4.99-5.519-8.752-9.382-13.042
								c-1.193-1.253-10.313-12.043-12.155-9.267C164.799,58.458,175.29,67.021,176.646,68.47z"/>
						</g>
						<g>
							<path style="fill-rule:evenodd;clip-rule:evenodd;fill:#BE5419;" d="M197.984,69.831c0.271,0.591,0.498,1.166,0.707,1.778
								c1.376,4.35,1.367,8.115,0.946,12.596c-0.369,2.714-5.027,22.018-3.862,22.989c1.957-0.921,7.015-20.422,7.431-22.593
								c0.76-5.02,0.895-9.161-0.581-14.085c-0.246-0.747-0.515-1.437-0.845-2.157c-0.748-1.576-1.503-2.779-2.65-4.138
								c-1.206-1.244-5.833-6.221-7.048-3.418c-1.642,1.771,1.118,2.514,3.828,5.654C196.783,67.577,197.385,68.568,197.984,69.831z
								"/>
						</g>
						<g>
							<path style="fill-rule:evenodd;clip-rule:evenodd;fill:#EBBB13;" d="M194.682,86.372c0.521,6.098,1.85,17.546,0.657,22.857
								c3.237-4.23,2.972-17.462,2.51-23.091c-0.214-2.064,0.124-5.023-2.113-4.425C193.512,82.067,194.455,83.803,194.682,86.372z"
								/>
						</g>
						<g>
							<path style="fill-rule:evenodd;clip-rule:evenodd;fill:#EBBB13;" d="M184.022,88.821c1.666,2.136,3.199,4.233,4.682,6.477
								c1.578,2.391,5.895,11.048,6.46,14.208c1.533-4.581-2.837-13.622-3.876-15.446c-1.424-2.394-2.912-4.6-4.642-6.83
								c-1.432-1.765-2.763-4.424-4.407-2.938C180.471,85.595,182.282,86.616,184.022,88.821z"/>
						</g>
						<g>
							<path style="fill-rule:evenodd;clip-rule:evenodd;fill:#EBBB13;" d="M178.387,99.145
								c11.739,3.518,14.239,7.005,16.891,10.184c-1.739-6.84-10.787-11.213-15.813-12.815c-2.249-0.678-3.255-1.473-3.982,0.018
								C174.382,98.179,176.263,98.454,178.387,99.145z"/>
						</g>
						<g>
							<path style="fill-rule:evenodd;clip-rule:evenodd;fill:#D27019;" d="M200.313,75.191c-0.616-7.007-4.874-11.092-8.704-13.582
								c0.052-0.251,0.203-0.514,0.473-0.805c1.215-2.803,5.842,2.174,7.048,3.418c1.148,1.36,1.902,2.562,2.65,4.138
								c0.331,0.72,0.598,1.411,0.845,2.157c0.435,1.447,0.729,2.827,0.91,4.181c0.433,3.253,0.208,6.359-0.329,9.904
								c-0.067,0.348-0.253,1.144-0.527,2.236c-0.381,1.519-0.931,3.612-1.563,5.884c-1.2-0.88-2.043-1.858-1.866-2.293
								c0.165-0.401,0.452-1.592,0.71-3.33C200.384,84.246,200.727,79.917,200.313,75.191z"/>
						</g>
						<g>
							<path style="fill-rule:evenodd;clip-rule:evenodd;fill:#D27019;" d="M182.706,74.835
								c-5.175-7.717-10.013-11.362-15.408-16.509c-0.237-0.687-0.163-1.226,0.365-1.531c1.844-2.776,10.962,8.014,12.155,9.267
								c1.297,1.44,2.474,2.821,3.568,4.208c0.693,0.879,1.353,1.76,1.989,2.661c0.771,1.093,1.507,2.214,2.226,3.394
								c0.541,0.889,1.071,1.811,1.6,2.778c0.77,1.568,1.757,4.104,2.73,7.083c0.008,0.024,0.016,0.048,0.024,0.072
								c-0.085,0.115-0.176,0.221-0.271,0.316c-0.136,0.137-0.285,0.25-0.443,0.335c-0.622,0.337-1.128,0.162-1.676-0.464
								c-0.531-0.608-1.099-1.64-1.846-3.039c-0.8-1.502-1.805-3.427-3.186-5.704C183.987,76.798,183.382,75.842,182.706,74.835z"/>
						</g>
						<g>
							<path style="fill-rule:evenodd;clip-rule:evenodd;fill:#D27019;" d="M156.48,73.427c2.386-0.592,1.87,2.657,3.162,6.294
								c0.014,0.034,0.028,0.067,0.042,0.1c0.588,1.399,1.188,2.39,2.266,3.558c0.092,0.097,0.602,0.617,0.679,0.655
								c2.588,2.171,5.948,3.561,9.403,4.61c0.248,0.075,0.496,0.15,0.746,0.221c0.663,0.192,1.329,0.373,1.991,0.545
								c1.232,0.321,2.453,0.614,3.633,0.898c0.134,0.035,0.268,0.071,0.396,0.106c0.468,0.129,0.917,0.266,1.347,0.413
								c0.876,0.298,1.681,0.637,2.45,1.025c-0.276,0.388-0.685,0.692-1.269,0.872c-0.284,0.088-0.61,0.146-0.983,0.17
								c-0.417,0.027-0.889,0.011-1.426-0.054c-0.19-0.022-0.389-0.051-0.595-0.087c-0.467-0.08-0.976-0.192-1.531-0.341
								c-0.478-0.128-1.015-0.263-1.596-0.406c-0.964-0.238-2.052-0.503-3.197-0.809c-1.242-0.333-2.553-0.716-3.855-1.171
								c-2.371-0.83-4.709-1.897-6.525-3.335c-1.121-0.887-2.042-1.912-2.654-3.109c-0.9-1.761-1.653-3.541-2.249-5.188
								c-0.648-1.788-1.11-3.419-1.375-4.705C155.612,73.482,155.984,73.382,156.48,73.427z"/>
						</g>
					</g>
					<g>
						<path style="fill-rule:evenodd;clip-rule:evenodd;fill:#80579A;" d="M145.807,68.137c1.303,1.38,5.302,4.778,7.428,3.586
							c1.595-1.309-1.874-6.099-2.823-7.181C147.954,61.9,143.626,65.422,145.807,68.137z"/>
					</g>
					<g>
						<path style="fill-rule:evenodd;clip-rule:evenodd;fill:#80579A;" d="M205.154,49.823c0.097,1.846-0.225,6.915-2.626,7.473
							c-2.109,0.123-3.199-5.586-3.327-6.986C198.987,46.799,204.69,46.443,205.154,49.823z"/>
					</g>
				</g>
				<g>
					<g>
						<g>
							<path style="fill-rule:evenodd;clip-rule:evenodd;fill:#7C4C93;" d="M333.222,159.127c3.379-0.356,19.41-2.545,33.7-2.605
								c14.069-0.059,23.415,4.838,35.463,4.811c14.46-0.033,17.28-8.482-1.663-17.194
								C385.598,137.186,358.344,135.256,333.222,159.127z"/>
						</g>
						<g>
							<path style="fill-rule:evenodd;clip-rule:evenodd;fill:#845B9C;" d="M408.742,160.616c8.431-2.22,7.678-9.258-8.021-16.477
								c-4.294-1.974-9.566-3.543-15.49-4.231c-9.076,4.563-13.874,9.369-8.504,11.377
								C382.056,153.277,396.251,154.412,408.742,160.616z"/>
						</g>
						<g>
							<path style="fill-rule:evenodd;clip-rule:evenodd;fill:#6F428D;" d="M333.222,159.127c3.022-0.318,16.155-2.102,29.116-2.519
								c-0.029-0.772-0.01-1.572,0.07-2.4c0.763-7.86,8.663-11.643,19.711-14.574C367.695,138.761,349.984,143.199,333.222,159.127z
								"/>
						</g>
						<g>
							<path style="fill-rule:evenodd;clip-rule:evenodd;fill:#916DA8;" d="M333.222,159.127c0.379-0.04,0.917-0.103,1.593-0.184
								c2.759-2.006,6.37-4.263,10.401-6.364c6.098-3.177,13.136-5.968,19.618-6.957c6.249-0.952,14.431-0.182,22.578,1.335
								c10.047,1.869,20.025,4.866,26.315,7.173c-0.178-0.449-0.427-0.911-0.748-1.387c-6.371-2.262-15.837-5.042-25.348-6.811
								c-8.266-1.539-16.582-2.317-22.972-1.343c-6.622,1.01-13.785,3.848-19.979,7.075c-3.754,1.954-7.16,4.064-9.883,6.005
								C334.272,158.146,333.746,158.629,333.222,159.127L333.222,159.127z M338.542,158.505c4.342-2.432,10.241-4.676,17.994-5.612
								c10.188-1.229,20.048-0.52,29.091,1.187c8.444,1.593,16.176,4.051,22.802,6.611c-0.615,0.15-1.276,0.276-1.982,0.374
								c-6.214-2.321-13.33-4.507-21.036-5.96c-8.94-1.686-18.681-2.387-28.736-1.174c-6.261,0.756-11.274,2.376-15.209,4.246
								C340.416,158.291,339.438,158.401,338.542,158.505z"/>
						</g>
						<g>
							<path style="fill-rule:evenodd;clip-rule:evenodd;fill:#7C4C93;" d="M332.384,160.922
								c4.553-3.201,57.219-65.972,42.023-72.649C365.164,84.21,342.337,98.882,332.384,160.922z"/>
						</g>
						<g>
							<path style="fill-rule:evenodd;clip-rule:evenodd;fill:#845B9C;" d="M373.619,87.985c-7.102-2.15-20.733,5.614-31.321,33.646
								c3.053,1.796,6.426,2.603,8.586,2.43C356.913,123.581,367.849,98.508,373.619,87.985z"/>
						</g>
						<g>
							<path style="fill-rule:evenodd;clip-rule:evenodd;fill:#6F428D;" d="M332.384,160.921
								c2.921-2.054,25.656-28.641,37.558-49.193c-7.813,8.778-22.608,23.22-28.644,16.04c-0.289-0.344-0.561-0.691-0.817-1.04
								C337.351,136.061,334.56,147.361,332.384,160.921z"/>
						</g>
						<g>
							<path style="fill-rule:evenodd;clip-rule:evenodd;fill:#916DA8;" d="M332.384,160.922c0.445-0.313,1.357-1.204,2.615-2.549
								c5.864-8.329,11.6-17.152,17.084-26.127c8.412-13.769,16.227-27.884,23.009-41.128l0.872-1.704
								c-0.243-0.282-0.521-0.537-0.847-0.751l-1.025,2c-6.784,13.248-14.586,27.344-22.968,41.062
								c-5.948,9.737-12.193,19.292-18.58,28.232C332.489,160.278,332.436,160.596,332.384,160.922L332.384,160.922z M366.33,88.738
								c-11.36,17.35-26.282,52.022-31.756,64.738l-1.093,2.538l-0.442,1.021c0.286-1.642,0.581-3.254,0.886-4.825
								c5.6-13.007,19.48-45.074,30.52-62.548C365.085,89.305,365.715,88.997,366.33,88.738z"/>
						</g>
						<g>
							<path style="fill-rule:evenodd;clip-rule:evenodd;fill:#BE5419;" d="M388.441,99.073
								c-22.451,17.817-37.859,39.95-44.173,51.803c6.468-18.914,29.518-46.12,41.063-55.323c1.68-1.266,14.803-12.396,16.284-8.699
								C404.545,89.418,390.357,97.605,388.441,99.073z"/>
						</g>
						<g>
							<path style="fill-rule:evenodd;clip-rule:evenodd;fill:#916DA8;" d="M397.583,102.865c0.262-0.151,0.602-0.073,0.762,0.173
								c0.159,0.246,0.076,0.568-0.186,0.718c-5.117,2.942-13.768,8.453-24.653,17.447c-10.898,9.005-24.033,21.497-38.112,38.395
								c-0.188,0.227-0.535,0.267-0.776,0.089c-0.24-0.177-0.283-0.505-0.095-0.732c14.128-16.958,27.315-29.498,38.257-38.537
								C383.73,111.37,392.434,105.825,397.583,102.865z"/>
						</g>
						<g>
							<path style="fill-rule:evenodd;clip-rule:evenodd;fill:#BE5419;" d="M397.024,134.925
								c-29.332,0.368-47.858,13.314-54.688,16.995c8.224-10.388,39.533-21.357,54.645-21.578c2.15,0.024,19.773-0.745,18.44,3.001
								C415.968,137.078,399.492,134.934,397.024,134.925z"/>
						</g>
						<g>
							<path style="fill-rule:evenodd;clip-rule:evenodd;fill:#916DA8;" d="M333.048,158.27c0,0,59.659-20.111,76.254-49.112
								c16.594-29.001-30.624-8.175-58.843,24.912L333.048,158.27z"/>
						</g>
						<g>
							<path style="fill-rule:evenodd;clip-rule:evenodd;fill:#9D7BB0;" d="M411.04,105.797
								c9.907-21.614-25.611-6.907-52.494,19.602c2.308,6.694,8.556,7.229,23.064-1.32
								C391.585,118.199,403.327,111.808,411.04,105.797z"/>
						</g>
						<g>
							<path style="fill-rule:evenodd;clip-rule:evenodd;fill:#7D5096;" d="M333.048,158.27c0,0,11.271-3.801,25.377-10.478
								c-3.327,0.947-6.055,1.311-7.754,0.787c-3.962-1.224-5.272-4.368-4.507-8.54L333.048,158.27z"/>
						</g>
						<g>
							<path style="fill-rule:evenodd;clip-rule:evenodd;fill:#A687B9;" d="M333.048,158.27c0,0,0.611-0.208,1.713-0.602
								c3.413-4.069,8.344-9.572,14.924-16.029c8.125-7.973,24.45-22.162,38.672-33.283c6.877-5.378,13.245-10.031,17.922-12.898
								c-0.845,0.091-1.763,0.258-2.739,0.494c-4.466,2.91-10.003,6.993-15.892,11.599c-14.239,11.134-30.604,25.359-38.764,33.367
								c-6.361,6.242-11.194,11.604-14.611,15.649L333.048,158.27L333.048,158.27z M341.229,155.228
								c9.041-8.349,22.399-19.128,38.685-27.632c15.202-7.937,24.611-14.948,30.253-20.023c-0.269,0.513-0.552,1.037-0.865,1.585
								c-0.228,0.398-0.469,0.794-0.712,1.189c-5.862,4.913-14.798,11.198-28.141,18.165c-14.985,7.824-27.478,17.589-36.377,25.58
								C343.069,154.499,342.119,154.878,341.229,155.228z"/>
						</g>
						<g>
							<path style="fill-rule:evenodd;clip-rule:evenodd;fill:#6F428D;" d="M357.413,156.899
								c-12.603,1.624-17.414,2.611-25.729,7.095c-2.647,1.427-6.367,2.964-4.047-1.899c5.275-11.063,7.748-18.384,8.988-22.755
								c0.958-3.378-1.109,8.061,2.886,12.958C342.531,156.002,348.307,155.13,357.413,156.899z"/>
						</g>
						<g>
							<path style="fill-rule:evenodd;clip-rule:evenodd;fill:#D27019;" d="M389.609,131.065c-3.196,2.245-2.581,3.332-0.915,3.136
								c2.056-0.242,18.067-0.65,25.915,0.46c0.589-0.324,0.895-0.754,0.812-1.318c1.334-3.745-16.29-2.977-18.44-3.001
								C394.817,130.374,392.322,130.626,389.609,131.065z"/>
						</g>
						<g>
							<path style="fill-rule:evenodd;clip-rule:evenodd;fill:#D27019;" d="M378.883,105.692
								c5.822-5.716,17.315-13.658,23.086-17.637c0.111-0.472,0.012-0.88-0.354-1.201c-1.481-3.697-14.605,7.434-16.284,8.699
								c-3.813,3.04-8.882,8.044-14.193,14.064c-1.236,1.401-2.485,2.858-3.735,4.356c0.173-0.001,0.36-0.024,0.559-0.066
								c0.264-0.057,0.549-0.15,0.858-0.276C371.148,112.677,374.712,109.786,378.883,105.692z"/>
						</g>
					</g>
					<g>
						<path style="fill-rule:evenodd;clip-rule:evenodd;fill:#80579A;" d="M417.08,126.093c-1.942,0.235-7.322,0.326-8.099-1.889
							c-0.295-1.975,5.651-3.444,7.12-3.674C419.794,120.056,420.614,125.394,417.08,126.093z"/>
					</g>
					<g>
						<path style="fill-rule:evenodd;clip-rule:evenodd;fill:#80579A;" d="M383.661,81.329c-0.984,1.597-3.173,6.237-1.313,7.775
							c1.811,1.025,5.564-3.569,6.361-4.756C390.61,81.325,385.722,78.53,383.661,81.329z"/>
					</g>
				</g>
				<g>
					<g>
						<g>
							<path style="fill-rule:evenodd;clip-rule:evenodd;fill:#BE5419;" d="M259.222,137.696
								c1.516,22.449-9.582,44.053-13.145,48.578c10.579-4.64,18.002-37.143,17.248-48.709c-0.157-1.643-0.577-15.152-3.844-13.997
								C256.104,123.286,259.058,135.81,259.222,137.696z"/>
						</g>
						<g>
							<path style="fill-rule:evenodd;clip-rule:evenodd;fill:#BE5419;" d="M240.942,132.547
								c-8.787,20.886-5.336,44.763-3.438,50.137c-8.512-7.594-4.911-40.728-0.409-51.497c0.686-1.515,5.507-14.232,8.227-12.15
								C248.615,119.784,241.715,130.801,240.942,132.547z"/>
						</g>
						<g>
							<path style="fill-rule:evenodd;clip-rule:evenodd;fill:#7C4C93;" d="M238.865,214.324c2.529-9.962-0.648-15.083-2.357-26.912
								c-1.751-12.111-3.798-25.813-4.082-36.793C231.596,118.452,183.993,141.481,238.865,214.324z"/>
						</g>
						<g>
							<path style="fill-rule:evenodd;clip-rule:evenodd;fill:#845B9C;" d="M224.34,136.518c-8.086-1.31-17.871,12.505-7.09,40.637
								c4.933-2.885,8.52-7.646,8.721-12.875C226.314,155.365,225.145,143.28,224.34,136.518z"/>
						</g>
						<g>
							<path style="fill-rule:evenodd;clip-rule:evenodd;fill:#6F428D;" d="M238.865,214.324c2.529-9.962-0.648-15.083-2.357-26.912
								c-1.23-8.515-2.609-17.817-3.418-26.407c0.205,6.71,0.457,18.333-0.038,23.383c-0.536,5.453-4.901,7.733-9.47,6.418
								C227.438,197.96,232.44,205.796,238.865,214.324z"/>
						</g>
						<g>
							<path style="fill-rule:evenodd;clip-rule:evenodd;fill:#916DA8;" d="M226.085,137.042c-0.35-0.159-0.707-0.28-1.067-0.378
								c1.21,4.319,1.586,11.121,2.248,23.146l0.065,1.185c0.867,15.701,6.164,39.263,8.108,47.493
								c-2.982-5.092-9.515-16.732-13.644-27.672c-2.057-5.45-3.408-12.196-4.271-18.699c-1.183-8.896-1.458-17.318-1.393-21.379
								c-0.332,0.47-0.649,0.975-0.946,1.522c0.018,4.478,0.352,12.046,1.405,19.966c0.871,6.553,2.236,13.36,4.322,18.886
								c3.563,9.44,8.903,19.393,12.239,25.259c1.195,1.74,2.447,3.511,3.767,5.316c0.132-0.108,0.19-0.278,0.152-0.438
								c-0.023-0.09-7.742-31.117-8.799-50.302l-0.066-1.185C227.571,148.273,227.198,141.492,226.085,137.042z"/>
						</g>
						<g>
							<path style="fill-rule:evenodd;clip-rule:evenodd;fill:#7C4C93;" d="M238.618,214.399
								c1.018-9.652,15.879-39.681,21.854-60.631C269.328,122.719,306.353,153.607,238.618,214.399z"/>
						</g>
						<g>
							<path style="fill-rule:evenodd;clip-rule:evenodd;fill:#845B9C;" d="M271.604,141.554
								c7.537,0.578,12.535,16.053-4.811,41.645c-11.082-1.614-8.276-11.022-7.33-14.354
								C260.359,165.684,268.137,148.6,271.604,141.554z"/>
						</g>
						<g>
							<path style="fill-rule:evenodd;clip-rule:evenodd;fill:#6F428D;" d="M238.618,214.399
								c0.573-5.423,5.515-17.281,10.795-30.346c-0.844,6.818,1.567,11.195,7.375,11.406c0.182,0.007,0.367,0.009,0.553,0.01
								C252.249,201.388,246.069,207.713,238.618,214.399z"/>
						</g>
						<g>
							<path style="fill-rule:evenodd;clip-rule:evenodd;fill:#916DA8;" d="M269.357,141.816c0.387-0.116,0.773-0.197,1.156-0.239
								c-5.211,10.373-13.466,30.63-19.474,45.374c-2.489,6.109-4.594,11.272-5.935,14.391l-4.072,9.472
								c6.041-6.713,24.929-28.398,29.457-41.985c3.939-11.826,4.367-21.569,4.307-25.996c0.331,0.262,0.646,0.566,0.944,0.907
								c-0.016,4.835-0.633,14.183-4.355,25.353c-4.804,14.415-25.446,37.691-30.424,43.169c-0.483,0.445-0.979,0.894-1.468,1.34
								c-0.05-0.002-0.102-0.013-0.151-0.032c-0.242-0.091-0.358-0.349-0.26-0.577l5.149-11.981
								c1.345-3.128,3.444-8.281,5.93-14.378C256.053,172.173,264.104,152.417,269.357,141.816z"/>
						</g>
						<g>
							<path style="fill-rule:evenodd;clip-rule:evenodd;fill:#916DA8;" d="M239.755,211.366c0,0-13.106-49.668,2.038-74.098
								c15.145-24.429,21.578,17.108,8.854,51.292L239.755,211.366z"/>
						</g>
						<g>
							<path style="fill-rule:evenodd;clip-rule:evenodd;fill:#9D7BB0;" d="M234.755,178.967
								c-0.881-14.443,0.189-30.652,7.039-41.699c4.604-7.427,8.401-8.749,11.101-6.041c1.845,10.755-1.166,35.905-6.21,43.351
								C244.352,178.023,239.421,179.725,234.755,178.967z"/>
						</g>
						<g>
							<path style="fill-rule:evenodd;clip-rule:evenodd;fill:#7D5096;" d="M239.755,211.366c0,0-2.46-9.329-4.017-21.888
								c2.063,4.671,4.863,5.814,8.008,6.008c1.708,0.105,3.514-1.314,5.23-3.431L239.755,211.366z"/>
						</g>
						<g>
							<path style="fill-rule:evenodd;clip-rule:evenodd;fill:#A687B9;" d="M239.656,210.976c-0.087-0.342-0.224-0.899-0.402-1.655
								c2.914-8.23,12.6-36.735,13.833-55.372c0.754-11.376,0.63-18.195,0.336-22.127c0.368,0.467,0.713,1.017,1.033,1.64
								c0.213,4.163,0.223,10.659-0.432,20.545C252.701,173.996,241.736,205.204,239.656,210.976L239.656,210.976z M239.23,209.216
								c-0.173-4.4-0.501-14.545-0.612-30.46c-0.061-9.083,1.154-19.146,2.792-28.133c1.311-7.197,2.889-13.692,4.293-18.435
								c-0.459,0.444-0.931,0.963-1.414,1.547c-1.281,4.572-2.65,10.392-3.807,16.739c-1.646,9.03-2.868,19.146-2.805,28.285
								c0.078,11.37,0.269,19.808,0.434,25.311C238.547,206.218,238.938,207.969,239.23,209.216z"/>
						</g>
						<g>
							<path style="fill-rule:evenodd;clip-rule:evenodd;fill:#69418D;" d="M227.389,197.514c4.814,9.117,6.435,12.713,7.074,20.358
								c0.204,2.433,0.839,5.628,3.345,1.77c5.701-8.776,9.96-13.91,12.615-16.818c2.054-2.249-5.668,3.759-11.202,3.274
								C235.56,205.777,233.054,202.695,227.389,197.514z"/>
						</g>
						<g>
							<path style="fill-rule:evenodd;clip-rule:evenodd;fill:#D27019;" d="M259.48,123.568c-3.376-0.282-0.423,12.241-0.259,14.128
								c0.386,5.716-0.047,11.376-0.963,16.714c1.487-1.273,2.526-2.695,2.79-4.242c1.073-6.312,1.788-19.97-0.558-26.462
								C260.189,123.495,259.853,123.437,259.48,123.568z"/>
						</g>
						<g>
							<path style="fill-rule:evenodd;clip-rule:evenodd;fill:#D27019;" d="M240.942,132.547c0.772-1.746,7.673-12.763,4.379-13.51
								c-0.214-0.165-0.443-0.237-0.682-0.229c-3.82,5.559-9.768,19.845-10.697,29.798c-0.458,4.893,0.149,7.901,1.236,9.749
								c0.1-0.825,0.212-1.647,0.336-2.462C236.113,148.428,237.687,140.282,240.942,132.547z"/>
						</g>
					</g>
					<g>
						<path style="fill-rule:evenodd;clip-rule:evenodd;fill:#80579A;" d="M271.831,128.029c-0.223,1.836-1.411,6.788-3.876,6.972
							c-2.103-0.201-2.196-6.002-2.082-7.403C266.267,124.101,271.955,124.623,271.831,128.029z"/>
					</g>
					<g>
						<path style="fill-rule:evenodd;clip-rule:evenodd;fill:#80579A;" d="M226.494,126.354c-0.189,1.839-0.119,6.917,2.25,7.582
							c2.1,0.216,3.474-5.437,3.673-6.831C232.804,123.609,227.126,122.999,226.494,126.354z"/>
					</g>
				</g>
				<g>
					<g>
						<g>
							<path style="fill-rule:evenodd;clip-rule:evenodd;fill:#BE6B19;" d="M319.064,48.653
								c1.516,22.449-9.583,44.052-13.147,48.578c10.58-4.64,18.002-37.144,17.247-48.71c-0.156-1.644-0.576-15.152-3.842-13.997
								C315.946,34.242,318.9,46.766,319.064,48.653z"/>
						</g>
						<g>
							<path style="fill-rule:evenodd;clip-rule:evenodd;fill:#BE6B19;" d="M300.783,43.502
								c-8.786,20.887-5.335,44.764-3.439,50.139c-8.512-7.595-4.909-40.728-0.408-51.497c0.686-1.515,5.507-14.232,8.226-12.151
								C308.456,30.74,301.555,41.757,300.783,43.502z"/>
						</g>
						<g>
							<path style="fill-rule:evenodd;clip-rule:evenodd;fill:#7C4C93;" d="M298.707,125.28c2.526-9.963-0.649-15.083-2.359-26.911
								c-1.75-12.111-3.798-25.813-4.081-36.794C291.435,29.408,243.834,52.437,298.707,125.28z"/>
						</g>
						<g>
							<path style="fill-rule:evenodd;clip-rule:evenodd;fill:#845B9C;" d="M284.181,47.475c-8.086-1.312-17.87,12.505-7.089,40.636
								c4.932-2.885,8.52-7.646,8.721-12.875C286.155,66.321,284.986,54.237,284.181,47.475z"/>
						</g>
						<g>
							<path style="fill-rule:evenodd;clip-rule:evenodd;fill:#6F428D;" d="M298.707,125.28c2.526-9.963-0.649-15.083-2.359-26.911
								c-1.23-8.516-2.608-17.818-3.415-26.408c0.203,6.709,0.456,18.333-0.04,23.382c-0.535,5.453-4.9,7.733-9.469,6.418
								C287.277,108.915,292.281,116.752,298.707,125.28z"/>
						</g>
						<g>
							<path style="fill-rule:evenodd;clip-rule:evenodd;fill:#916DA8;" d="M285.925,48c-0.35-0.16-0.706-0.281-1.067-0.379
								c1.212,4.32,1.588,11.122,2.249,23.146l0.066,1.187c0.865,15.701,6.165,39.262,8.108,47.492
								c-2.982-5.092-9.516-16.732-13.645-27.672c-2.058-5.45-3.407-12.195-4.272-18.699c-1.183-8.897-1.457-17.318-1.394-21.379
								c-0.331,0.471-0.648,0.975-0.945,1.522c0.017,4.478,0.352,12.046,1.404,19.965c0.871,6.553,2.237,13.361,4.322,18.887
								c3.563,9.44,8.904,19.394,12.24,25.259c1.193,1.741,2.445,3.511,3.767,5.316c0.133-0.108,0.19-0.277,0.15-0.436
								c-0.022-0.09-7.741-31.118-8.798-50.302l-0.065-1.186C287.412,59.23,287.038,52.448,285.925,48z"/>
						</g>
						<g>
							<path style="fill-rule:evenodd;clip-rule:evenodd;fill:#7C4C93;" d="M298.46,125.355c1.017-9.653,15.878-39.681,21.853-60.63
								C329.17,33.674,366.195,64.564,298.46,125.355z"/>
						</g>
						<g>
							<path style="fill-rule:evenodd;clip-rule:evenodd;fill:#845B9C;" d="M331.445,52.509c7.538,0.579,12.535,16.054-4.811,41.646
								c-11.082-1.614-8.275-11.023-7.331-14.354C320.201,76.641,327.978,59.556,331.445,52.509z"/>
						</g>
						<g>
							<path style="fill-rule:evenodd;clip-rule:evenodd;fill:#6F428D;" d="M298.46,125.355c0.572-5.423,5.515-17.281,10.795-30.346
								c-0.844,6.819,1.567,11.195,7.374,11.406c0.184,0.007,0.368,0.009,0.553,0.01C312.09,112.345,305.91,118.668,298.46,125.355z
								"/>
						</g>
						<g>
							<path style="fill-rule:evenodd;clip-rule:evenodd;fill:#916DA8;" d="M329.198,52.773c0.388-0.117,0.775-0.198,1.156-0.24
								c-5.21,10.374-13.466,30.63-19.473,45.374c-2.491,6.109-4.596,11.272-5.936,14.392l-4.072,9.472
								c6.042-6.714,24.929-28.398,29.457-41.986c3.939-11.825,4.366-21.569,4.306-25.996c0.333,0.262,0.647,0.566,0.945,0.906
								c-0.016,4.836-0.634,14.185-4.355,25.354c-4.804,14.416-25.446,37.692-30.423,43.169c-0.485,0.444-0.979,0.893-1.469,1.34
								c-0.051-0.003-0.102-0.013-0.152-0.032c-0.24-0.091-0.357-0.35-0.261-0.579l5.15-11.981
								c1.345-3.127,3.445-8.281,5.931-14.378C315.895,83.129,323.945,63.373,329.198,52.773z"/>
						</g>
						<g>
							<path style="fill-rule:evenodd;clip-rule:evenodd;fill:#916DA8;" d="M299.596,122.323c0,0-13.106-49.669,2.039-74.099
								c15.146-24.429,21.578,17.108,8.852,51.292L299.596,122.323z"/>
						</g>
						<g>
							<path style="fill-rule:evenodd;clip-rule:evenodd;fill:#9D7BB0;" d="M294.597,89.923c-0.883-14.443,0.189-30.651,7.038-41.7
								c4.603-7.427,8.401-8.748,11.102-6.041c1.846,10.755-1.165,35.905-6.21,43.351C304.192,88.979,299.262,90.68,294.597,89.923z
								"/>
						</g>
						<g>
							<path style="fill-rule:evenodd;clip-rule:evenodd;fill:#7D5096;" d="M299.597,122.323c0,0-2.462-9.33-4.019-21.889
								c2.064,4.671,4.863,5.814,8.01,6.007c1.707,0.105,3.513-1.314,5.23-3.431L299.597,122.323z"/>
						</g>
						<g>
							<path style="fill-rule:evenodd;clip-rule:evenodd;fill:#A687B9;" d="M299.497,121.933c-0.086-0.342-0.224-0.9-0.401-1.656
								c2.913-8.229,12.599-36.735,13.833-55.372c0.754-11.376,0.63-18.196,0.336-22.128c0.368,0.467,0.711,1.018,1.034,1.641
								c0.211,4.163,0.221,10.658-0.433,20.546C312.542,84.952,301.576,116.16,299.497,121.933L299.497,121.933z M299.069,120.172
								c-0.173-4.4-0.5-14.545-0.609-30.461c-0.063-9.083,1.154-19.146,2.791-28.134c1.311-7.196,2.889-13.691,4.295-18.434
								c-0.461,0.444-0.933,0.963-1.414,1.548c-1.281,4.572-2.651,10.391-3.809,16.738c-1.645,9.03-2.866,19.146-2.805,28.285
								c0.078,11.369,0.268,19.809,0.436,25.311C298.387,117.175,298.778,118.926,299.069,120.172z"/>
						</g>
						<g>
							<path style="fill-rule:evenodd;clip-rule:evenodd;fill:#69418D;" d="M287.229,108.47c4.814,9.118,6.435,12.713,7.075,20.358
								c0.202,2.433,0.837,5.63,3.345,1.771c5.699-8.777,9.959-13.911,12.615-16.818c2.053-2.249-5.668,3.759-11.203,3.274
								C295.401,116.734,292.896,113.651,287.229,108.47z"/>
						</g>
						<g>
							<path style="fill-rule:evenodd;clip-rule:evenodd;fill:#D27019;" d="M319.322,34.524c-3.376-0.283-0.423,12.241-0.259,14.129
								c0.386,5.715-0.046,11.375-0.963,16.713c1.487-1.272,2.525-2.695,2.788-4.242c1.074-6.311,1.791-19.971-0.556-26.461
								C320.031,34.452,319.695,34.393,319.322,34.524z"/>
						</g>
						<g>
							<path style="fill-rule:evenodd;clip-rule:evenodd;fill:#D27019;" d="M300.783,43.502c0.771-1.746,7.673-12.763,4.379-13.51
								c-0.215-0.165-0.443-0.236-0.682-0.229c-3.821,5.558-9.768,19.845-10.697,29.798c-0.457,4.894,0.149,7.902,1.235,9.749
								c0.1-0.825,0.213-1.646,0.337-2.461C295.952,59.385,297.529,51.239,300.783,43.502z"/>
						</g>
					</g>
					<g>
						<path style="fill-rule:evenodd;clip-rule:evenodd;fill:#80579A;" d="M331.673,38.985c-0.223,1.836-1.413,6.789-3.877,6.972
							c-2.103-0.202-2.196-6.002-2.082-7.403C326.107,35.057,331.796,35.58,331.673,38.985z"/>
					</g>
					<g>
						<path style="fill-rule:evenodd;clip-rule:evenodd;fill:#80579A;" d="M286.336,37.311c-0.188,1.839-0.122,6.917,2.248,7.582
							c2.101,0.217,3.476-5.437,3.674-6.83C292.646,34.565,286.968,33.955,286.336,37.311z"/>
					</g>
				</g>
				<g>
					<path style="fill-rule:evenodd;clip-rule:evenodd;fill:#2C492E;" d="M102.859,256.672c-0.258-0.017-0.454-0.229-0.436-0.473
						c0.019-0.244,0.243-0.429,0.501-0.413c28.005,1.831,58.054,15.255,82.703,35.661c23.578,19.518,42.225,45.435,49.426,73.714
						c0.06,0.238-0.097,0.477-0.349,0.534c-0.253,0.057-0.508-0.091-0.568-0.329c-7.154-28.092-25.69-53.848-49.132-73.254
						C160.505,271.829,130.658,258.488,102.859,256.672z"/>
				</g>
				<g>
					<path style="fill-rule:evenodd;clip-rule:evenodd;fill:#2C492E;" d="M170.333,143.121c-0.093-0.23,0.029-0.486,0.273-0.573
						c0.242-0.086,0.514,0.029,0.605,0.258c6.508,16.212,12.975,29.887,19.18,43.008c20.068,42.434,37.406,79.096,44.503,176.789
						c0.017,0.243-0.178,0.455-0.436,0.472c-0.259,0.017-0.483-0.167-0.501-0.41c-7.085-97.533-24.392-134.128-44.424-176.488
						C183.319,173.038,176.845,159.346,170.333,143.121z"/>
				</g>
				<g>
					<path style="fill-rule:evenodd;clip-rule:evenodd;fill:#2C492E;" d="M325.319,157.144c0.214-0.142,0.507-0.095,0.657,0.105
						c0.149,0.199,0.1,0.477-0.112,0.619c-1.204,0.81-2.673,1.738-4.38,2.815l-0.034,0.019
						c-16.042,10.128-53.051,33.518-68.232,82.939c-16.844,54.841-14.985,114.841-14.98,115.015
						c0.008,0.245-0.197,0.448-0.456,0.456c-0.258,0.008-0.475-0.186-0.482-0.43c-0.004-0.175-1.868-60.319,15.014-115.285
						c15.276-49.734,52.487-73.251,68.614-83.432l0.033-0.021C322.682,158.858,324.162,157.923,325.319,157.144z"/>
				</g>
				<g>
					<path style="fill-rule:evenodd;clip-rule:evenodd;fill:#2C492E;" d="M323.022,185.68c0.141-0.206,0.433-0.266,0.649-0.133
						c0.219,0.132,0.282,0.407,0.142,0.613c-1.606,2.359-3.508,5.087-5.656,8.171c-12.909,18.526-34.695,49.791-45.621,76.534
						c-7.139,17.469-15.82,40.095-22.294,58.98c-5.099,14.879-8.823,27.417-9.325,33.232c-0.021,0.245-0.249,0.427-0.508,0.406
						c-0.258-0.02-0.452-0.233-0.431-0.478c0.51-5.89,4.249-18.497,9.37-33.435c6.473-18.884,15.162-41.53,22.311-59.026
						c10.968-26.842,32.783-58.149,45.711-76.702C319.551,190.713,321.482,187.942,323.022,185.68z"/>
				</g>
				<g>
					<g>
						<path style="fill-rule:evenodd;clip-rule:evenodd;fill:#7D4A3A;" d="M237.45,378.439c0.337-7.79,4.731-26.798,17.43-33.387
							c1.211-0.628,0.797,1.043,0.024,3.466c-2.939,9.231-7.413,29.051-5.061,37.508L237.45,378.439z"/>
					</g>
					<g>
						<path style="fill-rule:evenodd;clip-rule:evenodd;fill:#935B47;" d="M221.097,453.916
							c18.747,9.881,54.738,3.787,66.298-14.616c12.202-19.422,3.708-36.606-16.829-44.563c-8.671-3.358-16.507-4.573-20.542-14.013
							c-5.337-12.491-11.408-23.48-23.186-28.725c-2.869-1.278-6.079-2.216-9.697-2.75c-3.45-0.51-5.45,0.487,0.237,6.611
							c7.091,7.638,10.227,16.12,10.666,19.008c2.746,18.039-23.531,25.814-25.486,50.169
							C201.76,435,205.306,445.593,221.097,453.916z"/>
					</g>
					<g>
						<path style="fill-rule:evenodd;clip-rule:evenodd;fill:#83503E;" d="M221.097,453.916c17.724,9.343,50.857,4.402,64.19-11.716
							c-3.938,2.212-8.558,3.685-10.861,2.735c-3.059-1.261-3.13-6.012-2.774-11.345c0.711-10.697-6.272-18.314-6.272-18.314
							s2.911,9.547,2.05,19.498c-0.86,9.951-12.25,17.769-19.04,11.649c-6.787-6.119-5.783-34.09-5.783-34.09
							s-1.455,8.476-2.855,17.797c-1.4,9.321,1.489,23.207-8.02,18.281c-9.51-4.926-11.559-24.423-11.559-24.423
							s-0.073,1.984,0.491,9.213c0.563,7.229,9.017,17.497,0.159,16.493c-5.303-0.6-10.643-3.431-14.368-8.198
							C209.316,445.922,213.954,450.151,221.097,453.916z"/>
					</g>
					<g>
						<g>
							<path style="fill-rule:evenodd;clip-rule:evenodd;fill:#6D4133;" d="M241.831,458.599c1.917,0.038,3.859-0.009,5.81-0.14
								c-3.964-2.934-12.054-7.61-14.99-10.032c-1.269-1.159-2.374-2.286-3.487-3.586c-2.178-2.625-3.57-4.848-4.813-7.991
								c-1.505-4.204-1.803-7.486-1.504-11.899c0.412-4.451,1.36-8.211,2.639-12.486c2.732-8.784,5.943-16.643,6.934-25.857
								c0.346-4.756,0.048-8.338-1.573-12.868c-1.067-2.525-5.697-10.34-8.633-11.737c0.61,0.917,1.168,1.821,1.676,2.701
								c1.799,2.477,4.269,6.168,5.45,9.522c1.308,4.336,1.437,7.707,0.944,12.177c-1.3,8.903-4.73,16.76-7.57,25.26
								c-1.437,4.471-2.481,8.357-2.985,13.034c-0.403,4.892-0.094,8.535,1.54,13.214c1.356,3.52,2.889,6.007,5.319,8.939
								c1.213,1.414,2.41,2.63,3.796,3.888C231.002,451.235,236.752,455.515,241.831,458.599z"/>
						</g>
						<g>
							<path style="fill-rule:evenodd;clip-rule:evenodd;fill:#6D4133;" d="M252.405,457.978c1.95-0.265,3.895-0.61,5.816-1.036
								c2.532-2.492,4.817-5.105,5.118-5.482c1.901-2.766,3.12-5.182,4.265-8.313c0.663-1.904,1.123-3.655,1.5-5.631
								c1.752-11.092-0.145-20.002-5.149-30.084c-4.153-7.579-8.811-13.067-12.07-21.268c-0.482-1.384-0.869-2.719-1.184-4.003
								c-0.236-0.457-0.462-0.936-0.677-1.438c-0.606-1.42-1.222-2.819-1.855-4.194c0.404,4.153,1.129,8.13,1.749,10.268
								c3.045,8.581,7.421,13.982,11.48,21.833c4.476,9.549,6.163,17.93,4.451,28.319c-0.354,1.808-0.784,3.423-1.392,5.169
								c-1.04,2.849-2.147,5.067-3.841,7.605C258.415,452.613,254.618,455.728,252.405,457.978z"/>
						</g>
						<g>
							<path style="fill-rule:evenodd;clip-rule:evenodd;fill:#6D4133;" d="M247.474,458.471c1.141-0.073,2.283-0.173,3.426-0.303
								c-0.492-0.626-1.521-1.644-2.805-3.761c-1.24-2.297-2.084-4.444-2.881-6.918c-1.354-4.454-2.03-8.362-2.221-13.011
								c-0.025-1.048-0.013-2.056,0.047-3.101c1.032-17.477,2.169-35.233-1.415-52.522c-1.696-7.049-3.702-12.42-8.175-18.304
								c-2.669-3.141-12.074-11.451-16.417-11.164c1.868,2.064,8.327,3.54,14.98,12.16c4.012,5.804,5.751,10.999,7.193,17.781
								c2.967,17.138,1.598,34.616,0.522,51.853c-0.068,1.138-0.084,2.232-0.056,3.372c0.204,4.961,0.938,9.11,2.479,13.839
								c0.924,2.676,1.894,4.971,3.413,7.385C246.04,456.454,246.736,457.539,247.474,458.471z"/>
						</g>
					</g>
					<g>
						<path style="fill-rule:evenodd;clip-rule:evenodd;fill:#9F6D55;" d="M223.385,394.608c0.78,1.772-11.219,10.284-13.208,24.985
							c-1.211,8.951,0.569,15.675,3.945,19.844c7.048,8.702-1.409,6.31-4.653,1.274
							C203.932,432.119,200.304,412.723,223.385,394.608z"/>
					</g>
					<g>
						<path style="fill-rule:evenodd;clip-rule:evenodd;fill:#9F6D55;" d="M283.521,431.026c0.331-0.729,0.627-1.442,0.904-2.192
							c1.685-4.883,2.758-8.762,1.477-13.781c-1.608-5.213-5.643-8.52-9.756-12.26c-3.466-2.919-17.359-10.308-17.386-10.339
							c3.567-0.719,15.966,6.447,18.951,8.669c8.594,7.117,15.687,16.19,11.787,27.701c-3.436,10.151-12.991,17.848-14.348,15.468
							C273.244,443.38,281.294,435.276,283.521,431.026z"/>
					</g>
					<g>
						<path style="fill-rule:evenodd;clip-rule:evenodd;fill:#9F6D55;" d="M226.936,414.69c1.427-5.737,3.39-11.1,5.103-16.737
							c0.609-2.17,1.883-14.516,2.012-14.761c2.374,1.626,0.462,12.99-0.02,15.22c-2.958,12.657-7.259,23.157-2.599,36.4
							c1.09,3.096,2.509,5.684,3.886,7.764c3.218,4.856,0.416,7.266-3.203,2.844C227.508,439.792,223.343,429.113,226.936,414.69z"
							/>
					</g>
					<g>
						<path style="fill-rule:evenodd;clip-rule:evenodd;fill:#9F6D55;" d="M260.14,433.909c0.183-1.219,0.291-2.375,0.346-3.605
							c0.136-6.165-0.954-10.86-2.911-16.701c-1.584-4.263-11.877-26.558-10.109-30.032c0.046,0.053,13.411,28.666,13.589,29.098
							c2.306,6.163,4.121,11.078,4.048,17.659c-0.047,1.354-0.158,2.61-0.357,3.952c-0.113,0.521-1.045,4.585-2.793,8.31
							c-1.885,4.019-8.063,8.055-4.336-1.331C258.616,438.74,259.698,436.022,260.14,433.909z"/>
					</g>
					<g>
						<path style="fill-rule:evenodd;clip-rule:evenodd;fill:#7D4A3A;" d="M274.67,421.995c-1.22-0.31-1.941-1.495-1.612-2.647
							c0.328-1.151,1.585-1.832,2.804-1.522c1.222,0.311,1.943,1.497,1.614,2.647C277.146,421.624,275.89,422.306,274.67,421.995z"
							/>
					</g>
					<g>
						<path style="fill-rule:evenodd;clip-rule:evenodd;fill:#7D4A3A;" d="M281.016,414.56c-0.548,0.376-1.314,0.263-1.712-0.254
							c-0.398-0.516-0.279-1.239,0.269-1.615c0.547-0.375,1.313-0.262,1.712,0.254C281.682,413.462,281.56,414.184,281.016,414.56z"
							/>
					</g>
					<g>
						<path style="fill-rule:evenodd;clip-rule:evenodd;fill:#7D4A3A;" d="M279.582,428.331c-1.22-0.311-1.942-1.496-1.613-2.647
							c0.329-1.15,1.585-1.833,2.806-1.522c1.22,0.311,1.941,1.496,1.611,2.647C282.059,427.96,280.801,428.642,279.582,428.331z"/>
					</g>
					<g>
						<path style="fill-rule:evenodd;clip-rule:evenodd;fill:#7D4A3A;" d="M247.78,437.315c-1.219-0.311-1.94-1.496-1.611-2.648
							s1.584-1.833,2.804-1.522c1.222,0.312,1.943,1.496,1.614,2.648C250.258,436.943,249.002,437.625,247.78,437.315z"/>
					</g>
					<g>
						<path style="fill-rule:evenodd;clip-rule:evenodd;fill:#7D4A3A;" d="M255.755,425.81c-0.546,0.375-1.313,0.262-1.711-0.254
							c-0.397-0.516-0.278-1.238,0.269-1.614c0.546-0.376,1.313-0.263,1.712,0.254C256.422,424.712,256.302,425.435,255.755,425.81z
							"/>
					</g>
					<g>
						<path style="fill-rule:evenodd;clip-rule:evenodd;fill:#7D4A3A;" d="M234.102,428.273c-1.219-0.311-1.941-1.496-1.612-2.647
							c0.329-1.151,1.585-1.833,2.805-1.523c1.22,0.312,1.942,1.497,1.612,2.647C236.579,427.902,235.323,428.584,234.102,428.273z"
							/>
					</g>
					<g>
						<path style="fill-rule:evenodd;clip-rule:evenodd;fill:#7D4A3A;" d="M236.946,434.806c-0.547,0.376-1.313,0.263-1.711-0.253
							c-0.398-0.516-0.278-1.239,0.268-1.614c0.546-0.376,1.313-0.262,1.711,0.254C237.614,433.707,237.494,434.43,236.946,434.806z
							"/>
					</g>
					<g>
						<path style="fill-rule:evenodd;clip-rule:evenodd;fill:#7D4A3A;" d="M216.782,431.997c-0.548,0.377-1.314,0.263-1.712-0.253
							c-0.397-0.516-0.277-1.24,0.269-1.615c0.546-0.376,1.313-0.262,1.711,0.254C217.448,430.898,217.328,431.622,216.782,431.997z
							"/>
					</g>
					<g>
						<path style="fill-rule:evenodd;clip-rule:evenodd;fill:#7D4A3A;" d="M219.895,447.783c-0.933-0.237-1.483-1.143-1.232-2.022
							c0.251-0.879,1.211-1.399,2.142-1.162c0.932,0.236,1.483,1.143,1.233,2.021C221.787,447.5,220.828,448.021,219.895,447.783z"
							/>
					</g>
					<g>
						<path style="fill-rule:evenodd;clip-rule:evenodd;fill:#935B47;" d="M243.85,359.627c0.769-1.884,1.585-3.493,2.59-5.274
							c1.033-1.622,6.155-7.945,8.393-6.94c-0.007,0.165-5.139,6.982-5.73,8.196c-0.786,1.703-1.449,3.412-2.152,5.143
							c-0.863,2.07-1.313,4.68-3.229,3.727C241.576,363.81,242.971,361.865,243.85,359.627z"/>
					</g>
					<g>
						<path style="fill-rule:evenodd;clip-rule:evenodd;fill:#9F6D55;" d="M246.883,381.732c-1.587-5.462-3.395-9.8-6.333-14.749
							c-4.96-7.615-11.428-11.826-12.696-13.646c3.771,0.276,11.846,10.352,13.709,13.077c3.163,4.98,5.076,9.381,6.707,14.971
							c0.157,0.609,3.075,11.877,1.457,11.277C248.85,393.185,247.281,383.256,246.883,381.732z"/>
					</g>
				</g>
				<g>
					<path style="fill-rule:evenodd;clip-rule:evenodd;fill:#9EB071;" d="M185.156,289.212c-11.25-8.554-23.86-17.383-37.085-22.964
						c-2.384-0.836-21.993-8.558-27.806-9.185c0.45-2.814,27.52,5.348,29.114,5.843c14.081,4.805,27.427,13.726,39.05,22.514
						c1.639,1.302,17.487,15.377,14.325,16.522C198.846,300.857,187.153,290.779,185.156,289.212z"/>
				</g>
				<g>
					<g>
						<path style="fill-rule:evenodd;clip-rule:evenodd;fill:#6F428D;" d="M180.669,244.914c0,0-20.064-40.736-43.595-60.421
							c-4.876-4.078-24.102-16.795-28.315-7.985c-2.961,6.19,4.947,21.187,16.177,31.435
							C143.604,224.98,174.815,241.431,180.669,244.914z"/>
					</g>
					<g>
						<path style="fill-rule:evenodd;clip-rule:evenodd;fill:#7C4C93;" d="M126.92,177.762c-7.159-3.901-15.549-6.719-18.162-1.255
							c-2.961,6.19,4.947,21.188,16.177,31.435c2.456,2.242,5.131,4.472,7.935,6.667c6.762,0.462,12.689-0.432,14.504-3.231
							c2.11-3.258-0.651-11.491-8.085-21.014C136.108,186.288,131.433,182.079,126.92,177.762z"/>
					</g>
					<g>
						<path style="fill-rule:evenodd;clip-rule:evenodd;fill:#916DA8;" d="M118.529,174.157c-0.568-0.162-1.128-0.299-1.674-0.407
							l2.386,2.445c11.142,11.425,44.396,50.044,55.193,62.626c-2.728-2.28-7.155-6.008-14.219-12.016
							c-3.493-2.97-7.599-6.063-11.999-9.376c-13.447-10.129-29.654-22.34-39.845-39.835c-0.114,0.451-0.186,0.936-0.217,1.45
							c10.3,17.098,26.223,29.094,39.477,39.077c4.374,3.294,8.453,6.368,11.956,9.345c15.505,13.187,18.338,15.415,18.346,15.422
							c0.2,0.156,0.496,0.13,0.662-0.06c0.144-0.165,0.141-0.4,0.004-0.561c-0.13-0.152-45.27-52.935-58.666-66.671L118.529,174.157
							z"/>
					</g>
					<g>
						<path style="fill-rule:evenodd;clip-rule:evenodd;fill:#6F428D;" d="M180.689,245.46c-2.889-12.07,1.798-33.223-12.469-75
							c-7.672-22.464,12.778-27.109,21.416-7.112C195.744,177.49,196.519,204.346,180.689,245.46z"/>
					</g>
					<g>
						<path style="fill-rule:evenodd;clip-rule:evenodd;fill:#7C4C93;" d="M166.706,158.938c1.742-11.809,16.066-11.481,22.93,4.41
							c4.709,10.903,6.245,29.364-0.549,56.086c-1.674-0.476-3.014-1.036-3.82-1.488c-4.498-2.53-8.112-21.619-9.344-30.778
							C174.956,179.975,170.9,165.977,166.706,158.938z"/>
					</g>
					<g>
						<path style="fill-rule:evenodd;clip-rule:evenodd;fill:#845B9C;" d="M170.604,152.007c5.184-3.51,14.062-0.165,19.033,11.34
							c3.863,8.945,5.589,22.979,2.334,42.486c-7.462-2.34-9.997-10.859-10.808-22.171
							C180.44,173.564,174.596,159.266,170.604,152.007z"/>
					</g>
					<g>
						<path style="fill-rule:evenodd;clip-rule:evenodd;fill:#916DA8;" d="M179.95,240.867c-0.102-0.978-0.183-2.003-0.251-3.082
							c7.85-31.613,12.001-48.107-0.057-80.656c-0.891-2.405-1.867-4.505-2.955-6.306c0.411,0.07,0.827,0.169,1.245,0.293
							c0.947,1.679,1.807,3.583,2.598,5.72C192.845,190.082,188.508,208.158,179.95,240.867L179.95,240.867z M179.449,232.602
							c2.518-23.064,2.906-43.646-4.126-66.085c-1.631-5.203-3.688-9.836-6.027-13.397c-0.217,0.231-0.424,0.478-0.62,0.74
							c2.215,3.448,4.175,7.903,5.743,12.907c6.329,20.194,6.599,38.851,4.747,59.213
							C179.287,228.355,179.369,230.557,179.449,232.602z"/>
					</g>
					<g>
						<path style="fill-rule:evenodd;clip-rule:evenodd;fill:#7C4C93;" d="M180.494,244.55c-33.64-11.261-68.75-5.271-78.394-8.568
							c-11.369-3.888-7.913-10.948-1.537-15.57c7.462-5.407,16.694-5.596,25.745-4.89
							C145.742,217.035,167.864,226.133,180.494,244.55z"/>
					</g>
					<g>
						<path style="fill-rule:evenodd;clip-rule:evenodd;fill:#845B9C;" d="M141.474,237.638
							c-18.452-1.058-33.553,0.335-39.374-1.656c-10.056-3.439-8.512-9.359-3.609-13.879c12.107-1.511,40.411-3.795,49.666,3.278
							C152.876,228.987,148.833,233.68,141.474,237.638z"/>
					</g>
					<g>
						<path style="fill-rule:evenodd;clip-rule:evenodd;fill:#6F428D;" d="M180.494,244.55c-11.422-3.824-23.014-5.659-33.721-6.543
							c-2.194-0.182,19.141,0.816,17.682-9.313C170.604,232.909,176.119,238.169,180.494,244.55z"/>
					</g>
					<g>
						<path style="fill-rule:evenodd;clip-rule:evenodd;fill:#916DA8;" d="M177.241,243.515c-0.426-0.128-0.85-0.253-1.276-0.376
							l1.968-0.956c-2.698-2.023-14.868-10.839-28.767-16.008c-7.017-2.609-17.411-3.51-27.793-3.341
							c-9.424,0.153-18.818,1.186-25.668,2.624c0.205-0.353,0.435-0.702,0.689-1.048c6.83-1.356,15.89-2.318,24.962-2.465
							c10.488-0.171,21.012,0.748,28.155,3.403c13.067,4.859,24.62,12.917,28.332,15.642c0.425,0.528,0.843,1.066,1.252,1.613
							c-0.034,0.027-0.072,0.05-0.113,0.067L177.241,243.515L177.241,243.515z M172.356,242.153
							c-10.612-6.691-22.939-9.919-35.65-10.665c-12.164-0.715-24.681,0.843-36.38,3.809c0.445,0.193,0.921,0.381,1.428,0.563
							c11.264-2.75,23.245-4.17,34.893-3.485c11.591,0.682,22.852,3.446,32.744,9.055
							C170.379,241.658,171.367,241.899,172.356,242.153z"/>
					</g>
					<g>
						<path style="fill-rule:evenodd;clip-rule:evenodd;fill:#BE5419;" d="M140.605,179.453
							c15.688,18.238,24.773,39.008,28.023,49.839c-2.182-16.737-16.774-42.891-24.835-52.303
							c-1.185-1.308-10.233-12.566-12.094-9.709C128.823,168.974,139.257,177.939,140.605,179.453z"/>
					</g>
					<g>
						<path style="fill-rule:evenodd;clip-rule:evenodd;fill:#BE5419;" d="M138.167,210.888
							c17.589,5.961,27.633,16.12,31.894,19.566c-5.091-9.898-22.497-22.946-38.612-26.085c-1.795-0.305-19.616-3.757-19.139-0.434
							C111.459,206.303,133.512,209.311,138.167,210.888z"/>
					</g>
					<g>
						<path style="fill-rule:evenodd;clip-rule:evenodd;fill:#EBBB13;" d="M150.924,206.754
							c4.854,5.322,19.588,20.981,22.862,27.669c-2.379-8.938-15.717-24.405-20.458-29.629c-1.652-1.744-3.317-4.455-4.762-2.704
							C146.975,203.657,148.908,204.57,150.924,206.754z"/>
					</g>
					<g>
						<path style="fill-rule:evenodd;clip-rule:evenodd;fill:#EBBB13;" d="M146.646,218.344
							c12.131,2.602,25.715,14.727,28.764,17.863c-2.612-7.138-22.824-19.565-28.03-20.781c-2.324-0.503-3.428-1.252-3.958,0.413
							C142.539,217.706,144.444,217.817,146.646,218.344z"/>
					</g>
					<g>
						<path style="fill-rule:evenodd;clip-rule:evenodd;fill:#7D5096;" d="M180.958,245.564c0,0-49.116-64.291-36.457-77.639
							c17.39-18.339,41.502,40.936,36.995,73.73L180.958,245.564z"/>
					</g>
					<g>
						<path style="fill-rule:evenodd;clip-rule:evenodd;fill:#916DA8;" d="M168.218,227.698
							c-13.577-20.063-32.058-50.978-23.717-59.774c10.134-10.686,22.546,4.983,30.252,26.408
							c3.947,13.572,5.601,27.792-0.768,31.803C172.171,227.279,170.213,227.732,168.218,227.698z"/>
					</g>
					<g>
						<path style="fill-rule:evenodd;clip-rule:evenodd;fill:#9D7BB0;" d="M159.119,213.615
							c-11.171-18.225-21.17-38.782-14.618-45.691c3.06-3.227,6.329-4.047,9.611-3.035c7.696,11.301,18.41,36.376,18.359,42.588
							C172.439,211.474,165.711,214.368,159.119,213.615z"/>
					</g>
					<g>
						<path style="fill-rule:evenodd;clip-rule:evenodd;fill:#A687B9;" d="M143.604,169.143c0.192-0.332,0.415-0.641,0.659-0.932
							c2.36,6.753,6.744,14.824,11.592,23.752c4.035,7.429,8.392,15.449,12.193,23.841c5.967,13.177,9.56,20.899,11.381,24.766
							c-1.581-8.55-6.179-31.386-12.888-47.235c-3.052-7.211-6.216-13.413-9.066-18.45c-2.477-4.378-4.714-7.873-6.434-10.384
							c0.372-0.021,0.744-0.025,1.119,0.004c1.689,2.494,3.815,5.845,6.144,9.962c2.868,5.07,6.049,11.306,9.111,18.538
							c8.299,19.609,13.381,49.852,13.54,50.803c0.046,0.2-0.06,0.411-0.266,0.499c-0.236,0.102-0.515,0.002-0.622-0.222
							c-0.011-0.021-3.518-7.253-12.883-27.931c-3.774-8.333-8.133-16.356-12.168-23.787
							C150.309,183.697,146.036,175.831,143.604,169.143z"/>
					</g>
					<g>
						<path style="fill-rule:evenodd;clip-rule:evenodd;fill:#6F428D;" d="M161.883,239.885c9.757,3.727,12.71,4.447,17.543,10.612
							c1.538,1.962,4.226,4.458,4.186-0.067c-0.091-10.294,1.408-16.74,2.491-21.244c0.042-0.175-3.56,9.209-7.21,11.27
							C175.998,242.089,168.142,241.154,161.883,239.885z"/>
					</g>
					<g>
						<path style="fill-rule:evenodd;clip-rule:evenodd;fill:#D27019;" d="M119.795,202.672c-3.286-0.286-6.219-0.275-7.171,0.503
							c1.038,1.023,3.158,1.857,7.157,2.667c1.205,0.243,2.414,0.458,3.625,0.656c3.984,0.656,7.978,1.15,11.812,2.021
							c0.703,0.16,1.399,0.331,2.091,0.52c2.183,0.594,4.303,1.347,6.327,2.362c0.878,0.44,1.693,0.86,2.451,1.258
							c5.465,2.867,7.912,4.55,9.481,4.384c0.023-0.003,0.045-0.005,0.067-0.009c0.338-0.046,0.639-0.176,0.91-0.355
							c0.14-0.093,0.271-0.2,0.395-0.315c-0.595-0.446-1.2-0.888-1.818-1.322c-0.946-0.667-1.917-1.318-2.91-1.949
							c-1.433-0.912-2.911-1.783-4.419-2.602c-5.151-2.795-10.674-4.979-16.063-6.066c-0.092-0.018-0.187-0.038-0.281-0.055
							c-0.237-0.04-0.758-0.136-1.479-0.264C127.726,203.707,123.533,202.998,119.795,202.672z"/>
					</g>
					<g>
						<path style="fill-rule:evenodd;clip-rule:evenodd;fill:#D27019;" d="M131.359,167.595c3.144,2.47,6.73,7.132,8.622,9.21
							c1.562,1.714,1.785-0.222,1.651-2.324c-3.136-3.586-8.542-9.337-9.934-7.202C131.552,167.366,131.439,167.472,131.359,167.595
							z"/>
					</g>
					<g>
						<path style="fill-rule:evenodd;clip-rule:evenodd;fill:#80579A;" d="M160.327,152.955c0.309,1.824,0.574,6.896-1.747,7.699
							c-2.083,0.339-3.825-5.224-4.115-6.603c-0.435-2.445,0.145-2.307,2.264-2.688
							C158.893,150.878,159.682,150.442,160.327,152.955z"/>
					</g>
					<g>
						<path style="fill-rule:evenodd;clip-rule:evenodd;fill:#80579A;" d="M106.201,208.145c1.946-0.208,7.328-0.225,8.069,1.999
							c0.265,1.979-5.704,3.367-7.178,3.577c-2.607,0.297-2.436-0.243-2.741-2.258C103.938,209.401,103.512,208.637,106.201,208.145
							z"/>
					</g>
				</g>
				<g>
					<path style="fill-rule:evenodd;clip-rule:evenodd;fill:#9EB071;" d="M215.466,240.862c-1.624-5.69-21.693-61.708-19.955-62.249
						c4.786,0.111,23.391,55.573,24.975,61.029c0.612,2.392,12.069,37.546,7.032,36.577
						C223.921,277.85,216.63,245.317,215.466,240.862z"/>
				</g>
				<g>
					<path style="fill-rule:evenodd;clip-rule:evenodd;fill:#5C7649;" d="M238.201,348.865c-0.015,1.207-0.022,2.315-0.025,3.317
						c-0.01,4.12,0.061,6.44,0.062,6.474c0.008,0.245-0.197,0.448-0.456,0.456c-0.064,0.002-0.126-0.01-0.184-0.03
						c0.001,0.219,0.002,0.436,0.004,0.65c0.37,0.395,0.732,0.797,1.086,1.206c0.147-0.394,0.285-0.81,0.42-1.247
						c0.528-1.718,0.981-3.761,1.386-6.096c0.525-3.025,0.968-6.54,1.386-10.467c0.543-5.094,1.044-10.882,1.626-17.201
						c0.403-4.378,0.845-9.011,1.369-13.843c2.832-26.176,8.018-58.203,22.084-87.34c1.277-2.642,2.628-5.264,4.056-7.853
						c3.628-6.583,7.762-12.97,12.479-19.054c11.09-14.3,23.098-24.859,31.701-31.544c4.332-3.365,8.136-6.218,9.912-7.924
						c-1.047,0.686-2.259,1.451-3.623,2.313l-0.034,0.019c-10.393,6.561-29.585,18.688-45.94,39.853
						c-1.047,1.352-2.08,2.743-3.1,4.17c-7.649,10.714-14.475,23.559-19.193,38.917c-9.112,29.671-12.75,60.853-14.17,83.252
						c-0.289,4.568-0.486,8.77-0.62,12.52c-0.125,3.527-0.191,6.654-0.225,9.309C238.202,348.768,238.201,348.816,238.201,348.865z"
						/>
				</g>
				<g>
					<path style="fill-rule:evenodd;clip-rule:evenodd;fill:#9EB071;" d="M256.378,226.815c5.094-11.738,11.166-24.276,19.284-34.43
						c1.545-1.691,18.956-18.39,18.363-19.111c-1.706-2.102-19.957,15.863-21.02,16.942c-9.185,9.883-15.814,22.809-21.1,34.896
						c-0.716,1.754-8.899,18.884-4.462,19.051C251.019,245.87,255.497,228.938,256.378,226.815z"/>
				</g>
				<g>
					<path style="fill-rule:evenodd;clip-rule:evenodd;fill:#5C7649;" d="M272.536,270.865
						c-6.915,16.921-15.277,38.681-21.678,57.192c-0.207,0.6-0.412,1.195-0.616,1.788c-2.745,8.012-5.093,15.345-6.752,21.315
						c-1.367,4.917-2.268,8.908-2.543,11.595c1.039-2.724,2.338-5.459,3.936-7.994c0.727-1.154,1.516-2.268,2.371-3.32
						c0.4-1.143,0.812-2.308,1.231-3.492c1.53-4.323,3.183-8.905,4.942-13.667c0.373-1.014,0.752-2.035,1.137-3.063
						c1.924-5.164,3.966-10.514,6.105-15.955c10.217-25.989,22.662-54.056,35.262-73.772c14.082-22.038,20.817-36.41,23.995-45.469
						c1.336-3.805,3.004-7.373,3.484-9.272c-1.518,2.22-3.281,4.751-5.252,7.58C305.248,212.857,283.462,244.122,272.536,270.865z"
						/>
				</g>
				<g>
					<path style="fill-rule:evenodd;clip-rule:evenodd;fill:#5C7649;" d="M353.532,174.922
						c-0.041,0.135-14.589,46.875-28.227,77.476c-6.963,15.622-22.535,30.619-38.566,46.056
						c-11.999,11.556-24.258,23.359-33.313,35.829c-1.76,4.762-3.412,9.344-4.942,13.667c12.762-21.126,38.231-39.235,57.687-59.341
						c12.866-14.623,29.529-31.485,37.708-64.486c2.803-11.316,10.552-31.322,11.523-46.064c0.326-4.966-0.63-5.843-2.335-4.148
						c-0.041,0.152-0.081,0.306-0.123,0.462c0.084-0.026,0.18-0.028,0.27-0.002C353.464,174.44,353.606,174.687,353.532,174.922z"/>
				</g>
				<g>
					<path style="fill-rule:evenodd;clip-rule:evenodd;fill:#9EB071;" d="M269.178,270.594c2.253-5.188,11.017-25.145,22.473-43.035
						c9.84-15.364,20.527-28.337,21.676-30.681c-1.365-1.683-15.368,12.472-25.748,28.196
						c-12.048,18.251-20.725,38.905-22.872,43.817c-0.715,1.755-8.899,18.885-4.462,19.051
						C263.819,289.649,268.297,272.717,269.178,270.594z"/>
				</g>
				<g>
					<path style="fill-rule:evenodd;clip-rule:evenodd;fill:#9EB071;" d="M303.295,271.742
						c10.631-13.353,17.07-24.128,23.866-39.487c1.213-2.762,18.883-43.423,18.891-43.431c1.652,3.943-12.992,39.515-15.046,44.794
						c-6.289,16.1-12.646,27.271-23.58,41.057c-1.618,1.904-23.839,28.462-25.748,23.522
						C278.046,296.844,299.777,275.917,303.295,271.742z"/>
				</g>
			</g>
		</g>
		<g>
			<path style="fill-rule:evenodd;clip-rule:evenodd;fill:#E3D9EB;" d="M355.402,388.022c1.537,1.765,2.985,4.068,4.113,6.628
				c5.138,11.665-1.568,26.973-16.074,26.84c-9.286-0.086-19.769,0.464-27.961,0.262c-8.993-0.223-15.586-5.645-15.022-16.703
				C301.528,384.055,337.059,366.964,355.402,388.022z"/>
		</g>
		<g>
			<path style="fill-rule:evenodd;clip-rule:evenodd;fill:#E3D9EB;" d="M378.534,379.161c-0.106,1.276-0.508,2.643-1.18,3.899
				c-3.061,5.73-13.383,5.994-20.119-1.866C341.06,362.324,380.499,355.719,378.534,379.161z"/>
		</g>
	</g>
</g>
</svg>
