<?xml version="1.0" encoding="UTF-8"?>
<svg version="1.1" xmlns="http://www.w3.org/2000/svg" width="512" height="512">
<path d="M0 0 C1.01545898 0.19867676 2.03091797 0.39735352 3.07714844 0.60205078 C52.9758035 10.58327711 96.53871388 34.88580573 133 70 C133.7940625 70.7528125 134.588125 71.505625 135.40625 72.28125 C140.75597303 77.46114055 145.38660506 83.16405541 150 89 C151.19109375 90.48306641 151.19109375 90.48306641 152.40625 91.99609375 C175.32205725 121.03970389 191.22147176 154.85685587 199.6875 190.8125 C199.97306763 191.99936401 199.97306763 191.99936401 200.2644043 193.21020508 C204.22851721 210.89052902 205.555362 228.61292655 205.4375 246.6875 C205.43293793 248.18546112 205.43293793 248.18546112 205.42828369 249.71368408 C205.35621635 265.78341917 204.43972751 281.25213186 201 297 C200.78037598 298.02625488 200.56075195 299.05250977 200.33447266 300.10986328 C191.83138831 338.85817193 174.61772522 375.56726438 149 406 C148.57138672 406.51739746 148.14277344 407.03479492 147.70117188 407.56787109 C137.18164284 420.2564129 126.03816903 431.86528878 113 442 C111.52660156 443.18142578 111.52660156 443.18142578 110.0234375 444.38671875 C79.03075655 469.0530687 42.45229279 485.30136285 3.75 493.25 C3.01966553 493.40114258 2.28933105 493.55228516 1.53686523 493.70800781 C-13.82073758 496.67407563 -29.02143327 497.37492896 -44.625 497.3125 C-45.59588562 497.31034485 -46.56677124 497.3081897 -47.56707764 497.30596924 C-61.90585186 497.25491637 -75.90546967 496.85949913 -90 494 C-91.01545898 493.80132324 -92.03091797 493.60264648 -93.07714844 493.39794922 C-142.9758035 483.41672289 -186.53871388 459.11419427 -223 424 C-223.7940625 423.2471875 -224.588125 422.494375 -225.40625 421.71875 C-230.75597303 416.53885945 -235.38660506 410.83594459 -240 405 C-240.7940625 404.01128906 -241.588125 403.02257812 -242.40625 402.00390625 C-266.9776499 370.86198961 -283.32468106 334.48759715 -291.25 295.6875 C-291.47671387 294.57942993 -291.47671387 294.57942993 -291.70800781 293.44897461 C-292.18439803 290.97158418 -292.60252786 288.49133778 -293 286 C-293.17805176 284.88423584 -293.35610352 283.76847168 -293.53955078 282.61889648 C-295.19998488 270.98027732 -295.3987437 259.43103747 -295.375 247.6875 C-295.37445618 246.6738739 -295.37391235 245.6602478 -295.37335205 244.61590576 C-295.33347417 228.41878779 -294.46747801 212.87491635 -291 197 C-290.78037598 195.97374512 -290.56075195 194.94749023 -290.33447266 193.89013672 C-279.82149525 145.98280374 -255.85138923 104.15003587 -222 69 C-221.2471875 68.2059375 -220.494375 67.411875 -219.71875 66.59375 C-214.53885945 61.24402697 -208.83594459 56.61339494 -203 52 C-202.01128906 51.2059375 -201.02257812 50.411875 -200.00390625 49.59375 C-167.66655102 24.07913264 -130.33332447 7.86607287 -90 0 C-89.17274414 -0.16661133 -88.34548828 -0.33322266 -87.49316406 -0.50488281 C-59.91781494 -5.80488028 -27.50199116 -5.57960557 0 0 Z " fill="#4D3292" transform="translate(301,9)"/>
<path d="M0 0 C7.06052561 2.54482135 11.41309671 10.97033714 15.359375 17.04296875 C15.91866699 17.90281372 15.91866699 17.90281372 16.48925781 18.7800293 C21.95370416 27.44610615 24.92994068 36.08706085 24.796875 46.29296875 C24.79010742 47.04392822 24.78333984 47.7948877 24.77636719 48.56860352 C24.67685406 53.90470546 24.25573186 58.83068224 22.546875 63.91796875 C22.30195313 64.68882812 22.05703125 65.4596875 21.8046875 66.25390625 C19.0304135 74.03660411 14.5328279 81.55683733 8.94926453 87.66595459 C7.0269448 90.75289382 7.18617417 92.99181877 7.20629883 96.61425781 C7.20586075 97.27808472 7.20542267 97.94191162 7.20497131 98.62585449 C7.20705529 100.81207057 7.23036645 102.99751225 7.25390625 105.18359375 C7.25950363 106.70244935 7.26377306 108.22131038 7.26676941 109.74017334 C7.2782071 113.73188307 7.30766473 117.72326375 7.34088135 121.71484375 C7.3716056 125.79031931 7.38527976 129.86584819 7.40039062 133.94140625 C7.43253572 141.93374452 7.48371876 149.92581566 7.546875 157.91796875 C8.37832031 157.35207031 9.20976562 156.78617188 10.06640625 156.203125 C11.15308594 155.46964844 12.23976563 154.73617187 13.359375 153.98046875 C14.43832031 153.24957031 15.51726562 152.51867187 16.62890625 151.765625 C19.546875 149.91796875 19.546875 149.91796875 22.546875 148.91796875 C22.464375 147.65984375 22.381875 146.40171875 22.296875 145.10546875 C22.32581427 135.90278247 26.26979655 127.53207155 32.546875 120.91796875 C46.90569849 107.24425811 66.28439363 105.29512462 85.19921875 105.68359375 C93.7809007 105.98315023 102.13915988 107.18006116 110.546875 108.91796875 C105.38478771 127.22979419 84.23473376 144.31624315 68.546875 153.91796875 C64.96060475 155.88802654 61.38609976 157.50834294 57.546875 158.91796875 C56.31324219 159.39363281 56.31324219 159.39363281 55.0546875 159.87890625 C50.7607288 161.30152478 47.06208367 162.0551478 42.5546875 161.60546875 C28.56728823 160.333887 20.96008488 165.88178341 10.32421875 174.6328125 C8.546875 175.91796875 8.546875 175.91796875 6.546875 175.91796875 C6.546875 187.46796875 6.546875 199.01796875 6.546875 210.91796875 C12.03441406 210.88316406 12.03441406 210.88316406 17.6328125 210.84765625 C21.16405897 210.83207243 24.69530165 210.81992045 28.2265625 210.80810547 C30.68654079 210.79802892 33.14650706 210.78436744 35.60644531 210.76708984 C39.13609785 210.74291414 42.66559247 210.73150235 46.1953125 210.72265625 C47.85317276 210.70717239 47.85317276 210.70717239 49.54452515 210.69137573 C51.07588608 210.69114914 51.07588608 210.69114914 52.63818359 210.69091797 C53.53975189 210.68647675 54.44132019 210.68203552 55.37020874 210.67745972 C57.546875 210.91796875 57.546875 210.91796875 59.546875 212.91796875 C59.74539602 215.62719676 59.82526977 218.21100054 59.796875 220.91796875 C59.80460938 221.6553125 59.81234375 222.39265625 59.8203125 223.15234375 C59.8001946 228.66464915 59.8001946 228.66464915 57.546875 230.91796875 C55.49475098 231.16965103 55.49475098 231.16965103 52.91601562 231.17193604 C51.94011475 231.17757568 50.96421387 231.18321533 49.95874023 231.18902588 C48.88438721 231.18497742 47.81003418 231.18092896 46.703125 231.17675781 C45.57463135 231.18026245 44.4461377 231.18376709 43.28344727 231.18737793 C39.53786136 231.19621006 35.79246297 231.19034079 32.046875 231.18359375 C29.45377567 231.18493997 26.86067659 231.18688014 24.26757812 231.18939209 C18.82679618 231.19234537 13.38608525 231.18822875 7.9453125 231.17871094 C1.65027773 231.16782606 -4.64462749 231.17135154 -10.93965912 231.18236375 C-16.98916926 231.19252389 -23.03861589 231.19146048 -29.08813477 231.18560028 C-31.66544615 231.18426226 -34.24276081 231.18591681 -36.82006836 231.19055939 C-40.41659412 231.19561551 -44.01286808 231.18792709 -47.609375 231.17675781 C-49.22090454 231.18283051 -49.22090454 231.18283051 -50.86499023 231.18902588 C-51.84089111 231.18338623 -52.81679199 231.17774658 -53.82226562 231.17193604 C-54.67324829 231.17118198 -55.52423096 231.17042793 -56.40100098 231.16965103 C-58.453125 230.91796875 -58.453125 230.91796875 -60.453125 228.91796875 C-60.65164602 226.20874074 -60.73151977 223.62493696 -60.703125 220.91796875 C-60.71472656 219.81195313 -60.71472656 219.81195313 -60.7265625 218.68359375 C-60.7064446 213.17128835 -60.7064446 213.17128835 -58.453125 210.91796875 C-56.27645874 210.67745972 -56.27645874 210.67745972 -53.54443359 210.69091797 C-52.52352631 210.69106903 -51.50261902 210.69122009 -50.45077515 210.69137573 C-48.79291489 210.70685959 -48.79291489 210.70685959 -47.1015625 210.72265625 C-45.9723941 210.72548615 -44.84322571 210.72831604 -43.67984009 210.73123169 C-40.06249529 210.74245413 -36.44539534 210.76756253 -32.828125 210.79296875 C-30.3802119 210.80299588 -27.93229493 210.81212219 -25.484375 210.8203125 C-19.47378741 210.8407012 -13.46373126 210.87984651 -7.453125 210.91796875 C-7.453125 199.36796875 -7.453125 187.81796875 -7.453125 175.91796875 C-9.103125 175.25796875 -10.753125 174.59796875 -12.453125 173.91796875 C-14.27978516 172.58935547 -14.27978516 172.58935547 -15.9921875 171.09765625 C-25.57113503 163.24358087 -31.71714601 160.9099048 -44.01171875 161.73046875 C-57.95166291 162.63154105 -72.38121472 153.10388169 -82.69140625 144.4296875 C-109.5846519 119.97090822 -109.5846519 119.97090822 -111.453125 108.91796875 C-87.87705076 103.66494425 -61.19796132 103.08938393 -39.6875 115.515625 C-31.60840816 121.32762474 -25.30523918 130.04002646 -23.453125 139.91796875 C-23.2484349 142.96971209 -23.30720104 145.85356564 -23.453125 148.91796875 C-22.73769531 149.17320312 -22.02226562 149.4284375 -21.28515625 149.69140625 C-18.25065882 151.00565755 -15.82123589 152.61292891 -13.140625 154.54296875 C-12.25761719 155.17460937 -11.37460938 155.80625 -10.46484375 156.45703125 C-9.80097656 156.93914062 -9.13710937 157.42125 -8.453125 157.91796875 C-8.24329259 149.27666934 -8.08403581 140.63645834 -7.98681545 131.99322987 C-7.9401197 127.9783676 -7.87694142 123.96526541 -7.77416992 119.95141602 C-7.67535996 116.06735523 -7.62236052 112.18497127 -7.59922981 108.29974937 C-7.58277834 106.82815876 -7.55065557 105.35664548 -7.50155449 103.88578224 C-7.17760854 93.76618911 -8.98501391 87.57835955 -15.22840881 79.73124695 C-18.34749513 75.78698763 -20.44261463 71.50419321 -22.453125 66.91796875 C-22.80503906 66.14453125 -23.15695313 65.37109375 -23.51953125 64.57421875 C-27.65239442 52.81544487 -26.62797713 38.49085011 -22 27.12890625 C-17.70084777 18.20490843 -11.8884143 10.41647977 -5.453125 2.91796875 C-4.98390625 2.30953125 -4.5146875 1.70109375 -4.03125 1.07421875 C-2.453125 -0.08203125 -2.453125 -0.08203125 0 0 Z " fill="#FCFBFD" transform="translate(256.453125,95.08203125)"/>
<path d="M0 0 C30.36 0 60.72 0 92 0 C90.76176474 10.52499971 89.46753067 20.87112962 87.65234375 31.28515625 C87.32112761 33.22047817 86.98991319 35.15580039 86.65879917 37.09113979 C86.20366311 39.74494143 85.74452111 42.39804333 85.28533936 45.05114746 C84.47570241 49.7328067 83.67137074 54.41537792 82.86878967 59.09825134 C82.44350693 61.57725963 82.01623624 64.05592798 81.58665466 66.53419495 C81.39297806 67.65994431 81.19930145 68.78569366 80.99975586 69.94555664 C80.83035995 70.92464493 80.66096405 71.90373322 80.48643494 72.91249084 C79.90610734 76.59595731 79.46251329 80.29989368 79 84 C57.22 84 35.44 84 13 84 C9.875 64.75 9.875 64.75 8.84301758 58.39111328 C7.32032466 49.02463159 5.78291002 39.6610653 4.19921875 30.3046875 C4.05937561 29.47626343 3.91953247 28.64783936 3.77545166 27.79431152 C3.11490651 23.88250408 2.45033517 19.97146065 1.77880859 16.06152344 C1.54116867 14.65823232 1.30369172 13.25491359 1.06640625 11.8515625 C0.85959229 10.64322754 0.65277832 9.43489258 0.43969727 8.18994141 C0 5 0 5 0 0 Z " fill="#FDFDFE" transform="translate(210,333)"/>
<path d="M0 0 C4.55555556 0.55555556 4.55555556 0.55555556 6 2 C6.36760731 4.32817964 6.70241581 6.6618385 7 9 C7.7425 8.484375 8.485 7.96875 9.25 7.4375 C12 6 12 6 14.3125 6.3125 C14.869375 6.539375 15.42625 6.76625 16 7 C16.33 8.65 16.66 10.3 17 12 C15.54550599 13.0055761 14.08627557 14.00430435 12.625 15 C11.81289063 15.556875 11.00078125 16.11375 10.1640625 16.6875 C8 18 8 18 6 18 C6.495 24.93 6.495 24.93 7 32 C8.65 31.01 10.3 30.02 12 29 C14.3125 29.3125 14.3125 29.3125 16 30 C16.33 31.65 16.66 33.3 17 35 C15.54550599 36.0055761 14.08627557 37.00430435 12.625 38 C11.81289063 38.556875 11.00078125 39.11375 10.1640625 39.6875 C8 41 8 41 6 41 C6 47.27 6 53.54 6 60 C3.36 60 0.72 60 -2 60 C-2 53.73 -2 47.46 -2 41 C-3.65 40.34 -5.3 39.68 -7 39 C-9.02318078 37.70211044 -11.02866014 36.37535339 -13 35 C-12.67 33.35 -12.34 31.7 -12 30 C-10.3125 29.3125 -10.3125 29.3125 -8 29 C-6.35 29.99 -4.7 30.98 -3 32 C-2.67 27.38 -2.34 22.76 -2 18 C-4.475 17.01 -4.475 17.01 -7 16 C-9.02318078 14.70211044 -11.02866014 13.37535339 -13 12 C-12.67 10.35 -12.34 8.7 -12 7 C-10.3125 6.3125 -10.3125 6.3125 -8 6 C-5.25 7.4375 -5.25 7.4375 -3 9 C-2.87625 7.88625 -2.7525 6.7725 -2.625 5.625 C-2 2 -2 2 0 0 Z " fill="#594099" transform="translate(254,124)"/>
<path d="M0 0 C4.70588235 0.70588235 4.70588235 0.70588235 6 2 C5.98839844 2.75667969 5.97679687 3.51335937 5.96484375 4.29296875 C5.93497174 7.4551341 6.08091976 9.96450563 7 13 C10.02207074 15.72295793 13.2781945 17.39915081 17 19 C16.979375 18.030625 16.95875 17.06125 16.9375 16.0625 C17 13 17 13 18 12 C20.5 11.875 20.5 11.875 23 12 C23.495 12.495 23.495 12.495 24 13 C23.96519531 13.7940625 23.93039063 14.588125 23.89453125 15.40625 C23.8011209 18.92915451 23.97125477 21.61456749 25 25 C27.96031619 27.99030492 30.77802422 29.98207692 34.3125 32.2578125 C37 34 37 34 38 36 C37.01 37.32 36.02 38.64 35 40 C31.22699891 39.40014499 29.08254633 37.65734592 26.125 35.3125 C22.29737667 32.37495872 22.29737667 32.37495872 17.625 32.4375 C16.325625 33.2109375 16.325625 33.2109375 15 34 C11.32432432 36.05405405 11.32432432 36.05405405 8.75 35.625 C8.1725 35.41875 7.595 35.2125 7 35 C6.505 32.525 6.505 32.525 6 30 C10.75 27 10.75 27 13 27 C13 26.34 13 25.68 13 25 C12.2575 24.731875 11.515 24.46375 10.75 24.1875 C8 23 8 23 6 21.3125 C4.06675649 19.76156763 4.06675649 19.76156763 1.625 20.125 C-1.13395953 20.96017419 -1.13395953 20.96017419 -4 22.625 C-7.31486683 24.14431397 -8.60008549 24.09997234 -12 23 C-12.3125 20.75 -12.3125 20.75 -12 18 C-9.5 15.6875 -9.5 15.6875 -7 14 C-7.69867188 13.80664062 -8.39734375 13.61328125 -9.1171875 13.4140625 C-10.02726563 13.15367187 -10.93734375 12.89328125 -11.875 12.625 C-12.77992188 12.36976563 -13.68484375 12.11453125 -14.6171875 11.8515625 C-17 11 -17 11 -19 9 C-18.46428571 5.46428571 -18.46428571 5.46428571 -17 4 C-11.05948917 3.23839605 -6.30750801 5.65043124 -1 8 C-1.0309375 6.2984375 -1.0309375 6.2984375 -1.0625 4.5625 C-1 1 -1 1 0 0 Z " fill="#523895" transform="translate(191,210)"/>
<path d="M0 0 C2.625 0.375 2.625 0.375 5 1 C5 3.31 5 5.62 5 8 C5.65226562 7.71125 6.30453125 7.4225 6.9765625 7.125 C16.07313318 3.26096998 16.07313318 3.26096998 21 4 C21.66 4.66 22.32 5.32 23 6 C22.90234375 8.0234375 22.90234375 8.0234375 22 10 C20.00390625 10.9765625 20.00390625 10.9765625 17.5625 11.625 C13.89677602 12.59663002 13.89677602 12.59663002 11 15 C11.825 15.391875 12.65 15.78375 13.5 16.1875 C14.325 16.785625 15.15 17.38375 16 18 C16.3125 20.6875 16.3125 20.6875 16 23 C13.35786938 23.99079898 11.6486847 24.28259531 9.02734375 23.140625 C7.65734503 22.39288738 6.30202477 21.61745649 4.96484375 20.8125 C2.49171528 19.78981467 1.46787389 20.04549166 -1 21 C-3.00615134 22.32405988 -5.00669158 23.65668346 -7 25 C-7.66 25 -8.32 25 -9 25 C-9 25.66 -9 26.32 -9 27 C-7.02 27.66 -5.04 28.32 -3 29 C-2.375 31.375 -2.375 31.375 -2 34 C-2.66 34.66 -3.32 35.32 -4 36 C-7.20180449 35.73318296 -9.18233551 34.89743628 -12 33.3125 C-14.83201997 31.73980229 -14.83201997 31.73980229 -17.375 32.4375 C-20.50927183 34.30313799 -23.25199247 36.50217977 -26.03515625 38.85546875 C-28 40 -28 40 -30.12109375 39.92578125 C-32.54672682 38.73061485 -33.04247492 37.47360646 -34 35 C-32.21024844 33.51851668 -30.41813943 32.03988094 -28.625 30.5625 C-27.62726563 29.73878906 -26.62953125 28.91507813 -25.6015625 28.06640625 C-23 26 -23 26 -21 25 C-20.56893307 22.21663762 -20.56893307 22.21663762 -20.4375 19 C-20.09637046 13.09637046 -20.09637046 13.09637046 -19 12 C-16.5 11.875 -16.5 11.875 -14 12 C-13 13 -13 13 -12.9375 16.0625 C-12.958125 17.031875 -12.97875 18.00125 -13 19 C-9.27876007 17.39939408 -6.02190977 15.72230163 -3 13 C-2.11564863 9.99151281 -1.99417133 7.51666164 -2.0625 4.390625 C-2 2 -2 2 0 0 Z " fill="#523895" transform="translate(317,210)"/>
</svg>
