<?xml version="1.0" encoding="UTF-8"?>
<svg version="1.1" xmlns="http://www.w3.org/2000/svg" width="512" height="512">
<path d="M0 0 C1.01790619 0.00215515 2.03581238 0.0043103 3.08456421 0.00653076 C17.69363523 0.05620146 32.02575853 0.30709809 46.375 3.3125 C47.34985352 3.51117676 48.32470703 3.70985352 49.32910156 3.91455078 C97.7109774 14.03517194 141.69928269 35.9516877 177.375 70.3125 C178.3640332 71.26068604 178.3640332 71.26068604 179.37304688 72.22802734 C188.86130305 81.37247479 197.6012044 90.66984009 205.375 101.3125 C206.23306152 102.46355017 207.09113451 103.61459177 207.94921875 104.765625 C213.98736829 112.95680614 219.34595521 121.47054105 224.375 130.3125 C224.73948242 130.94430176 225.10396484 131.57610352 225.47949219 132.22705078 C247.08534998 169.97532572 256.85198095 212.74189997 256.6875 255.9375 C256.68534485 256.95540619 256.6831897 257.97331238 256.68096924 259.02206421 C256.63129854 273.63113523 256.38040191 287.96325853 253.375 302.3125 C253.07698486 303.77478027 253.07698486 303.77478027 252.77294922 305.26660156 C242.65232806 353.6484774 220.7358123 397.63678269 186.375 433.3125 C185.74287598 433.97185547 185.11075195 434.63121094 184.45947266 435.31054688 C175.31502521 444.79880305 166.01765991 453.5387044 155.375 461.3125 C154.22394983 462.17056152 153.07290823 463.02863451 151.921875 463.88671875 C143.73224019 469.92427396 135.22961724 475.30707302 126.375 480.3125 C125.66778809 480.7146875 124.96057617 481.116875 124.23193359 481.53125 C101.09654164 494.5566741 75.92537591 503.30551461 49.9375 508.625 C49.21860596 508.77235596 48.49971191 508.91971191 47.7590332 509.0715332 C33.08339502 511.86090125 18.55831162 512.66142619 3.64770508 512.62817383 C0.70811513 512.6250221 -2.2304558 512.64854926 -5.16992188 512.67382812 C-18.54306192 512.71848737 -31.43916711 511.51301542 -44.625 509.3125 C-46.33055054 509.03031616 -46.33055054 509.03031616 -48.07055664 508.74243164 C-91.33802759 500.97044532 -132.38793216 480.98345309 -165.625 452.3125 C-166.37007813 451.67828125 -167.11515625 451.0440625 -167.8828125 450.390625 C-181.38779833 438.57948485 -194.05918743 425.82889772 -204.625 411.3125 C-205.48149066 410.16255169 -206.33826433 409.01281411 -207.1953125 407.86328125 C-213.23534209 399.67315742 -218.61867614 391.16870382 -223.625 382.3125 C-224.0271875 381.60528809 -224.429375 380.89807617 -224.84375 380.16943359 C-237.8691741 357.03404164 -246.61801461 331.86287591 -251.9375 305.875 C-252.08485596 305.15610596 -252.23221191 304.43721191 -252.3840332 303.6965332 C-255.35789088 288.05024391 -255.99800362 272.57681954 -255.9375 256.6875 C-255.93534485 255.66959381 -255.9331897 254.65168762 -255.93096924 253.60293579 C-255.88129854 238.99386477 -255.63040191 224.66174147 -252.625 210.3125 C-252.42632324 209.33764648 -252.22764648 208.36279297 -252.02294922 207.35839844 C-241.90232806 158.9765226 -219.9858123 114.98821731 -185.625 79.3125 C-184.99287598 78.65314453 -184.36075195 77.99378906 -183.70947266 77.31445312 C-174.56502521 67.82619695 -165.26765991 59.0862956 -154.625 51.3125 C-153.47394983 50.45443848 -152.32290823 49.59636549 -151.171875 48.73828125 C-142.98224019 42.70072604 -134.47961724 37.31792698 -125.625 32.3125 C-124.91778809 31.9103125 -124.21057617 31.508125 -123.48193359 31.09375 C-100.34654164 18.0683259 -75.17537591 9.31948539 -49.1875 4 C-48.46860596 3.85264404 -47.74971191 3.70528809 -47.0090332 3.5534668 C-31.36274391 0.57960912 -15.88931954 -0.06050362 0 0 Z " fill="#743BBC" transform="translate(255.625,-0.3125)"/>
<path d="M0 0 C14.11449981 12.31039081 23.84731402 26.34656994 31.55859375 43.359375 C31.98011719 44.2875 32.40164063 45.215625 32.8359375 46.171875 C43.6226452 71.57151879 42.56737519 103.54490796 32.40380859 128.93188477 C29.94611942 134.77585289 27.05782164 140.29035876 23.84375 145.7578125 C22.26332671 148.47347529 22.26332671 148.47347529 22.55859375 152.359375 C24.31640744 154.67090999 24.31640744 154.67090999 26.71484375 156.90625 C27.57207031 157.75058594 28.42929687 158.59492188 29.3125 159.46484375 C30.21871094 160.33753906 31.12492188 161.21023438 32.05859375 162.109375 C32.96480469 162.99753906 33.87101563 163.88570312 34.8046875 164.80078125 C37.04730991 166.99619056 39.29872143 169.18174887 41.55859375 171.359375 C42.25984375 171.00875 42.96109375 170.658125 43.68359375 170.296875 C47.36116246 169.09766781 48.83450325 169.2089189 52.55859375 170.359375 C55.53332981 172.59789225 58.08248886 175.2211721 60.68774414 177.87329102 C61.48038162 178.66037949 62.2730191 179.44746796 63.0896759 180.25840759 C65.70764459 182.86456309 68.30711479 185.48835282 70.90625 188.11328125 C72.72328056 189.93202299 74.54120025 191.74987684 76.35997009 193.56687927 C80.17144806 197.38001165 83.97452967 201.20122649 87.77075195 205.02954102 C92.1463846 209.44198598 96.53582369 213.84029884 100.93338782 218.23087937 C105.17574827 222.466909 109.40935002 226.71155822 113.63891411 230.96037102 C115.43307402 232.76154506 117.22917471 234.56078809 119.02726936 236.35803413 C121.54532707 238.87789802 124.05333223 241.40736029 126.55883789 243.93969727 C127.2981958 244.67612457 128.03755371 245.41255188 128.79931641 246.17129517 C134.70521855 252.17460267 140.51889271 258.63340299 140.93359375 267.421875 C140.66875631 278.38614513 133.24401852 285.31987661 125.8125 292.4765625 C119.54853666 298.24222404 113.49825941 301.9304 104.87890625 301.66015625 C85.65497766 299.16816551 64.17702433 268.40477714 51.27856445 255.59423828 C47.66420097 252.00679941 44.03911212 248.43073166 40.40454102 244.86376953 C35.99877237 240.53970239 31.61272538 236.19653719 27.2401638 231.83890152 C25.5743785 230.18538117 23.90170072 228.5387746 22.22210121 226.89928818 C19.88335689 224.61372362 17.57079763 222.30448234 15.26293945 219.98779297 C14.5643985 219.31644318 13.86585754 218.64509338 13.14614868 217.95339966 C11.37805385 216.15002945 9.85996337 214.52385136 8.55859375 212.359375 C8.63957214 208.63259888 8.63957214 208.63259888 9.55859375 205.359375 C9.97296002 201.41393874 9.97296002 201.41393874 7.81445312 199.16113281 C7.01845703 198.38608398 6.22246094 197.61103516 5.40234375 196.8125 C4.54511719 195.96816406 3.68789063 195.12382812 2.8046875 194.25390625 C1.89847656 193.38121094 0.99226562 192.50851562 0.05859375 191.609375 C-0.84761719 190.72121094 -1.75382813 189.83304688 -2.6875 188.91796875 C-4.93012241 186.72255944 -7.18153393 184.53700113 -9.44140625 182.359375 C-10.12380371 182.74464355 -10.80620117 183.12991211 -11.50927734 183.52685547 C-20.85283999 188.72488713 -30.38570726 192.75631665 -40.44140625 196.359375 C-41.11848633 196.60526367 -41.79556641 196.85115234 -42.49316406 197.10449219 C-52.73360134 200.63768071 -63.10558906 200.71612933 -73.81640625 200.734375 C-74.85154358 200.73763794 -74.85154358 200.73763794 -75.90759277 200.7409668 C-106.46393517 200.73006226 -133.30238534 188.33421305 -155.06640625 167.234375 C-176.77756365 145.33792999 -187.89731889 115.34700107 -187.80712891 84.77734375 C-187.29275251 53.895884 -174.09743985 26.66065487 -152.84375 4.671875 C-110.66172162 -34.83519548 -44.27025386 -37.53587609 0 0 Z " fill="#F8F6FB" transform="translate(279.44140625,118.640625)"/>
<path d="M0 0 C3.47288842 2.8634254 6.74736924 5.89070551 10 9 C10.61617187 9.54140625 11.23234375 10.0828125 11.8671875 10.640625 C26.94899054 24.40190151 34.29384402 45.2938503 35.30859375 65.171875 C36.04565462 88.66122796 29.80956825 109.25881156 14 127 C13.33484375 127.75925781 12.6696875 128.51851562 11.984375 129.30078125 C3.16043125 138.76200983 -8.08465345 145.18437272 -20 150 C-20.68320313 150.29519531 -21.36640625 150.59039062 -22.0703125 150.89453125 C-38.86796361 157.79720974 -62.28011395 157.91389883 -79 151 C-79.95390625 150.62617188 -80.9078125 150.25234375 -81.890625 149.8671875 C-93.10016695 145.13914047 -102.24804396 138.36030224 -111 130 C-111.61488281 129.45988281 -112.22976562 128.91976562 -112.86328125 128.36328125 C-125.9683041 116.40306499 -134.72397487 96.53954545 -136 79 C-136.08121094 77.90171875 -136.16242188 76.8034375 -136.24609375 75.671875 C-136.81032572 59.87337973 -133.76714115 43.82551125 -126 30 C-125.2884375 28.68515625 -125.2884375 28.68515625 -124.5625 27.34375 C-113.48677547 7.84084376 -95.50951202 -7.00445938 -73.83984375 -13.26171875 C-48.3657104 -19.93364998 -21.50277291 -15.51558317 0 0 Z " fill="#743BBC" transform="translate(256,136)"/>
<path d="M0 0 C0.83402344 0.19335938 1.66804687 0.38671875 2.52734375 0.5859375 C28.07331672 7.13182741 50.68153 25.54593208 64 48 C78.52153096 73.83565224 83.11340936 101.45596392 75.39794922 130.24658203 C70.51324803 147.39609099 62.6315182 161.53476487 51 175 C50.35546875 175.74765625 49.7109375 176.4953125 49.046875 177.265625 C31.22649644 196.32568207 3.92642341 208.09791655 -21.96484375 209.25390625 C-49.95691628 210.07698309 -76.62913831 201.50069211 -97.4375 182.375 C-99.30696276 180.59845228 -101.15292038 178.80000262 -103 177 C-103.96486328 176.14535156 -103.96486328 176.14535156 -104.94921875 175.2734375 C-121.72247246 160.02502503 -131.72807059 134.14420716 -133.20458984 111.9206543 C-133.30180413 108.81892643 -133.32889847 105.72816925 -133.3125 102.625 C-133.30831055 101.53155273 -133.30412109 100.43810547 -133.29980469 99.31152344 C-133.1857504 91.14086838 -132.33369181 83.85979319 -130 76 C-129.59974609 74.43378906 -129.59974609 74.43378906 -129.19140625 72.8359375 C-125.31396257 58.67034325 -118.35035873 46.2687944 -109 35 C-108.31421875 34.15050781 -107.6284375 33.30101562 -106.921875 32.42578125 C-81.17861868 2.05827333 -38.23072792 -10.44875578 0 0 Z M-90.9375 45 C-107.90522264 64.8953631 -114.6198997 89.17141343 -112.7890625 114.97265625 C-110.48170992 133.61093766 -100.73125669 149.67124751 -88 163 C-87.47148437 163.60328125 -86.94296875 164.2065625 -86.3984375 164.828125 C-76.68331353 175.48985079 -63.5683293 181.82078515 -50 186 C-48.78570312 186.37511719 -47.57140625 186.75023437 -46.3203125 187.13671875 C-40.72267213 188.48134646 -35.03865784 188.34087786 -29.3125 188.3125 C-27.57093628 188.30512817 -27.57093628 188.30512817 -25.79418945 188.29760742 C-17.76271762 188.18754087 -10.63042935 187.66054022 -3 185 C-1.92105469 184.63648438 -0.84210938 184.27296875 0.26953125 183.8984375 C11.85966766 179.71573402 21.74529796 174.14112814 31 166 C31.76183594 165.33355469 32.52367187 164.66710937 33.30859375 163.98046875 C42.97548573 154.95021783 49.71213208 143.45373403 54 131 C54.391875 129.91976562 54.78375 128.83953125 55.1875 127.7265625 C62.14976699 105.82443093 58.5707211 81.42822263 48.1875 61.3125 C36.1573264 40.21389604 16.33546434 25.41524793 -7 19 C-37.78442839 10.76336364 -69.58998498 22.32051524 -90.9375 45 Z " fill="#763FBD" transform="translate(233,103)"/>
<path d="M0 0 C3.00287814 1.34833836 5.09746535 2.84658612 7.42201233 5.16804504 C8.07947952 5.81987259 8.73694672 6.47170013 9.41433716 7.14328003 C10.12460052 7.85759186 10.83486389 8.57190369 11.56665039 9.30786133 C12.70146599 10.43741997 12.70146599 10.43741997 13.85920715 11.58979797 C16.36041454 14.08219807 18.85422932 16.58184924 21.34765625 19.08203125 C23.08323898 20.81626691 24.81911853 22.55020557 26.55528259 24.28385925 C30.19417214 27.91979877 33.82941606 31.5593348 37.4621582 35.20141602 C42.11825602 39.86889967 46.78326224 44.52735967 51.45104313 49.18315601 C55.03799888 52.76288274 58.62017481 56.347362 62.20092583 59.9332943 C63.91905338 61.65275589 65.63866753 63.37073337 67.35978889 65.08719826 C69.7656482 67.48797633 72.16499897 69.89507673 74.56274414 72.30395508 C75.27503174 73.01219421 75.98731934 73.72043335 76.72119141 74.45013428 C81.77364184 79.5461105 85.26046996 83.23364288 85.49609375 90.7421875 C84.08769013 97.15208746 79.66996533 101.80806915 75.125 106.25 C74.62097656 106.765625 74.11695313 107.28125 73.59765625 107.8125 C69.28247408 112.09457336 65.26863985 114.67068131 59.125 115.5625 C50.98118937 115.22148596 44.38996614 106.67284129 39.0234375 101.25048828 C38.27124435 100.49858719 37.51905121 99.7466861 36.74406433 98.97200012 C34.28293328 96.50948651 31.8289439 94.03998652 29.375 91.5703125 C27.66051302 89.85209158 25.94558112 88.13431451 24.23022461 86.41696167 C19.73450599 81.91363666 15.24482823 77.40433619 10.75640869 72.89373779 C6.1680826 68.28488864 1.57403189 63.68175345 -3.01953125 59.078125 C-12.01861223 50.05764696 -21.01151379 41.03103465 -30 32 C-28.89958421 28.69875263 -28.16414399 28.06421061 -25.5546875 25.921875 C-20.48381832 21.6180851 -15.81484483 16.96169193 -11.125 12.25 C-10.27164062 11.40050781 -9.41828125 10.55101562 -8.5390625 9.67578125 C-7.724375 8.85980469 -6.9096875 8.04382813 -6.0703125 7.203125 C-5.33570801 6.46739258 -4.60110352 5.73166016 -3.84423828 4.97363281 C-1.83944386 2.93552057 -1.83944386 2.93552057 0 0 Z " fill="#753DBC" transform="translate(327,297)"/>
<path d="M0 0 C1.77588501 0.01740234 1.77588501 0.01740234 3.58764648 0.03515625 C28.50528006 0.50036294 49.67184961 10.16091583 67.625 27.375 C68.58212891 28.25478516 68.58212891 28.25478516 69.55859375 29.15234375 C85.61611365 44.35155523 94.00514759 66.68847424 94.828125 88.49609375 C95.32015242 115.16090466 87.24030159 138.43733662 68.82617188 158.14916992 C51.37676877 176.23587118 28.41058314 185.99956999 3.45458984 186.70776367 C-23.43798403 187.08423359 -46.1201936 177.43734071 -65.5 158.75 C-75.87240103 148.28500328 -82.68126972 136.25084013 -87.375 122.375 C-87.7875 121.29992187 -88.2 120.22484375 -88.625 119.1171875 C-95.97349356 97.12273803 -92.4645122 71.89073082 -82.57788086 51.39135742 C-79.45217301 45.22797975 -75.78169509 39.70676467 -71.375 34.375 C-70.69953125 33.53710938 -70.0240625 32.69921875 -69.328125 31.8359375 C-52.1214556 11.55216298 -26.53124994 -0.33586276 0 0 Z M-62.3125 35.375 C-79.28022264 55.2703631 -85.9948997 79.54641343 -84.1640625 105.34765625 C-81.85670992 123.98593766 -72.10625669 140.04624751 -59.375 153.375 C-58.84648437 153.97828125 -58.31796875 154.5815625 -57.7734375 155.203125 C-48.05831353 165.86485079 -34.9433293 172.19578515 -21.375 176.375 C-20.16070312 176.75011719 -18.94640625 177.12523437 -17.6953125 177.51171875 C-12.09767213 178.85634646 -6.41365784 178.71587786 -0.6875 178.6875 C1.05406372 178.68012817 1.05406372 178.68012817 2.83081055 178.67260742 C10.86228238 178.56254087 17.99457065 178.03554022 25.625 175.375 C26.70394531 175.01148438 27.78289062 174.64796875 28.89453125 174.2734375 C40.48466766 170.09073402 50.37029796 164.51612814 59.625 156.375 C60.38683594 155.70855469 61.14867187 155.04210937 61.93359375 154.35546875 C71.60048573 145.32521783 78.33713208 133.82873403 82.625 121.375 C83.016875 120.29476562 83.40875 119.21453125 83.8125 118.1015625 C90.77476699 96.19943093 87.1957211 71.80322263 76.8125 51.6875 C64.7823264 30.58889604 44.96046434 15.79024793 21.625 9.375 C-9.15942839 1.13836364 -40.96498498 12.69551524 -62.3125 35.375 Z " fill="#F9F7FB" transform="translate(204.375,112.625)"/>
<path d="M0 0 C5.06623768 4.23816537 9.80038069 8.67408963 14.4375 13.375 C15.07365234 14.01566406 15.70980469 14.65632813 16.36523438 15.31640625 C17.91250332 16.87530879 19.45736492 18.43651416 21 20 C19.5735422 23.2586636 17.83295838 25.4024854 15.3046875 27.890625 C14.58925781 28.59960938 13.87382812 29.30859375 13.13671875 30.0390625 C12.39035156 30.76867187 11.64398438 31.49828125 10.875 32.25 C9.74384766 33.36761719 9.74384766 33.36761719 8.58984375 34.5078125 C6.73099228 36.3431342 4.86762995 38.1736191 3 40 C-0.46629835 38.51346494 -2.69022036 36.54277649 -5.328125 33.8671875 C-6.12734375 33.06152344 -6.9265625 32.25585938 -7.75 31.42578125 C-8.9875 30.16314453 -8.9875 30.16314453 -10.25 28.875 C-11.09046875 28.02550781 -11.9309375 27.17601562 -12.796875 26.30078125 C-14.86915683 24.20495077 -16.93662393 22.10459287 -19 20 C-16.59855612 16.87439565 -14.23238256 14.18666023 -11.1875 11.6875 C-7.02101128 8.13855839 -3.49311818 4.20265782 0 0 Z " fill="#743BBC" transform="translate(295,276)"/>
</svg>
